  0
SECTION
  2
HEADER
  9
$ACADVER
  1
AC1024
  9
$ACADMAINTVER
 70
6
  9
$DWGCODEPAGE
  3
ANSI_1252
  9
$LASTSAVEDBY
  1
ezdxf
  9
$INSBASE
 10
0.0
 20
0.0
 30
0.0
  9
$EXTMIN
 10
1e+20
 20
1e+20
 30
1e+20
  9
$EXTMAX
 10
-1e+20
 20
-1e+20
 30
-1e+20
  9
$LIMMIN
 10
0.0
 20
0.0
  9
$LIMMAX
 10
420.0
 20
297.0
  9
$ORTHOMODE
 70
0
  9
$REGENMODE
 70
1
  9
$FILLMODE
 70
1
  9
$QTEXTMODE
 70
0
  9
$MIRRTEXT
 70
1
  9
$LTSCALE
 40
1.0
  9
$ATTMODE
 70
1
  9
$TEXTSIZE
 40
2.5
  9
$TRACEWID
 40
1.0
  9
$TEXTSTYLE
  7
OpenSans
  9
$CLAYER
  8
0
  9
$CELTYPE
  6
ByLayer
  9
$CECOLOR
 62
256
  9
$CELTSCALE
 40
1.0
  9
$DISPSILH
 70
0
  9
$DIMSCALE
 40
1.0
  9
$DIMASZ
 40
0.175
  9
$DIMEXO
 40
0.125
  9
$DIMDLI
 40
3.75
  9
$DIMRND
 40
0.0
  9
$DIMDLE
 40
0.0
  9
$DIMEXE
 40
0.375
  9
$DIMTP
 40
0.0
  9
$DIMTM
 40
0.0
  9
$DIMTXT
 40
0.25
  9
$DIMCEN
 40
2.5
  9
$DIMTSZ
 40
0.0
  9
$DIMTOL
 70
0
  9
$DIMLIM
 70
0
  9
$DIMTIH
 70
0
  9
$DIMTOH
 70
0
  9
$DIMSE1
 70
0
  9
$DIMSE2
 70
0
  9
$DIMTAD
 70
1
  9
$DIMZIN
 70
12
  9
$DIMBLK
  1
ARCHTICK
  9
$DIMASO
 70
1
  9
$DIMSHO
 70
1
  9
$DIMPOST
  1

  9
$DIMAPOST
  1

  9
$DIMALT
 70
0
  9
$DIMALTD
 70
3
  9
$DIMALTF
 40
0.03937007874
  9
$DIMLFAC
 40
100.0
  9
$DIMTOFL
 70
1
  9
$DIMTVP
 40
0.0
  9
$DIMTIX
 70
0
  9
$DIMSOXD
 70
0
  9
$DIMSAH
 70
0
  9
$DIMBLK1
  1

  9
$DIMBLK2
  1

  9
$DIMSTYLE
  2
EZDXF
  9
$DIMCLRD
 70
0
  9
$DIMCLRE
 70
0
  9
$DIMCLRT
 70
0
  9
$DIMTFAC
 40
0.5
  9
$DIMGAP
 40
0.1
  9
$DIMJUST
 70
0
  9
$DIMSD1
 70
0
  9
$DIMSD2
 70
0
  9
$DIMTOLJ
 70
0
  9
$DIMTZIN
 70
8
  9
$DIMALTZ
 70
0
  9
$DIMALTTZ
 70
0
  9
$DIMUPT
 70
1
  9
$DIMDEC
 70
2
  9
$DIMTDEC
 70
2
  9
$DIMALTU
 70
2
  9
$DIMALTTD
 70
3
  9
$DIMTXSTY
  7
OpenSansCondensed-Light
  9
$DIMAUNIT
 70
0
  9
$DIMADEC
 70
2
  9
$DIMALTRND
 40
0.0
  9
$DIMAZIN
 70
3
  9
$DIMDSEP
 70
46
  9
$DIMATFIT
 70
3
  9
$DIMFRAC
 70
0
  9
$DIMLDRBLK
  1

  9
$DIMLUNIT
 70
2
  9
$DIMLWD
 70
-2
  9
$DIMLWE
 70
-2
  9
$DIMTMOVE
 70
2
  9
$DIMFXL
 40
1.0
  9
$DIMFXLON
 70
0
  9
$DIMJOGANG
 40
0.785398163397
  9
$DIMTFILL
 70
0
  9
$DIMTFILLCLR
 70
0
  9
$DIMARCSYM
 70
0
  9
$DIMLTYPE
  6

  9
$DIMLTEX1
  6

  9
$DIMLTEX2
  6

  9
$DIMTXTDIRECTION
 70
0
  9
$LUNITS
 70
2
  9
$LUPREC
 70
4
  9
$SKETCHINC
 40
1.0
  9
$FILLETRAD
 40
10.0
  9
$AUNITS
 70
0
  9
$AUPREC
 70
2
  9
$MENU
  1
.
  9
$ELEVATION
 40
0.0
  9
$PELEVATION
 40
0.0
  9
$THICKNESS
 40
0.0
  9
$LIMCHECK
 70
0
  9
$CHAMFERA
 40
0.0
  9
$CHAMFERB
 40
0.0
  9
$CHAMFERC
 40
0.0
  9
$CHAMFERD
 40
0.0
  9
$SKPOLY
 70
0
  9
$TDCREATE
 40
2461263.4379050927
  9
$TDUCREATE
 40
2458532.153996898
  9
$TDUPDATE
 40
2461263.4379050927
  9
$TDUUPDATE
 40
2458532.1544311
  9
$TDINDWG
 40
0.0
  9
$TDUSRTIMER
 40
0.0
  9
$USRTIMER
 70
1
  9
$ANGBASE
 50
0.0
  9
$ANGDIR
 70
0
  9
$PDMODE
 70
0
  9
$PDSIZE
 40
0.0
  9
$PLINEWID
 40
0.0
  9
$SPLFRAME
 70
0
  9
$SPLINETYPE
 70
6
  9
$SPLINESEGS
 70
8
  9
$HANDSEED
  5
A2
  9
$SURFTAB1
 70
6
  9
$SURFTAB2
 70
6
  9
$SURFTYPE
 70
6
  9
$SURFU
 70
6
  9
$SURFV
 70
6
  9
$UCSBASE
  2

  9
$UCSNAME
  2

  9
$UCSORG
 10
0.0
 20
0.0
 30
0.0
  9
$UCSXDIR
 10
1.0
 20
0.0
 30
0.0
  9
$UCSYDIR
 10
0.0
 20
1.0
 30
0.0
  9
$UCSORTHOREF
  2

  9
$UCSORTHOVIEW
 70
0
  9
$UCSORGTOP
 10
0.0
 20
0.0
 30
0.0
  9
$UCSORGBOTTOM
 10
0.0
 20
0.0
 30
0.0
  9
$UCSORGLEFT
 10
0.0
 20
0.0
 30
0.0
  9
$UCSORGRIGHT
 10
0.0
 20
0.0
 30
0.0
  9
$UCSORGFRONT
 10
0.0
 20
0.0
 30
0.0
  9
$UCSORGBACK
 10
0.0
 20
0.0
 30
0.0
  9
$PUCSBASE
  2

  9
$PUCSNAME
  2

  9
$PUCSORG
 10
0.0
 20
0.0
 30
0.0
  9
$PUCSXDIR
 10
1.0
 20
0.0
 30
0.0
  9
$PUCSYDIR
 10
0.0
 20
1.0
 30
0.0
  9
$PUCSORTHOREF
  2

  9
$PUCSORTHOVIEW
 70
0
  9
$PUCSORGTOP
 10
0.0
 20
0.0
 30
0.0
  9
$PUCSORGBOTTOM
 10
0.0
 20
0.0
 30
0.0
  9
$PUCSORGLEFT
 10
0.0
 20
0.0
 30
0.0
  9
$PUCSORGRIGHT
 10
0.0
 20
0.0
 30
0.0
  9
$PUCSORGFRONT
 10
0.0
 20
0.0
 30
0.0
  9
$PUCSORGBACK
 10
0.0
 20
0.0
 30
0.0
  9
$USERI1
 70
0
  9
$USERI2
 70
0
  9
$USERI3
 70
0
  9
$USERI4
 70
0
  9
$USERI5
 70
0
  9
$USERR1
 40
0.0
  9
$USERR2
 40
0.0
  9
$USERR3
 40
0.0
  9
$USERR4
 40
0.0
  9
$USERR5
 40
0.0
  9
$WORLDVIEW
 70
1
  9
$SHADEDGE
 70
3
  9
$SHADEDIF
 70
70
  9
$TILEMODE
 70
1
  9
$MAXACTVP
 70
64
  9
$PINSBASE
 10
0.0
 20
0.0
 30
0.0
  9
$PLIMCHECK
 70
0
  9
$PEXTMIN
 10
1e+20
 20
1e+20
 30
1e+20
  9
$PEXTMAX
 10
-1e+20
 20
-1e+20
 30
-1e+20
  9
$PLIMMIN
 10
0.0
 20
0.0
  9
$PLIMMAX
 10
420.0
 20
297.0
  9
$UNITMODE
 70
0
  9
$VISRETAIN
 70
1
  9
$PLINEGEN
 70
0
  9
$PSLTSCALE
 70
1
  9
$TREEDEPTH
 70
3020
  9
$CMLSTYLE
  2
Standard
  9
$CMLJUST
 70
0
  9
$CMLSCALE
 40
20.0
  9
$PROXYGRAPHICS
 70
1
  9
$MEASUREMENT
 70
1
  9
$CELWEIGHT
370
-1
  9
$ENDCAPS
280
0
  9
$JOINSTYLE
280
0
  9
$LWDISPLAY
290
0
  9
$INSUNITS
 70
4
  9
$HYPERLINKBASE
  1

  9
$STYLESHEET
  1

  9
$XEDIT
290
1
  9
$CEPSNTYPE
380
0
  9
$PSTYLEMODE
290
1
  9
$FINGERPRINTGUID
  2
{4ADE2DCB-49C4-422E-B70A-B2DFC7EF0AC0}
  9
$VERSIONGUID
  2
{618838EF-4AD2-4A8F-A305-B0471D7118E5}
  9
$EXTNAMES
290
1
  9
$PSVPSCALE
 40
0.0
  9
$OLESTARTUP
290
0
  9
$SORTENTS
280
127
  9
$INDEXCTL
280
0
  9
$HIDETEXT
280
1
  9
$XCLIPFRAME
280
1
  9
$HALOGAP
280
0
  9
$OBSCOLOR
 70
257
  9
$OBSLTYPE
280
0
  9
$INTERSECTIONDISPLAY
280
0
  9
$INTERSECTIONCOLOR
 70
257
  9
$DIMASSOC
280
2
  9
$PROJECTNAME
  1

  9
$CAMERADISPLAY
290
0
  9
$LENSLENGTH
 40
50.0
  9
$CAMERAHEIGHT
 40
0.0
  9
$STEPSPERSEC
 40
24.0
  9
$STEPSIZE
 40
100.0
  9
$3DDWFPREC
 40
2.0
  9
$PSOLWIDTH
 40
0.005
  9
$PSOLHEIGHT
 40
0.08
  9
$LOFTANG1
 40
1.570796326795
  9
$LOFTANG2
 40
1.570796326795
  9
$LOFTMAG1
 40
0.0
  9
$LOFTMAG2
 40
0.0
  9
$LOFTPARAM
 70
7
  9
$LOFTNORMALS
280
1
  9
$LATITUDE
 40
37.795
  9
$LONGITUDE
 40
-122.394
  9
$NORTHDIRECTION
 40
0.0
  9
$TIMEZONE
 70
-8000
  9
$LIGHTGLYPHDISPLAY
280
1
  9
$TILEMODELIGHTSYNCH
280
1
  9
$CMATERIAL
347
20
  9
$SOLIDHIST
280
0
  9
$SHOWHIST
280
1
  9
$DWFFRAME
280
2
  9
$DGNFRAME
280
2
  9
$REALWORLDSCALE
290
1
  9
$INTERFERECOLOR
 62
256
  9
$CSHADOW
280
0
  9
$SHADOWPLANELOCATION
 40
0.0
  0
ENDSEC
  0
SECTION
  2
CLASSES
  0
CLASS
  1
ACDBDICTIONARYWDFLT
  2
AcDbDictionaryWithDefault
  3
ObjectDBX Classes
 90
0
 91
0
280
0
281
0
  0
CLASS
  1
SUN
  2
AcDbSun
  3
SCENEOE
 90
1153
 91
0
280
0
281
0
  0
CLASS
  1
VISUALSTYLE
  2
AcDbVisualStyle
  3
ObjectDBX Classes
 90
4095
 91
0
280
0
281
0
  0
CLASS
  1
MATERIAL
  2
AcDbMaterial
  3
ObjectDBX Classes
 90
1153
 91
0
280
0
281
0
  0
CLASS
  1
SCALE
  2
AcDbScale
  3
ObjectDBX Classes
 90
1153
 91
0
280
0
281
0
  0
CLASS
  1
TABLESTYLE
  2
AcDbTableStyle
  3
ObjectDBX Classes
 90
4095
 91
0
280
0
281
0
  0
CLASS
  1
MLEADERSTYLE
  2
AcDbMLeaderStyle
  3
ACDB_MLEADERSTYLE_CLASS
 90
4095
 91
0
280
0
281
0
  0
CLASS
  1
DICTIONARYVAR
  2
AcDbDictionaryVar
  3
ObjectDBX Classes
 90
0
 91
0
280
0
281
0
  0
CLASS
  1
CELLSTYLEMAP
  2
AcDbCellStyleMap
  3
ObjectDBX Classes
 90
1152
 91
0
280
0
281
0
  0
CLASS
  1
MENTALRAYRENDERSETTINGS
  2
AcDbMentalRayRenderSettings
  3
SCENEOE
 90
1024
 91
0
280
0
281
0
  0
CLASS
  1
ACDBDETAILVIEWSTYLE
  2
AcDbDetailViewStyle
  3
ObjectDBX Classes
 90
1025
 91
0
280
0
281
0
  0
CLASS
  1
ACDBSECTIONVIEWSTYLE
  2
AcDbSectionViewStyle
  3
ObjectDBX Classes
 90
1025
 91
0
280
0
281
0
  0
CLASS
  1
RASTERVARIABLES
  2
AcDbRasterVariables
  3
ISM
 90
0
 91
0
280
0
281
0
  0
CLASS
  1
ACDBPLACEHOLDER
  2
AcDbPlaceHolder
  3
ObjectDBX Classes
 90
0
 91
0
280
0
281
0
  0
CLASS
  1
LAYOUT
  2
AcDbLayout
  3
ObjectDBX Classes
 90
0
 91
0
280
0
281
0
  0
ENDSEC
  0
SECTION
  2
TABLES
  0
TABLE
  2
VPORT
  5
8
330
0
100
AcDbSymbolTable
 70
1
  0
VPORT
  5
23
330
8
100
AcDbSymbolTableRecord
100
AcDbViewportTableRecord
  2
*Active
 70
0
 10
0.0
 20
0.0
 11
1.0
 21
1.0
 12
0.0
 22
0.0
 13
0.0
 23
0.0
 14
0.5
 24
0.5
 15
0.5
 25
0.5
 16
0.0
 26
0.0
 36
1.0
 17
0.0
 27
0.0
 37
0.0
 40
1000.0
 41
1.34
 42
50.0
 43
0.0
 44
0.0
 50
0.0
 51
0.0
 71
0
 72
1000
 73
1
 74
3
 75
0
 76
0
 77
0
 78
0
281
0
 65
0
146
0.0
  0
ENDTAB
  0
TABLE
  2
LTYPE
  5
2
330
0
100
AcDbSymbolTable
 70
21
  0
LTYPE
  5
24
330
2
100
AcDbSymbolTableRecord
100
AcDbLinetypeTableRecord
  2
ByBlock
 70
0
  3

 72
65
 73
0
 40
0.0
  0
LTYPE
  5
25
330
2
100
AcDbSymbolTableRecord
100
AcDbLinetypeTableRecord
  2
ByLayer
 70
0
  3

 72
65
 73
0
 40
0.0
  0
LTYPE
  5
26
330
2
100
AcDbSymbolTableRecord
100
AcDbLinetypeTableRecord
  2
Continuous
 70
0
  3

 72
65
 73
0
 40
0.0
  0
LTYPE
  5
2F
330
2
100
AcDbSymbolTableRecord
100
AcDbLinetypeTableRecord
  2
CENTER
 70
0
  3
Center ____ _ ____ _ ____ _ ____ _ ____ _ ____
 72
65
 73
4
 40
5.08
 49
3.175
 74
0
 49
-0.635
 74
0
 49
0.635
 74
0
 49
-0.635
 74
0
  0
LTYPE
  5
30
330
2
100
AcDbSymbolTableRecord
100
AcDbLinetypeTableRecord
  2
CENTERX2
 70
0
  3
Center (2x) ________  __  ________  __  ________
 72
65
 73
4
 40
8.89
 49
6.35
 74
0
 49
-0.635
 74
0
 49
1.27
 74
0
 49
-0.635
 74
0
  0
LTYPE
  5
31
330
2
100
AcDbSymbolTableRecord
100
AcDbLinetypeTableRecord
  2
CENTER2
 70
0
  3
Center (.5x) ____ _ ____ _ ____ _ ____ _ ____
 72
65
 73
4
 40
2.54
 49
1.587
 74
0
 49
-0.318
 74
0
 49
0.318
 74
0
 49
-0.318
 74
0
  0
LTYPE
  5
32
330
2
100
AcDbSymbolTableRecord
100
AcDbLinetypeTableRecord
  2
DASHED
 70
0
  3
Dashed __ __ __ __ __ __ __ __ __ __ __ __ __ _
 72
65
 73
2
 40
1.524
 49
1.27
 74
0
 49
-0.254
 74
0
  0
LTYPE
  5
33
330
2
100
AcDbSymbolTableRecord
100
AcDbLinetypeTableRecord
  2
DASHEDX2
 70
0
  3
Dashed (2x) ____  ____  ____  ____  ____  ____
 72
65
 73
2
 40
3.048
 49
2.54
 74
0
 49
-0.508
 74
0
  0
LTYPE
  5
34
330
2
100
AcDbSymbolTableRecord
100
AcDbLinetypeTableRecord
  2
DASHED2
 70
0
  3
Dashed (.5x) _ _ _ _ _ _ _ _ _ _ _ _ _ _
 72
65
 73
2
 40
0.762
 49
0.635
 74
0
 49
-0.127
 74
0
  0
LTYPE
  5
35
330
2
100
AcDbSymbolTableRecord
100
AcDbLinetypeTableRecord
  2
PHANTOM
 70
0
  3
Phantom ______  __  __  ______  __  __  ______
 72
65
 73
6
 40
6.35
 49
3.175
 74
0
 49
-0.635
 74
0
 49
0.635
 74
0
 49
-0.635
 74
0
 49
0.635
 74
0
 49
-0.635
 74
0
  0
LTYPE
  5
36
330
2
100
AcDbSymbolTableRecord
100
AcDbLinetypeTableRecord
  2
PHANTOMX2
 70
0
  3
Phantom (2x)____________    ____    ____    ____________
 72
65
 73
6
 40
10.795
 49
6.35
 74
0
 49
-0.635
 74
0
 49
1.27
 74
0
 49
-0.635
 74
0
 49
1.27
 74
0
 49
-0.635
 74
0
  0
LTYPE
  5
37
330
2
100
AcDbSymbolTableRecord
100
AcDbLinetypeTableRecord
  2
PHANTOM2
 70
0
  3
Phantom (.5x) ___ _ _ ___ _ _ ___ _ _ ___ _ _ ___
 72
65
 73
6
 40
3.175
 49
1.587
 74
0
 49
-0.318
 74
0
 49
0.318
 74
0
 49
-0.318
 74
0
 49
0.318
 74
0
 49
-0.318
 74
0
  0
LTYPE
  5
38
330
2
100
AcDbSymbolTableRecord
100
AcDbLinetypeTableRecord
  2
DASHDOT
 70
0
  3
Dash dot __ . __ . __ . __ . __ . __ . __ . __
 72
65
 73
4
 40
3.556
 49
2.54
 74
0
 49
-0.508
 74
0
 49
0.0
 74
0
 49
-0.508
 74
0
  0
LTYPE
  5
39
330
2
100
AcDbSymbolTableRecord
100
AcDbLinetypeTableRecord
  2
DASHDOTX2
 70
0
  3
Dash dot (2x) ____  .  ____  .  ____  .  ____
 72
65
 73
4
 40
6.096
 49
5.08
 74
0
 49
-0.508
 74
0
 49
0.0
 74
0
 49
-0.508
 74
0
  0
LTYPE
  5
3A
330
2
100
AcDbSymbolTableRecord
100
AcDbLinetypeTableRecord
  2
DASHDOT2
 70
0
  3
Dash dot (.5x) _ . _ . _ . _ . _ . _ . _ . _
 72
65
 73
4
 40
1.778
 49
1.27
 74
0
 49
-0.254
 74
0
 49
0.0
 74
0
 49
-0.254
 74
0
  0
LTYPE
  5
3B
330
2
100
AcDbSymbolTableRecord
100
AcDbLinetypeTableRecord
  2
DOT
 70
0
  3
Dot .  .  .  .  .  .  .  .  .  .  .  .  .  .  .  .
 72
65
 73
2
 40
0.508
 49
0.0
 74
0
 49
-0.508
 74
0
  0
LTYPE
  5
3C
330
2
100
AcDbSymbolTableRecord
100
AcDbLinetypeTableRecord
  2
DOTX2
 70
0
  3
Dot (2x) .    .    .    .    .    .    .    . 
 72
65
 73
2
 40
1.016
 49
0.0
 74
0
 49
-1.016
 74
0
  0
LTYPE
  5
3D
330
2
100
AcDbSymbolTableRecord
100
AcDbLinetypeTableRecord
  2
DOT2
 70
0
  3
Dot (.5) . . . . . . . . . . . . . . . . . . . 
 72
65
 73
2
 40
0.254
 49
0.0
 74
0
 49
-0.254
 74
0
  0
LTYPE
  5
3E
330
2
100
AcDbSymbolTableRecord
100
AcDbLinetypeTableRecord
  2
DIVIDE
 70
0
  3
Divide __ . . __ . . __ . . __ . . __ . . __
 72
65
 73
6
 40
4.064
 49
2.54
 74
0
 49
-0.508
 74
0
 49
0.0
 74
0
 49
-0.508
 74
0
 49
0.0
 74
0
 49
-0.508
 74
0
  0
LTYPE
  5
3F
330
2
100
AcDbSymbolTableRecord
100
AcDbLinetypeTableRecord
  2
DIVIDEX2
 70
0
  3
Divide (2x) ____  . .  ____  . .  ____  . .  ____
 72
65
 73
6
 40
6.604
 49
5.08
 74
0
 49
-0.508
 74
0
 49
0.0
 74
0
 49
-0.508
 74
0
 49
0.0
 74
0
 49
-0.508
 74
0
  0
LTYPE
  5
40
330
2
100
AcDbSymbolTableRecord
100
AcDbLinetypeTableRecord
  2
DIVIDE2
 70
0
  3
Divide(.5x) _ . _ . _ . _ . _ . _ . _ . _
 72
65
 73
6
 40
2.032
 49
1.27
 74
0
 49
-0.254
 74
0
 49
0.0
 74
0
 49
-0.254
 74
0
 49
0.0
 74
0
 49
-0.254
 74
0
  0
ENDTAB
  0
TABLE
  2
LAYER
  5
1
330
0
100
AcDbSymbolTable
 70
5
  0
LAYER
  5
27
330
1
100
AcDbSymbolTableRecord
100
AcDbLayerTableRecord
  2
0
 70
0
 62
7
  6
Continuous
370
-3
390
13
347
21
  0
LAYER
  5
28
330
1
100
AcDbSymbolTableRecord
100
AcDbLayerTableRecord
  2
Defpoints
 70
0
 62
7
  6
Continuous
290
0
370
-3
390
13
347
21
  0
LAYER
  5
8A
330
1
100
AcDbSymbolTableRecord
100
AcDbLayerTableRecord
  2
UST_KATMAN_KESIM
 70
0
 62
1
  6
Continuous
370
-3
390
13
347
21
  0
LAYER
  5
8B
330
1
100
AcDbSymbolTableRecord
100
AcDbLayerTableRecord
  2
ALT_KATMAN_KESIM
 70
0
 62
5
  6
Continuous
370
-3
390
13
347
21
  0
LAYER
  5
8C
330
1
100
AcDbSymbolTableRecord
100
AcDbLayerTableRecord
  2
YAZI
 70
0
 62
8
  6
Continuous
370
-3
390
13
347
21
  0
ENDTAB
  0
TABLE
  2
STYLE
  5
5
330
0
100
AcDbSymbolTable
 70
26
  0
STYLE
  5
29
330
5
100
AcDbSymbolTableRecord
100
AcDbTextStyleTableRecord
  2
Standard
 70
0
 40
0.0
 41
1.0
 50
0.0
 71
0
 42
2.5
  3
txt
  4

  0
STYLE
  5
41
330
5
100
AcDbSymbolTableRecord
100
AcDbTextStyleTableRecord
  2
OpenSans-Light
 70
0
 40
0.0
 41
1.0
 50
0.0
 71
0
 42
2.5
  3
OpenSans-Light.ttf
  4

  0
STYLE
  5
42
330
5
100
AcDbSymbolTableRecord
100
AcDbTextStyleTableRecord
  2
OpenSans-Light-Italic
 70
0
 40
0.0
 41
1.0
 50
0.0
 71
0
 42
2.5
  3
OpenSans-LightItalic.ttf
  4

  0
STYLE
  5
43
330
5
100
AcDbSymbolTableRecord
100
AcDbTextStyleTableRecord
  2
OpenSans
 70
0
 40
0.0
 41
1.0
 50
0.0
 71
0
 42
2.5
  3
OpenSans-Regular.ttf
  4

  0
STYLE
  5
44
330
5
100
AcDbSymbolTableRecord
100
AcDbTextStyleTableRecord
  2
OpenSans-Italic
 70
0
 40
0.0
 41
1.0
 50
0.0
 71
0
 42
2.5
  3
OpenSans-Italic.ttf
  4

  0
STYLE
  5
45
330
5
100
AcDbSymbolTableRecord
100
AcDbTextStyleTableRecord
  2
OpenSans-SemiBold
 70
0
 40
0.0
 41
1.0
 50
0.0
 71
0
 42
2.5
  3
OpenSans-SemiBold.ttf
  4

  0
STYLE
  5
46
330
5
100
AcDbSymbolTableRecord
100
AcDbTextStyleTableRecord
  2
OpenSans-SemiBoldItalic
 70
0
 40
0.0
 41
1.0
 50
0.0
 71
0
 42
2.5
  3
OpenSans-SemiBoldItalic.ttf
  4

  0
STYLE
  5
47
330
5
100
AcDbSymbolTableRecord
100
AcDbTextStyleTableRecord
  2
OpenSans-Bold
 70
0
 40
0.0
 41
1.0
 50
0.0
 71
0
 42
2.5
  3
OpenSans-Bold.ttf
  4

  0
STYLE
  5
48
330
5
100
AcDbSymbolTableRecord
100
AcDbTextStyleTableRecord
  2
OpenSans-BoldItalic
 70
0
 40
0.0
 41
1.0
 50
0.0
 71
0
 42
2.5
  3
OpenSans-BoldItalic.ttf
  4

  0
STYLE
  5
49
330
5
100
AcDbSymbolTableRecord
100
AcDbTextStyleTableRecord
  2
OpenSans-ExtraBold
 70
0
 40
0.0
 41
1.0
 50
0.0
 71
0
 42
2.5
  3
OpenSans-ExtraBold.ttf
  4

  0
STYLE
  5
4A
330
5
100
AcDbSymbolTableRecord
100
AcDbTextStyleTableRecord
  2
OpenSans-ExtraBoldItalic
 70
0
 40
0.0
 41
1.0
 50
0.0
 71
0
 42
2.5
  3
OpenSans-ExtraBoldItalic.ttf
  4

  0
STYLE
  5
4B
330
5
100
AcDbSymbolTableRecord
100
AcDbTextStyleTableRecord
  2
OpenSansCondensed-Bold
 70
0
 40
0.0
 41
1.0
 50
0.0
 71
0
 42
2.5
  3
OpenSansCondensed-Bold.ttf
  4

  0
STYLE
  5
4C
330
5
100
AcDbSymbolTableRecord
100
AcDbTextStyleTableRecord
  2
OpenSansCondensed-Light
 70
0
 40
0.0
 41
1.0
 50
0.0
 71
0
 42
2.5
  3
OpenSansCondensed-Light.ttf
  4

  0
STYLE
  5
4D
330
5
100
AcDbSymbolTableRecord
100
AcDbTextStyleTableRecord
  2
OpenSansCondensed-Italic
 70
0
 40
0.0
 41
1.0
 50
0.0
 71
0
 42
2.5
  3
OpenSansCondensed-LightItalic.ttf
  4

  0
STYLE
  5
4E
330
5
100
AcDbSymbolTableRecord
100
AcDbTextStyleTableRecord
  2
LiberationSans
 70
0
 40
0.0
 41
1.0
 50
0.0
 71
0
 42
2.5
  3
LiberationSans-Regular.ttf
  4

  0
STYLE
  5
4F
330
5
100
AcDbSymbolTableRecord
100
AcDbTextStyleTableRecord
  2
LiberationSans-Bold
 70
0
 40
0.0
 41
1.0
 50
0.0
 71
0
 42
2.5
  3
LiberationSans-Bold.ttf
  4

  0
STYLE
  5
50
330
5
100
AcDbSymbolTableRecord
100
AcDbTextStyleTableRecord
  2
LiberationSans-BoldItalic
 70
0
 40
0.0
 41
1.0
 50
0.0
 71
0
 42
2.5
  3
LiberationSans-BoldItalic.ttf
  4

  0
STYLE
  5
51
330
5
100
AcDbSymbolTableRecord
100
AcDbTextStyleTableRecord
  2
LiberationSans-Italic
 70
0
 40
0.0
 41
1.0
 50
0.0
 71
0
 42
2.5
  3
LiberationSans-Italic.ttf
  4

  0
STYLE
  5
52
330
5
100
AcDbSymbolTableRecord
100
AcDbTextStyleTableRecord
  2
LiberationSerif
 70
0
 40
0.0
 41
1.0
 50
0.0
 71
0
 42
2.5
  3
LiberationSerif-Regular.ttf
  4

  0
STYLE
  5
53
330
5
100
AcDbSymbolTableRecord
100
AcDbTextStyleTableRecord
  2
LiberationSerif-Bold
 70
0
 40
0.0
 41
1.0
 50
0.0
 71
0
 42
2.5
  3
LiberationSerif-Bold.ttf
  4

  0
STYLE
  5
54
330
5
100
AcDbSymbolTableRecord
100
AcDbTextStyleTableRecord
  2
LiberationSerif-BoldItalic
 70
0
 40
0.0
 41
1.0
 50
0.0
 71
0
 42
2.5
  3
LiberationSerif-BoldItalic.ttf
  4

  0
STYLE
  5
55
330
5
100
AcDbSymbolTableRecord
100
AcDbTextStyleTableRecord
  2
LiberationSerif-Italic
 70
0
 40
0.0
 41
1.0
 50
0.0
 71
0
 42
2.5
  3
LiberationSerif-Italic.ttf
  4

  0
STYLE
  5
56
330
5
100
AcDbSymbolTableRecord
100
AcDbTextStyleTableRecord
  2
LiberationMono
 70
0
 40
0.0
 41
1.0
 50
0.0
 71
0
 42
2.5
  3
LiberationMono-Regular.ttf
  4

  0
STYLE
  5
57
330
5
100
AcDbSymbolTableRecord
100
AcDbTextStyleTableRecord
  2
LiberationMono-Bold
 70
0
 40
0.0
 41
1.0
 50
0.0
 71
0
 42
2.5
  3
LiberationMono-Bold.ttf
  4

  0
STYLE
  5
58
330
5
100
AcDbSymbolTableRecord
100
AcDbTextStyleTableRecord
  2
LiberationMono-BoldItalic
 70
0
 40
0.0
 41
1.0
 50
0.0
 71
0
 42
2.5
  3
LiberationMono-BoldItalic.ttf
  4

  0
STYLE
  5
59
330
5
100
AcDbSymbolTableRecord
100
AcDbTextStyleTableRecord
  2
LiberationMono-Italic
 70
0
 40
0.0
 41
1.0
 50
0.0
 71
0
 42
2.5
  3
LiberationMono-Italic.ttf
  4

  0
ENDTAB
  0
TABLE
  2
VIEW
  5
7
330
0
100
AcDbSymbolTable
 70
0
  0
ENDTAB
  0
TABLE
  2
UCS
  5
6
330
0
100
AcDbSymbolTable
 70
0
  0
ENDTAB
  0
TABLE
  2
APPID
  5
3
330
0
100
AcDbSymbolTable
 70
3
  0
APPID
  5
2A
330
3
100
AcDbSymbolTableRecord
100
AcDbRegAppTableRecord
  2
ACAD
 70
0
  0
APPID
  5
9F
330
3
100
AcDbSymbolTableRecord
100
AcDbRegAppTableRecord
  2
HATCHBACKGROUNDCOLOR
 70
0
  0
APPID
  5
A0
330
3
100
AcDbSymbolTableRecord
100
AcDbRegAppTableRecord
  2
EZDXF
 70
0
  0
ENDTAB
  0
TABLE
  2
DIMSTYLE
  5
4
330
0
100
AcDbSymbolTable
 70
12
100
AcDbDimStyleTable
  0
DIMSTYLE
105
2B
330
4
100
AcDbSymbolTableRecord
100
AcDbDimStyleTableRecord
  2
Standard
 70
0
 40
1.0
 41
2.5
 42
0.625
 43
3.75
 44
1.25
 45
0.0
 46
0.0
 47
0.0
 48
0.0
 49
2.5
140
2.5
141
2.5
142
0.0
143
0.03937007874
144
1.0
145
0.0
146
1.0
147
0.625
148
0.0
 69
0
 70
0
 71
0
 72
0
 73
0
 74
0
 75
0
 76
0
 77
1
 78
8
 79
3
170
0
171
3
172
1
173
0
174
0
175
0
176
0
177
0
178
0
179
2
271
2
272
2
273
2
274
3
275
0
276
0
277
2
278
44
279
0
280
0
281
0
282
0
283
0
284
8
285
0
286
0
288
0
289
3
290
0
371
-2
372
-2
  0
DIMSTYLE
105
73
330
4
100
AcDbSymbolTableRecord
100
AcDbDimStyleTableRecord
  2
EZDXF
 70
0
 40
1.0
 41
0.175
 42
0.125
 43
3.75
 44
0.375
 45
0.0
 46
0.0
 47
0.0
 48
0.0
 49
2.5
140
0.25
141
2.5
142
0.0
143
0.03937007874
144
100.0
145
0.0
146
0.5
147
0.1
148
0.0
 69
0
 70
0
 71
0
 72
0
 73
0
 74
0
 75
0
 76
0
 77
1
 78
12
 79
3
170
0
171
3
172
1
173
0
174
0
175
0
176
0
177
0
178
0
179
2
271
2
272
2
273
2
274
3
275
0
276
0
277
2
278
46
279
2
280
0
281
0
282
0
283
0
284
8
285
0
286
0
288
1
289
3
290
0
340
4C
342
74
371
-2
372
-2
  0
DIMSTYLE
105
7C
330
4
100
AcDbSymbolTableRecord
100
AcDbDimStyleTableRecord
  2
EZ_M_100_H25_CM
 70
0
 40
1.0
 41
0.25
 42
0.125
 43
3.75
 44
0.375
 45
0.0
 46
0.0
 47
0.0
 48
0.0
 49
2.5
140
0.25
141
2.5
142
0.125
143
0.03937007874
144
100.0
145
0.0
146
0.5
147
0.1
148
0.0
 69
0
 70
0
 71
0
 72
0
 73
0
 74
0
 75
0
 76
0
 77
1
 78
12
 79
3
170
0
171
3
172
1
173
0
174
0
175
0
176
0
177
0
178
0
179
2
271
2
272
2
273
2
274
3
275
0
276
0
277
2
278
46
279
2
280
0
281
0
282
0
283
0
284
8
285
0
286
0
288
1
289
3
290
0
340
4C
371
-2
372
-2
  0
DIMSTYLE
105
7D
330
4
100
AcDbSymbolTableRecord
100
AcDbDimStyleTableRecord
  2
EZ_M_50_H25_CM
 70
0
 40
1.0
 41
0.125
 42
0.0625
 43
3.75
 44
0.1875
 45
0.0
 46
0.0
 47
0.0
 48
0.0
 49
2.5
140
0.125
141
2.5
142
0.0625
143
0.03937007874
144
100.0
145
0.0
146
0.5
147
0.05
148
0.0
 69
0
 70
0
 71
0
 72
0
 73
0
 74
0
 75
0
 76
0
 77
1
 78
12
 79
3
170
0
171
3
172
1
173
0
174
0
175
0
176
0
177
0
178
0
179
2
271
2
272
2
273
2
274
3
275
0
276
0
277
2
278
46
279
2
280
0
281
0
282
0
283
0
284
8
285
0
286
0
288
1
289
3
290
0
340
4C
371
-2
372
-2
  0
DIMSTYLE
105
7E
330
4
100
AcDbSymbolTableRecord
100
AcDbDimStyleTableRecord
  2
EZ_M_25_H25_CM
 70
0
 40
1.0
 41
0.0625
 42
0.03125
 43
3.75
 44
0.09375
 45
0.0
 46
0.0
 47
0.0
 48
0.0
 49
2.5
140
0.0625
141
2.5
142
0.03125
143
0.03937007874
144
100.0
145
0.0
146
0.5
147
0.025
148
0.0
 69
0
 70
0
 71
0
 72
0
 73
0
 74
0
 75
0
 76
0
 77
1
 78
12
 79
3
170
0
171
3
172
1
173
0
174
0
175
0
176
0
177
0
178
0
179
2
271
2
272
2
273
2
274
3
275
0
276
0
277
2
278
46
279
2
280
0
281
0
282
0
283
0
284
8
285
0
286
0
288
1
289
3
290
0
340
4C
371
-2
372
-2
  0
DIMSTYLE
105
7F
330
4
100
AcDbSymbolTableRecord
100
AcDbDimStyleTableRecord
  2
EZ_M_20_H25_CM
 70
0
 40
1.0
 41
0.05
 42
0.025
 43
3.75
 44
0.07500000000000001
 45
0.0
 46
0.0
 47
0.0
 48
0.0
 49
2.5
140
0.05
141
2.5
142
0.025
143
0.03937007874
144
100.0
145
0.0
146
0.5
147
0.020000000000000004
148
0.0
 69
0
 70
0
 71
0
 72
0
 73
0
 74
0
 75
0
 76
0
 77
1
 78
12
 79
3
170
0
171
3
172
1
173
0
174
0
175
0
176
0
177
0
178
0
179
2
271
2
272
2
273
2
274
3
275
0
276
0
277
2
278
46
279
2
280
0
281
0
282
0
283
0
284
8
285
0
286
0
288
1
289
3
290
0
340
4C
371
-2
372
-2
  0
DIMSTYLE
105
80
330
4
100
AcDbSymbolTableRecord
100
AcDbDimStyleTableRecord
  2
EZ_M_10_H25_CM
 70
0
 40
1.0
 41
0.025
 42
0.0125
 43
3.75
 44
0.037500000000000006
 45
0.0
 46
0.0
 47
0.0
 48
0.0
 49
2.5
140
0.025
141
2.5
142
0.0125
143
0.03937007874
144
100.0
145
0.0
146
0.5
147
0.010000000000000002
148
0.0
 69
0
 70
0
 71
0
 72
0
 73
0
 74
0
 75
0
 76
0
 77
1
 78
12
 79
3
170
0
171
3
172
1
173
0
174
0
175
0
176
0
177
0
178
0
179
2
271
2
272
2
273
2
274
3
275
0
276
0
277
2
278
46
279
2
280
0
281
0
282
0
283
0
284
8
285
0
286
0
288
1
289
3
290
0
340
4C
371
-2
372
-2
  0
DIMSTYLE
105
81
330
4
100
AcDbSymbolTableRecord
100
AcDbDimStyleTableRecord
  2
EZ_M_5_H25_CM
 70
0
 40
1.0
 41
0.0125
 42
0.00625
 43
3.75
 44
0.018750000000000003
 45
0.0
 46
0.0
 47
0.0
 48
0.0
 49
2.5
140
0.0125
141
2.5
142
0.00625
143
0.03937007874
144
100.0
145
0.0
146
0.5
147
0.005000000000000001
148
0.0
 69
0
 70
0
 71
0
 72
0
 73
0
 74
0
 75
0
 76
0
 77
1
 78
12
 79
3
170
0
171
3
172
1
173
0
174
0
175
0
176
0
177
0
178
0
179
2
271
2
272
2
273
2
274
3
275
0
276
0
277
2
278
46
279
2
280
0
281
0
282
0
283
0
284
8
285
0
286
0
288
1
289
3
290
0
340
4C
371
-2
372
-2
  0
DIMSTYLE
105
82
330
4
100
AcDbSymbolTableRecord
100
AcDbDimStyleTableRecord
  2
EZ_M_1_H25_CM
 70
0
 40
1.0
 41
0.0025
 42
0.00125
 43
3.75
 44
0.00375
 45
0.0
 46
0.0
 47
0.0
 48
0.0
 49
2.5
140
0.0025
141
2.5
142
0.00125
143
0.03937007874
144
100.0
145
0.0
146
0.5
147
0.001
148
0.0
 69
0
 70
0
 71
0
 72
0
 73
0
 74
0
 75
0
 76
0
 77
1
 78
12
 79
3
170
0
171
3
172
1
173
0
174
0
175
0
176
0
177
0
178
0
179
2
271
2
272
2
273
2
274
3
275
0
276
0
277
2
278
46
279
2
280
0
281
0
282
0
283
0
284
8
285
0
286
0
288
1
289
3
290
0
340
4C
371
-2
372
-2
  0
DIMSTYLE
105
83
330
4
100
AcDbSymbolTableRecord
100
AcDbDimStyleTableRecord
  2
EZ_RADIUS
 70
0
 40
1.0
 41
0.25
 42
0.125
 43
3.75
 44
0.375
 45
0.0
 46
0.0
 47
0.0
 48
0.0
 49
2.5
140
0.25
141
0.0
142
0.0
143
0.03937007874
144
100.0
145
0.0
146
0.5
147
0.1
148
0.0
 69
0
 70
0
 71
0
 72
0
 73
0
 74
0
 75
0
 76
0
 77
1
 78
12
 79
3
170
0
171
3
172
0
173
0
174
0
175
0
176
0
177
0
178
0
179
2
271
2
272
2
273
2
274
3
275
0
276
0
277
2
278
46
279
1
280
0
281
0
282
0
283
0
284
8
285
0
286
0
288
1
289
3
290
0
340
4C
342
84
371
-2
372
-2
  0
DIMSTYLE
105
88
330
4
100
AcDbSymbolTableRecord
100
AcDbDimStyleTableRecord
  2
EZ_RADIUS_INSIDE
 70
0
 40
1.0
 41
0.25
 42
0.125
 43
3.75
 44
0.375
 45
0.0
 46
0.0
 47
0.0
 48
0.0
 49
2.5
140
0.25
141
0.0
142
0.0
143
0.03937007874
144
100.0
145
0.0
146
0.5
147
0.1
148
0.0
 69
0
 70
0
 71
0
 72
0
 73
0
 74
0
 75
0
 76
0
 77
0
 78
12
 79
3
170
0
171
3
172
0
173
0
174
1
175
0
176
0
177
0
178
0
179
2
271
2
272
2
273
2
274
3
275
0
276
0
277
2
278
46
279
0
280
0
281
0
282
0
283
0
284
8
285
0
286
0
288
1
289
0
290
0
340
4C
342
84
371
-2
372
-2
  0
DIMSTYLE
105
89
330
4
100
AcDbSymbolTableRecord
100
AcDbDimStyleTableRecord
  2
EZ_CURVED
 70
0
 40
1.0
 41
0.25
 42
0.125
 43
3.75
 44
0.375
 45
0.0
 46
0.0
 47
0.0
 48
0.0
 49
2.5
140
0.25
141
2.5
142
0.0
143
0.03937007874
144
100.0
145
0.0
146
0.5
147
0.1
148
0.0
 69
0
 70
0
 71
0
 72
0
 73
0
 74
0
 75
0
 76
0
 77
1
 78
12
 79
2
 90
2
170
0
171
3
172
1
173
0
174
0
175
0
176
0
177
0
178
0
179
2
271
2
272
2
273
2
274
3
275
0
276
0
277
2
278
46
279
2
280
0
281
0
282
0
283
0
284
8
285
0
286
0
288
1
289
3
290
0
340
4C
371
-2
372
-2
  0
ENDTAB
  0
TABLE
  2
BLOCK_RECORD
  5
9
330
0
100
AcDbSymbolTable
 70
5
  0
BLOCK_RECORD
  5
17
330
9
100
AcDbSymbolTableRecord
100
AcDbBlockTableRecord
  2
*Model_Space
340
1A
 70
0
280
1
281
0
  0
BLOCK_RECORD
  5
1B
330
9
100
AcDbSymbolTableRecord
100
AcDbBlockTableRecord
  2
*Paper_Space
340
1E
 70
0
280
1
281
0
  0
BLOCK_RECORD
  5
74
330
9
100
AcDbSymbolTableRecord
100
AcDbBlockTableRecord
  2
_ARCHTICK
340
0
 70
0
280
1
281
0
  0
BLOCK_RECORD
  5
78
330
9
100
AcDbSymbolTableRecord
100
AcDbBlockTableRecord
  2
_CLOSEDFILLED
340
0
 70
0
280
1
281
0
  0
BLOCK_RECORD
  5
84
330
9
100
AcDbSymbolTableRecord
100
AcDbBlockTableRecord
  2
_CLOSEDBLANK
340
0
 70
0
280
1
281
0
  0
ENDTAB
  0
ENDSEC
  0
SECTION
  2
BLOCKS
  0
BLOCK
  5
18
330
17
100
AcDbEntity
  8
0
100
AcDbBlockBegin
  2
*Model_Space
 70
0
 10
0.0
 20
0.0
 30
0.0
  3
*Model_Space
  1

  0
ENDBLK
  5
19
330
17
100
AcDbEntity
  8
0
100
AcDbBlockEnd
  0
BLOCK
  5
1C
330
1B
100
AcDbEntity
  8
0
100
AcDbBlockBegin
  2
*Paper_Space
 70
0
 10
0.0
 20
0.0
 30
0.0
  3
*Paper_Space
  1

  0
ENDBLK
  5
1D
330
1B
100
AcDbEntity
  8
0
100
AcDbBlockEnd
  0
BLOCK
  5
75
330
74
100
AcDbEntity
  8
0
100
AcDbBlockBegin
  2
_ARCHTICK
 70
0
 10
0.0
 20
0.0
 30
0.0
  3
_ARCHTICK
  1

  0
LWPOLYLINE
  5
77
330
74
100
AcDbEntity
  8
0
  6
BYBLOCK
 62
0
100
AcDbPolyline
 90
2
 70
0
 43
0.15
 10
-0.5
 20
-0.5
 10
0.5
 20
0.5
  0
ENDBLK
  5
76
330
74
100
AcDbEntity
  8
0
100
AcDbBlockEnd
  0
BLOCK
  5
79
330
78
100
AcDbEntity
  8
0
100
AcDbBlockBegin
  2
_CLOSEDFILLED
 70
0
 10
0.0
 20
0.0
 30
0.0
  3
_CLOSEDFILLED
  1

  0
SOLID
  5
7B
330
78
100
AcDbEntity
  8
0
  6
BYBLOCK
 62
0
100
AcDbTrace
 10
-1.0
 20
0.16439898372402537
 30
0.0
 11
0.0
 21
0.0
 31
0.0
 12
-1.0
 22
-0.16439898372402537
 32
0.0
 13
-1.0
 23
-0.16439898372402537
 33
0.0
  0
ENDBLK
  5
7A
330
78
100
AcDbEntity
  8
0
100
AcDbBlockEnd
  0
BLOCK
  5
85
330
84
100
AcDbEntity
  8
0
100
AcDbBlockBegin
  2
_CLOSEDBLANK
 70
0
 10
0.0
 20
0.0
 30
0.0
  3
_CLOSEDBLANK
  1

  0
LWPOLYLINE
  5
87
330
84
100
AcDbEntity
  8
0
  6
BYBLOCK
 62
0
100
AcDbPolyline
 90
3
 70
1
 10
-1.0
 20
0.16439898372402537
 10
0.0
 20
0.0
 10
-1.0
 20
-0.16439898372402537
  0
ENDBLK
  5
86
330
84
100
AcDbEntity
  8
0
100
AcDbBlockEnd
  0
ENDSEC
  0
SECTION
  2
ENTITIES
  0
LWPOLYLINE
  5
8D
330
17
100
AcDbEntity
  8
UST_KATMAN_KESIM
100
AcDbPolyline
 90
68
 70
1
 10
312.0
 20
180.0
 10
8.0
 20
180.0
 10
7.216
 20
179.961
 10
6.439
 20
179.846
 10
5.678
 20
179.656
 10
4.939
 20
179.391
 10
4.229
 20
179.055
 10
3.555
 20
178.652
 10
2.925
 20
178.184
 10
2.343
 20
177.657
 10
1.816
 20
177.075
 10
1.348
 20
176.445
 10
0.945
 20
175.771
 10
0.609
 20
175.061
 10
0.344
 20
174.322
 10
0.154
 20
173.561
 10
0.039
 20
172.784
 10
0.0
 20
172.0
 10
0.0
 20
8.0
 10
0.039
 20
7.216
 10
0.154
 20
6.439
 10
0.344
 20
5.678
 10
0.609
 20
4.939
 10
0.945
 20
4.229
 10
1.348
 20
3.555
 10
1.816
 20
2.925
 10
2.343
 20
2.343
 10
2.925
 20
1.816
 10
3.555
 20
1.348
 10
4.229
 20
0.945
 10
4.939
 20
0.609
 10
5.678
 20
0.344
 10
6.439
 20
0.154
 10
7.216
 20
0.039
 10
8.0
 20
0.0
 10
312.0
 20
0.0
 10
312.784
 20
0.039
 10
313.561
 20
0.154
 10
314.322
 20
0.344
 10
315.061
 20
0.609
 10
315.771
 20
0.945
 10
316.445
 20
1.348
 10
317.075
 20
1.816
 10
317.657
 20
2.343
 10
318.184
 20
2.925
 10
318.652
 20
3.555
 10
319.055
 20
4.229
 10
319.391
 20
4.939
 10
319.656
 20
5.678
 10
319.846
 20
6.439
 10
319.961
 20
7.216
 10
320.0
 20
8.0
 10
320.0
 20
172.0
 10
319.961
 20
172.784
 10
319.846
 20
173.561
 10
319.656
 20
174.322
 10
319.391
 20
175.061
 10
319.055
 20
175.771
 10
318.652
 20
176.445
 10
318.184
 20
177.075
 10
317.657
 20
177.657
 10
317.075
 20
178.184
 10
316.445
 20
178.652
 10
315.771
 20
179.055
 10
315.061
 20
179.391
 10
314.322
 20
179.656
 10
313.561
 20
179.846
 10
312.784
 20
179.961
  0
LWPOLYLINE
  5
8E
330
17
100
AcDbEntity
  8
UST_KATMAN_KESIM
100
AcDbPolyline
 90
106
 70
1
 10
32.922
 20
155.156
 10
33.141
 20
154.899
 10
53.911
 20
140.103
 10
54.843
 20
140.111
 10
56.507
 20
139.655
 10
57.433
 20
139.525
 10
58.355
 20
139.51
 10
74.754
 20
140.306
 10
75.541
 20
140.048
 10
76.681
 20
139.037
 10
77.799
 20
138.316
 10
78.727
 20
137.909
 10
79.762
 20
137.606
 10
81.313
 20
137.386
 10
82.918
 20
137.412
 10
84.558
 20
137.69
 10
86.172
 20
138.196
 10
86.769
 20
138.228
 10
96.802
 20
135.589
 10
97.117
 20
135.684
 10
97.287
 20
135.823
 10
100.357
 20
139.277
 10
100.531
 20
139.674
 10
100.486
 20
139.999
 10
100.298
 20
140.267
 10
100.113
 20
140.385
 10
92.539
 20
143.666
 10
92.036
 20
143.978
 10
91.666
 20
144.406
 10
91.438
 20
144.924
 10
91.009
 20
147.076
 10
91.178
 20
147.912
 10
91.49
 20
148.391
 10
91.951
 20
148.771
 10
98.937
 20
152.975
 10
102.693
 20
159.719
 10
103.114
 20
160.122
 10
103.637
 20
160.378
 10
104.214
 20
160.463
 10
105.087
 20
160.405
 10
105.677
 20
160.469
 10
106.527
 20
160.744
 10
107.257
 20
161.201
 10
107.905
 20
161.88
 10
108.355
 20
162.704
 10
108.576
 20
163.617
 10
108.559
 20
164.51
 10
108.288
 20
165.456
 10
107.799
 20
166.257
 10
107.12
 20
166.905
 10
106.222
 20
167.382
 10
92.829
 20
170.503
 10
91.959
 20
170.595
 10
91.368
 20
170.54
 10
90.473
 20
170.256
 10
89.682
 20
169.75
 10
89.095
 20
169.12
 10
88.645
 20
168.296
 10
88.43
 20
167.429
 10
88.411
 20
166.789
 10
88.538
 20
166.03
 10
88.836
 20
165.214
 10
88.907
 20
164.645
 10
88.805
 20
164.081
 10
88.539
 20
163.573
 10
80.93
 20
155.93
 10
80.435
 20
155.566
 10
79.584
 20
155.356
 10
78.567
 20
155.475
 10
77.583
 20
155.489
 10
57.466
 20
154.508
 10
56.899
 20
154.659
 10
56.383
 20
154.993
 10
47.65
 20
162.789
 10
47.352
 20
163.293
 10
47.222
 20
163.864
 10
47.272
 20
164.448
 10
47.506
 20
165.205
 10
47.59
 20
165.793
 10
47.544
 20
166.607
 10
47.421
 20
167.108
 10
47.042
 20
167.917
 10
46.685
 20
168.392
 10
46.076
 20
168.935
 10
45.523
 20
169.257
 10
44.674
 20
169.532
 10
43.733
 20
169.59
 10
27.795
 20
168.594
 10
26.935
 20
168.434
 10
26.384
 20
168.213
 10
25.702
 20
167.765
 10
25.278
 20
167.35
 10
24.819
 20
166.676
 10
24.586
 20
166.129
 10
24.42
 20
165.331
 10
24.414
 20
164.737
 10
24.566
 20
163.935
 10
24.787
 20
163.384
 10
25.052
 20
162.941
 10
25.558
 20
162.361
 10
26.435
 20
161.762
 10
27.371
 20
161.46
 10
29.121
 20
161.355
 10
29.418
 20
161.245
 10
29.937
 20
160.886
 10
30.324
 20
160.351
  0
LWPOLYLINE
  5
8F
330
17
100
AcDbEntity
  8
UST_KATMAN_KESIM
100
AcDbPolyline
 90
139
 70
1
 10
189.426
 20
139.191
 10
188.891
 20
138.641
 10
188.402
 20
138.45
 10
180.426
 20
136.74
 10
179.472
 20
136.342
 10
179.073
 20
136.026
 10
178.666
 20
135.541
 10
178.444
 20
135.134
 10
178.254
 20
134.531
 10
178.205
 20
134.07
 10
178.26
 20
133.439
 10
178.658
 20
132.472
 10
179.167
 20
131.887
 10
179.777
 20
131.485
 10
180.469
 20
131.254
 10
181.152
 20
131.208
 10
190.789
 20
133.214
 10
191.242
 20
133.172
 10
192.089
 20
132.904
 10
192.631
 20
132.82
 10
193.725
 20
132.867
 10
203.287
 20
136.002
 10
204.045
 20
136.064
 10
204.508
 20
135.902
 10
204.894
 20
135.599
 10
206.046
 20
133.989
 10
206.207
 20
133.536
 10
206.214
 20
133.027
 10
205.443
 20
127.615
 10
205.429
 20
126.522
 10
205.566
 20
125.79
 10
205.981
 20
124.768
 10
206.665
 20
123.838
 10
207.219
 20
123.341
 10
208.17
 20
122.783
 10
209.376
 20
122.446
 10
210.621
 20
122.446
 10
211.737
 20
122.744
 10
212.316
 20
123.031
 10
213.144
 20
123.622
 10
213.811
 20
123.839
 10
214.279
 20
123.802
 10
215.32
 20
123.468
 10
216.16
 20
123.408
 10
216.768
 20
123.487
 10
217.864
 20
123.884
 10
218.348
 20
123.947
 10
218.826
 20
123.851
 10
219.708
 20
123.431
 10
220.281
 20
123.272
 10
221.173
 20
123.208
 10
221.807
 20
123.291
 10
222.699
 20
123.605
 10
223.554
 20
124.191
 10
223.898
 20
124.549
 10
224.37
 20
125.253
 10
224.809
 20
126.52
 10
225.053
 20
126.923
 10
225.41
 20
127.229
 10
226.078
 20
127.447
 10
226.772
 20
127.337
 10
227.338
 20
126.922
 10
227.582
 20
126.52
 10
227.969
 20
125.245
 10
228.309
 20
124.612
 10
229.018
 20
123.769
 10
229.91
 20
123.131
 10
230.938
 20
122.734
 10
231.647
 20
122.618
 10
232.749
 20
122.667
 10
233.844
 20
123.009
 10
234.738
 20
123.561
 10
235.262
 20
124.053
 10
235.893
 20
124.956
 10
236.266
 20
125.938
 10
236.39
 20
127.222
 10
235.968
 20
130.069
 10
236.025
 20
130.507
 10
236.207
 20
130.909
 10
236.499
 20
131.24
 10
238.044
 20
132.283
 10
238.787
 20
132.88
 10
240.01
 20
134.102
 10
240.981
 20
135.449
 10
241.64
 20
136.875
 10
241.959
 20
138.303
 10
241.954
 20
139.741
 10
241.626
 20
141.165
 10
240.732
 20
143.089
 10
240.692
 20
143.58
 10
240.823
 20
144.084
 10
248.972
 20
162.561
 10
249.438
 20
163.028
 10
251.113
 20
163.691
 10
252.436
 20
164.521
 10
253.511
 20
165.57
 10
254.285
 20
166.778
 10
254.649
 20
167.777
 10
254.786
 20
168.764
 10
254.702
 20
169.722
 10
254.399
 20
170.615
 10
254.045
 20
171.206
 10
253.461
 20
171.848
 10
252.918
 20
172.258
 10
252.279
 20
172.598
 10
251.359
 20
172.902
 10
250.601
 20
173.024
 10
249.529
 20
173.034
 10
248.752
 20
172.932
 10
247.263
 20
172.481
 10
245.909
 20
171.734
 10
244.971
 20
170.957
 10
243.763
 20
169.526
 10
242.727
 20
168.994
 10
241.802
 20
168.302
 10
241.109
 20
167.445
 10
240.785
 20
166.84
 10
233.249
 20
149.715
 10
232.976
 20
149.289
 10
232.604
 20
148.991
 10
232.157
 20
148.824
 10
231.681
 20
148.807
 10
227.896
 20
149.628
 10
225.472
 20
149.906
 10
223.021
 20
150.0
 10
219.301
 20
149.789
 10
215.752
 20
149.168
 10
213.509
 20
148.529
 10
211.409
 20
147.715
 10
209.538
 20
146.762
 10
207.049
 20
145.086
 10
206.352
 20
144.997
 10
205.369
 20
145.18
 10
204.775
 20
145.191
 10
203.707
 20
144.994
 10
191.66
 20
140.979
 10
191.101
 20
140.741
 10
190.306
 20
140.216
 10
189.843
 20
139.765
  0
LWPOLYLINE
  5
90
330
17
100
AcDbEntity
  8
UST_KATMAN_KESIM
100
AcDbPolyline
 90
191
 70
1
 10
16.897
 20
78.754
 10
16.513
 20
77.301
 10
16.019
 20
76.724
 10
12.178
 20
74.747
 10
11.529
 20
74.182
 10
11.023
 20
73.415
 10
10.779
 20
72.699
 10
10.708
 20
72.168
 10
10.757
 20
71.413
 10
10.894
 20
70.895
 10
11.228
 20
70.217
 10
11.553
 20
69.791
 10
12.122
 20
69.292
 10
12.585
 20
69.023
 10
13.029
 20
68.85
 10
13.728
 20
68.715
 10
14.734
 20
68.787
 10
15.489
 20
69.055
 10
20.607
 20
71.591
 10
21.088
 20
71.667
 10
22.182
 20
71.607
 10
22.885
 20
71.677
 10
24.274
 20
72.106
 10
24.952
 20
72.478
 10
35.862
 20
79.492
 10
36.313
 20
79.697
 10
37.012
 20
79.736
 10
37.459
 20
79.592
 10
39.329
 20
78.399
 10
41.212
 20
77.43
 10
41.529
 20
77.056
 10
42.362
 20
75.468
 10
43.472
 20
74.077
 10
44.925
 20
72.852
 10
46.953
 20
71.676
 10
47.375
 20
71.072
 10
47.484
 20
70.59
 10
47.436
 20
70.071
 10
47.01
 20
68.449
 10
46.743
 20
68.023
 10
46.133
 20
67.59
 10
44.923
 20
67.296
 10
44.236
 20
66.922
 10
43.641
 20
66.347
 10
43.22
 20
65.62
 10
43.021
 20
64.816
 10
43.088
 20
63.797
 10
43.39
 20
63.027
 10
43.935
 20
62.329
 10
44.437
 20
61.944
 10
44.88
 20
61.72
 10
45.962
 20
61.502
 10
57.316
 20
61.521
 10
57.848
 20
61.626
 10
58.432
 20
61.869
 10
59.171
 20
62.435
 10
59.556
 20
62.937
 10
59.78
 20
63.38
 10
59.96
 20
64.035
 10
59.995
 20
64.575
 10
59.912
 20
65.203
 10
59.757
 20
65.674
 10
59.422
 20
66.264
 10
59.098
 20
66.64
 10
58.174
 20
67.257
 10
57.048
 20
67.537
 10
56.607
 20
67.743
 10
56.248
 20
68.074
 10
56.005
 20
68.496
 10
55.901
 20
68.973
 10
55.951
 20
69.485
 10
56.68
 20
72.296
 10
56.985
 20
72.751
 10
58.544
 20
74.094
 10
59.638
 20
75.468
 10
60.245
 20
76.571
 10
60.646
 20
77.632
 10
60.878
 20
78.52
 10
61.244
 20
79.118
 10
64.142
 20
80.993
 10
64.631
 20
81.137
 10
65.141
 20
81.12
 10
65.619
 20
80.943
 10
66.017
 20
80.625
 10
66.295
 20
80.197
 10
66.423
 20
79.704
 10
66.382
 20
68.786
 10
66.14
 20
68.145
 10
65.737
 20
67.642
 10
65.428
 20
67.097
 10
65.205
 20
66.075
 10
65.32
 20
65.204
 10
65.799
 20
64.274
 10
66.239
 20
63.828
 10
66.668
 20
63.542
 10
67.305
 20
63.291
 10
67.962
 20
63.202
 10
77.985
 20
63.2
 10
78.651
 20
63.281
 10
79.097
 20
63.428
 10
79.642
 20
63.737
 10
79.998
 20
64.043
 10
80.383
 20
64.537
 10
80.611
 20
65.0
 10
80.776
 20
65.664
 10
80.781
 20
66.29
 10
80.68
 20
66.796
 10
80.458
 20
67.332
 10
80.172
 20
67.761
 10
79.726
 20
68.201
 10
78.796
 20
68.68
 10
78.015
 20
68.799
 10
74.95
 20
68.822
 10
74.261
 20
69.107
 10
73.907
 20
69.461
 10
73.68
 20
69.906
 10
73.6
 20
70.428
 10
73.6
 20
78.985
 10
73.555
 20
79.544
 10
73.334
 20
80.349
 10
73.076
 20
80.863
 10
72.595
 20
81.489
 10
71.732
 20
82.151
 10
70.858
 20
82.492
 10
70.075
 20
82.595
 10
69.363
 20
82.581
 10
68.643
 20
82.833
 10
68.265
 20
83.177
 10
68.014
 20
83.622
 10
67.931
 20
84.38
 10
68.078
 20
84.87
 10
69.15
 20
86.559
 10
69.984
 20
88.346
 10
70.293
 20
89.279
 10
70.645
 20
91.001
 10
70.753
 20
93.276
 10
71.087
 20
93.924
 10
71.478
 20
94.259
 10
72.616
 20
94.97
 10
73.243
 20
95.207
 10
89.262
 20
97.877
 10
89.478
 20
97.951
 10
89.73
 20
98.18
 10
89.824
 20
98.388
 10
89.829
 20
98.728
 10
87.893
 20
106.888
 10
87.746
 20
108.444
 10
87.377
 20
109.643
 10
86.888
 20
110.596
 10
86.515
 20
111.143
 10
85.282
 20
112.436
 10
84.165
 20
113.239
 10
82.351
 20
114.121
 10
80.315
 20
114.695
 10
78.772
 20
114.909
 10
76.485
 20
114.928
 10
74.198
 20
114.613
 10
72.628
 20
114.199
 10
70.505
 20
113.353
 10
68.573
 20
112.224
 10
67.394
 20
111.301
 10
65.993
 20
109.828
 10
65.205
 20
108.672
 10
64.649
 20
107.528
 10
64.309
 20
106.45
 10
64.139
 20
105.524
 10
63.805
 20
104.883
 10
63.416
 20
104.55
 10
61.415
 20
103.325
 10
60.679
 20
103.202
 10
58.378
 20
103.643
 10
56.049
 20
103.86
 10
54.805
 20
103.88
 10
52.383
 20
103.742
 10
49.973
 20
103.376
 10
48.708
 20
103.092
 10
46.346
 20
102.383
 10
44.084
 20
101.467
 10
41.953
 20
100.357
 10
40.893
 20
99.698
 10
39.033
 20
98.329
 10
37.399
 20
96.827
 10
36.632
 20
95.984
 10
35.395
 20
94.34
 10
34.421
 20
92.607
 10
33.875
 20
91.297
 10
33.424
 20
90.755
 10
19.112
 20
81.563
 10
18.492
 20
81.101
 10
17.957
 20
80.573
 10
17.216
 20
79.498
  0
LWPOLYLINE
  5
91
330
17
100
AcDbEntity
  8
UST_KATMAN_KESIM
100
AcDbPolyline
 90
211
 70
1
 10
107.896
 20
88.517
 10
107.54
 20
88.287
 10
107.382
 20
87.895
 10
107.431
 20
87.579
 10
107.701
 20
87.253
 10
113.198
 20
84.801
 10
113.637
 20
84.52
 10
113.95
 20
84.139
 10
114.132
 20
83.681
 10
114.165
 20
83.189
 10
113.693
 20
81.614
 10
113.501
 20
79.982
 10
113.599
 20
78.845
 10
114.042
 20
77.309
 10
114.606
 20
76.205
 10
115.66
 20
74.837
 10
116.605
 20
73.967
 10
118.179
 20
72.927
 10
119.387
 20
72.365
 10
121.252
 20
71.797
 10
122.618
 20
71.575
 10
123.988
 20
71.501
 10
125.359
 20
71.572
 10
126.706
 20
71.788
 10
128.03
 20
72.152
 10
129.656
 20
72.821
 10
130.373
 20
72.884
 10
130.835
 20
72.746
 10
132.222
 20
71.899
 10
133.002
 20
71.516
 10
133.769
 20
71.209
 10
135.222
 20
70.806
 10
136.716
 20
70.626
 10
137.539
 20
70.628
 10
138.319
 20
70.699
 10
140.199
 20
71.061
 10
140.683
 20
70.977
 10
141.118
 20
70.751
 10
141.594
 20
70.194
 10
141.77
 20
69.483
 10
141.206
 20
65.128
 10
141.241
 20
64.397
 10
141.374
 20
63.737
 10
141.806
 20
62.673
 10
142.52
 20
61.701
 10
143.098
 20
61.182
 10
144.143
 20
60.577
 10
145.247
 20
60.264
 10
145.977
 20
60.203
 10
147.117
 20
60.336
 10
147.814
 20
60.56
 10
148.417
 20
60.858
 10
149.333
 20
61.551
 10
149.791
 20
62.061
 10
150.298
 20
62.836
 10
150.66
 20
63.195
 10
151.367
 20
63.477
 10
151.877
 20
63.467
 10
152.357
 20
63.297
 10
152.76
 20
62.983
 10
153.295
 20
62.336
 10
153.712
 20
61.97
 10
154.168
 20
61.676
 10
154.945
 20
61.354
 10
156.075
 20
61.205
 10
156.91
 20
61.315
 10
157.48
 20
61.504
 10
158.251
 20
61.943
 10
158.705
 20
62.336
 10
159.249
 20
63.037
 10
159.496
 20
63.52
 10
159.76
 20
64.475
 10
159.822
 20
66.684
 10
159.981
 20
67.165
 10
160.281
 20
67.572
 10
160.694
 20
67.865
 10
161.459
 20
68.03
 10
162.604
 20
68.008
 10
163.118
 20
67.919
 10
163.554
 20
67.689
 10
163.9
 20
67.337
 10
164.179
 20
66.654
 10
164.232
 20
64.534
 10
164.504
 20
63.52
 10
164.751
 20
63.037
 10
165.295
 20
62.336
 10
165.749
 20
61.943
 10
166.478
 20
61.523
 10
167.09
 20
61.315
 10
167.925
 20
61.205
 10
169.055
 20
61.354
 10
169.832
 20
61.676
 10
170.288
 20
61.97
 10
170.705
 20
62.336
 10
171.24
 20
62.983
 10
171.643
 20
63.297
 10
172.123
 20
63.467
 10
172.633
 20
63.477
 10
173.12
 20
63.326
 10
173.535
 20
63.03
 10
174.593
 20
61.625
 10
175.622
 20
60.834
 10
176.838
 20
60.346
 10
178.082
 20
60.204
 10
179.321
 20
60.389
 10
180.508
 20
60.912
 10
181.48
 20
61.701
 10
182.142
 20
62.583
 10
182.422
 20
63.144
 10
182.752
 20
64.352
 10
182.794
 20
65.128
 10
181.84
 20
72.062
 10
181.904
 20
72.82
 10
182.29
 20
73.445
 10
183.774
 20
74.657
 10
184.662
 20
75.513
 10
186.123
 20
77.302
 10
186.682
 20
78.197
 10
187.168
 20
79.17
 10
187.535
 20
80.13
 10
187.956
 20
81.953
 10
188.166
 20
82.378
 10
188.491
 20
82.722
 10
188.927
 20
82.966
 10
198.616
 20
86.693
 10
199.643
 20
87.24
 10
200.22
 20
87.721
 10
200.959
 20
88.666
 10
201.416
 20
89.726
 10
201.595
 20
90.958
 10
201.485
 20
92.003
 10
201.28
 20
92.677
 10
201.001
 20
93.261
 10
200.383
 20
94.111
 10
199.913
 20
94.556
 10
199.334
 20
94.959
 10
198.374
 20
95.385
 10
197.745
 20
95.536
 10
196.546
 20
95.574
 10
195.385
 20
95.305
 10
185.089
 20
91.348
 10
184.348
 20
91.24
 10
183.662
 20
91.465
 10
181.784
 20
92.897
 10
179.494
 20
94.271
 10
178.192
 20
94.912
 10
175.49
 20
95.993
 10
172.591
 20
96.852
 10
171.012
 20
97.208
 10
167.868
 20
97.713
 10
164.658
 20
97.967
 10
162.977
 20
98.0
 10
159.746
 20
97.872
 10
158.1
 20
97.709
 10
154.973
 20
97.205
 10
153.409
 20
96.852
 10
150.526
 20
95.999
 10
149.085
 20
95.461
 10
146.311
 20
94.193
 10
145.575
 20
94.122
 10
144.886
 20
94.39
 10
144.527
 20
94.731
 10
144.29
 20
95.166
 10
144.034
 20
96.514
 10
143.681
 20
97.246
 10
142.977
 20
98.015
 10
142.189
 20
98.47
 10
141.61
 20
98.641
 10
140.985
 20
98.699
 10
139.272
 20
98.445
 10
136.744
 20
99.201
 10
135.954
 20
99.322
 10
133.924
 20
99.418
 10
133.437
 20
99.634
 10
132.587
 20
100.278
 10
131.842
 20
100.586
 10
130.776
 20
100.691
 10
129.594
 20
100.413
 10
129.074
 20
100.396
 10
128.576
 20
100.548
 10
127.874
 20
101.078
 10
127.557
 20
101.155
 10
127.341
 20
101.121
 10
127.062
 20
100.952
 10
126.933
 20
100.776
 10
126.855
 20
100.459
 10
126.929
 20
100.142
 10
127.797
 20
98.263
 10
127.853
 20
96.764
 10
127.755
 20
96.226
 10
126.299
 20
94.054
 10
125.55
 20
92.541
 10
124.843
 20
90.471
 10
124.58
 20
90.051
 10
124.2
 20
89.732
 10
123.496
 20
89.507
 10
123.001
 20
89.546
 10
122.566
 20
89.685
 10
122.138
 20
89.615
 10
121.89
 20
89.4
 10
121.481
 20
88.588
 10
121.116
 20
88.262
 10
118.244
 20
87.208
 10
117.523
 20
87.277
 10
117.092
 20
87.5
 10
116.748
 20
87.842
 10
116.522
 20
88.272
 10
116.436
 20
88.749
 10
116.67
 20
90.144
 10
116.442
 20
90.529
 10
116.027
 20
90.697
  0
LWPOLYLINE
  5
92
330
17
100
AcDbEntity
  8
UST_KATMAN_KESIM
100
AcDbPolyline
 90
197
 70
1
 10
229.617
 20
88.846
 10
228.471
 20
88.168
 10
228.037
 20
88.074
 10
226.356
 20
88.314
 10
225.252
 20
88.365
 10
223.628
 20
88.239
 10
222.509
 20
88.018
 10
221.399
 20
87.684
 10
219.922
 20
87.04
 10
218.973
 20
86.481
 10
218.109
 20
85.839
 10
217.062
 20
84.808
 10
216.46
 20
84.0
 10
215.869
 20
82.834
 10
215.614
 20
81.947
 10
215.53
 20
80.772
 10
215.661
 20
79.902
 10
216.087
 20
78.829
 10
216.592
 20
78.084
 10
217.192
 20
77.464
 10
217.907
 20
76.921
 10
218.727
 20
76.464
 10
219.657
 20
76.096
 10
221.098
 20
75.755
 10
222.165
 20
75.648
 10
223.279
 20
75.651
 10
224.372
 20
75.761
 10
226.033
 20
76.131
 10
227.6
 20
76.724
 10
229.012
 20
77.51
 10
230.485
 20
78.567
 10
230.979
 20
78.674
 10
232.409
 20
78.619
 10
233.694
 20
78.877
 10
234.447
 20
79.186
 10
238.046
 20
80.985
 10
238.553
 20
81.142
 10
239.054
 20
81.122
 10
239.52
 20
80.937
 10
241.384
 20
79.471
 10
243.82
 20
77.974
 10
244.278
 20
77.437
 10
244.423
 20
76.987
 10
244.418
 20
76.486
 10
243.465
 20
70.769
 10
243.433
 20
69.485
 10
243.705
 20
68.363
 10
244.275
 20
67.307
 10
245.099
 20
66.435
 10
246.163
 20
65.787
 10
247.174
 20
65.479
 10
247.869
 20
65.405
 10
248.967
 20
65.507
 10
249.679
 20
65.722
 10
250.612
 20
66.219
 10
251.118
 20
66.622
 10
251.861
 20
67.506
 10
252.453
 20
68.507
 10
252.818
 20
68.799
 10
253.255
 20
68.964
 10
253.721
 20
68.987
 10
254.378
 20
68.752
 10
254.724
 20
68.439
 10
255.407
 20
67.509
 10
255.79
 20
67.162
 10
256.558
 20
66.706
 10
257.139
 20
66.509
 10
257.602
 20
66.426
 10
258.398
 20
66.426
 10
259.352
 20
66.667
 10
260.21
 20
67.162
 10
261.141
 20
68.068
 10
261.55
 20
68.269
 10
262.0
 20
68.338
 10
262.45
 20
68.269
 10
262.859
 20
68.068
 10
263.79
 20
67.162
 10
264.558
 20
66.706
 10
265.139
 20
66.509
 10
266.026
 20
66.403
 10
266.906
 20
66.519
 10
267.776
 20
66.872
 10
268.562
 20
67.475
 10
269.437
 20
68.609
 10
269.828
 20
68.864
 10
270.513
 20
68.994
 10
270.97
 20
68.899
 10
271.376
 20
68.667
 10
271.69
 20
68.323
 10
272.086
 20
67.589
 10
272.498
 20
67.024
 10
273.271
 20
66.302
 10
273.816
 20
65.955
 10
275.033
 20
65.507
 10
276.086
 20
65.405
 10
276.781
 20
65.47
 10
277.968
 20
65.847
 10
278.865
 20
66.407
 10
279.31
 20
66.811
 10
280.045
 20
67.816
 10
280.472
 20
68.938
 10
280.59
 20
70.229
 10
279.582
 20
76.486
 10
279.575
 20
76.977
 10
279.713
 20
77.42
 10
280.152
 20
77.953
 10
282.616
 20
79.471
 10
284.546
 20
81.029
 10
286.031
 20
82.658
 10
286.629
 20
83.517
 10
287.332
 20
84.816
 10
287.684
 20
85.192
 10
288.171
 20
85.437
 10
296.738
 20
88.073
 10
297.222
 20
88.145
 10
297.891
 20
87.978
 10
298.415
 20
87.529
 10
298.627
 20
87.118
 10
298.917
 20
85.69
 10
299.21
 20
85.39
 10
299.622
 20
85.311
 10
305.988
 20
88.106
 10
306.248
 20
88.306
 10
306.403
 20
88.712
 10
306.379
 20
88.931
 10
306.22
 20
89.218
 10
305.947
 20
89.402
 10
304.573
 20
89.685
 10
304.09
 20
89.865
 10
303.568
 20
90.369
 10
303.345
 20
91.06
 10
303.391
 20
91.544
 10
303.853
 20
92.815
 10
303.98
 20
93.602
 10
303.931
 20
94.808
 10
303.565
 20
96.287
 10
303.644
 20
96.796
 10
305.931
 20
101.041
 10
306.01
 20
101.469
 10
305.947
 20
101.681
 10
305.737
 20
101.935
 10
305.435
 20
102.066
 10
305.106
 20
102.043
 10
299.031
 20
99.046
 10
297.517
 20
98.775
 10
287.313
 20
95.635
 10
286.611
 20
95.582
 10
285.984
 20
95.837
 10
285.533
 20
96.342
 10
282.556
 20
104.471
 10
282.2
 20
104.863
 10
281.671
 20
104.893
 10
281.328
 20
104.637
 10
279.104
 20
100.208
 10
278.815
 20
99.801
 10
278.434
 20
99.522
 10
277.986
 20
99.375
 10
277.514
 20
99.375
 10
277.066
 20
99.522
 10
276.685
 20
99.801
 10
276.396
 20
100.208
 10
271.626
 20
109.748
 10
271.32
 20
110.057
 10
270.89
 20
110.126
 10
270.586
 20
109.999
 10
270.374
 20
109.748
 10
266.719
 20
102.491
 10
266.359
 20
102.141
 10
265.904
 20
101.931
 10
265.079
 20
101.921
 10
264.409
 20
102.268
 10
264.079
 20
102.689
 10
259.638
 20
110.812
 10
259.376
 20
111.02
 10
258.937
 20
111.067
 10
258.637
 20
110.921
 10
258.438
 20
110.652
 10
254.79
 20
101.957
 10
254.242
 20
101.443
 10
253.737
 20
101.272
 10
252.566
 20
101.118
 10
252.11
 20
101.247
 10
251.717
 20
101.513
 10
251.412
 20
101.911
 10
247.798
 20
108.519
 10
247.635
 20
108.671
 10
247.323
 20
108.786
 10
246.993
 20
108.744
 10
246.8
 20
108.632
 10
246.565
 20
108.26
 10
244.197
 20
98.787
 10
243.853
 20
98.128
 10
243.458
 20
97.809
 10
241.402
 20
96.542
 10
240.353
 20
95.753
 10
238.713
 20
94.224
 10
237.494
 20
92.81
  0
LWPOLYLINE
  5
93
330
17
100
AcDbEntity
  8
UST_KATMAN_KESIM
100
AcDbPolyline
 90
183
 70
1
 10
22.723
 20
25.583
 10
22.155
 20
24.491
 10
21.609
 20
24.036
 10
15.922
 20
22.116
 10
15.159
 20
21.735
 10
14.553
 20
21.209
 10
14.228
 20
20.783
 10
13.894
 20
20.105
 10
13.757
 20
19.587
 10
13.708
 20
18.832
 10
13.779
 20
18.301
 10
14.023
 20
17.585
 10
14.292
 20
17.122
 10
14.791
 20
16.553
 10
15.217
 20
16.228
 10
15.951
 20
15.875
 10
16.691
 20
15.719
 10
17.272
 20
15.715
 10
18.079
 20
15.881
 10
25.125
 20
18.199
 10
26.902
 20
18.004
 10
28.198
 20
18.149
 10
41.76
 20
23.32
 10
43.091
 20
24.023
 10
43.856
 20
24.143
 10
44.386
 20
24.004
 10
47.942
 20
22.594
 10
48.499
 20
22.11
 10
48.779
 20
21.427
 10
48.778
 20
19.95
 10
48.624
 20
19.475
 10
48.33
 20
19.07
 10
47.694
 20
18.68
 10
46.401
 20
18.526
 10
45.676
 20
18.234
 10
44.958
 20
17.604
 10
44.513
 20
16.744
 10
44.417
 20
16.264
 10
44.422
 20
15.69
 10
44.737
 20
14.727
 10
45.396
 20
13.958
 10
46.3
 20
13.499
 10
47.038
 20
13.4
 10
56.962
 20
13.4
 10
57.599
 20
13.474
 10
58.063
 20
13.631
 10
58.604
 20
13.958
 10
59.078
 20
14.443
 10
59.388
 20
14.979
 10
59.571
 20
15.632
 10
59.583
 20
16.264
 10
59.487
 20
16.744
 10
59.263
 20
17.273
 10
58.869
 20
17.863
 10
58.703
 20
18.321
 10
58.682
 20
18.807
 10
58.808
 20
19.277
 10
59.071
 20
19.687
 10
59.444
 20
20.0
 10
59.894
 20
20.185
 10
60.406
 20
20.226
 10
62.838
 20
20.055
 10
63.31
 20
19.879
 10
63.704
 20
19.565
 10
64.927
 20
17.871
 10
65.051
 20
17.404
 10
65.033
 20
16.08
 10
65.39
 20
15.027
 10
65.67
 20
14.617
 10
66.117
 20
14.17
 10
66.923
 20
13.704
 10
68.015
 20
13.5
 10
78.985
 20
13.5
 10
79.848
 20
13.626
 10
80.801
 20
14.105
 10
81.422
 20
14.736
 10
81.887
 20
15.696
 10
81.997
 20
16.529
 10
81.874
 20
17.348
 10
81.556
 20
18.063
 10
80.774
 20
19.073
 10
80.618
 20
19.538
 10
80.662
 20
20.268
 10
81.23
 20
21.479
 10
81.825
 20
21.926
 10
85.098
 20
22.97
 10
86.53
 20
23.525
 10
87.83
 20
24.101
 10
90.041
 20
25.264
 10
90.551
 20
25.366
 10
91.067
 20
25.298
 10
92.844
 20
24.573
 10
94.21
 20
24.212
 10
95.564
 20
24.006
 10
96.978
 20
23.932
 10
98.409
 20
23.996
 10
99.85
 20
24.201
 10
101.244
 20
24.537
 10
103.289
 20
25.284
 10
103.768
 20
25.335
 10
118.061
 20
22.497
 10
119.267
 20
22.411
 10
119.965
 20
22.507
 10
121.002
 20
22.862
 10
121.611
 20
23.218
 10
122.433
 20
23.944
 10
122.86
 20
24.506
 10
123.342
 20
25.49
 10
123.521
 20
26.173
 10
123.59
 20
27.221
 10
123.377
 20
28.401
 10
123.09
 20
29.095
 10
122.44
 20
30.049
 10
121.494
 20
30.86
 10
120.553
 20
31.325
 10
119.888
 20
31.513
 10
109.872
 20
33.517
 10
109.395
 20
33.688
 10
108.859
 20
34.162
 10
107.966
 20
35.98
 10
106.864
 20
37.297
 10
105.423
 20
38.393
 10
104.333
 20
38.971
 10
103.156
 20
39.427
 10
101.831
 20
39.779
 10
100.458
 20
39.992
 10
99.044
 20
40.068
 10
97.629
 20
40.007
 10
96.187
 20
39.807
 10
94.793
 20
39.474
 10
93.471
 20
39.02
 10
91.744
 20
38.299
 10
91.251
 20
38.302
 10
90.782
 20
38.456
 10
90.221
 20
38.933
 10
89.994
 20
39.371
 10
89.911
 20
39.857
 10
89.996
 20
40.968
 10
89.945
 20
41.753
 10
89.782
 20
42.537
 10
89.524
 20
43.274
 10
89.078
 20
44.16
 10
88.054
 20
45.551
 10
87.283
 20
46.338
 10
85.586
 20
47.687
 10
83.537
 20
48.917
 10
81.167
 20
50.012
 10
79.805
 20
50.528
 10
77.008
 20
51.39
 10
75.479
 20
51.767
 10
72.365
 20
52.362
 10
70.711
 20
52.593
 10
67.401
 20
52.897
 10
65.683
 20
52.975
 10
62.317
 20
52.975
 10
58.946
 20
52.771
 10
57.253
 20
52.589
 10
54.058
 20
52.088
 10
51.008
 20
51.394
 10
48.181
 20
50.523
 10
45.642
 20
49.497
 10
44.425
 20
48.897
 10
42.37
 20
47.658
 10
40.717
 20
46.338
 10
39.967
 20
45.576
 10
38.922
 20
44.16
 10
38.476
 20
43.274
 10
38.064
 20
41.815
 10
38.004
 20
41.032
 10
38.05
 20
40.295
 10
38.218
 20
39.463
 10
38.476
 20
38.726
 10
38.994
 20
37.669
 10
39.091
 20
36.925
 10
38.839
 20
36.22
 10
38.005
 20
35.127
 10
37.573
 20
34.367
 10
37.029
 20
32.746
 10
36.757
 20
32.31
 10
36.103
 20
31.858
 10
24.639
 20
27.404
 10
24.001
 20
26.995
 10
23.163
 20
26.199
  0
LWPOLYLINE
  5
94
330
17
100
AcDbEntity
  8
UST_KATMAN_KESIM
100
AcDbPolyline
 90
142
 70
1
 10
221.311
 20
24.222
 10
220.202
 20
22.993
 10
219.751
 20
22.732
 10
215.138
 20
21.765
 10
214.451
 20
21.447
 10
214.032
 20
21.125
 10
213.633
 20
20.668
 10
213.388
 20
20.252
 10
213.175
 20
19.636
 10
213.108
 20
19.157
 10
213.146
 20
18.506
 10
213.268
 20
18.038
 10
213.553
 20
17.451
 10
213.875
 20
17.032
 10
214.332
 20
16.633
 10
214.748
 20
16.388
 10
215.364
 20
16.175
 10
215.889
 20
16.106
 10
216.583
 20
16.16
 10
221.817
 20
17.189
 10
222.259
 20
17.153
 10
223.126
 20
16.896
 10
224.562
 20
16.705
 10
225.006
 20
16.455
 10
225.472
 20
15.851
 10
225.601
 20
15.357
 10
225.677
 20
14.408
 10
226.081
 20
13.564
 10
226.776
 20
12.939
 10
227.613
 20
12.635
 10
237.284
 20
12.62
 10
237.986
 20
12.816
 10
238.674
 20
13.285
 10
239.184
 20
14.014
 10
239.38
 20
14.716
 10
239.333
 20
15.547
 10
239.031
 20
16.388
 10
238.356
 20
17.027
 10
238.097
 20
17.471
 10
237.993
 20
17.975
 10
238.055
 20
18.486
 10
238.275
 20
18.951
 10
238.85
 20
19.459
 10
239.339
 20
19.62
 10
239.865
 20
19.617
 10
240.381
 20
19.44
 10
240.799
 20
19.11
 10
241.294
 20
18.193
 10
243.174
 20
16.504
 10
243.459
 20
16.105
 10
243.629
 20
15.393
 10
243.556
 20
14.908
 10
243.224
 20
13.836
 10
243.291
 20
12.805
 10
243.446
 20
12.361
 10
243.799
 20
11.774
 10
244.239
 20
11.328
 10
244.668
 20
11.042
 10
245.305
 20
10.791
 10
246.015
 20
10.7
 10
255.962
 20
10.7
 10
256.796
 20
10.82
 10
257.726
 20
11.299
 10
258.172
 20
11.739
 10
258.437
 20
12.127
 10
258.68
 20
12.704
 10
258.776
 20
13.164
 10
258.781
 20
13.79
 10
258.694
 20
14.252
 10
258.263
 20
15.142
 10
257.642
 20
15.763
 10
257.043
 20
16.095
 10
255.689
 20
16.403
 10
255.255
 20
16.666
 10
254.81
 20
17.278
 10
254.696
 20
18.027
 10
254.821
 20
18.519
 10
255.59
 20
19.974
 10
256.033
 20
21.402
 10
256.184
 20
22.515
 10
256.148
 20
24.13
 10
256.281
 20
24.662
 10
256.605
 20
25.142
 10
257.576
 20
26.232
 10
258.506
 20
27.545
 10
259.222
 20
28.889
 10
259.727
 20
30.275
 10
259.994
 20
31.627
 10
260.045
 20
32.409
 10
259.957
 20
33.669
 10
259.674
 20
35.06
 10
259.749
 20
35.54
 10
259.965
 20
35.975
 10
260.302
 20
36.325
 10
260.729
 20
36.558
 10
263.403
 20
36.929
 10
265.819
 20
37.705
 10
266.295
 20
37.696
 10
271.705
 20
36.846
 10
272.039
 20
36.875
 10
276.195
 20
39.988
 10
276.445
 20
40.354
 10
276.425
 20
40.796
 10
276.144
 20
41.138
 10
271.629
 20
43.976
 10
271.233
 20
44.318
 10
270.902
 20
44.979
 10
270.637
 20
46.525
 10
270.073
 20
47.822
 10
269.542
 20
48.587
 10
268.912
 20
49.256
 10
267.688
 20
50.161
 10
266.178
 20
50.85
 10
265.143
 20
51.135
 10
264.059
 20
51.303
 10
262.914
 20
51.351
 10
261.772
 20
51.275
 10
259.987
 20
50.912
 10
258.394
 20
50.316
 10
257.33
 20
49.75
 10
255.981
 20
48.774
 10
255.15
 20
47.97
 10
254.208
 20
46.73
 10
253.699
 20
45.768
 10
253.258
 20
44.399
 10
253.085
 20
43.184
 10
252.85
 20
42.678
 10
251.077
 20
40.901
 10
250.331
 20
40.616
 10
248.93
 20
40.62
 10
247.152
 20
40.493
 10
244.398
 20
39.966
 10
241.706
 20
39.056
 10
239.179
 20
37.798
 10
236.898
 20
36.227
 10
234.971
 20
34.412
 10
233.968
 20
33.166
 10
233.494
 20
32.455
 10
232.778
 20
31.111
 10
232.252
 20
29.744
 10
231.726
 20
29.153
 10
222.229
 20
24.806
  0
LWPOLYLINE
  5
95
330
17
100
AcDbEntity
  8
UST_KATMAN_KESIM
100
AcDbPolyline
 90
18
 70
1
 10
73.299
 20
140.235
 10
62.316
 20
139.702
 10
62.319
 20
139.609
 10
62.495
 20
138.545
 10
62.875
 20
137.536
 10
63.444
 20
136.621
 10
64.181
 20
135.834
 10
65.057
 20
135.206
 10
66.039
 20
134.761
 10
67.089
 20
134.516
 10
68.167
 20
134.481
 10
69.231
 20
134.656
 10
70.24
 20
135.036
 10
71.156
 20
135.605
 10
71.942
 20
136.342
 10
72.57
 20
137.219
 10
73.015
 20
138.201
 10
73.26
 20
139.251
  0
LWPOLYLINE
  5
96
330
17
100
AcDbEntity
  8
UST_KATMAN_KESIM
100
AcDbPolyline
 90
40
 70
1
 10
182.704
 20
137.228
 10
181.831
 20
138.205
 10
180.955
 20
138.833
 10
179.973
 20
139.278
 10
178.923
 20
139.523
 10
177.845
 20
139.558
 10
176.781
 20
139.382
 10
175.772
 20
139.003
 10
174.856
 20
138.433
 10
174.07
 20
137.696
 10
173.442
 20
136.82
 10
172.997
 20
135.838
 10
172.752
 20
134.788
 10
172.716
 20
133.71
 10
172.892
 20
132.646
 10
173.272
 20
131.637
 10
173.841
 20
130.722
 10
174.578
 20
129.935
 10
175.455
 20
129.307
 10
176.437
 20
128.862
 10
177.487
 20
128.617
 10
178.564
 20
128.582
 10
179.628
 20
128.757
 10
180.637
 20
129.137
 10
181.553
 20
129.706
 10
182.34
 20
130.444
 10
183.128
 20
131.619
 10
181.152
 20
131.208
 10
180.469
 20
131.254
 10
179.777
 20
131.485
 10
179.167
 20
131.887
 10
178.658
 20
132.472
 10
178.26
 20
133.439
 10
178.205
 20
134.07
 10
178.254
 20
134.531
 10
178.444
 20
135.134
 10
178.666
 20
135.541
 10
179.073
 20
136.026
 10
179.472
 20
136.342
 10
180.426
 20
136.74
  0
LWPOLYLINE
  5
97
330
17
100
AcDbEntity
  8
UST_KATMAN_KESIM
100
AcDbPolyline
 90
23
 70
1
 10
57.881
 20
103.69
 10
57.695
 20
105.166
 10
57.316
 20
106.175
 10
56.746
 20
107.091
 10
56.009
 20
107.878
 10
55.133
 20
108.506
 10
54.151
 20
108.951
 10
53.101
 20
109.195
 10
52.023
 20
109.231
 10
50.959
 20
109.055
 10
49.95
 20
108.675
 10
49.035
 20
108.106
 10
48.248
 20
107.369
 10
47.62
 20
106.492
 10
47.175
 20
105.51
 10
46.93
 20
104.46
 10
46.895
 20
103.383
 10
47.009
 20
102.582
 10
48.708
 20
103.092
 10
49.973
 20
103.376
 10
52.383
 20
103.742
 10
54.805
 20
103.88
 10
56.049
 20
103.86
  0
LWPOLYLINE
  5
98
330
17
100
AcDbEntity
  8
UST_KATMAN_KESIM
100
AcDbPolyline
 90
21
 70
1
 10
168.466
 20
98.359
 10
168.29
 20
99.423
 10
167.91
 20
100.432
 10
167.341
 20
101.348
 10
166.604
 20
102.135
 10
165.727
 20
102.763
 10
164.745
 20
103.208
 10
163.695
 20
103.453
 10
162.618
 20
103.488
 10
161.554
 20
103.312
 10
160.545
 20
102.932
 10
159.629
 20
102.363
 10
158.842
 20
101.626
 10
158.214
 20
100.75
 10
157.769
 20
99.767
 10
157.524
 20
98.717
 10
157.489
 20
97.64
 10
159.746
 20
97.872
 10
162.977
 20
98.0
 10
164.658
 20
97.967
 10
168.463
 20
97.617
  0
LWPOLYLINE
  5
99
330
17
100
AcDbEntity
  8
UST_KATMAN_KESIM
100
AcDbPolyline
 90
33
 70
1
 10
217.417
 20
85.158
 10
216.014
 20
85.436
 10
214.937
 20
85.401
 10
213.887
 20
85.156
 10
212.904
 20
84.711
 10
212.028
 20
84.083
 10
211.291
 20
83.296
 10
210.722
 20
82.38
 10
210.342
 20
81.371
 10
210.166
 20
80.308
 10
210.202
 20
79.23
 10
210.446
 20
78.18
 10
210.891
 20
77.198
 10
211.519
 20
76.321
 10
212.306
 20
75.584
 10
213.222
 20
75.015
 10
214.231
 20
74.635
 10
215.654
 20
74.448
 10
217.078
 20
74.635
 10
218.404
 20
75.185
 10
219.003
 20
75.584
 10
219.6
 20
76.119
 10
218.727
 20
76.464
 10
217.907
 20
76.921
 10
217.192
 20
77.464
 10
216.592
 20
78.084
 10
216.087
 20
78.829
 10
215.661
 20
79.902
 10
215.53
 20
80.772
 10
215.614
 20
81.947
 10
215.869
 20
82.834
 10
216.46
 20
84.0
 10
217.062
 20
84.808
  0
LWPOLYLINE
  5
9A
330
17
100
AcDbEntity
  8
UST_KATMAN_KESIM
100
AcDbPolyline
 90
37
 70
1
 10
128.755
 20
25.697
 10
128.579
 20
26.761
 10
128.03
 20
28.087
 10
127.402
 20
28.964
 10
126.323
 20
29.911
 10
125.372
 20
30.419
 10
123.985
 20
30.79
 10
122.907
 20
30.826
 10
121.766
 20
30.627
 10
122.44
 20
30.049
 10
123.09
 20
29.095
 10
123.377
 20
28.401
 10
123.59
 20
27.221
 10
123.521
 20
26.173
 10
123.342
 20
25.49
 10
122.86
 20
24.506
 10
122.433
 20
23.944
 10
121.611
 20
23.218
 10
121.002
 20
22.862
 10
119.965
 20
22.507
 10
119.267
 20
22.411
 10
118.583
 20
22.46
 10
119.132
 20
21.711
 10
119.919
 20
20.974
 10
120.517
 20
20.574
 10
121.499
 20
20.129
 10
122.194
 20
19.943
 10
123.267
 20
19.837
 10
124.34
 20
19.943
 10
125.035
 20
20.129
 10
126.017
 20
20.574
 10
126.615
 20
20.974
 10
127.402
 20
21.711
 10
127.84
 20
22.282
 10
128.348
 20
23.233
 10
128.579
 20
23.914
 10
128.755
 20
24.978
  0
LWPOLYLINE
  5
9B
330
17
100
AcDbEntity
  8
UST_KATMAN_KESIM
100
AcDbPolyline
 90
43
 70
1
 10
217.217
 20
22.201
 10
216.202
 20
23.079
 10
215.251
 20
23.587
 10
214.219
 20
23.9
 10
213.146
 20
24.006
 10
212.073
 20
23.9
 10
211.042
 20
23.587
 10
210.091
 20
23.079
 10
209.257
 20
22.395
 10
208.573
 20
21.562
 10
208.065
 20
20.611
 10
207.752
 20
19.579
 10
207.646
 20
18.506
 10
207.752
 20
17.433
 10
208.065
 20
16.401
 10
208.573
 20
15.45
 10
209.257
 20
14.617
 10
210.091
 20
13.933
 10
211.042
 20
13.425
 10
212.073
 20
13.112
 10
213.146
 20
13.006
 10
214.219
 20
13.112
 10
215.251
 20
13.425
 10
216.202
 20
13.933
 10
217.035
 20
14.617
 10
217.719
 20
15.45
 10
218.261
 20
16.489
 10
216.583
 20
16.16
 10
215.889
 20
16.106
 10
215.364
 20
16.175
 10
214.748
 20
16.388
 10
214.332
 20
16.633
 10
213.875
 20
17.032
 10
213.553
 20
17.451
 10
213.268
 20
18.038
 10
213.146
 20
18.506
 10
213.108
 20
19.157
 10
213.175
 20
19.636
 10
213.388
 20
20.252
 10
213.633
 20
20.668
 10
214.032
 20
21.125
 10
214.451
 20
21.447
 10
215.138
 20
21.765
  0
LWPOLYLINE
  5
9C
330
17
100
AcDbEntity
  8
ALT_KATMAN_KESIM
100
AcDbPolyline
 90
68
 70
1
 10
647.0
 20
180.0
 10
343.0
 20
180.0
 10
342.216
 20
179.961
 10
341.439
 20
179.846
 10
340.678
 20
179.656
 10
339.939
 20
179.391
 10
339.229
 20
179.055
 10
338.555
 20
178.652
 10
337.925
 20
178.184
 10
337.343
 20
177.657
 10
336.816
 20
177.075
 10
336.348
 20
176.445
 10
335.945
 20
175.771
 10
335.609
 20
175.061
 10
335.344
 20
174.322
 10
335.154
 20
173.561
 10
335.039
 20
172.784
 10
335.0
 20
172.0
 10
335.0
 20
8.0
 10
335.039
 20
7.216
 10
335.154
 20
6.439
 10
335.344
 20
5.678
 10
335.609
 20
4.939
 10
335.945
 20
4.229
 10
336.348
 20
3.555
 10
336.816
 20
2.925
 10
337.343
 20
2.343
 10
337.925
 20
1.816
 10
338.555
 20
1.348
 10
339.229
 20
0.945
 10
339.939
 20
0.609
 10
340.678
 20
0.344
 10
341.439
 20
0.154
 10
342.216
 20
0.039
 10
343.0
 20
0.0
 10
647.0
 20
0.0
 10
647.784
 20
0.039
 10
648.561
 20
0.154
 10
649.322
 20
0.344
 10
650.061
 20
0.609
 10
650.771
 20
0.945
 10
651.445
 20
1.348
 10
652.075
 20
1.816
 10
652.657
 20
2.343
 10
653.184
 20
2.925
 10
653.652
 20
3.555
 10
654.055
 20
4.229
 10
654.391
 20
4.939
 10
654.656
 20
5.678
 10
654.846
 20
6.439
 10
654.961
 20
7.216
 10
655.0
 20
8.0
 10
655.0
 20
172.0
 10
654.961
 20
172.784
 10
654.846
 20
173.561
 10
654.656
 20
174.322
 10
654.391
 20
175.061
 10
654.055
 20
175.771
 10
653.652
 20
176.445
 10
653.184
 20
177.075
 10
652.657
 20
177.657
 10
652.075
 20
178.184
 10
651.445
 20
178.652
 10
650.771
 20
179.055
 10
650.061
 20
179.391
 10
649.322
 20
179.656
 10
648.561
 20
179.846
 10
647.784
 20
179.961
  0
TEXT
  5
9D
330
17
100
AcDbEntity
  8
YAZI
100
AcDbText
 10
0.0
 20
186.0
 30
0.0
 40
6.0
  1
UST KATMAN - dinozorlar + cepler (320x180)
 11
0.0
 21
186.0
 31
0.0
100
AcDbText
  0
TEXT
  5
9E
330
17
100
AcDbEntity
  8
YAZI
100
AcDbText
 10
335.0
 20
186.0
 30
0.0
 40
6.0
  1
ALT KATMAN - duz taban (320x180)
 11
335.0
 21
186.0
 31
0.0
100
AcDbText
  0
ENDSEC
  0
SECTION
  2
OBJECTS
  0
DICTIONARY
  5
A
330
0
100
AcDbDictionary
281
1
  3
ACAD_COLOR
350
B
  3
ACAD_GROUP
350
C
  3
ACAD_LAYOUT
350
D
  3
ACAD_MATERIAL
350
E
  3
ACAD_MLEADERSTYLE
350
F
  3
ACAD_MLINESTYLE
350
10
  3
ACAD_PLOTSETTINGS
350
11
  3
ACAD_PLOTSTYLENAME
350
12
  3
ACAD_SCALELIST
350
14
  3
ACAD_TABLESTYLE
350
15
  3
ACAD_VISUALSTYLE
350
16
  3
EZDXF_META
350
2D
  0
DICTIONARY
  5
B
330
A
100
AcDbDictionary
281
1
  0
DICTIONARY
  5
C
330
A
100
AcDbDictionary
281
1
  0
DICTIONARY
  5
D
330
A
100
AcDbDictionary
281
1
  3
Model
350
1A
  3
Layout1
350
1E
  0
DICTIONARY
  5
E
330
A
100
AcDbDictionary
281
1
  3
ByBlock
350
1F
  3
ByLayer
350
20
  3
Global
350
21
  0
DICTIONARY
  5
F
330
A
100
AcDbDictionary
281
1
  3
Standard
350
2C
  0
DICTIONARY
  5
10
330
A
100
AcDbDictionary
281
1
  3
Standard
350
22
  0
DICTIONARY
  5
11
330
A
100
AcDbDictionary
281
1
  0
ACDBDICTIONARYWDFLT
  5
12
330
A
100
AcDbDictionary
281
1
  3
Normal
350
13
100
AcDbDictionaryWithDefault
340
13
  0
ACDBPLACEHOLDER
  5
13
330
12
  0
DICTIONARY
  5
14
330
A
100
AcDbDictionary
281
1
  0
DICTIONARY
  5
15
330
A
100
AcDbDictionary
281
1
  0
DICTIONARY
  5
16
330
A
100
AcDbDictionary
281
1
  3
2dWireframe
350
5A
  3
Basic
350
5B
  3
Brighten
350
5C
  3
ColorChange
350
5D
  3
Conceptual
350
5E
  3
Dim
350
5F
  3
EdgeColorOff
350
60
  3
Facepattern
350
61
  3
Flat
350
62
  3
FlatWithEdges
350
63
  3
Gouraud
350
64
  3
GouraudWithEdges
350
65
  3
Hidden
350
66
  3
JitterOff
350
67
  3
Linepattern
350
68
  3
Modeling
350
69
  3
OverhangOff
350
6A
  3
Realistic
350
6B
  3
Shaded
350
6C
  3
Shaded with edges
350
6D
  3
Shades of Gray
350
6E
  3
Sketchy
350
6F
  3
Thicken
350
70
  3
Wireframe
350
71
  3
X-Ray
350
72
  0
LAYOUT
  5
1A
330
D
100
AcDbPlotSettings
  1

  4
A3
  6

 40
7.5
 41
20.0
 42
7.5
 43
20.0
 44
420.0
 45
297.0
 46
0.0
 47
0.0
 48
0.0
 49
0.0
140
0.0
141
0.0
142
1.0
143
1.0
 70
1024
 72
1
 73
0
 74
5
  7

 75
16
 76
0
 77
2
 78
300
147
1.0
148
0.0
149
0.0
100
AcDbLayout
  1
Model
 70
1
 71
0
 10
0.0
 20
0.0
 11
420.0
 21
297.0
 12
0.0
 22
0.0
 32
0.0
 14
1e+20
 24
1e+20
 34
1e+20
 15
-1e+20
 25
-1e+20
 35
-1e+20
146
0.0
 13
0.0
 23
0.0
 33
0.0
 16
1.0
 26
0.0
 36
0.0
 17
0.0
 27
1.0
 37
0.0
 76
1
330
17
  0
LAYOUT
  5
1E
330
D
100
AcDbPlotSettings
  1

  4
A3
  6

 40
7.5
 41
20.0
 42
7.5
 43
20.0
 44
420.0
 45
297.0
 46
0.0
 47
0.0
 48
0.0
 49
0.0
140
0.0
141
0.0
142
1.0
143
1.0
 70
0
 72
1
 73
0
 74
5
  7

 75
16
 76
0
 77
2
 78
300
147
1.0
148
0.0
149
0.0
100
AcDbLayout
  1
Layout1
 70
1
 71
1
 10
0.0
 20
0.0
 11
420.0
 21
297.0
 12
0.0
 22
0.0
 32
0.0
 14
1e+20
 24
1e+20
 34
1e+20
 15
-1e+20
 25
-1e+20
 35
-1e+20
146
0.0
 13
0.0
 23
0.0
 33
0.0
 16
1.0
 26
0.0
 36
0.0
 17
0.0
 27
1.0
 37
0.0
 76
1
330
1B
  0
MATERIAL
  5
1F
102
{ACAD_REACTORS
330
E
102
}
330
E
100
AcDbMaterial
  1
ByBlock
  2

 70
0
 40
1.0
 71
1
 41
1.0
 91
-1023410177
 42
1.0
 72
1
  3

 73
1
 74
1
 75
1
 44
0.5
 73
0
 45
1.0
 46
1.0
 77
1
  4

 78
1
 79
1
170
1
 48
1.0
171
1
  6

172
1
173
1
174
1
140
1.0
141
1.0
175
1
  7

176
1
177
1
178
1
143
1.0
179
1
  8

270
1
271
1
272
1
145
1.0
146
1.0
273
1
  9

274
1
275
1
276
1
 42
1.0
 72
1
  3

 73
1
 74
1
 75
1
 94
63
  0
MATERIAL
  5
20
102
{ACAD_REACTORS
330
E
102
}
330
E
100
AcDbMaterial
  1
ByLayer
  2

 70
0
 40
1.0
 71
1
 41
1.0
 91
-1023410177
 42
1.0
 72
1
  3

 73
1
 74
1
 75
1
 44
0.5
 73
0
 45
1.0
 46
1.0
 77
1
  4

 78
1
 79
1
170
1
 48
1.0
171
1
  6

172
1
173
1
174
1
140
1.0
141
1.0
175
1
  7

176
1
177
1
178
1
143
1.0
179
1
  8

270
1
271
1
272
1
145
1.0
146
1.0
273
1
  9

274
1
275
1
276
1
 42
1.0
 72
1
  3

 73
1
 74
1
 75
1
 94
63
  0
MATERIAL
  5
21
102
{ACAD_REACTORS
330
E
102
}
330
E
100
AcDbMaterial
  1
Global
  2

 70
0
 40
1.0
 71
1
 41
1.0
 91
-1023410177
 42
1.0
 72
1
  3

 73
1
 74
1
 75
1
 44
0.5
 73
0
 45
1.0
 46
1.0
 77
1
  4

 78
1
 79
1
170
1
 48
1.0
171
1
  6

172
1
173
1
174
1
140
1.0
141
1.0
175
1
  7

176
1
177
1
178
1
143
1.0
179
1
  8

270
1
271
1
272
1
145
1.0
146
1.0
273
1
  9

274
1
275
1
276
1
 42
1.0
 72
1
  3

 73
1
 74
1
 75
1
 94
63
  0
MLINESTYLE
  5
22
102
{ACAD_REACTORS
330
10
102
}
330
10
100
AcDbMlineStyle
  2
Standard
 70
0
  3

 62
256
 51
90.0
 52
90.0
 71
2
 49
0.5
 62
256
  6
BYLAYER
 49
-0.5
 62
256
  6
BYLAYER
  0
MLEADERSTYLE
  5
2C
102
{ACAD_REACTORS
330
F
102
}
330
F
100
AcDbMLeaderStyle
179
2
170
2
171
1
172
0
 90
2
 40
0.0
 41
0.0
173
1
 91
-1056964608
 92
-2
290
1
 42
2.0
291
1
 43
8.0
  3
Standard
 44
4.0
300

342
29
174
1
175
1
176
0
178
1
 93
-1056964608
 45
4.0
292
0
297
0
 46
4.0
 94
-1056964608
 47
1.0
 49
1.0
140
1.0
294
1
141
0.0
177
0
142
1.0
295
0
296
0
143
3.75
271
0
272
9
273
9
  0
DICTIONARY
  5
2D
330
A
100
AcDbDictionary
280
1
281
1
  3
CREATED_BY_EZDXF
350
2E
  3
WRITTEN_BY_EZDXF
350
A1
  0
DICTIONARYVAR
  5
2E
330
2D
100
DictionaryVariables
280
0
  1
1.4.4 @ 2026-08-10T10:30:35.756961+00:00
  0
VISUALSTYLE
  5
5A
102
{ACAD_REACTORS
330
16
102
}
330
16
100
AcDbVisualStyle
  2
2dWireframe
 70
4
 90
0
 40
0.6
 62
7
290
0
291
0
  0
VISUALSTYLE
  5
5B
102
{ACAD_REACTORS
330
16
102
}
330
16
100
AcDbVisualStyle
  2
Basic
 70
7
 90
1
 40
0.6
 62
7
290
0
291
1
  0
VISUALSTYLE
  5
5C
102
{ACAD_REACTORS
330
16
102
}
330
16
100
AcDbVisualStyle
  2
Brighten
 70
12
 90
2
 40
0.6
 62
7
290
0
291
1
  0
VISUALSTYLE
  5
5D
102
{ACAD_REACTORS
330
16
102
}
330
16
100
AcDbVisualStyle
  2
ColorChange
 70
16
 90
2
 40
0.6
 62
8
290
0
291
1
  0
VISUALSTYLE
  5
5E
102
{ACAD_REACTORS
330
16
102
}
330
16
100
AcDbVisualStyle
  2
Conceptual
 70
9
 90
3
 40
0.6
 62
7
290
0
291
0
  0
VISUALSTYLE
  5
5F
102
{ACAD_REACTORS
330
16
102
}
330
16
100
AcDbVisualStyle
  2
Dim
 70
11
 90
2
 40
0.6
 62
7
290
0
291
1
  0
VISUALSTYLE
  5
60
102
{ACAD_REACTORS
330
16
102
}
330
16
100
AcDbVisualStyle
  2
EdgeColorOff
 70
22
 90
2
 40
0.6
 62
7
290
0
291
1
  0
VISUALSTYLE
  5
61
102
{ACAD_REACTORS
330
16
102
}
330
16
100
AcDbVisualStyle
  2
Facepattern
 70
15
 90
2
 40
0.6
 62
7
290
0
291
1
  0
VISUALSTYLE
  5
62
102
{ACAD_REACTORS
330
16
102
}
330
16
100
AcDbVisualStyle
  2
Flat
 70
0
 90
2
 40
0.6
 62
7
290
0
291
1
  0
VISUALSTYLE
  5
63
102
{ACAD_REACTORS
330
16
102
}
330
16
100
AcDbVisualStyle
  2
FlatWithEdges
 70
1
 90
2
 40
0.6
 62
7
290
0
291
1
  0
VISUALSTYLE
  5
64
102
{ACAD_REACTORS
330
16
102
}
330
16
100
AcDbVisualStyle
  2
Gouraud
 70
2
 90
2
 40
0.6
 62
7
290
0
291
1
  0
VISUALSTYLE
  5
65
102
{ACAD_REACTORS
330
16
102
}
330
16
100
AcDbVisualStyle
  2
GouraudWithEdges
 70
3
 90
2
 40
0.6
 62
7
290
0
291
1
  0
VISUALSTYLE
  5
66
102
{ACAD_REACTORS
330
16
102
}
330
16
100
AcDbVisualStyle
  2
Hidden
 70
6
 90
1
 40
0.6
 62
7
290
0
291
0
  0
VISUALSTYLE
  5
67
102
{ACAD_REACTORS
330
16
102
}
330
16
100
AcDbVisualStyle
  2
JitterOff
 70
20
 90
2
 40
0.6
 62
7
290
0
291
1
  0
VISUALSTYLE
  5
68
102
{ACAD_REACTORS
330
16
102
}
330
16
100
AcDbVisualStyle
  2
Linepattern
 70
14
 90
2
 40
0.6
 62
7
290
0
291
1
  0
VISUALSTYLE
  5
69
102
{ACAD_REACTORS
330
16
102
}
330
16
100
AcDbVisualStyle
  2
Modeling
 70
10
 90
2
 40
0.6
 62
7
290
0
291
0
  0
VISUALSTYLE
  5
6A
102
{ACAD_REACTORS
330
16
102
}
330
16
100
AcDbVisualStyle
  2
OverhangOff
 70
21
 90
2
 40
0.6
 62
7
290
0
291
1
  0
VISUALSTYLE
  5
6B
102
{ACAD_REACTORS
330
16
102
}
330
16
100
AcDbVisualStyle
  2
Realistic
 70
8
 90
2
 40
0.6
 62
7
290
0
291
0
  0
VISUALSTYLE
  5
6C
102
{ACAD_REACTORS
330
16
102
}
330
16
100
AcDbVisualStyle
  2
Shaded
 70
27
 90
2
 40
0.6
 62
7
290
0
291
0
  0
VISUALSTYLE
  5
6D
102
{ACAD_REACTORS
330
16
102
}
330
16
100
AcDbVisualStyle
  2
Shaded with edges
 70
26
 90
2
 40
0.6
 62
7
290
0
291
0
  0
VISUALSTYLE
  5
6E
102
{ACAD_REACTORS
330
16
102
}
330
16
100
AcDbVisualStyle
  2
Shades of Gray
 70
23
 90
2
 40
0.6
 62
7
290
0
291
0
  0
VISUALSTYLE
  5
6F
102
{ACAD_REACTORS
330
16
102
}
330
16
100
AcDbVisualStyle
  2
Sketchy
 70
24
 90
1
 40
0.6
 62
7
290
0
291
0
  0
VISUALSTYLE
  5
70
102
{ACAD_REACTORS
330
16
102
}
330
16
100
AcDbVisualStyle
  2
Thicken
 70
13
 90
2
 40
0.6
 62
7
290
0
291
1
  0
VISUALSTYLE
  5
71
102
{ACAD_REACTORS
330
16
102
}
330
16
100
AcDbVisualStyle
  2
Wireframe
 70
5
 90
0
 40
0.6
 62
7
290
0
291
0
  0
VISUALSTYLE
  5
72
102
{ACAD_REACTORS
330
16
102
}
330
16
100
AcDbVisualStyle
  2
X-Ray
 70
25
 90
2
 40
0.5
 62
7
290
0
291
0
  0
DICTIONARYVAR
  5
A1
330
2D
100
DictionaryVariables
280
0
  1
1.4.4 @ 2026-08-10T10:30:35.772156+00:00
  0
ENDSEC
  0
EOF
