  0
SECTION
  2
HEADER
  9
$ACADVER
  1
AC1024
  9
$ACADMAINTVER
 70
6
  9
$DWGCODEPAGE
  3
ANSI_1252
  9
$LASTSAVEDBY
  1
ezdxf
  9
$INSBASE
 10
0.0
 20
0.0
 30
0.0
  9
$EXTMIN
 10
1e+20
 20
1e+20
 30
1e+20
  9
$EXTMAX
 10
-1e+20
 20
-1e+20
 30
-1e+20
  9
$LIMMIN
 10
0.0
 20
0.0
  9
$LIMMAX
 10
420.0
 20
297.0
  9
$ORTHOMODE
 70
0
  9
$REGENMODE
 70
1
  9
$FILLMODE
 70
1
  9
$QTEXTMODE
 70
0
  9
$MIRRTEXT
 70
1
  9
$LTSCALE
 40
1.0
  9
$ATTMODE
 70
1
  9
$TEXTSIZE
 40
2.5
  9
$TRACEWID
 40
1.0
  9
$TEXTSTYLE
  7
OpenSans
  9
$CLAYER
  8
0
  9
$CELTYPE
  6
ByLayer
  9
$CECOLOR
 62
256
  9
$CELTSCALE
 40
1.0
  9
$DISPSILH
 70
0
  9
$DIMSCALE
 40
1.0
  9
$DIMASZ
 40
0.175
  9
$DIMEXO
 40
0.125
  9
$DIMDLI
 40
3.75
  9
$DIMRND
 40
0.0
  9
$DIMDLE
 40
0.0
  9
$DIMEXE
 40
0.375
  9
$DIMTP
 40
0.0
  9
$DIMTM
 40
0.0
  9
$DIMTXT
 40
0.25
  9
$DIMCEN
 40
2.5
  9
$DIMTSZ
 40
0.0
  9
$DIMTOL
 70
0
  9
$DIMLIM
 70
0
  9
$DIMTIH
 70
0
  9
$DIMTOH
 70
0
  9
$DIMSE1
 70
0
  9
$DIMSE2
 70
0
  9
$DIMTAD
 70
1
  9
$DIMZIN
 70
12
  9
$DIMBLK
  1
ARCHTICK
  9
$DIMASO
 70
1
  9
$DIMSHO
 70
1
  9
$DIMPOST
  1

  9
$DIMAPOST
  1

  9
$DIMALT
 70
0
  9
$DIMALTD
 70
3
  9
$DIMALTF
 40
0.03937007874
  9
$DIMLFAC
 40
100.0
  9
$DIMTOFL
 70
1
  9
$DIMTVP
 40
0.0
  9
$DIMTIX
 70
0
  9
$DIMSOXD
 70
0
  9
$DIMSAH
 70
0
  9
$DIMBLK1
  1

  9
$DIMBLK2
  1

  9
$DIMSTYLE
  2
EZDXF
  9
$DIMCLRD
 70
0
  9
$DIMCLRE
 70
0
  9
$DIMCLRT
 70
0
  9
$DIMTFAC
 40
0.5
  9
$DIMGAP
 40
0.1
  9
$DIMJUST
 70
0
  9
$DIMSD1
 70
0
  9
$DIMSD2
 70
0
  9
$DIMTOLJ
 70
0
  9
$DIMTZIN
 70
8
  9
$DIMALTZ
 70
0
  9
$DIMALTTZ
 70
0
  9
$DIMUPT
 70
1
  9
$DIMDEC
 70
2
  9
$DIMTDEC
 70
2
  9
$DIMALTU
 70
2
  9
$DIMALTTD
 70
3
  9
$DIMTXSTY
  7
OpenSansCondensed-Light
  9
$DIMAUNIT
 70
0
  9
$DIMADEC
 70
2
  9
$DIMALTRND
 40
0.0
  9
$DIMAZIN
 70
3
  9
$DIMDSEP
 70
46
  9
$DIMATFIT
 70
3
  9
$DIMFRAC
 70
0
  9
$DIMLDRBLK
  1

  9
$DIMLUNIT
 70
2
  9
$DIMLWD
 70
-2
  9
$DIMLWE
 70
-2
  9
$DIMTMOVE
 70
2
  9
$DIMFXL
 40
1.0
  9
$DIMFXLON
 70
0
  9
$DIMJOGANG
 40
0.785398163397
  9
$DIMTFILL
 70
0
  9
$DIMTFILLCLR
 70
0
  9
$DIMARCSYM
 70
0
  9
$DIMLTYPE
  6

  9
$DIMLTEX1
  6

  9
$DIMLTEX2
  6

  9
$DIMTXTDIRECTION
 70
0
  9
$LUNITS
 70
2
  9
$LUPREC
 70
4
  9
$SKETCHINC
 40
1.0
  9
$FILLETRAD
 40
10.0
  9
$AUNITS
 70
0
  9
$AUPREC
 70
2
  9
$MENU
  1
.
  9
$ELEVATION
 40
0.0
  9
$PELEVATION
 40
0.0
  9
$THICKNESS
 40
0.0
  9
$LIMCHECK
 70
0
  9
$CHAMFERA
 40
0.0
  9
$CHAMFERB
 40
0.0
  9
$CHAMFERC
 40
0.0
  9
$CHAMFERD
 40
0.0
  9
$SKPOLY
 70
0
  9
$TDCREATE
 40
2461264.4263310186
  9
$TDUCREATE
 40
2458532.153996898
  9
$TDUPDATE
 40
2461264.4263310186
  9
$TDUUPDATE
 40
2458532.1544311
  9
$TDINDWG
 40
0.0
  9
$TDUSRTIMER
 40
0.0
  9
$USRTIMER
 70
1
  9
$ANGBASE
 50
0.0
  9
$ANGDIR
 70
0
  9
$PDMODE
 70
0
  9
$PDSIZE
 40
0.0
  9
$PLINEWID
 40
0.0
  9
$SPLFRAME
 70
0
  9
$SPLINETYPE
 70
6
  9
$SPLINESEGS
 70
8
  9
$HANDSEED
  5
A7
  9
$SURFTAB1
 70
6
  9
$SURFTAB2
 70
6
  9
$SURFTYPE
 70
6
  9
$SURFU
 70
6
  9
$SURFV
 70
6
  9
$UCSBASE
  2

  9
$UCSNAME
  2

  9
$UCSORG
 10
0.0
 20
0.0
 30
0.0
  9
$UCSXDIR
 10
1.0
 20
0.0
 30
0.0
  9
$UCSYDIR
 10
0.0
 20
1.0
 30
0.0
  9
$UCSORTHOREF
  2

  9
$UCSORTHOVIEW
 70
0
  9
$UCSORGTOP
 10
0.0
 20
0.0
 30
0.0
  9
$UCSORGBOTTOM
 10
0.0
 20
0.0
 30
0.0
  9
$UCSORGLEFT
 10
0.0
 20
0.0
 30
0.0
  9
$UCSORGRIGHT
 10
0.0
 20
0.0
 30
0.0
  9
$UCSORGFRONT
 10
0.0
 20
0.0
 30
0.0
  9
$UCSORGBACK
 10
0.0
 20
0.0
 30
0.0
  9
$PUCSBASE
  2

  9
$PUCSNAME
  2

  9
$PUCSORG
 10
0.0
 20
0.0
 30
0.0
  9
$PUCSXDIR
 10
1.0
 20
0.0
 30
0.0
  9
$PUCSYDIR
 10
0.0
 20
1.0
 30
0.0
  9
$PUCSORTHOREF
  2

  9
$PUCSORTHOVIEW
 70
0
  9
$PUCSORGTOP
 10
0.0
 20
0.0
 30
0.0
  9
$PUCSORGBOTTOM
 10
0.0
 20
0.0
 30
0.0
  9
$PUCSORGLEFT
 10
0.0
 20
0.0
 30
0.0
  9
$PUCSORGRIGHT
 10
0.0
 20
0.0
 30
0.0
  9
$PUCSORGFRONT
 10
0.0
 20
0.0
 30
0.0
  9
$PUCSORGBACK
 10
0.0
 20
0.0
 30
0.0
  9
$USERI1
 70
0
  9
$USERI2
 70
0
  9
$USERI3
 70
0
  9
$USERI4
 70
0
  9
$USERI5
 70
0
  9
$USERR1
 40
0.0
  9
$USERR2
 40
0.0
  9
$USERR3
 40
0.0
  9
$USERR4
 40
0.0
  9
$USERR5
 40
0.0
  9
$WORLDVIEW
 70
1
  9
$SHADEDGE
 70
3
  9
$SHADEDIF
 70
70
  9
$TILEMODE
 70
1
  9
$MAXACTVP
 70
64
  9
$PINSBASE
 10
0.0
 20
0.0
 30
0.0
  9
$PLIMCHECK
 70
0
  9
$PEXTMIN
 10
1e+20
 20
1e+20
 30
1e+20
  9
$PEXTMAX
 10
-1e+20
 20
-1e+20
 30
-1e+20
  9
$PLIMMIN
 10
0.0
 20
0.0
  9
$PLIMMAX
 10
420.0
 20
297.0
  9
$UNITMODE
 70
0
  9
$VISRETAIN
 70
1
  9
$PLINEGEN
 70
0
  9
$PSLTSCALE
 70
1
  9
$TREEDEPTH
 70
3020
  9
$CMLSTYLE
  2
Standard
  9
$CMLJUST
 70
0
  9
$CMLSCALE
 40
20.0
  9
$PROXYGRAPHICS
 70
1
  9
$MEASUREMENT
 70
1
  9
$CELWEIGHT
370
-1
  9
$ENDCAPS
280
0
  9
$JOINSTYLE
280
0
  9
$LWDISPLAY
290
0
  9
$INSUNITS
 70
4
  9
$HYPERLINKBASE
  1

  9
$STYLESHEET
  1

  9
$XEDIT
290
1
  9
$CEPSNTYPE
380
0
  9
$PSTYLEMODE
290
1
  9
$FINGERPRINTGUID
  2
{15C2766D-EF01-49AD-ACC5-19A7FB6FD312}
  9
$VERSIONGUID
  2
{6844DD58-74AF-41A7-B2E0-5F3572F72860}
  9
$EXTNAMES
290
1
  9
$PSVPSCALE
 40
0.0
  9
$OLESTARTUP
290
0
  9
$SORTENTS
280
127
  9
$INDEXCTL
280
0
  9
$HIDETEXT
280
1
  9
$XCLIPFRAME
280
1
  9
$HALOGAP
280
0
  9
$OBSCOLOR
 70
257
  9
$OBSLTYPE
280
0
  9
$INTERSECTIONDISPLAY
280
0
  9
$INTERSECTIONCOLOR
 70
257
  9
$DIMASSOC
280
2
  9
$PROJECTNAME
  1

  9
$CAMERADISPLAY
290
0
  9
$LENSLENGTH
 40
50.0
  9
$CAMERAHEIGHT
 40
0.0
  9
$STEPSPERSEC
 40
24.0
  9
$STEPSIZE
 40
100.0
  9
$3DDWFPREC
 40
2.0
  9
$PSOLWIDTH
 40
0.005
  9
$PSOLHEIGHT
 40
0.08
  9
$LOFTANG1
 40
1.570796326795
  9
$LOFTANG2
 40
1.570796326795
  9
$LOFTMAG1
 40
0.0
  9
$LOFTMAG2
 40
0.0
  9
$LOFTPARAM
 70
7
  9
$LOFTNORMALS
280
1
  9
$LATITUDE
 40
37.795
  9
$LONGITUDE
 40
-122.394
  9
$NORTHDIRECTION
 40
0.0
  9
$TIMEZONE
 70
-8000
  9
$LIGHTGLYPHDISPLAY
280
1
  9
$TILEMODELIGHTSYNCH
280
1
  9
$CMATERIAL
347
20
  9
$SOLIDHIST
280
0
  9
$SHOWHIST
280
1
  9
$DWFFRAME
280
2
  9
$DGNFRAME
280
2
  9
$REALWORLDSCALE
290
1
  9
$INTERFERECOLOR
 62
256
  9
$CSHADOW
280
0
  9
$SHADOWPLANELOCATION
 40
0.0
  0
ENDSEC
  0
SECTION
  2
CLASSES
  0
CLASS
  1
ACDBDICTIONARYWDFLT
  2
AcDbDictionaryWithDefault
  3
ObjectDBX Classes
 90
0
 91
0
280
0
281
0
  0
CLASS
  1
SUN
  2
AcDbSun
  3
SCENEOE
 90
1153
 91
0
280
0
281
0
  0
CLASS
  1
VISUALSTYLE
  2
AcDbVisualStyle
  3
ObjectDBX Classes
 90
4095
 91
0
280
0
281
0
  0
CLASS
  1
MATERIAL
  2
AcDbMaterial
  3
ObjectDBX Classes
 90
1153
 91
0
280
0
281
0
  0
CLASS
  1
SCALE
  2
AcDbScale
  3
ObjectDBX Classes
 90
1153
 91
0
280
0
281
0
  0
CLASS
  1
TABLESTYLE
  2
AcDbTableStyle
  3
ObjectDBX Classes
 90
4095
 91
0
280
0
281
0
  0
CLASS
  1
MLEADERSTYLE
  2
AcDbMLeaderStyle
  3
ACDB_MLEADERSTYLE_CLASS
 90
4095
 91
0
280
0
281
0
  0
CLASS
  1
DICTIONARYVAR
  2
AcDbDictionaryVar
  3
ObjectDBX Classes
 90
0
 91
0
280
0
281
0
  0
CLASS
  1
CELLSTYLEMAP
  2
AcDbCellStyleMap
  3
ObjectDBX Classes
 90
1152
 91
0
280
0
281
0
  0
CLASS
  1
MENTALRAYRENDERSETTINGS
  2
AcDbMentalRayRenderSettings
  3
SCENEOE
 90
1024
 91
0
280
0
281
0
  0
CLASS
  1
ACDBDETAILVIEWSTYLE
  2
AcDbDetailViewStyle
  3
ObjectDBX Classes
 90
1025
 91
0
280
0
281
0
  0
CLASS
  1
ACDBSECTIONVIEWSTYLE
  2
AcDbSectionViewStyle
  3
ObjectDBX Classes
 90
1025
 91
0
280
0
281
0
  0
CLASS
  1
RASTERVARIABLES
  2
AcDbRasterVariables
  3
ISM
 90
0
 91
0
280
0
281
0
  0
CLASS
  1
LAYOUT
  2
AcDbLayout
  3
ObjectDBX Classes
 90
0
 91
0
280
0
281
0
  0
CLASS
  1
ACDBPLACEHOLDER
  2
AcDbPlaceHolder
  3
ObjectDBX Classes
 90
0
 91
0
280
0
281
0
  0
ENDSEC
  0
SECTION
  2
TABLES
  0
TABLE
  2
VPORT
  5
8
330
0
100
AcDbSymbolTable
 70
1
  0
VPORT
  5
23
330
8
100
AcDbSymbolTableRecord
100
AcDbViewportTableRecord
  2
*Active
 70
0
 10
0.0
 20
0.0
 11
1.0
 21
1.0
 12
0.0
 22
0.0
 13
0.0
 23
0.0
 14
0.5
 24
0.5
 15
0.5
 25
0.5
 16
0.0
 26
0.0
 36
1.0
 17
0.0
 27
0.0
 37
0.0
 40
1000.0
 41
1.34
 42
50.0
 43
0.0
 44
0.0
 50
0.0
 51
0.0
 71
0
 72
1000
 73
1
 74
3
 75
0
 76
0
 77
0
 78
0
281
0
 65
0
146
0.0
  0
ENDTAB
  0
TABLE
  2
LTYPE
  5
2
330
0
100
AcDbSymbolTable
 70
21
  0
LTYPE
  5
24
330
2
100
AcDbSymbolTableRecord
100
AcDbLinetypeTableRecord
  2
ByBlock
 70
0
  3

 72
65
 73
0
 40
0.0
  0
LTYPE
  5
25
330
2
100
AcDbSymbolTableRecord
100
AcDbLinetypeTableRecord
  2
ByLayer
 70
0
  3

 72
65
 73
0
 40
0.0
  0
LTYPE
  5
26
330
2
100
AcDbSymbolTableRecord
100
AcDbLinetypeTableRecord
  2
Continuous
 70
0
  3

 72
65
 73
0
 40
0.0
  0
LTYPE
  5
2F
330
2
100
AcDbSymbolTableRecord
100
AcDbLinetypeTableRecord
  2
CENTER
 70
0
  3
Center ____ _ ____ _ ____ _ ____ _ ____ _ ____
 72
65
 73
4
 40
5.08
 49
3.175
 74
0
 49
-0.635
 74
0
 49
0.635
 74
0
 49
-0.635
 74
0
  0
LTYPE
  5
30
330
2
100
AcDbSymbolTableRecord
100
AcDbLinetypeTableRecord
  2
CENTERX2
 70
0
  3
Center (2x) ________  __  ________  __  ________
 72
65
 73
4
 40
8.89
 49
6.35
 74
0
 49
-0.635
 74
0
 49
1.27
 74
0
 49
-0.635
 74
0
  0
LTYPE
  5
31
330
2
100
AcDbSymbolTableRecord
100
AcDbLinetypeTableRecord
  2
CENTER2
 70
0
  3
Center (.5x) ____ _ ____ _ ____ _ ____ _ ____
 72
65
 73
4
 40
2.54
 49
1.587
 74
0
 49
-0.318
 74
0
 49
0.318
 74
0
 49
-0.318
 74
0
  0
LTYPE
  5
32
330
2
100
AcDbSymbolTableRecord
100
AcDbLinetypeTableRecord
  2
DASHED
 70
0
  3
Dashed __ __ __ __ __ __ __ __ __ __ __ __ __ _
 72
65
 73
2
 40
1.524
 49
1.27
 74
0
 49
-0.254
 74
0
  0
LTYPE
  5
33
330
2
100
AcDbSymbolTableRecord
100
AcDbLinetypeTableRecord
  2
DASHEDX2
 70
0
  3
Dashed (2x) ____  ____  ____  ____  ____  ____
 72
65
 73
2
 40
3.048
 49
2.54
 74
0
 49
-0.508
 74
0
  0
LTYPE
  5
34
330
2
100
AcDbSymbolTableRecord
100
AcDbLinetypeTableRecord
  2
DASHED2
 70
0
  3
Dashed (.5x) _ _ _ _ _ _ _ _ _ _ _ _ _ _
 72
65
 73
2
 40
0.762
 49
0.635
 74
0
 49
-0.127
 74
0
  0
LTYPE
  5
35
330
2
100
AcDbSymbolTableRecord
100
AcDbLinetypeTableRecord
  2
PHANTOM
 70
0
  3
Phantom ______  __  __  ______  __  __  ______
 72
65
 73
6
 40
6.35
 49
3.175
 74
0
 49
-0.635
 74
0
 49
0.635
 74
0
 49
-0.635
 74
0
 49
0.635
 74
0
 49
-0.635
 74
0
  0
LTYPE
  5
36
330
2
100
AcDbSymbolTableRecord
100
AcDbLinetypeTableRecord
  2
PHANTOMX2
 70
0
  3
Phantom (2x)____________    ____    ____    ____________
 72
65
 73
6
 40
10.795
 49
6.35
 74
0
 49
-0.635
 74
0
 49
1.27
 74
0
 49
-0.635
 74
0
 49
1.27
 74
0
 49
-0.635
 74
0
  0
LTYPE
  5
37
330
2
100
AcDbSymbolTableRecord
100
AcDbLinetypeTableRecord
  2
PHANTOM2
 70
0
  3
Phantom (.5x) ___ _ _ ___ _ _ ___ _ _ ___ _ _ ___
 72
65
 73
6
 40
3.175
 49
1.587
 74
0
 49
-0.318
 74
0
 49
0.318
 74
0
 49
-0.318
 74
0
 49
0.318
 74
0
 49
-0.318
 74
0
  0
LTYPE
  5
38
330
2
100
AcDbSymbolTableRecord
100
AcDbLinetypeTableRecord
  2
DASHDOT
 70
0
  3
Dash dot __ . __ . __ . __ . __ . __ . __ . __
 72
65
 73
4
 40
3.556
 49
2.54
 74
0
 49
-0.508
 74
0
 49
0.0
 74
0
 49
-0.508
 74
0
  0
LTYPE
  5
39
330
2
100
AcDbSymbolTableRecord
100
AcDbLinetypeTableRecord
  2
DASHDOTX2
 70
0
  3
Dash dot (2x) ____  .  ____  .  ____  .  ____
 72
65
 73
4
 40
6.096
 49
5.08
 74
0
 49
-0.508
 74
0
 49
0.0
 74
0
 49
-0.508
 74
0
  0
LTYPE
  5
3A
330
2
100
AcDbSymbolTableRecord
100
AcDbLinetypeTableRecord
  2
DASHDOT2
 70
0
  3
Dash dot (.5x) _ . _ . _ . _ . _ . _ . _ . _
 72
65
 73
4
 40
1.778
 49
1.27
 74
0
 49
-0.254
 74
0
 49
0.0
 74
0
 49
-0.254
 74
0
  0
LTYPE
  5
3B
330
2
100
AcDbSymbolTableRecord
100
AcDbLinetypeTableRecord
  2
DOT
 70
0
  3
Dot .  .  .  .  .  .  .  .  .  .  .  .  .  .  .  .
 72
65
 73
2
 40
0.508
 49
0.0
 74
0
 49
-0.508
 74
0
  0
LTYPE
  5
3C
330
2
100
AcDbSymbolTableRecord
100
AcDbLinetypeTableRecord
  2
DOTX2
 70
0
  3
Dot (2x) .    .    .    .    .    .    .    . 
 72
65
 73
2
 40
1.016
 49
0.0
 74
0
 49
-1.016
 74
0
  0
LTYPE
  5
3D
330
2
100
AcDbSymbolTableRecord
100
AcDbLinetypeTableRecord
  2
DOT2
 70
0
  3
Dot (.5) . . . . . . . . . . . . . . . . . . . 
 72
65
 73
2
 40
0.254
 49
0.0
 74
0
 49
-0.254
 74
0
  0
LTYPE
  5
3E
330
2
100
AcDbSymbolTableRecord
100
AcDbLinetypeTableRecord
  2
DIVIDE
 70
0
  3
Divide __ . . __ . . __ . . __ . . __ . . __
 72
65
 73
6
 40
4.064
 49
2.54
 74
0
 49
-0.508
 74
0
 49
0.0
 74
0
 49
-0.508
 74
0
 49
0.0
 74
0
 49
-0.508
 74
0
  0
LTYPE
  5
3F
330
2
100
AcDbSymbolTableRecord
100
AcDbLinetypeTableRecord
  2
DIVIDEX2
 70
0
  3
Divide (2x) ____  . .  ____  . .  ____  . .  ____
 72
65
 73
6
 40
6.604
 49
5.08
 74
0
 49
-0.508
 74
0
 49
0.0
 74
0
 49
-0.508
 74
0
 49
0.0
 74
0
 49
-0.508
 74
0
  0
LTYPE
  5
40
330
2
100
AcDbSymbolTableRecord
100
AcDbLinetypeTableRecord
  2
DIVIDE2
 70
0
  3
Divide(.5x) _ . _ . _ . _ . _ . _ . _ . _
 72
65
 73
6
 40
2.032
 49
1.27
 74
0
 49
-0.254
 74
0
 49
0.0
 74
0
 49
-0.254
 74
0
 49
0.0
 74
0
 49
-0.254
 74
0
  0
ENDTAB
  0
TABLE
  2
LAYER
  5
1
330
0
100
AcDbSymbolTable
 70
6
  0
LAYER
  5
27
330
1
100
AcDbSymbolTableRecord
100
AcDbLayerTableRecord
  2
0
 70
0
 62
7
  6
Continuous
370
-3
390
13
347
21
  0
LAYER
  5
28
330
1
100
AcDbSymbolTableRecord
100
AcDbLayerTableRecord
  2
Defpoints
 70
0
 62
7
  6
Continuous
290
0
370
-3
390
13
347
21
  0
LAYER
  5
8A
330
1
100
AcDbSymbolTableRecord
100
AcDbLayerTableRecord
  2
UST_KATMAN_KESIM
 70
0
 62
1
  6
Continuous
370
-3
390
13
347
21
  0
LAYER
  5
8B
330
1
100
AcDbSymbolTableRecord
100
AcDbLayerTableRecord
  2
ALT_KATMAN_KESIM
 70
0
 62
5
  6
Continuous
370
-3
390
13
347
21
  0
LAYER
  5
8C
330
1
100
AcDbSymbolTableRecord
100
AcDbLayerTableRecord
  2
ALT_KATMAN_GRAVUR
 70
0
 62
3
  6
Continuous
370
-3
390
13
347
21
  0
LAYER
  5
8D
330
1
100
AcDbSymbolTableRecord
100
AcDbLayerTableRecord
  2
YAZI
 70
0
 62
8
  6
Continuous
370
-3
390
13
347
21
  0
ENDTAB
  0
TABLE
  2
STYLE
  5
5
330
0
100
AcDbSymbolTable
 70
26
  0
STYLE
  5
29
330
5
100
AcDbSymbolTableRecord
100
AcDbTextStyleTableRecord
  2
Standard
 70
0
 40
0.0
 41
1.0
 50
0.0
 71
0
 42
2.5
  3
txt
  4

  0
STYLE
  5
41
330
5
100
AcDbSymbolTableRecord
100
AcDbTextStyleTableRecord
  2
OpenSans-Light
 70
0
 40
0.0
 41
1.0
 50
0.0
 71
0
 42
2.5
  3
OpenSans-Light.ttf
  4

  0
STYLE
  5
42
330
5
100
AcDbSymbolTableRecord
100
AcDbTextStyleTableRecord
  2
OpenSans-Light-Italic
 70
0
 40
0.0
 41
1.0
 50
0.0
 71
0
 42
2.5
  3
OpenSans-LightItalic.ttf
  4

  0
STYLE
  5
43
330
5
100
AcDbSymbolTableRecord
100
AcDbTextStyleTableRecord
  2
OpenSans
 70
0
 40
0.0
 41
1.0
 50
0.0
 71
0
 42
2.5
  3
OpenSans-Regular.ttf
  4

  0
STYLE
  5
44
330
5
100
AcDbSymbolTableRecord
100
AcDbTextStyleTableRecord
  2
OpenSans-Italic
 70
0
 40
0.0
 41
1.0
 50
0.0
 71
0
 42
2.5
  3
OpenSans-Italic.ttf
  4

  0
STYLE
  5
45
330
5
100
AcDbSymbolTableRecord
100
AcDbTextStyleTableRecord
  2
OpenSans-SemiBold
 70
0
 40
0.0
 41
1.0
 50
0.0
 71
0
 42
2.5
  3
OpenSans-SemiBold.ttf
  4

  0
STYLE
  5
46
330
5
100
AcDbSymbolTableRecord
100
AcDbTextStyleTableRecord
  2
OpenSans-SemiBoldItalic
 70
0
 40
0.0
 41
1.0
 50
0.0
 71
0
 42
2.5
  3
OpenSans-SemiBoldItalic.ttf
  4

  0
STYLE
  5
47
330
5
100
AcDbSymbolTableRecord
100
AcDbTextStyleTableRecord
  2
OpenSans-Bold
 70
0
 40
0.0
 41
1.0
 50
0.0
 71
0
 42
2.5
  3
OpenSans-Bold.ttf
  4

  0
STYLE
  5
48
330
5
100
AcDbSymbolTableRecord
100
AcDbTextStyleTableRecord
  2
OpenSans-BoldItalic
 70
0
 40
0.0
 41
1.0
 50
0.0
 71
0
 42
2.5
  3
OpenSans-BoldItalic.ttf
  4

  0
STYLE
  5
49
330
5
100
AcDbSymbolTableRecord
100
AcDbTextStyleTableRecord
  2
OpenSans-ExtraBold
 70
0
 40
0.0
 41
1.0
 50
0.0
 71
0
 42
2.5
  3
OpenSans-ExtraBold.ttf
  4

  0
STYLE
  5
4A
330
5
100
AcDbSymbolTableRecord
100
AcDbTextStyleTableRecord
  2
OpenSans-ExtraBoldItalic
 70
0
 40
0.0
 41
1.0
 50
0.0
 71
0
 42
2.5
  3
OpenSans-ExtraBoldItalic.ttf
  4

  0
STYLE
  5
4B
330
5
100
AcDbSymbolTableRecord
100
AcDbTextStyleTableRecord
  2
OpenSansCondensed-Bold
 70
0
 40
0.0
 41
1.0
 50
0.0
 71
0
 42
2.5
  3
OpenSansCondensed-Bold.ttf
  4

  0
STYLE
  5
4C
330
5
100
AcDbSymbolTableRecord
100
AcDbTextStyleTableRecord
  2
OpenSansCondensed-Light
 70
0
 40
0.0
 41
1.0
 50
0.0
 71
0
 42
2.5
  3
OpenSansCondensed-Light.ttf
  4

  0
STYLE
  5
4D
330
5
100
AcDbSymbolTableRecord
100
AcDbTextStyleTableRecord
  2
OpenSansCondensed-Italic
 70
0
 40
0.0
 41
1.0
 50
0.0
 71
0
 42
2.5
  3
OpenSansCondensed-LightItalic.ttf
  4

  0
STYLE
  5
4E
330
5
100
AcDbSymbolTableRecord
100
AcDbTextStyleTableRecord
  2
LiberationSans
 70
0
 40
0.0
 41
1.0
 50
0.0
 71
0
 42
2.5
  3
LiberationSans-Regular.ttf
  4

  0
STYLE
  5
4F
330
5
100
AcDbSymbolTableRecord
100
AcDbTextStyleTableRecord
  2
LiberationSans-Bold
 70
0
 40
0.0
 41
1.0
 50
0.0
 71
0
 42
2.5
  3
LiberationSans-Bold.ttf
  4

  0
STYLE
  5
50
330
5
100
AcDbSymbolTableRecord
100
AcDbTextStyleTableRecord
  2
LiberationSans-BoldItalic
 70
0
 40
0.0
 41
1.0
 50
0.0
 71
0
 42
2.5
  3
LiberationSans-BoldItalic.ttf
  4

  0
STYLE
  5
51
330
5
100
AcDbSymbolTableRecord
100
AcDbTextStyleTableRecord
  2
LiberationSans-Italic
 70
0
 40
0.0
 41
1.0
 50
0.0
 71
0
 42
2.5
  3
LiberationSans-Italic.ttf
  4

  0
STYLE
  5
52
330
5
100
AcDbSymbolTableRecord
100
AcDbTextStyleTableRecord
  2
LiberationSerif
 70
0
 40
0.0
 41
1.0
 50
0.0
 71
0
 42
2.5
  3
LiberationSerif-Regular.ttf
  4

  0
STYLE
  5
53
330
5
100
AcDbSymbolTableRecord
100
AcDbTextStyleTableRecord
  2
LiberationSerif-Bold
 70
0
 40
0.0
 41
1.0
 50
0.0
 71
0
 42
2.5
  3
LiberationSerif-Bold.ttf
  4

  0
STYLE
  5
54
330
5
100
AcDbSymbolTableRecord
100
AcDbTextStyleTableRecord
  2
LiberationSerif-BoldItalic
 70
0
 40
0.0
 41
1.0
 50
0.0
 71
0
 42
2.5
  3
LiberationSerif-BoldItalic.ttf
  4

  0
STYLE
  5
55
330
5
100
AcDbSymbolTableRecord
100
AcDbTextStyleTableRecord
  2
LiberationSerif-Italic
 70
0
 40
0.0
 41
1.0
 50
0.0
 71
0
 42
2.5
  3
LiberationSerif-Italic.ttf
  4

  0
STYLE
  5
56
330
5
100
AcDbSymbolTableRecord
100
AcDbTextStyleTableRecord
  2
LiberationMono
 70
0
 40
0.0
 41
1.0
 50
0.0
 71
0
 42
2.5
  3
LiberationMono-Regular.ttf
  4

  0
STYLE
  5
57
330
5
100
AcDbSymbolTableRecord
100
AcDbTextStyleTableRecord
  2
LiberationMono-Bold
 70
0
 40
0.0
 41
1.0
 50
0.0
 71
0
 42
2.5
  3
LiberationMono-Bold.ttf
  4

  0
STYLE
  5
58
330
5
100
AcDbSymbolTableRecord
100
AcDbTextStyleTableRecord
  2
LiberationMono-BoldItalic
 70
0
 40
0.0
 41
1.0
 50
0.0
 71
0
 42
2.5
  3
LiberationMono-BoldItalic.ttf
  4

  0
STYLE
  5
59
330
5
100
AcDbSymbolTableRecord
100
AcDbTextStyleTableRecord
  2
LiberationMono-Italic
 70
0
 40
0.0
 41
1.0
 50
0.0
 71
0
 42
2.5
  3
LiberationMono-Italic.ttf
  4

  0
ENDTAB
  0
TABLE
  2
VIEW
  5
7
330
0
100
AcDbSymbolTable
 70
0
  0
ENDTAB
  0
TABLE
  2
UCS
  5
6
330
0
100
AcDbSymbolTable
 70
0
  0
ENDTAB
  0
TABLE
  2
APPID
  5
3
330
0
100
AcDbSymbolTable
 70
3
  0
APPID
  5
2A
330
3
100
AcDbSymbolTableRecord
100
AcDbRegAppTableRecord
  2
ACAD
 70
0
  0
APPID
  5
A4
330
3
100
AcDbSymbolTableRecord
100
AcDbRegAppTableRecord
  2
HATCHBACKGROUNDCOLOR
 70
0
  0
APPID
  5
A5
330
3
100
AcDbSymbolTableRecord
100
AcDbRegAppTableRecord
  2
EZDXF
 70
0
  0
ENDTAB
  0
TABLE
  2
DIMSTYLE
  5
4
330
0
100
AcDbSymbolTable
 70
12
100
AcDbDimStyleTable
  0
DIMSTYLE
105
2B
330
4
100
AcDbSymbolTableRecord
100
AcDbDimStyleTableRecord
  2
Standard
 70
0
 40
1.0
 41
2.5
 42
0.625
 43
3.75
 44
1.25
 45
0.0
 46
0.0
 47
0.0
 48
0.0
 49
2.5
140
2.5
141
2.5
142
0.0
143
0.03937007874
144
1.0
145
0.0
146
1.0
147
0.625
148
0.0
 69
0
 70
0
 71
0
 72
0
 73
0
 74
0
 75
0
 76
0
 77
1
 78
8
 79
3
170
0
171
3
172
1
173
0
174
0
175
0
176
0
177
0
178
0
179
2
271
2
272
2
273
2
274
3
275
0
276
0
277
2
278
44
279
0
280
0
281
0
282
0
283
0
284
8
285
0
286
0
288
0
289
3
290
0
371
-2
372
-2
  0
DIMSTYLE
105
73
330
4
100
AcDbSymbolTableRecord
100
AcDbDimStyleTableRecord
  2
EZDXF
 70
0
 40
1.0
 41
0.175
 42
0.125
 43
3.75
 44
0.375
 45
0.0
 46
0.0
 47
0.0
 48
0.0
 49
2.5
140
0.25
141
2.5
142
0.0
143
0.03937007874
144
100.0
145
0.0
146
0.5
147
0.1
148
0.0
 69
0
 70
0
 71
0
 72
0
 73
0
 74
0
 75
0
 76
0
 77
1
 78
12
 79
3
170
0
171
3
172
1
173
0
174
0
175
0
176
0
177
0
178
0
179
2
271
2
272
2
273
2
274
3
275
0
276
0
277
2
278
46
279
2
280
0
281
0
282
0
283
0
284
8
285
0
286
0
288
1
289
3
290
0
340
4C
342
74
371
-2
372
-2
  0
DIMSTYLE
105
7C
330
4
100
AcDbSymbolTableRecord
100
AcDbDimStyleTableRecord
  2
EZ_M_100_H25_CM
 70
0
 40
1.0
 41
0.25
 42
0.125
 43
3.75
 44
0.375
 45
0.0
 46
0.0
 47
0.0
 48
0.0
 49
2.5
140
0.25
141
2.5
142
0.125
143
0.03937007874
144
100.0
145
0.0
146
0.5
147
0.1
148
0.0
 69
0
 70
0
 71
0
 72
0
 73
0
 74
0
 75
0
 76
0
 77
1
 78
12
 79
3
170
0
171
3
172
1
173
0
174
0
175
0
176
0
177
0
178
0
179
2
271
2
272
2
273
2
274
3
275
0
276
0
277
2
278
46
279
2
280
0
281
0
282
0
283
0
284
8
285
0
286
0
288
1
289
3
290
0
340
4C
371
-2
372
-2
  0
DIMSTYLE
105
7D
330
4
100
AcDbSymbolTableRecord
100
AcDbDimStyleTableRecord
  2
EZ_M_50_H25_CM
 70
0
 40
1.0
 41
0.125
 42
0.0625
 43
3.75
 44
0.1875
 45
0.0
 46
0.0
 47
0.0
 48
0.0
 49
2.5
140
0.125
141
2.5
142
0.0625
143
0.03937007874
144
100.0
145
0.0
146
0.5
147
0.05
148
0.0
 69
0
 70
0
 71
0
 72
0
 73
0
 74
0
 75
0
 76
0
 77
1
 78
12
 79
3
170
0
171
3
172
1
173
0
174
0
175
0
176
0
177
0
178
0
179
2
271
2
272
2
273
2
274
3
275
0
276
0
277
2
278
46
279
2
280
0
281
0
282
0
283
0
284
8
285
0
286
0
288
1
289
3
290
0
340
4C
371
-2
372
-2
  0
DIMSTYLE
105
7E
330
4
100
AcDbSymbolTableRecord
100
AcDbDimStyleTableRecord
  2
EZ_M_25_H25_CM
 70
0
 40
1.0
 41
0.0625
 42
0.03125
 43
3.75
 44
0.09375
 45
0.0
 46
0.0
 47
0.0
 48
0.0
 49
2.5
140
0.0625
141
2.5
142
0.03125
143
0.03937007874
144
100.0
145
0.0
146
0.5
147
0.025
148
0.0
 69
0
 70
0
 71
0
 72
0
 73
0
 74
0
 75
0
 76
0
 77
1
 78
12
 79
3
170
0
171
3
172
1
173
0
174
0
175
0
176
0
177
0
178
0
179
2
271
2
272
2
273
2
274
3
275
0
276
0
277
2
278
46
279
2
280
0
281
0
282
0
283
0
284
8
285
0
286
0
288
1
289
3
290
0
340
4C
371
-2
372
-2
  0
DIMSTYLE
105
7F
330
4
100
AcDbSymbolTableRecord
100
AcDbDimStyleTableRecord
  2
EZ_M_20_H25_CM
 70
0
 40
1.0
 41
0.05
 42
0.025
 43
3.75
 44
0.07500000000000001
 45
0.0
 46
0.0
 47
0.0
 48
0.0
 49
2.5
140
0.05
141
2.5
142
0.025
143
0.03937007874
144
100.0
145
0.0
146
0.5
147
0.020000000000000004
148
0.0
 69
0
 70
0
 71
0
 72
0
 73
0
 74
0
 75
0
 76
0
 77
1
 78
12
 79
3
170
0
171
3
172
1
173
0
174
0
175
0
176
0
177
0
178
0
179
2
271
2
272
2
273
2
274
3
275
0
276
0
277
2
278
46
279
2
280
0
281
0
282
0
283
0
284
8
285
0
286
0
288
1
289
3
290
0
340
4C
371
-2
372
-2
  0
DIMSTYLE
105
80
330
4
100
AcDbSymbolTableRecord
100
AcDbDimStyleTableRecord
  2
EZ_M_10_H25_CM
 70
0
 40
1.0
 41
0.025
 42
0.0125
 43
3.75
 44
0.037500000000000006
 45
0.0
 46
0.0
 47
0.0
 48
0.0
 49
2.5
140
0.025
141
2.5
142
0.0125
143
0.03937007874
144
100.0
145
0.0
146
0.5
147
0.010000000000000002
148
0.0
 69
0
 70
0
 71
0
 72
0
 73
0
 74
0
 75
0
 76
0
 77
1
 78
12
 79
3
170
0
171
3
172
1
173
0
174
0
175
0
176
0
177
0
178
0
179
2
271
2
272
2
273
2
274
3
275
0
276
0
277
2
278
46
279
2
280
0
281
0
282
0
283
0
284
8
285
0
286
0
288
1
289
3
290
0
340
4C
371
-2
372
-2
  0
DIMSTYLE
105
81
330
4
100
AcDbSymbolTableRecord
100
AcDbDimStyleTableRecord
  2
EZ_M_5_H25_CM
 70
0
 40
1.0
 41
0.0125
 42
0.00625
 43
3.75
 44
0.018750000000000003
 45
0.0
 46
0.0
 47
0.0
 48
0.0
 49
2.5
140
0.0125
141
2.5
142
0.00625
143
0.03937007874
144
100.0
145
0.0
146
0.5
147
0.005000000000000001
148
0.0
 69
0
 70
0
 71
0
 72
0
 73
0
 74
0
 75
0
 76
0
 77
1
 78
12
 79
3
170
0
171
3
172
1
173
0
174
0
175
0
176
0
177
0
178
0
179
2
271
2
272
2
273
2
274
3
275
0
276
0
277
2
278
46
279
2
280
0
281
0
282
0
283
0
284
8
285
0
286
0
288
1
289
3
290
0
340
4C
371
-2
372
-2
  0
DIMSTYLE
105
82
330
4
100
AcDbSymbolTableRecord
100
AcDbDimStyleTableRecord
  2
EZ_M_1_H25_CM
 70
0
 40
1.0
 41
0.0025
 42
0.00125
 43
3.75
 44
0.00375
 45
0.0
 46
0.0
 47
0.0
 48
0.0
 49
2.5
140
0.0025
141
2.5
142
0.00125
143
0.03937007874
144
100.0
145
0.0
146
0.5
147
0.001
148
0.0
 69
0
 70
0
 71
0
 72
0
 73
0
 74
0
 75
0
 76
0
 77
1
 78
12
 79
3
170
0
171
3
172
1
173
0
174
0
175
0
176
0
177
0
178
0
179
2
271
2
272
2
273
2
274
3
275
0
276
0
277
2
278
46
279
2
280
0
281
0
282
0
283
0
284
8
285
0
286
0
288
1
289
3
290
0
340
4C
371
-2
372
-2
  0
DIMSTYLE
105
83
330
4
100
AcDbSymbolTableRecord
100
AcDbDimStyleTableRecord
  2
EZ_RADIUS
 70
0
 40
1.0
 41
0.25
 42
0.125
 43
3.75
 44
0.375
 45
0.0
 46
0.0
 47
0.0
 48
0.0
 49
2.5
140
0.25
141
0.0
142
0.0
143
0.03937007874
144
100.0
145
0.0
146
0.5
147
0.1
148
0.0
 69
0
 70
0
 71
0
 72
0
 73
0
 74
0
 75
0
 76
0
 77
1
 78
12
 79
3
170
0
171
3
172
0
173
0
174
0
175
0
176
0
177
0
178
0
179
2
271
2
272
2
273
2
274
3
275
0
276
0
277
2
278
46
279
1
280
0
281
0
282
0
283
0
284
8
285
0
286
0
288
1
289
3
290
0
340
4C
342
84
371
-2
372
-2
  0
DIMSTYLE
105
88
330
4
100
AcDbSymbolTableRecord
100
AcDbDimStyleTableRecord
  2
EZ_RADIUS_INSIDE
 70
0
 40
1.0
 41
0.25
 42
0.125
 43
3.75
 44
0.375
 45
0.0
 46
0.0
 47
0.0
 48
0.0
 49
2.5
140
0.25
141
0.0
142
0.0
143
0.03937007874
144
100.0
145
0.0
146
0.5
147
0.1
148
0.0
 69
0
 70
0
 71
0
 72
0
 73
0
 74
0
 75
0
 76
0
 77
0
 78
12
 79
3
170
0
171
3
172
0
173
0
174
1
175
0
176
0
177
0
178
0
179
2
271
2
272
2
273
2
274
3
275
0
276
0
277
2
278
46
279
0
280
0
281
0
282
0
283
0
284
8
285
0
286
0
288
1
289
0
290
0
340
4C
342
84
371
-2
372
-2
  0
DIMSTYLE
105
89
330
4
100
AcDbSymbolTableRecord
100
AcDbDimStyleTableRecord
  2
EZ_CURVED
 70
0
 40
1.0
 41
0.25
 42
0.125
 43
3.75
 44
0.375
 45
0.0
 46
0.0
 47
0.0
 48
0.0
 49
2.5
140
0.25
141
2.5
142
0.0
143
0.03937007874
144
100.0
145
0.0
146
0.5
147
0.1
148
0.0
 69
0
 70
0
 71
0
 72
0
 73
0
 74
0
 75
0
 76
0
 77
1
 78
12
 79
2
 90
2
170
0
171
3
172
1
173
0
174
0
175
0
176
0
177
0
178
0
179
2
271
2
272
2
273
2
274
3
275
0
276
0
277
2
278
46
279
2
280
0
281
0
282
0
283
0
284
8
285
0
286
0
288
1
289
3
290
0
340
4C
371
-2
372
-2
  0
ENDTAB
  0
TABLE
  2
BLOCK_RECORD
  5
9
330
0
100
AcDbSymbolTable
 70
5
  0
BLOCK_RECORD
  5
17
330
9
100
AcDbSymbolTableRecord
100
AcDbBlockTableRecord
  2
*Model_Space
340
1A
 70
0
280
1
281
0
  0
BLOCK_RECORD
  5
1B
330
9
100
AcDbSymbolTableRecord
100
AcDbBlockTableRecord
  2
*Paper_Space
340
1E
 70
0
280
1
281
0
  0
BLOCK_RECORD
  5
74
330
9
100
AcDbSymbolTableRecord
100
AcDbBlockTableRecord
  2
_ARCHTICK
340
0
 70
0
280
1
281
0
  0
BLOCK_RECORD
  5
78
330
9
100
AcDbSymbolTableRecord
100
AcDbBlockTableRecord
  2
_CLOSEDFILLED
340
0
 70
0
280
1
281
0
  0
BLOCK_RECORD
  5
84
330
9
100
AcDbSymbolTableRecord
100
AcDbBlockTableRecord
  2
_CLOSEDBLANK
340
0
 70
0
280
1
281
0
  0
ENDTAB
  0
ENDSEC
  0
SECTION
  2
BLOCKS
  0
BLOCK
  5
18
330
17
100
AcDbEntity
  8
0
100
AcDbBlockBegin
  2
*Model_Space
 70
0
 10
0.0
 20
0.0
 30
0.0
  3
*Model_Space
  1

  0
ENDBLK
  5
19
330
17
100
AcDbEntity
  8
0
100
AcDbBlockEnd
  0
BLOCK
  5
1C
330
1B
100
AcDbEntity
  8
0
100
AcDbBlockBegin
  2
*Paper_Space
 70
0
 10
0.0
 20
0.0
 30
0.0
  3
*Paper_Space
  1

  0
ENDBLK
  5
1D
330
1B
100
AcDbEntity
  8
0
100
AcDbBlockEnd
  0
BLOCK
  5
75
330
74
100
AcDbEntity
  8
0
100
AcDbBlockBegin
  2
_ARCHTICK
 70
0
 10
0.0
 20
0.0
 30
0.0
  3
_ARCHTICK
  1

  0
LWPOLYLINE
  5
77
330
74
100
AcDbEntity
  8
0
  6
BYBLOCK
 62
0
100
AcDbPolyline
 90
2
 70
0
 43
0.15
 10
-0.5
 20
-0.5
 10
0.5
 20
0.5
  0
ENDBLK
  5
76
330
74
100
AcDbEntity
  8
0
100
AcDbBlockEnd
  0
BLOCK
  5
79
330
78
100
AcDbEntity
  8
0
100
AcDbBlockBegin
  2
_CLOSEDFILLED
 70
0
 10
0.0
 20
0.0
 30
0.0
  3
_CLOSEDFILLED
  1

  0
SOLID
  5
7B
330
78
100
AcDbEntity
  8
0
  6
BYBLOCK
 62
0
100
AcDbTrace
 10
-1.0
 20
0.16439898372402537
 30
0.0
 11
0.0
 21
0.0
 31
0.0
 12
-1.0
 22
-0.16439898372402537
 32
0.0
 13
-1.0
 23
-0.16439898372402537
 33
0.0
  0
ENDBLK
  5
7A
330
78
100
AcDbEntity
  8
0
100
AcDbBlockEnd
  0
BLOCK
  5
85
330
84
100
AcDbEntity
  8
0
100
AcDbBlockBegin
  2
_CLOSEDBLANK
 70
0
 10
0.0
 20
0.0
 30
0.0
  3
_CLOSEDBLANK
  1

  0
LWPOLYLINE
  5
87
330
84
100
AcDbEntity
  8
0
  6
BYBLOCK
 62
0
100
AcDbPolyline
 90
3
 70
1
 10
-1.0
 20
0.16439898372402537
 10
0.0
 20
0.0
 10
-1.0
 20
-0.16439898372402537
  0
ENDBLK
  5
86
330
84
100
AcDbEntity
  8
0
100
AcDbBlockEnd
  0
ENDSEC
  0
SECTION
  2
ENTITIES
  0
LWPOLYLINE
  5
8E
330
17
100
AcDbEntity
  8
UST_KATMAN_KESIM
100
AcDbPolyline
 90
68
 70
1
 10
442.0
 20
250.0
 10
8.0
 20
250.0
 10
7.216
 20
249.961
 10
6.439
 20
249.846
 10
5.678
 20
249.656
 10
4.939
 20
249.391
 10
4.229
 20
249.055
 10
3.555
 20
248.652
 10
2.925
 20
248.184
 10
2.343
 20
247.657
 10
1.816
 20
247.075
 10
1.348
 20
246.445
 10
0.945
 20
245.771
 10
0.609
 20
245.061
 10
0.344
 20
244.322
 10
0.154
 20
243.561
 10
0.039
 20
242.784
 10
0.0
 20
242.0
 10
0.0
 20
8.0
 10
0.039
 20
7.216
 10
0.154
 20
6.439
 10
0.344
 20
5.678
 10
0.609
 20
4.939
 10
0.945
 20
4.229
 10
1.348
 20
3.555
 10
1.816
 20
2.925
 10
2.343
 20
2.343
 10
2.925
 20
1.816
 10
3.555
 20
1.348
 10
4.229
 20
0.945
 10
4.939
 20
0.609
 10
5.678
 20
0.344
 10
6.439
 20
0.154
 10
7.216
 20
0.039
 10
8.0
 20
0.0
 10
442.0
 20
0.0
 10
442.784
 20
0.039
 10
443.561
 20
0.154
 10
444.322
 20
0.344
 10
445.061
 20
0.609
 10
445.771
 20
0.945
 10
446.445
 20
1.348
 10
447.075
 20
1.816
 10
447.657
 20
2.343
 10
448.184
 20
2.925
 10
448.652
 20
3.555
 10
449.055
 20
4.229
 10
449.391
 20
4.939
 10
449.656
 20
5.678
 10
449.846
 20
6.439
 10
449.961
 20
7.216
 10
450.0
 20
8.0
 10
450.0
 20
242.0
 10
449.961
 20
242.784
 10
449.846
 20
243.561
 10
449.656
 20
244.322
 10
449.391
 20
245.061
 10
449.055
 20
245.771
 10
448.652
 20
246.445
 10
448.184
 20
247.075
 10
447.657
 20
247.657
 10
447.075
 20
248.184
 10
446.445
 20
248.652
 10
445.771
 20
249.055
 10
445.061
 20
249.391
 10
444.322
 20
249.656
 10
443.561
 20
249.846
 10
442.784
 20
249.961
  0
LWPOLYLINE
  5
8F
330
17
100
AcDbEntity
  8
UST_KATMAN_KESIM
100
AcDbPolyline
 90
179
 70
1
 10
130.314
 20
118.025
 10
127.564
 20
118.025
 10
126.648
 20
118.759
 10
124.448
 20
118.575
 10
122.615
 20
118.025
 10
121.515
 20
118.392
 10
120.232
 20
119.492
 10
118.766
 20
119.858
 10
118.124
 20
120.5
 10
117.758
 20
121.6
 10
118.124
 20
122.699
 10
120.599
 20
124.991
 10
122.065
 20
125.541
 10
123.715
 20
125.724
 10
124.906
 20
126.915
 10
125.456
 20
128.015
 10
125.823
 20
129.848
 10
125.365
 20
130.49
 10
123.165
 20
131.223
 10
120.049
 20
132.873
 10
117.116
 20
135.805
 10
115.283
 20
135.989
 10
111.25
 20
137.272
 10
110.701
 20
137.088
 10
110.242
 20
136.447
 10
110.242
 20
134.797
 10
112.075
 20
132.414
 10
112.259
 20
130.765
 10
110.426
 20
126.915
 10
110.059
 20
125.449
 10
110.242
 20
124.349
 10
109.876
 20
123.066
 10
108.684
 20
121.691
 10
104.835
 20
120.592
 10
103.185
 20
120.592
 10
101.169
 20
120.042
 10
100.069
 20
120.408
 10
99.336
 20
120.958
 10
97.32
 20
120.775
 10
97.136
 20
120.592
 10
96.037
 20
120.775
 10
93.929
 20
122.333
 10
93.562
 20
123.433
 10
93.745
 20
124.166
 10
95.303
 20
125.907
 10
96.953
 20
126.824
 10
98.42
 20
127.19
 10
99.886
 20
127.19
 10
100.619
 20
127.557
 10
101.994
 20
128.932
 10
102.91
 20
130.765
 10
102.91
 20
131.131
 10
102.452
 20
131.773
 10
100.253
 20
132.873
 10
97.595
 20
135.347
 10
96.495
 20
137.18
 10
95.945
 20
138.83
 10
95.945
 20
139.93
 10
96.495
 20
142.312
 10
97.228
 20
143.962
 10
98.328
 20
145.612
 10
97.961
 20
146.528
 10
97.961
 20
147.262
 10
98.511
 20
148.728
 10
97.686
 20
149.553
 10
96.403
 20
148.453
 10
95.303
 20
148.086
 10
94.02
 20
148.086
 10
92.554
 20
148.453
 10
90.354
 20
146.62
 10
89.255
 20
146.253
 10
88.338
 20
146.437
 10
87.788
 20
146.803
 10
87.605
 20
146.62
 10
86.872
 20
146.803
 10
85.68
 20
147.995
 10
85.497
 20
148.728
 10
85.68
 20
149.644
 10
86.23
 20
150.744
 10
87.605
 20
152.119
 10
89.621
 20
153.036
 10
92.737
 20
152.852
 10
93.379
 20
153.31
 10
93.745
 20
154.41
 10
93.929
 20
156.793
 10
95.028
 20
158.993
 10
95.028
 20
159.543
 10
94.295
 20
161.009
 10
93.654
 20
161.651
 10
93.287
 20
161.834
 10
92.004
 20
161.651
 10
86.138
 20
158.534
 10
84.305
 20
157.985
 10
81.006
 20
157.985
 10
79.54
 20
158.351
 10
78.073
 20
159.084
 10
76.332
 20
160.826
 10
75.782
 20
162.659
 10
76.699
 20
164.675
 10
76.882
 20
165.592
 10
77.523
 20
166.233
 10
78.44
 20
166.6
 10
79.356
 20
167.699
 10
80.456
 20
168.066
 10
81.098
 20
169.257
 10
82.656
 20
170.449
 10
83.114
 20
171.274
 10
80.823
 20
173.565
 10
78.806
 20
172.649
 10
77.89
 20
172.832
 10
76.607
 20
173.748
 10
74.957
 20
173.015
 10
72.758
 20
173.198
 10
71.749
 20
174.023
 10
71.383
 20
174.94
 10
69.916
 20
176.223
 10
69.916
 20
183.005
 10
71.383
 20
185.754
 10
73.124
 20
187.496
 10
75.69
 20
188.962
 10
78.257
 20
189.695
 10
84.489
 20
190.062
 10
85.222
 20
190.429
 10
87.788
 20
192.811
 10
98.603
 20
192.811
 10
100.253
 20
191.345
 10
104.102
 20
189.512
 10
106.026
 20
187.771
 10
107.859
 20
185.205
 10
109.143
 20
182.088
 10
109.692
 20
179.522
 10
109.692
 20
174.023
 10
109.509
 20
173.84
 10
109.509
 20
172.923
 10
110.242
 20
171.09
 10
111.617
 20
169.716
 10
114.55
 20
168.616
 10
118.033
 20
168.249
 10
118.949
 20
167.883
 10
119.866
 20
167.883
 10
122.798
 20
167.15
 10
127.747
 20
165.317
 10
129.58
 20
164.4
 10
132.33
 20
162.567
 10
134.529
 20
160.734
 10
138.012
 20
157.251
 10
140.762
 20
155.052
 10
142.595
 20
153.952
 10
145.344
 20
152.852
 10
146.811
 20
152.486
 10
150.477
 20
152.486
 10
153.593
 20
153.769
 10
156.342
 20
156.152
 10
157.075
 20
156.335
 10
158.45
 20
155.693
 10
158.45
 20
150.194
 10
158.083
 20
149.278
 10
155.884
 20
145.795
 10
153.776
 20
143.687
 10
152.126
 20
142.404
 10
147.727
 20
140.021
 10
143.694
 20
138.738
 10
140.578
 20
138.188
 10
133.613
 20
138.188
 10
132.605
 20
137.547
 10
132.422
 20
136.997
 10
132.971
 20
135.164
 10
134.163
 20
134.522
 10
135.354
 20
133.331
 10
135.721
 20
132.231
 10
135.721
 20
130.765
 10
134.988
 20
128.015
 10
134.988
 20
125.449
 10
135.538
 20
123.433
 10
135.538
 20
121.783
 10
135.171
 20
120.683
 10
133.796
 20
119.308
 10
132.697
 20
118.759
 10
131.23
 20
118.575
  0
LWPOLYLINE
  5
90
330
17
100
AcDbEntity
  8
UST_KATMAN_KESIM
100
AcDbPolyline
 90
156
 70
1
 10
239.503
 20
121.267
 10
228.837
 20
121.267
 10
227.753
 20
122.184
 10
227.42
 20
123.184
 10
227.587
 20
124.184
 10
228.253
 20
125.35
 10
229.753
 20
127.017
 10
230.253
 20
130.017
 10
230.753
 20
131.517
 10
230.337
 20
132.267
 10
229.003
 20
132.6
 10
228.087
 20
132.184
 10
227.753
 20
130.85
 10
226.253
 20
128.017
 10
225.92
 20
124.35
 10
225.003
 20
123.267
 10
220.67
 20
122.267
 10
219.67
 20
122.267
 10
218.837
 20
122.6
 10
217.337
 20
122.434
 10
214.837
 20
123.1
 10
213.753
 20
124.017
 10
213.42
 20
125.017
 10
213.92
 20
126.35
 10
215.753
 20
128.684
 10
216.253
 20
130.684
 10
217.92
 20
134.35
 10
217.753
 20
137.35
 10
217.17
 20
138.267
 10
215.67
 20
138.434
 10
213.003
 20
137.767
 10
208.003
 20
135.1
 10
206.67
 20
134.767
 10
204.17
 20
134.767
 10
202.837
 20
135.267
 10
201.92
 20
136.35
 10
201.753
 20
137.35
 10
202.587
 20
139.35
 10
202.17
 20
140.1
 10
201.67
 20
140.267
 10
201.17
 20
140.1
 10
199.67
 20
138.434
 10
198.67
 20
138.1
 10
197.67
 20
138.434
 10
196.753
 20
139.35
 10
195.753
 20
141.684
 10
195.753
 20
147.85
 10
196.753
 20
150.684
 10
196.587
 20
151.517
 10
195.753
 20
153.184
 10
195.753
 20
157.184
 10
196.17
 20
157.6
 10
197.17
 20
157.934
 10
198.17
 20
157.6
 10
200.837
 20
155.767
 10
201.337
 20
155.6
 10
202.003
 20
155.767
 10
202.42
 20
156.517
 10
202.753
 20
158.017
 10
204.087
 20
160.017
 10
203.587
 20
162.184
 10
202.087
 20
165.184
 10
199.587
 20
168.85
 10
199.42
 20
169.517
 10
199.587
 20
170.184
 10
200.503
 20
171.267
 10
201.503
 20
171.6
 10
202.503
 20
171.267
 10
206.003
 20
168.6
 10
209.003
 20
165.434
 10
209.67
 20
165.267
 10
210.253
 20
165.517
 10
210.92
 20
166.517
 10
213.253
 20
171.517
 10
213.587
 20
172.85
 10
215.087
 20
174.35
 10
215.587
 20
176.017
 10
216.67
 20
176.934
 10
218.503
 20
177.1
 10
220.003
 20
178.934
 10
221.67
 20
179.1
 10
222.337
 20
178.6
 10
223.337
 20
178.434
 10
224.67
 20
178.767
 10
225.003
 20
179.1
 10
227.67
 20
179.1
 10
228.503
 20
178.1
 10
230.17
 20
177.434
 10
231.503
 20
177.767
 10
232.337
 20
177.6
 10
233.42
 20
176.684
 10
233.92
 20
175.184
 10
235.003
 20
174.1
 10
236.67
 20
173.6
 10
237.42
 20
172.85
 10
237.753
 20
171.85
 10
237.42
 20
169.85
 10
238.087
 20
168.184
 10
238.503
 20
167.767
 10
239.67
 20
167.267
 10
244.503
 20
167.934
 10
249.003
 20
167.6
 10
253.337
 20
166.434
 10
256.503
 20
164.934
 10
260.17
 20
162.434
 10
264.087
 20
158.517
 10
266.587
 20
155.017
 10
270.587
 20
148.35
 10
273.67
 20
144.934
 10
275.17
 20
143.767
 10
277.503
 20
142.6
 10
279.67
 20
142.1
 10
282.337
 20
142.267
 10
283.337
 20
141.934
 10
284.087
 20
141.184
 10
284.087
 20
139.184
 10
282.503
 20
137.6
 10
280.67
 20
136.267
 10
277.67
 20
134.934
 10
273.503
 20
134.1
 10
270.837
 20
134.1
 10
267.17
 20
134.6
 10
265.003
 20
135.267
 10
264.337
 20
135.1
 10
263.92
 20
134.35
 10
264.587
 20
132.517
 10
264.587
 20
129.35
 10
265.42
 20
126.35
 10
265.42
 20
125.017
 10
265.087
 20
124.017
 10
263.67
 20
122.767
 10
260.003
 20
121.934
 10
258.503
 20
122.1
 10
255.67
 20
121.934
 10
252.67
 20
122.934
 10
251.92
 20
123.684
 10
251.587
 20
124.684
 10
252.42
 20
126.684
 10
253.42
 20
127.85
 10
253.587
 20
128.35
 10
253.42
 20
130.017
 10
253.087
 20
131.017
 10
251.753
 20
132.517
 10
251.003
 20
133.267
 10
250.337
 20
133.434
 10
249.503
 20
133.1
 10
249.087
 20
132.35
 10
249.253
 20
131.684
 10
248.92
 20
130.684
 10
249.087
 20
126.684
 10
248.753
 20
125.684
 10
247.67
 20
124.767
 10
245.837
 20
124.267
 10
241.337
 20
124.1
 10
240.92
 20
123.517
 10
240.587
 20
122.184
  0
LWPOLYLINE
  5
91
330
17
100
AcDbEntity
  8
UST_KATMAN_KESIM
100
AcDbPolyline
 90
169
 70
1
 10
371.81
 20
121.712
 10
367.82
 20
121.871
 10
366.384
 20
122.35
 10
365.506
 20
123.068
 10
365.187
 20
123.547
 10
365.028
 20
124.504
 10
365.347
 20
125.621
 10
366.464
 20
127.217
 10
366.145
 20
129.611
 10
365.746
 20
130.329
 10
364.469
 20
131.127
 10
362.714
 20
133.041
 10
362.235
 20
133.201
 10
361.597
 20
132.882
 10
361.358
 20
132.323
 10
361.677
 20
131.206
 10
361.358
 20
129.291
 10
361.517
 20
127.855
 10
361.358
 20
125.94
 10
360.001
 20
124.584
 10
358.405
 20
124.265
 10
353.139
 20
124.424
 10
352.421
 20
124.025
 10
352.262
 20
123.068
 10
350.905
 20
121.712
 10
342.448
 20
121.712
 10
341.411
 20
122.749
 10
341.251
 20
123.866
 10
341.411
 20
124.664
 10
343.006
 20
126.738
 10
343.964
 20
131.206
 10
343.565
 20
132.084
 10
342.448
 20
132.403
 10
341.57
 20
131.845
 10
341.251
 20
130.408
 10
339.815
 20
127.855
 10
339.496
 20
124.823
 10
338.778
 20
123.946
 10
337.98
 20
123.467
 10
335.108
 20
122.988
 10
331.118
 20
123.307
 10
329.762
 20
124.345
 10
329.283
 20
125.621
 10
329.443
 20
126.419
 10
331.038
 20
128.334
 10
331.677
 20
130.728
 10
333.113
 20
133.76
 10
332.634
 20
137.27
 10
331.437
 20
137.988
 10
330.001
 20
138.467
 10
328.405
 20
137.988
 10
326.012
 20
137.988
 10
325.054
 20
138.307
 10
322.342
 20
138.307
 10
321.384
 20
137.988
 10
318.831
 20
138.148
 10
317.076
 20
139.424
 10
316.278
 20
139.584
 10
315.241
 20
140.302
 10
315.241
 20
145.249
 10
316.437
 20
146.605
 10
319.629
 20
148.201
 10
321.863
 20
150.754
 10
323.459
 20
151.552
 10
325.533
 20
152.031
 10
327.767
 20
152.031
 10
329.203
 20
151.712
 10
330.161
 20
151.233
 10
330.799
 20
151.393
 10
331.198
 20
152.111
 10
331.038
 20
152.43
 10
331.198
 20
154.823
 10
331.677
 20
155.621
 10
332.554
 20
156.339
 10
333.352
 20
156.499
 10
334.629
 20
156.18
 10
335.347
 20
156.579
 10
335.506
 20
157.057
 10
335.187
 20
157.696
 10
335.028
 20
159.132
 10
335.826
 20
163.44
 10
336.145
 20
163.919
 10
337.182
 20
164.797
 10
337.98
 20
164.956
 10
338.778
 20
164.797
 10
340.533
 20
163.839
 10
341.012
 20
163.999
 10
341.411
 20
164.717
 10
341.251
 20
165.515
 10
341.73
 20
167.43
 10
344.124
 20
172.057
 10
345.001
 20
172.775
 10
346.118
 20
172.935
 10
347.235
 20
172.616
 10
348.831
 20
171.339
 10
349.31
 20
171.18
 10
349.948
 20
171.339
 10
352.421
 20
175.408
 10
354.576
 20
177.563
 10
356.491
 20
177.563
 10
357.767
 20
176.765
 10
358.725
 20
177.084
 10
359.203
 20
177.563
 10
362.235
 20
177.563
 10
362.953
 20
176.685
 10
364.23
 20
174.132
 10
365.028
 20
171.898
 10
365.905
 20
171.339
 10
369.097
 20
173.095
 10
369.895
 20
173.254
 10
371.012
 20
173.095
 10
372.129
 20
172.456
 10
374.363
 20
173.254
 10
375.161
 20
173.414
 10
375.959
 20
173.254
 10
376.836
 20
172.536
 10
377.315
 20
171.26
 10
377.475
 20
163.6
 10
378.352
 20
163.041
 10
378.512
 20
163.201
 10
379.948
 20
163.041
 10
381.065
 20
162.403
 10
381.703
 20
162.563
 10
383.778
 20
162.244
 10
384.975
 20
161.047
 10
385.134
 20
159.93
 10
383.538
 20
153.706
 10
383.698
 20
153.228
 10
384.256
 20
152.829
 10
387.288
 20
152.19
 10
388.485
 20
150.994
 10
388.645
 20
149.877
 10
387.528
 20
146.047
 10
387.927
 20
145.329
 10
389.682
 20
145.01
 10
390.879
 20
143.813
 10
391.038
 20
141.898
 10
390.56
 20
140.462
 10
390.719
 20
139.983
 10
391.597
 20
139.584
 10
392.554
 20
139.903
 10
393.671
 20
140.861
 10
394.469
 20
141.02
 10
395.267
 20
140.861
 10
396.384
 20
140.222
 10
397.342
 20
140.382
 10
398.139
 20
140.222
 10
399.735
 20
138.627
 10
400.533
 20
138.467
 10
401.411
 20
137.749
 10
401.73
 20
137.27
 10
401.889
 20
135.515
 10
402.368
 20
133.919
 10
402.209
 20
133.121
 10
401.491
 20
132.244
 10
399.895
 20
131.446
 10
395.586
 20
130.648
 10
389.682
 20
130.648
 10
384.735
 20
131.446
 10
379.15
 20
133.201
 10
376.118
 20
134.478
 10
375.48
 20
134.318
 10
375.081
 20
133.6
 10
375.719
 20
131.845
 10
375.719
 20
128.174
 10
376.358
 20
125.94
 10
376.198
 20
123.706
 10
375.48
 20
122.829
 10
374.682
 20
122.35
  0
LWPOLYLINE
  5
92
330
17
100
AcDbEntity
  8
UST_KATMAN_KESIM
100
AcDbPolyline
 90
170
 70
1
 10
92.476
 20
25.934
 10
81.996
 20
25.934
 10
80.711
 20
26.824
 10
80.315
 20
28.01
 10
80.513
 20
28.999
 10
81.106
 20
30.185
 10
82.491
 20
31.767
 10
82.886
 20
32.558
 10
83.282
 20
33.942
 10
83.282
 20
35.326
 10
83.479
 20
35.524
 10
83.875
 20
38.688
 10
84.073
 20
38.886
 10
84.073
 20
39.874
 10
84.27
 20
40.072
 10
84.27
 20
40.468
 10
83.776
 20
41.16
 10
82.194
 20
41.753
 10
81.304
 20
40.863
 10
81.106
 20
38.292
 10
79.722
 20
34.931
 10
79.327
 20
33.349
 10
79.327
 20
30.383
 10
78.734
 20
28.801
 10
78.239
 20
28.307
 10
76.657
 20
27.713
 10
74.087
 20
27.516
 10
73.889
 20
27.318
 10
69.143
 20
27.516
 10
66.968
 20
28.307
 10
66.078
 20
29.394
 10
65.88
 20
30.185
 10
66.474
 20
31.767
 10
68.649
 20
34.535
 10
69.638
 20
38.886
 10
70.626
 20
41.654
 10
70.626
 20
42.84
 10
69.44
 20
47.586
 10
69.44
 20
50.948
 10
66.078
 20
55.496
 10
63.903
 20
59.648
 10
63.112
 20
61.626
 10
63.112
 20
62.219
 10
62.717
 20
62.812
 10
61.926
 20
66.965
 10
61.53
 20
67.953
 10
61.728
 20
68.349
 10
61.53
 20
68.547
 10
61.53
 20
70.129
 10
61.332
 20
70.326
 10
61.332
 20
74.083
 10
61.53
 20
74.281
 10
61.728
 20
78.236
 10
62.321
 20
80.411
 10
62.321
 20
81.598
 10
65.089
 20
92.275
 10
65.089
 20
94.253
 10
64.2
 20
95.143
 10
62.42
 20
95.143
 10
59.849
 20
94.352
 10
57.279
 20
94.55
 10
55.697
 20
95.34
 10
54.708
 20
96.725
 10
53.324
 20
97.12
 10
52.632
 20
97.812
 10
52.632
 20
103.349
 10
52.83
 20
103.744
 10
54.708
 20
105.425
 10
57.279
 20
106.612
 10
59.157
 20
110.468
 10
60.047
 20
111.357
 10
61.431
 20
112.148
 10
69.934
 20
112.148
 10
70.33
 20
111.951
 10
71.912
 20
110.962
 10
74.186
 20
108.688
 10
74.976
 20
107.501
 10
76.163
 20
104.733
 10
76.558
 20
101.569
 10
76.756
 20
101.372
 10
76.558
 20
101.174
 10
76.756
 20
100.976
 10
76.756
 20
98.603
 10
76.558
 20
98.405
 10
76.361
 20
94.648
 10
76.163
 20
94.451
 10
75.767
 20
91.089
 10
75.372
 20
89.903
 10
74.976
 20
86.343
 10
74.581
 20
85.157
 10
74.383
 20
77.643
 10
74.581
 20
77.445
 10
74.581
 20
76.061
 10
75.372
 20
72.897
 10
76.163
 20
71.315
 10
77.251
 20
70.227
 10
78.635
 20
69.634
 10
79.623
 20
69.634
 10
80.612
 20
70.03
 10
82.194
 20
70.821
 10
83.578
 20
72.007
 10
88.917
 20
75.369
 10
93.07
 20
77.148
 10
93.663
 20
77.148
 10
94.256
 20
77.544
 10
96.827
 20
78.137
 10
99.793
 20
78.335
 10
99.991
 20
78.533
 10
105.132
 20
78.335
 10
110.866
 20
76.753
 10
115.81
 20
74.182
 10
118.183
 20
72.403
 10
122.236
 20
68.349
 10
125.4
 20
63.801
 10
129.751
 20
55.891
 10
132.321
 20
52.134
 10
132.519
 20
51.541
 10
136.078
 20
47.191
 10
138.748
 20
44.719
 10
142.702
 20
42.148
 10
146.46
 20
40.764
 10
147.251
 20
40.764
 10
148.437
 20
40.369
 10
151.205
 20
40.369
 10
153.578
 20
40.962
 10
154.765
 20
40.764
 10
155.654
 20
40.072
 10
156.05
 20
38.886
 10
155.654
 20
37.699
 10
154.171
 20
36.216
 10
152.787
 20
35.227
 10
150.414
 20
34.041
 10
147.053
 20
33.052
 10
144.087
 20
32.855
 10
143.889
 20
32.657
 10
140.923
 20
32.657
 10
140.725
 20
32.855
 10
138.352
 20
32.855
 10
137.166
 20
33.25
 10
136.177
 20
33.25
 10
131.036
 20
34.832
 10
126.883
 20
36.809
 10
122.533
 20
39.578
 10
121.643
 20
38.688
 10
121.643
 20
35.524
 10
121.445
 20
35.326
 10
121.445
 20
33.744
 10
122.039
 20
31.767
 10
122.236
 20
29.987
 10
121.643
 20
28.01
 10
119.962
 20
26.922
 10
116.601
 20
26.131
 10
115.019
 20
26.131
 10
114.821
 20
26.329
 10
112.448
 20
26.131
 10
108.889
 20
27.318
 10
108.197
 20
28.01
 10
107.801
 20
29.196
 10
107.109
 20
29.691
 10
106.516
 20
29.295
 10
104.934
 20
28.9
 10
103.352
 20
28.9
 10
103.154
 20
28.702
 10
100.188
 20
28.9
 10
99.595
 20
28.702
 10
96.431
 20
29.493
 10
95.245
 20
30.284
 10
94.355
 20
29.394
 10
94.355
 20
28.208
 10
93.96
 20
27.021
  0
LWPOLYLINE
  5
93
330
17
100
AcDbEntity
  8
UST_KATMAN_KESIM
100
AcDbPolyline
 90
230
 70
1
 10
245.218
 20
13.25
 10
243.988
 20
13.66
 10
242.962
 20
14.48
 10
240.296
 20
14.686
 10
238.861
 20
14.07
 10
237.63
 20
14.48
 10
237.118
 20
14.993
 10
236.708
 20
16.224
 10
235.887
 20
17.044
 10
235.477
 20
18.274
 10
235.887
 20
19.505
 10
236.913
 20
20.735
 10
236.092
 20
21.761
 10
235.682
 20
22.991
 10
236.092
 20
24.427
 10
236.605
 20
24.939
 10
237.835
 20
25.35
 10
239.271
 20
25.144
 10
240.296
 20
24.734
 10
242.347
 20
22.684
 10
243.065
 20
23.196
 10
243.68
 20
24.837
 10
243.885
 20
26.683
 10
243.475
 20
27.708
 10
242.757
 20
28.221
 10
239.476
 20
28.836
 10
235.99
 20
30.477
 10
234.349
 20
31.707
 10
233.426
 20
32.63
 10
232.811
 20
33.655
 10
231.888
 20
34.373
 10
229.837
 20
34.373
 10
229.427
 20
34.578
 10
228.504
 20
33.655
 10
228.504
 20
32.63
 10
228.915
 20
31.81
 10
230.145
 20
30.374
 10
230.35
 20
29.554
 10
230.145
 20
28.118
 10
227.274
 20
24.837
 10
226.043
 20
22.581
 10
225.428
 20
20.53
 10
224.813
 20
19.3
 10
224.3
 20
18.787
 10
221.839
 20
17.967
 10
220.199
 20
17.967
 10
218.148
 20
17.352
 10
213.021
 20
17.557
 10
211.585
 20
17.146
 10
210.355
 20
17.557
 10
209.33
 20
18.582
 10
208.714
 20
18.787
 10
208.202
 20
19.3
 10
207.792
 20
20.53
 10
208.202
 20
21.761
 10
208.919
 20
22.478
 10
211.175
 20
23.709
 10
211.996
 20
23.914
 10
213.636
 20
23.914
 10
214.046
 20
23.709
 10
214.764
 20
24.222
 10
214.969
 20
24.632
 10
214.149
 20
26.478
 10
214.559
 20
27.708
 10
215.072
 20
28.221
 10
216.302
 20
28.631
 10
217.123
 20
28.426
 10
217.943
 20
28.016
 10
219.994
 20
25.965
 10
220.711
 20
26.478
 10
221.942
 20
28.118
 10
222.352
 20
28.938
 10
222.352
 20
29.759
 10
221.839
 20
30.477
 10
220.199
 20
31.297
 10
217.84
 20
33.04
 10
215.584
 20
36.321
 10
215.174
 20
38.577
 10
214.251
 20
39.295
 10
213.636
 20
39.295
 10
212.816
 20
38.885
 10
212.303
 20
38.372
 10
211.688
 20
36.936
 10
209.125
 20
34.783
 10
208.304
 20
34.578
 10
207.484
 20
34.783
 10
206.048
 20
35.809
 10
205.228
 20
35.809
 10
203.998
 20
36.219
 10
203.28
 20
37.142
 10
203.075
 20
39.192
 10
203.28
 20
40.013
 10
204.92
 20
42.884
 10
201.947
 20
45.857
 10
201.537
 20
46.062
 10
200.716
 20
45.652
 10
199.486
 20
44.217
 10
196.82
 20
43.191
 10
195.589
 20
43.602
 10
194.564
 20
44.422
 10
194.359
 20
44.217
 10
193.539
 20
44.422
 10
192.616
 20
45.14
 10
192.206
 20
46.575
 10
192.821
 20
48.421
 10
194.769
 20
50.574
 10
196.615
 20
51.6
 10
199.076
 20
52.215
 10
200.921
 20
52.215
 10
202.152
 20
51.805
 10
203.998
 20
50.369
 10
205.843
 20
49.344
 10
206.253
 20
49.344
 10
206.971
 20
49.856
 10
207.997
 20
52.728
 10
207.381
 20
53.548
 10
206.356
 20
55.804
 10
205.536
 20
59.29
 10
205.126
 20
60.11
 10
203.998
 20
61.033
 10
200.716
 20
60.213
 10
195.589
 20
57.547
 10
193.334
 20
56.932
 10
190.873
 20
56.932
 10
190.052
 20
57.137
 10
188.822
 20
57.752
 10
187.899
 20
58.675
 10
187.489
 20
59.905
 10
188.514
 20
62.366
 10
189.027
 20
62.879
 10
189.642
 20
63.084
 10
190.873
 20
64.314
 10
191.488
 20
64.519
 10
193.641
 20
66.878
 10
192.718
 20
67.801
 10
191.693
 20
67.391
 10
190.052
 20
67.596
 10
189.027
 20
67.186
 10
187.386
 20
67.596
 10
185.951
 20
67.391
 10
183.9
 20
68.006
 10
183.08
 20
68.826
 10
181.747
 20
69.544
 10
181.747
 20
75.696
 10
182.157
 20
76.517
 10
183.49
 20
78.055
 10
185.13
 20
79.285
 10
186.771
 20
80.105
 10
192.718
 20
82.156
 10
194.974
 20
84.412
 10
196.0
 20
85.027
 10
208.714
 20
85.027
 10
211.585
 20
83.797
 10
213.226
 20
82.566
 10
214.354
 20
81.438
 10
215.995
 20
79.183
 10
217.02
 20
76.927
 10
217.84
 20
74.056
 10
218.045
 20
68.724
 10
218.251
 20
68.519
 10
218.251
 20
67.288
 10
218.661
 20
66.468
 10
218.661
 20
65.853
 10
219.071
 20
65.032
 10
220.814
 20
63.494
 10
222.455
 20
63.084
 10
224.71
 20
63.084
 10
224.916
 20
63.289
 10
225.941
 20
63.289
 10
227.171
 20
63.699
 10
229.017
 20
63.699
 10
229.222
 20
63.904
 10
229.837
 20
63.699
 10
230.043
 20
63.904
 10
235.99
 20
63.699
 10
239.271
 20
62.879
 10
242.142
 20
61.853
 10
249.73
 20
57.957
 10
251.166
 20
57.547
 10
252.601
 20
57.547
 10
252.806
 20
57.342
 10
258.138
 20
57.342
 10
259.574
 20
57.752
 10
259.779
 20
57.547
 10
265.521
 20
58.982
 10
267.367
 20
59.187
 10
268.392
 20
59.598
 10
269.418
 20
59.598
 10
270.648
 20
60.008
 10
272.904
 20
60.008
 10
273.109
 20
60.213
 10
275.365
 20
60.213
 10
275.57
 20
60.008
 10
277.005
 20
60.008
 10
277.21
 20
59.803
 10
278.236
 20
59.803
 10
279.876
 20
59.393
 10
282.748
 20
58.162
 10
283.26
 20
57.649
 10
283.67
 20
56.419
 10
283.26
 20
55.188
 10
282.748
 20
54.676
 10
281.517
 20
54.266
 10
277.826
 20
54.266
 10
274.544
 20
53.445
 10
273.929
 20
53.035
 10
272.494
 20
52.625
 10
268.802
 20
50.574
 10
266.136
 20
48.523
 10
259.779
 20
44.422
 10
255.677
 20
42.371
 10
250.96
 20
40.525
 10
249.525
 20
39.09
 10
247.474
 20
37.859
 10
246.756
 20
37.142
 10
246.551
 20
36.731
 10
247.372
 20
35.296
 10
247.987
 20
33.45
 10
248.705
 20
32.732
 10
250.55
 20
32.117
 10
251.883
 20
30.579
 10
252.088
 20
28.323
 10
251.473
 20
25.862
 10
251.473
 20
21.351
 10
251.883
 20
19.915
 10
251.883
 20
17.864
 10
251.473
 20
16.634
 10
249.32
 20
14.48
 10
248.089
 20
14.07
 10
247.064
 20
14.07
  0
LWPOLYLINE
  5
94
330
17
100
AcDbEntity
  8
UST_KATMAN_KESIM
100
AcDbPolyline
 90
182
 70
1
 10
377.085
 20
20.005
 10
370.588
 20
20.005
 10
369.54
 20
20.424
 10
368.073
 20
20.633
 10
367.129
 20
21.367
 10
366.71
 20
22.624
 10
366.92
 20
23.882
 10
369.225
 20
27.235
 10
369.016
 20
31.636
 10
366.291
 20
34.361
 10
365.453
 20
35.828
 10
364.51
 20
36.561
 10
363.881
 20
36.352
 10
363.357
 20
35.618
 10
363.357
 20
34.57
 10
363.986
 20
33.103
 10
363.776
 20
30.588
 10
363.357
 20
29.54
 10
363.567
 20
25.978
 10
363.776
 20
25.768
 10
363.147
 20
24.091
 10
362.623
 20
23.567
 10
360.318
 20
22.729
 10
355.288
 20
22.519
 10
354.555
 20
21.996
 10
354.031
 20
20.843
 10
352.773
 20
20.005
 10
342.504
 20
20.005
 10
342.085
 20
20.214
 10
341.351
 20
21.157
 10
341.141
 20
22.205
 10
341.98
 20
24.301
 10
343.447
 20
25.978
 10
344.285
 20
27.864
 10
344.495
 20
31.636
 10
345.123
 20
33.942
 10
345.123
 20
34.78
 10
345.543
 20
35.828
 10
345.333
 20
36.666
 10
344.809
 20
37.19
 10
343.342
 20
37.819
 10
342.713
 20
37.819
 10
342.085
 20
38.238
 10
341.351
 20
37.714
 10
340.932
 20
36.876
 10
340.722
 20
34.57
 10
337.788
 20
28.493
 10
337.788
 20
27.864
 10
337.579
 20
27.654
 10
337.788
 20
24.511
 10
337.159
 20
22.834
 10
336.426
 20
22.1
 10
334.54
 20
21.472
 10
333.073
 20
21.472
 10
332.863
 20
21.262
 10
329.091
 20
21.262
 10
328.881
 20
21.472
 10
326.576
 20
21.891
 10
325.632
 20
22.624
 10
325.213
 20
23.882
 10
325.423
 20
24.93
 10
326.261
 20
26.397
 10
327.938
 20
28.493
 10
328.986
 20
33.522
 10
329.405
 20
34.151
 10
329.405
 20
34.78
 10
329.824
 20
35.409
 10
330.243
 20
36.876
 10
330.872
 20
37.924
 10
330.872
 20
39.391
 10
330.243
 20
41.696
 10
330.243
 20
42.744
 10
329.824
 20
43.792
 10
330.034
 20
44.002
 10
329.824
 20
44.211
 10
329.824
 20
48.193
 10
330.034
 20
48.403
 10
328.567
 20
50.499
 10
326.89
 20
53.642
 10
325.632
 20
57.624
 10
325.632
 20
58.463
 10
325.213
 20
59.72
 10
325.213
 20
61.187
 10
325.004
 20
61.397
 10
324.794
 20
68.313
 10
324.165
 20
69.78
 10
323.013
 20
70.513
 10
320.917
 20
70.304
 10
317.564
 20
69.046
 10
315.049
 20
69.256
 10
314.001
 20
69.675
 10
312.743
 20
71.142
 10
311.276
 20
71.561
 10
310.333
 20
72.505
 10
310.333
 20
78.582
 10
310.543
 20
79.002
 10
313.477
 20
81.936
 10
317.459
 20
87.804
 10
321.546
 20
91.891
 10
323.432
 20
93.358
 10
326.366
 20
95.244
 10
330.138
 20
97.13
 10
334.33
 20
98.597
 10
345.857
 20
98.597
 10
346.695
 20
98.178
 10
348.058
 20
97.025
 10
348.686
 20
95.349
 10
348.477
 20
93.882
 10
347.534
 20
92.729
 10
346.276
 20
92.31
 10
345.438
 20
92.31
 10
343.552
 20
93.148
 10
340.408
 20
93.148
 10
337.474
 20
91.891
 10
335.692
 20
90.109
 10
335.273
 20
89.271
 10
335.483
 20
88.223
 10
336.95
 20
86.756
 10
337.788
 20
85.499
 10
338.836
 20
82.984
 10
338.836
 20
82.355
 10
339.465
 20
80.469
 10
339.465
 20
72.924
 10
340.303
 20
70.409
 10
341.246
 20
69.466
 10
342.294
 20
69.256
 10
343.971
 20
70.094
 10
347.953
 20
73.028
 10
350.677
 20
74.496
 10
351.097
 20
74.496
 10
353.402
 20
75.543
 10
354.031
 20
75.543
 10
355.707
 20
76.172
 10
356.546
 20
76.172
 10
356.755
 20
76.382
 10
359.689
 20
76.591
 10
359.899
 20
76.801
 10
362.623
 20
76.801
 10
362.833
 20
76.591
 10
365.977
 20
76.382
 10
371.216
 20
74.915
 10
374.989
 20
73.028
 10
377.294
 20
71.561
 10
379.39
 20
69.885
 10
383.058
 20
66.217
 10
387.249
 20
60.768
 10
387.878
 20
59.511
 10
392.698
 20
52.594
 10
395.423
 20
49.241
 10
399.091
 20
45.573
 10
403.911
 20
42.011
 10
408.522
 20
39.915
 10
412.085
 20
39.076
 10
413.028
 20
38.343
 10
413.447
 20
37.085
 10
413.028
 20
35.828
 10
412.504
 20
35.304
 10
410.827
 20
34.466
 10
409.15
 20
33.837
 10
406.845
 20
33.418
 10
406.635
 20
33.208
 10
405.588
 20
33.208
 10
405.378
 20
32.999
 10
399.719
 20
32.789
 10
399.51
 20
32.999
 10
396.366
 20
33.208
 10
395.318
 20
33.627
 10
394.27
 20
33.627
 10
394.061
 20
33.837
 10
391.755
 20
34.256
 10
387.354
 20
35.723
 10
381.695
 20
38.238
 10
380.438
 20
38.657
 10
379.6
 20
38.448
 10
379.076
 20
37.714
 10
380.123
 20
36.037
 10
380.962
 20
33.522
 10
380.962
 20
27.235
 10
381.591
 20
25.349
 10
381.591
 20
23.253
 10
381.171
 20
21.996
 10
380.019
 20
20.843
  0
LWPOLYLINE
  5
95
330
17
100
AcDbEntity
  8
UST_KATMAN_KESIM
100
AcDbPolyline
 90
24
 70
1
 10
124.873
 20
168.3
 10
124.682
 20
169.461
 10
124.429
 20
170.204
 10
123.875
 20
171.241
 10
123.129
 20
172.151
 10
122.219
 20
172.897
 10
121.182
 20
173.451
 10
120.439
 20
173.704
 10
119.278
 20
173.895
 10
118.103
 20
173.857
 10
116.957
 20
173.59
 10
116.232
 20
173.289
 10
115.233
 20
172.668
 10
114.643
 20
172.151
 10
113.897
 20
171.241
 10
113.343
 20
170.204
 10
113.027
 20
169.187
 10
114.55
 20
168.616
 10
118.033
 20
168.249
 10
118.949
 20
167.883
 10
119.866
 20
167.883
 10
122.798
 20
167.15
 10
124.702
 20
166.444
 10
124.873
 20
167.516
  0
LWPOLYLINE
  5
96
330
17
100
AcDbEntity
  8
UST_KATMAN_KESIM
100
AcDbPolyline
 90
21
 70
1
 10
244.059
 20
168.614
 10
243.867
 20
169.775
 10
243.615
 20
170.518
 10
243.268
 20
171.222
 10
242.832
 20
171.874
 10
242.314
 20
172.464
 10
241.405
 20
173.211
 10
240.725
 20
173.603
 10
240.0
 20
173.903
 10
238.855
 20
174.17
 10
238.071
 20
174.222
 10
237.288
 20
174.17
 10
235.929
 20
173.823
 10
236.67
 20
173.6
 10
237.42
 20
172.85
 10
237.753
 20
171.85
 10
237.42
 20
169.85
 10
238.087
 20
168.184
 10
238.503
 20
167.767
 10
239.67
 20
167.267
 10
244.06
 20
167.873
  0
LWPOLYLINE
  5
97
330
17
100
AcDbEntity
  8
UST_KATMAN_KESIM
100
AcDbPolyline
 90
18
 70
1
 10
371.589
 20
172.765
 10
371.12
 20
174.099
 10
370.728
 20
174.779
 10
370.25
 20
175.401
 10
369.392
 20
176.205
 10
368.739
 20
176.641
 10
368.035
 20
176.989
 10
366.909
 20
177.33
 10
366.131
 20
177.432
 10
365.347
 20
177.432
 10
364.186
 20
177.241
 10
362.913
 20
176.734
 10
364.23
 20
174.132
 10
365.028
 20
171.898
 10
365.905
 20
171.339
 10
369.097
 20
173.095
 10
369.895
 20
173.254
 10
371.012
 20
173.095
  0
LWPOLYLINE
  5
98
330
17
100
AcDbEntity
  8
UST_KATMAN_KESIM
100
AcDbPolyline
 90
26
 70
1
 10
61.52
 20
68.834
 10
60.394
 20
68.492
 10
59.357
 20
67.938
 10
58.448
 20
67.192
 10
57.702
 20
66.282
 10
57.147
 20
65.245
 10
56.806
 20
64.12
 10
56.691
 20
62.949
 10
56.806
 20
61.779
 10
57.147
 20
60.653
 10
57.702
 20
59.616
 10
58.448
 20
58.706
 10
59.357
 20
57.96
 10
60.394
 20
57.406
 10
61.52
 20
57.064
 10
62.691
 20
56.949
 10
63.861
 20
57.064
 10
65.06
 20
57.439
 10
63.903
 20
59.648
 10
63.112
 20
61.626
 10
63.112
 20
62.219
 10
62.717
 20
62.812
 10
61.926
 20
66.965
 10
61.53
 20
67.953
 10
61.728
 20
68.349
 10
61.53
 20
68.547
  0
LWPOLYLINE
  5
99
330
17
100
AcDbEntity
  8
UST_KATMAN_KESIM
100
AcDbPolyline
 90
22
 70
1
 10
254.827
 20
58.807
 10
254.635
 20
59.967
 10
254.383
 20
60.71
 10
253.828
 20
61.748
 10
253.351
 20
62.37
 10
252.796
 20
62.925
 10
251.84
 20
63.61
 10
251.136
 20
63.957
 10
250.01
 20
64.299
 10
249.232
 20
64.401
 10
248.057
 20
64.363
 10
247.287
 20
64.21
 10
246.186
 20
63.795
 10
245.506
 20
63.403
 10
244.597
 20
62.657
 10
244.08
 20
62.067
 10
243.504
 20
61.154
 10
249.73
 20
57.957
 10
251.166
 20
57.547
 10
252.601
 20
57.547
 10
252.806
 20
57.342
 10
254.741
 20
57.342
  0
LWPOLYLINE
  5
9A
330
17
100
AcDbEntity
  8
UST_KATMAN_KESIM
100
AcDbPolyline
 90
27
 70
1
 10
392.67
 20
61.896
 10
392.568
 20
62.674
 10
392.365
 20
63.433
 10
392.064
 20
64.158
 10
391.672
 20
64.837
 10
390.926
 20
65.747
 10
390.336
 20
66.264
 10
389.683
 20
66.7
 10
388.979
 20
67.047
 10
388.236
 20
67.299
 10
387.466
 20
67.453
 10
386.683
 20
67.504
 10
385.9
 20
67.453
 10
385.13
 20
67.299
 10
384.387
 20
67.047
 10
383.683
 20
66.7
 10
383.02
 20
66.255
 10
387.249
 20
60.768
 10
387.878
 20
59.511
 10
389.981
 20
56.493
 10
390.639
 20
56.993
 10
391.194
 20
57.548
 10
391.672
 20
58.171
 10
392.064
 20
58.85
 10
392.365
 20
59.575
 10
392.568
 20
60.333
 10
392.67
 20
61.112
  0
LWPOLYLINE
  5
9B
330
17
100
AcDbEntity
  8
ALT_KATMAN_KESIM
100
AcDbPolyline
 90
68
 70
1
 10
907.0
 20
250.0
 10
473.0
 20
250.0
 10
472.216
 20
249.961
 10
471.439
 20
249.846
 10
470.678
 20
249.656
 10
469.939
 20
249.391
 10
469.229
 20
249.055
 10
468.555
 20
248.652
 10
467.925
 20
248.184
 10
467.343
 20
247.657
 10
466.816
 20
247.075
 10
466.348
 20
246.445
 10
465.945
 20
245.771
 10
465.609
 20
245.061
 10
465.344
 20
244.322
 10
465.154
 20
243.561
 10
465.039
 20
242.784
 10
465.0
 20
242.0
 10
465.0
 20
8.0
 10
465.039
 20
7.216
 10
465.154
 20
6.439
 10
465.344
 20
5.678
 10
465.609
 20
4.939
 10
465.945
 20
4.229
 10
466.348
 20
3.555
 10
466.816
 20
2.925
 10
467.343
 20
2.343
 10
467.925
 20
1.816
 10
468.555
 20
1.348
 10
469.229
 20
0.945
 10
469.939
 20
0.609
 10
470.678
 20
0.344
 10
471.439
 20
0.154
 10
472.216
 20
0.039
 10
473.0
 20
0.0
 10
907.0
 20
0.0
 10
907.784
 20
0.039
 10
908.561
 20
0.154
 10
909.322
 20
0.344
 10
910.061
 20
0.609
 10
910.771
 20
0.945
 10
911.445
 20
1.348
 10
912.075
 20
1.816
 10
912.657
 20
2.343
 10
913.184
 20
2.925
 10
913.652
 20
3.555
 10
914.055
 20
4.229
 10
914.391
 20
4.939
 10
914.656
 20
5.678
 10
914.846
 20
6.439
 10
914.961
 20
7.216
 10
915.0
 20
8.0
 10
915.0
 20
242.0
 10
914.961
 20
242.784
 10
914.846
 20
243.561
 10
914.656
 20
244.322
 10
914.391
 20
245.061
 10
914.055
 20
245.771
 10
913.652
 20
246.445
 10
913.184
 20
247.075
 10
912.657
 20
247.657
 10
912.075
 20
248.184
 10
911.445
 20
248.652
 10
910.771
 20
249.055
 10
910.061
 20
249.391
 10
909.322
 20
249.656
 10
908.561
 20
249.846
 10
907.784
 20
249.961
  0
LWPOLYLINE
  5
9C
330
17
100
AcDbEntity
  8
ALT_KATMAN_GRAVUR
100
AcDbPolyline
 90
362
 70
1
 10
552.454
 20
147.173
 10
552.51
 20
147.219
 10
552.597
 20
147.265
 10
552.69
 20
147.294
 10
552.788
 20
147.303
 10
552.885
 20
147.294
 10
552.979
 20
147.265
 10
553.066
 20
147.219
 10
553.533
 20
146.908
 10
554.222
 20
146.77
 10
555.107
 20
147.065
 10
557.234
 20
148.837
 10
557.311
 20
148.89
 10
557.397
 20
148.928
 10
557.489
 20
148.949
 10
557.582
 20
148.952
 10
557.675
 20
148.938
 10
559.082
 20
148.586
 10
560.222
 20
148.586
 10
561.152
 20
148.896
 10
562.361
 20
149.932
 10
562.437
 20
149.986
 10
562.522
 20
150.025
 10
562.612
 20
150.047
 10
562.706
 20
150.052
 10
562.798
 20
150.04
 10
562.886
 20
150.011
 10
562.968
 20
149.966
 10
563.04
 20
149.906
 10
563.865
 20
149.082
 10
563.925
 20
149.008
 10
563.971
 20
148.925
 10
564.0
 20
148.834
 10
564.011
 20
148.739
 10
564.004
 20
148.644
 10
563.979
 20
148.552
 10
563.461
 20
147.171
 10
563.461
 20
146.625
 10
563.792
 20
145.798
 10
563.819
 20
145.705
 10
563.828
 20
145.608
 10
563.818
 20
145.512
 10
563.789
 20
145.42
 10
563.744
 20
145.335
 10
562.668
 20
143.72
 10
561.971
 20
142.153
 10
561.445
 20
139.873
 10
561.445
 20
138.911
 10
561.952
 20
137.39
 10
562.987
 20
135.665
 10
565.541
 20
133.288
 10
567.676
 20
132.22
 10
567.777
 20
132.153
 10
567.859
 20
132.063
 10
568.317
 20
131.422
 10
568.368
 20
131.332
 10
568.4
 20
131.234
 10
568.41
 20
131.131
 10
568.41
 20
130.765
 10
568.397
 20
130.65
 10
568.358
 20
130.541
 10
567.441
 20
128.708
 10
567.399
 20
128.639
 10
567.347
 20
128.578
 10
565.973
 20
127.203
 10
565.911
 20
127.151
 10
565.843
 20
127.11
 10
565.11
 20
126.743
 10
565.001
 20
126.704
 10
564.886
 20
126.69
 10
563.481
 20
126.69
 10
562.138
 20
126.355
 10
560.62
 20
125.511
 10
559.2
 20
123.925
 10
559.082
 20
123.453
 10
559.353
 20
122.641
 10
561.237
 20
121.248
 10
561.965
 20
121.127
 10
561.966
 20
121.128
 10
562.033
 20
121.184
 10
562.108
 20
121.228
 10
562.189
 20
121.257
 10
562.274
 20
121.273
 10
564.291
 20
121.456
 10
564.382
 20
121.456
 10
564.472
 20
121.439
 10
564.558
 20
121.406
 10
564.636
 20
121.358
 10
565.304
 20
120.857
 10
566.184
 20
120.564
 10
568.054
 20
121.074
 10
568.185
 20
121.092
 10
569.765
 20
121.092
 10
573.404
 20
122.131
 10
574.425
 20
123.31
 10
574.731
 20
124.378
 10
574.566
 20
125.367
 10
574.559
 20
125.469
 10
574.574
 20
125.57
 10
574.941
 20
127.037
 10
574.974
 20
127.13
 10
576.746
 20
130.851
 10
576.594
 20
132.22
 10
574.846
 20
134.492
 10
574.789
 20
134.586
 10
574.754
 20
134.689
 10
574.742
 20
134.797
 10
574.742
 20
136.447
 10
574.753
 20
136.55
 10
574.784
 20
136.648
 10
574.835
 20
136.738
 10
575.294
 20
137.379
 10
575.363
 20
137.457
 10
575.447
 20
137.52
 10
575.542
 20
137.563
 10
576.092
 20
137.746
 10
576.195
 20
137.769
 10
576.299
 20
137.769
 10
576.402
 20
137.748
 10
580.385
 20
136.481
 10
582.166
 20
136.303
 10
582.277
 20
136.279
 10
582.38
 20
136.23
 10
582.47
 20
136.159
 10
585.349
 20
133.279
 10
588.362
 20
131.684
 10
590.523
 20
130.964
 10
590.618
 20
130.921
 10
590.702
 20
130.859
 10
590.771
 20
130.78
 10
591.23
 20
130.139
 10
591.28
 20
130.05
 10
591.312
 20
129.953
 10
591.323
 20
129.852
 10
591.313
 20
129.75
 10
590.946
 20
127.917
 10
590.903
 20
127.792
 10
590.353
 20
126.692
 10
590.312
 20
126.623
 10
590.26
 20
126.562
 10
589.068
 20
125.37
 10
588.981
 20
125.3
 10
588.879
 20
125.252
 10
588.77
 20
125.227
 10
587.182
 20
125.051
 10
585.866
 20
124.557
 10
583.558
 20
122.42
 10
583.285
 20
121.6
 10
583.561
 20
120.77
 10
584.021
 20
120.31
 10
585.353
 20
119.977
 10
585.462
 20
119.936
 10
585.558
 20
119.871
 10
586.766
 20
118.835
 10
587.623
 20
118.55
 10
589.304
 20
119.054
 10
589.407
 20
119.073
 10
591.606
 20
119.257
 10
591.701
 20
119.256
 10
591.793
 20
119.237
 10
591.881
 20
119.201
 10
591.96
 20
119.149
 10
592.74
 20
118.525
 10
595.175
 20
118.525
 10
595.973
 20
119.004
 10
596.067
 20
119.048
 10
596.168
 20
119.071
 10
597.549
 20
119.244
 10
598.5
 20
119.719
 10
599.734
 20
120.953
 10
600.038
 20
121.864
 10
600.038
 20
123.366
 10
599.505
 20
125.317
 10
599.488
 20
125.449
 10
599.488
 20
128.015
 10
599.505
 20
128.144
 10
600.221
 20
130.83
 10
600.221
 20
132.15
 10
599.917
 20
133.061
 10
598.861
 20
134.117
 10
597.734
 20
134.724
 10
597.653
 20
134.778
 10
597.584
 20
134.848
 10
597.53
 20
134.929
 10
597.493
 20
135.02
 10
596.943
 20
136.853
 10
596.923
 20
136.953
 10
596.925
 20
137.055
 10
596.947
 20
137.155
 10
597.131
 20
137.705
 10
597.178
 20
137.808
 10
597.248
 20
137.897
 10
597.336
 20
137.969
 10
598.345
 20
138.61
 10
598.429
 20
138.653
 10
598.519
 20
138.679
 10
598.613
 20
138.688
 10
605.535
 20
138.688
 10
608.575
 20
139.225
 10
612.53
 20
140.483
 10
616.852
 20
142.824
 10
618.444
 20
144.063
 10
620.491
 20
146.109
 10
622.636
 20
149.506
 10
622.95
 20
150.291
 10
622.95
 20
155.375
 10
622.025
 20
155.807
 10
621.579
 20
155.695
 10
618.92
 20
153.391
 10
618.855
 20
153.343
 10
618.783
 20
153.306
 10
615.667
 20
152.023
 10
615.574
 20
151.995
 10
615.477
 20
151.986
 10
611.811
 20
151.986
 10
611.689
 20
152.001
 10
610.223
 20
152.367
 10
610.158
 20
152.388
 10
607.409
 20
153.488
 10
607.337
 20
153.523
 10
605.504
 20
154.623
 10
605.449
 20
154.661
 10
602.7
 20
156.861
 10
602.659
 20
156.898
 10
599.192
 20
160.364
 10
597.03
 20
162.166
 10
594.329
 20
163.967
 10
592.548
 20
164.857
 10
587.65
 20
166.671
 10
584.804
 20
167.383
 10
583.949
 20
167.383
 10
583.854
 20
167.392
 10
583.763
 20
167.419
 10
582.911
 20
167.759
 10
579.498
 20
168.119
 10
579.374
 20
168.148
 10
576.442
 20
169.248
 10
576.346
 20
169.295
 10
576.264
 20
169.362
 10
574.889
 20
170.737
 10
574.825
 20
170.815
 10
574.778
 20
170.905
 10
574.045
 20
172.738
 10
574.018
 20
172.829
 10
574.009
 20
172.923
 10
574.009
 20
173.84
 10
574.019
 20
173.938
 10
574.047
 20
174.031
 10
574.093
 20
174.118
 10
574.156
 20
174.194
 10
574.192
 20
174.23
 10
574.192
 20
179.469
 10
573.663
 20
181.94
 10
572.419
 20
184.961
 10
570.651
 20
187.436
 10
568.821
 20
189.092
 10
565.038
 20
190.894
 10
564.92
 20
190.971
 10
563.413
 20
192.311
 10
552.984
 20
192.311
 10
550.562
 20
190.062
 10
550.446
 20
189.981
 10
549.712
 20
189.615
 10
549.618
 20
189.579
 10
549.518
 20
189.563
 10
543.341
 20
189.199
 10
540.886
 20
188.498
 10
538.43
 20
187.095
 10
536.789
 20
185.453
 10
535.416
 20
182.88
 10
535.416
 20
176.45
 10
536.712
 20
175.316
 10
536.791
 20
175.229
 10
536.847
 20
175.125
 10
537.166
 20
174.329
 10
537.954
 20
173.684
 10
539.871
 20
173.524
 10
541.404
 20
174.205
 10
541.502
 20
174.237
 10
541.605
 20
174.248
 10
541.709
 20
174.238
 10
541.807
 20
174.206
 10
541.898
 20
174.155
 10
543.093
 20
173.301
 10
543.746
 20
173.17
 10
545.616
 20
174.02
 10
545.711
 20
174.052
 10
545.811
 20
174.065
 10
545.912
 20
174.057
 10
546.009
 20
174.029
 10
546.098
 20
173.982
 10
546.176
 20
173.919
 10
548.468
 20
171.627
 10
548.526
 20
171.556
 10
548.571
 20
171.476
 10
548.601
 20
171.388
 10
548.613
 20
171.297
 10
548.609
 20
171.205
 10
548.588
 20
171.115
 10
548.551
 20
171.031
 10
548.093
 20
170.206
 10
548.034
 20
170.122
 10
547.959
 20
170.052
 10
546.487
 20
168.926
 10
545.896
 20
167.829
 10
545.844
 20
167.751
 10
545.778
 20
167.683
 10
545.7
 20
167.63
 10
545.614
 20
167.592
 10
544.649
 20
167.27
 10
543.824
 20
166.28
 10
543.766
 20
166.221
 10
543.699
 20
166.172
 10
543.626
 20
166.135
 10
542.804
 20
165.807
 10
542.342
 20
165.345
 10
542.189
 20
164.577
 10
542.154
 20
164.468
 10
541.315
 20
162.623
 10
541.775
 20
161.09
 10
543.369
 20
159.495
 10
544.714
 20
158.823
 10
546.068
 20
158.485
 10
549.232
 20
158.485
 10
550.947
 20
158.999
 10
556.769
 20
162.092
 10
556.849
 20
162.126
 10
556.933
 20
162.146
 10
558.216
 20
162.329
 10
558.317
 20
162.333
 10
558.417
 20
162.317
 10
558.511
 20
162.281
 10
558.877
 20
162.098
 10
558.946
 20
162.056
 10
559.007
 20
162.004
 10
559.649
 20
161.363
 10
559.701
 20
161.301
 10
559.742
 20
161.233
 10
560.476
 20
159.766
 10
560.515
 20
159.658
 10
560.528
 20
159.543
 10
560.528
 20
158.993
 10
560.515
 20
158.878
 10
560.476
 20
158.769
 10
559.42
 20
156.657
 10
559.244
 20
154.372
 10
559.22
 20
154.252
 10
558.853
 20
153.152
 10
558.81
 20
153.057
 10
558.748
 20
152.973
 10
558.669
 20
152.904
 10
558.028
 20
152.445
 10
557.929
 20
152.39
 10
557.821
 20
152.359
 10
557.708
 20
152.353
 10
554.715
 20
152.529
 10
552.894
 20
151.701
 10
551.641
 20
150.448
 10
551.157
 20
149.481
 10
551.009
 20
148.74
 10
551.132
 20
148.25
 10
552.127
 20
147.255
  0
LWPOLYLINE
  5
9D
330
17
100
AcDbEntity
  8
ALT_KATMAN_GRAVUR
100
AcDbPolyline
 90
323
 70
1
 10
704.32
 20
121.767
 10
705.141
 20
122.461
 10
705.435
 20
123.638
 10
705.466
 20
123.727
 10
705.513
 20
123.808
 10
705.93
 20
124.391
 10
705.989
 20
124.46
 10
706.06
 20
124.517
 10
706.141
 20
124.56
 10
706.228
 20
124.588
 10
706.318
 20
124.6
 10
710.761
 20
124.765
 10
712.432
 20
125.22
 10
713.323
 20
125.975
 10
713.583
 20
126.755
 10
713.42
 20
130.663
 10
713.425
 20
130.754
 10
713.446
 20
130.842
 10
713.733
 20
131.704
 10
713.602
 20
132.229
 10
713.587
 20
132.322
 10
713.591
 20
132.416
 10
713.612
 20
132.507
 10
713.65
 20
132.593
 10
714.066
 20
133.343
 10
714.132
 20
133.436
 10
714.218
 20
133.511
 10
714.318
 20
133.565
 10
715.151
 20
133.898
 10
715.251
 20
133.926
 10
715.355
 20
133.933
 10
715.458
 20
133.919
 10
716.125
 20
133.752
 10
716.21
 20
133.723
 10
716.288
 20
133.678
 10
716.357
 20
133.621
 10
717.107
 20
132.871
 10
717.127
 20
132.849
 10
718.46
 20
131.349
 10
718.52
 20
131.267
 10
718.561
 20
131.175
 10
718.894
 20
130.175
 10
718.917
 20
130.067
 10
719.084
 20
128.4
 10
719.084
 20
128.295
 10
719.061
 20
128.192
 10
718.894
 20
127.692
 10
718.855
 20
127.604
 10
718.8
 20
127.525
 10
717.851
 20
126.418
 10
717.12
 20
124.664
 10
717.357
 20
123.954
 10
717.94
 20
123.371
 10
720.737
 20
122.439
 10
723.474
 20
122.6
 10
723.559
 20
122.597
 10
724.975
 20
122.44
 10
728.435
 20
123.226
 10
729.655
 20
124.303
 10
729.92
 20
125.098
 10
729.92
 20
126.282
 10
729.105
 20
129.217
 10
729.087
 20
129.35
 10
729.087
 20
132.429
 10
728.45
 20
134.18
 10
728.425
 20
134.283
 10
728.422
 20
134.39
 10
728.441
 20
134.495
 10
728.483
 20
134.593
 10
728.9
 20
135.343
 10
728.958
 20
135.427
 10
729.032
 20
135.497
 10
729.119
 20
135.551
 10
729.215
 20
135.585
 10
729.882
 20
135.752
 10
729.971
 20
135.766
 10
730.062
 20
135.764
 10
730.15
 20
135.745
 10
732.278
 20
135.09
 10
735.871
 20
134.6
 10
738.454
 20
134.6
 10
742.518
 20
135.413
 10
745.419
 20
136.703
 10
747.177
 20
137.982
 10
748.587
 20
139.391
 10
748.587
 20
140.977
 10
748.067
 20
141.497
 10
747.271
 20
141.762
 10
744.701
 20
141.601
 10
744.558
 20
141.613
 10
742.391
 20
142.113
 10
742.28
 20
142.153
 10
739.946
 20
143.32
 10
739.863
 20
143.372
 10
738.363
 20
144.539
 10
738.299
 20
144.599
 10
735.215
 20
148.015
 10
735.158
 20
148.093
 10
731.168
 20
154.743
 10
728.704
 20
158.193
 10
724.85
 20
162.047
 10
721.254
 20
164.499
 10
718.163
 20
165.963
 10
713.919
 20
167.105
 10
709.519
 20
167.431
 10
704.738
 20
166.772
 10
704.648
 20
166.768
 10
704.559
 20
166.78
 10
704.473
 20
166.808
 10
703.306
 20
167.308
 10
703.223
 20
167.353
 10
703.15
 20
167.414
 10
702.733
 20
167.83
 10
702.669
 20
167.909
 10
702.622
 20
167.998
 10
701.956
 20
169.665
 10
701.93
 20
169.752
 10
701.92
 20
169.842
 10
701.927
 20
169.933
 10
702.24
 20
171.81
 10
701.983
 20
172.58
 10
701.406
 20
173.158
 10
699.86
 20
173.622
 10
699.783
 20
173.652
 10
699.712
 20
173.694
 10
699.65
 20
173.747
 10
698.566
 20
174.83
 10
698.495
 20
174.921
 10
698.446
 20
175.026
 10
697.99
 20
176.393
 10
697.112
 20
177.135
 10
696.515
 20
177.255
 10
695.291
 20
176.949
 10
695.188
 20
176.934
 10
695.084
 20
176.941
 10
694.984
 20
176.97
 10
693.318
 20
177.636
 10
693.244
 20
177.673
 10
693.177
 20
177.722
 10
693.119
 20
177.78
 10
692.436
 20
178.6
 10
690.21
 20
178.6
 10
690.024
 20
178.414
 10
689.954
 20
178.356
 10
689.876
 20
178.312
 10
689.791
 20
178.282
 10
688.458
 20
177.949
 10
688.357
 20
177.934
 10
688.254
 20
177.941
 10
687.254
 20
178.107
 10
687.14
 20
178.141
 10
687.037
 20
178.2
 10
686.526
 20
178.584
 10
685.259
 20
178.457
 10
683.89
 20
176.784
 10
683.82
 20
176.714
 10
683.738
 20
176.659
 10
683.646
 20
176.621
 10
683.549
 20
176.602
 10
681.872
 20
176.45
 10
681.023
 20
175.731
 10
680.566
 20
174.207
 10
680.536
 20
174.13
 10
680.493
 20
174.06
 10
680.44
 20
173.997
 10
679.038
 20
172.595
 10
678.738
 20
171.396
 10
678.706
 20
171.306
 10
676.373
 20
166.306
 10
676.336
 20
166.24
 10
675.669
 20
165.24
 10
675.609
 20
165.165
 10
675.535
 20
165.104
 10
675.45
 20
165.058
 10
674.867
 20
164.808
 10
674.764
 20
164.776
 10
674.656
 20
164.767
 10
674.549
 20
164.782
 10
673.882
 20
164.949
 10
673.793
 20
164.98
 10
673.711
 20
165.028
 10
673.64
 20
165.09
 10
670.668
 20
168.227
 10
667.266
 20
170.819
 10
666.503
 20
171.073
 10
665.794
 20
170.837
 10
665.043
 20
169.95
 10
664.935
 20
169.517
 10
665.05
 20
169.058
 10
667.5
 20
165.465
 10
667.534
 20
165.407
 10
669.034
 20
162.407
 10
669.074
 20
162.296
 10
669.574
 20
160.13
 10
669.587
 20
160.029
 10
669.579
 20
159.927
 10
669.55
 20
159.83
 10
669.503
 20
159.74
 10
668.221
 20
157.817
 10
667.908
 20
156.409
 10
667.857
 20
156.274
 10
667.44
 20
155.524
 10
667.382
 20
155.44
 10
667.308
 20
155.37
 10
667.221
 20
155.317
 10
667.125
 20
155.282
 10
666.458
 20
155.115
 10
666.365
 20
155.101
 10
666.27
 20
155.105
 10
666.179
 20
155.126
 10
665.679
 20
155.293
 10
665.553
 20
155.355
 10
662.945
 20
157.148
 10
662.17
 20
157.407
 10
661.44
 20
157.163
 10
661.253
 20
156.977
 10
661.253
 20
153.302
 10
662.034
 20
151.741
 10
662.077
 20
151.615
 10
662.244
 20
150.782
 10
662.253
 20
150.693
 10
662.247
 20
150.604
 10
662.225
 20
150.517
 10
661.253
 20
147.765
 10
661.253
 20
141.786
 10
662.175
 20
139.636
 10
662.94
 20
138.871
 10
663.67
 20
138.627
 10
664.387
 20
138.866
 10
665.798
 20
140.435
 10
665.861
 20
140.494
 10
665.933
 20
140.541
 10
666.012
 20
140.575
 10
666.512
 20
140.741
 10
666.616
 20
140.764
 10
666.723
 20
140.764
 10
666.828
 20
140.741
 10
667.328
 20
140.575
 10
667.413
 20
140.537
 10
667.489
 20
140.485
 10
667.555
 20
140.42
 10
667.607
 20
140.343
 10
668.024
 20
139.593
 10
668.06
 20
139.511
 10
668.081
 20
139.423
 10
668.086
 20
139.333
 10
668.075
 20
139.244
 10
668.048
 20
139.158
 10
667.27
 20
137.291
 10
667.391
 20
136.568
 10
668.134
 20
135.69
 10
669.261
 20
135.267
 10
671.608
 20
135.267
 10
672.822
 20
135.571
 10
677.768
 20
138.208
 10
677.882
 20
138.252
 10
680.549
 20
138.919
 10
680.636
 20
138.933
 10
680.725
 20
138.931
 10
682.225
 20
138.764
 10
682.313
 20
138.746
 10
682.396
 20
138.713
 10
682.471
 20
138.666
 10
682.537
 20
138.606
 10
682.592
 20
138.536
 10
683.175
 20
137.619
 10
683.215
 20
137.543
 10
683.241
 20
137.462
 10
683.253
 20
137.378
 10
683.419
 20
134.378
 10
683.411
 20
134.258
 10
683.375
 20
134.144
 10
681.727
 20
130.518
 10
681.238
 20
128.562
 10
681.202
 20
128.464
 10
681.146
 20
128.375
 10
679.361
 20
126.102
 10
678.95
 20
125.007
 10
679.183
 20
124.308
 10
680.074
 20
123.555
 10
682.375
 20
122.941
 10
683.781
 20
123.097
 10
683.863
 20
123.1
 10
683.944
 20
123.089
 10
684.022
 20
123.065
 10
684.766
 20
122.767
 10
685.613
 20
122.767
 10
689.729
 20
123.717
 10
690.436
 20
124.553
 10
690.755
 20
128.062
 10
690.774
 20
128.159
 10
690.811
 20
128.251
 10
692.283
 20
131.031
 10
692.602
 20
132.305
 10
692.631
 20
132.39
 10
692.675
 20
132.468
 10
692.733
 20
132.537
 10
692.802
 20
132.595
 10
692.88
 20
132.639
 10
693.796
 20
133.056
 10
693.903
 20
133.09
 10
694.014
 20
133.1
 10
694.125
 20
133.085
 10
695.458
 20
132.752
 10
695.554
 20
132.717
 10
695.641
 20
132.664
 10
695.715
 20
132.594
 10
695.774
 20
132.51
 10
696.19
 20
131.76
 10
696.231
 20
131.665
 10
696.251
 20
131.563
 10
696.25
 20
131.46
 10
696.228
 20
131.359
 10
695.74
 20
129.896
 10
695.247
 20
126.935
 10
695.222
 20
126.844
 10
695.181
 20
126.758
 10
695.125
 20
126.683
 10
693.661
 20
125.056
 10
693.065
 20
124.013
 10
692.934
 20
123.224
 10
693.183
 20
122.475
 10
694.02
 20
121.767
  0
LWPOLYLINE
  5
9E
330
17
100
AcDbEntity
  8
ALT_KATMAN_GRAVUR
100
AcDbPolyline
 90
370
 70
1
 10
836.765
 20
122.214
 10
839.494
 20
122.82
 10
840.148
 20
123.213
 10
840.711
 20
123.9
 10
840.853
 20
125.888
 10
840.238
 20
128.037
 10
840.219
 20
128.174
 10
840.219
 20
131.757
 10
839.611
 20
133.429
 10
839.585
 20
133.533
 10
839.583
 20
133.639
 10
839.602
 20
133.744
 10
839.644
 20
133.843
 10
840.043
 20
134.561
 10
840.101
 20
134.645
 10
840.176
 20
134.715
 10
840.263
 20
134.768
 10
840.359
 20
134.803
 10
840.997
 20
134.963
 10
841.103
 20
134.977
 10
841.21
 20
134.969
 10
841.312
 20
134.938
 10
844.322
 20
133.671
 10
849.851
 20
131.934
 10
854.722
 20
131.148
 10
860.54
 20
131.148
 10
864.734
 20
131.924
 10
866.171
 20
132.643
 10
866.743
 20
133.341
 10
866.853
 20
133.895
 10
866.411
 20
135.371
 10
866.392
 20
135.47
 10
866.243
 20
137.098
 10
866.036
 20
137.409
 10
865.313
 20
138.001
 10
864.637
 20
138.136
 10
864.544
 20
138.165
 10
864.457
 20
138.211
 10
864.382
 20
138.273
 10
862.893
 20
139.762
 10
862.333
 20
139.874
 10
861.466
 20
139.729
 10
861.353
 20
139.723
 10
861.241
 20
139.743
 10
861.136
 20
139.788
 10
860.09
 20
140.386
 10
859.469
 20
140.51
 10
858.898
 20
140.396
 10
857.88
 20
139.524
 10
857.801
 20
139.468
 10
857.712
 20
139.429
 10
856.755
 20
139.11
 10
856.664
 20
139.089
 10
856.571
 20
139.085
 10
856.478
 20
139.098
 10
856.39
 20
139.129
 10
855.512
 20
139.528
 10
855.424
 20
139.58
 10
855.348
 20
139.648
 10
855.287
 20
139.731
 10
855.245
 20
139.825
 10
855.085
 20
140.304
 10
855.063
 20
140.408
 10
855.063
 20
140.515
 10
855.085
 20
140.62
 10
855.532
 20
141.959
 10
855.396
 20
143.589
 10
854.439
 20
144.546
 10
852.837
 20
144.837
 10
852.752
 20
144.86
 10
852.672
 20
144.898
 10
852.601
 20
144.95
 10
852.539
 20
145.013
 10
852.49
 20
145.086
 10
852.091
 20
145.804
 10
852.052
 20
145.895
 10
852.031
 20
145.991
 10
852.03
 20
146.09
 10
852.048
 20
146.187
 10
853.135
 20
149.913
 10
853.014
 20
150.758
 10
852.04
 20
151.732
 10
849.153
 20
152.339
 10
849.055
 20
152.371
 10
848.966
 20
152.422
 10
848.407
 20
152.821
 10
848.329
 20
152.89
 10
848.267
 20
152.974
 10
848.224
 20
153.069
 10
848.064
 20
153.548
 10
848.043
 20
153.641
 10
848.039
 20
153.736
 10
848.054
 20
153.831
 10
849.625
 20
159.958
 10
849.503
 20
160.811
 10
848.54
 20
161.774
 10
846.727
 20
162.053
 10
846.186
 20
161.918
 10
846.092
 20
161.904
 10
845.997
 20
161.908
 10
845.904
 20
161.93
 10
845.817
 20
161.969
 10
844.79
 20
162.556
 10
843.693
 20
162.678
 10
843.631
 20
162.627
 10
843.547
 20
162.581
 10
843.454
 20
162.552
 10
843.359
 20
162.541
 10
843.263
 20
162.55
 10
843.17
 20
162.576
 10
843.084
 20
162.62
 10
842.206
 20
163.178
 10
842.129
 20
163.239
 10
842.065
 20
163.313
 10
842.017
 20
163.399
 10
841.986
 20
163.492
 10
841.975
 20
163.59
 10
841.817
 20
171.164
 10
841.415
 20
172.234
 10
840.738
 20
172.788
 10
840.161
 20
172.904
 10
839.497
 20
172.771
 10
837.297
 20
171.985
 10
837.192
 20
171.96
 10
837.085
 20
171.958
 10
836.979
 20
171.979
 10
836.881
 20
172.022
 10
835.847
 20
172.613
 10
834.909
 20
172.747
 10
834.27
 20
172.619
 10
831.146
 20
170.901
 10
831.048
 20
170.86
 10
830.943
 20
170.841
 10
830.836
 20
170.844
 10
830.733
 20
170.87
 10
830.637
 20
170.917
 10
829.759
 20
171.476
 10
829.674
 20
171.545
 10
829.605
 20
171.631
 10
829.557
 20
171.73
 10
828.769
 20
173.935
 10
827.531
 20
176.412
 10
826.998
 20
177.063
 10
824.41
 20
177.063
 10
824.078
 20
176.73
 10
823.987
 20
176.659
 10
823.883
 20
176.61
 10
822.925
 20
176.291
 10
822.818
 20
176.267
 10
822.708
 20
176.268
 10
822.601
 20
176.293
 10
822.502
 20
176.341
 10
821.347
 20
177.063
 10
819.783
 20
177.063
 10
817.817
 20
175.097
 10
815.375
 20
171.08
 10
815.317
 20
171.002
 10
815.244
 20
170.937
 10
815.161
 20
170.887
 10
815.069
 20
170.854
 10
814.431
 20
170.695
 10
814.338
 20
170.681
 10
814.243
 20
170.684
 10
814.152
 20
170.705
 10
813.673
 20
170.865
 10
813.592
 20
170.9
 10
813.519
 20
170.949
 10
812.001
 20
172.163
 10
811.083
 20
172.425
 10
810.21
 20
172.3
 10
809.52
 20
171.736
 10
807.201
 20
167.252
 10
806.764
 20
165.503
 10
806.901
 20
164.815
 10
806.911
 20
164.728
 10
806.905
 20
164.64
 10
806.884
 20
164.554
 10
806.848
 20
164.474
 10
806.449
 20
163.756
 10
806.397
 20
163.68
 10
806.331
 20
163.614
 10
806.255
 20
163.562
 10
806.17
 20
163.525
 10
805.691
 20
163.365
 10
805.591
 20
163.343
 10
805.489
 20
163.341
 10
805.388
 20
163.361
 10
805.294
 20
163.4
 10
803.605
 20
164.321
 10
802.98
 20
164.446
 10
802.407
 20
164.332
 10
801.522
 20
163.583
 10
801.299
 20
163.248
 10
800.533
 20
159.114
 10
800.674
 20
157.84
 10
800.954
 20
157.281
 10
800.989
 20
157.189
 10
801.005
 20
157.093
 10
801.003
 20
156.995
 10
800.981
 20
156.899
 10
800.821
 20
156.421
 10
800.784
 20
156.336
 10
800.732
 20
156.259
 10
800.666
 20
156.194
 10
800.59
 20
156.142
 10
799.872
 20
155.743
 10
799.786
 20
155.705
 10
799.694
 20
155.684
 10
799.6
 20
155.681
 10
799.508
 20
155.695
 10
798.34
 20
155.987
 10
797.775
 20
155.873
 10
797.061
 20
155.289
 10
796.689
 20
154.67
 10
796.546
 20
152.532
 10
796.645
 20
152.334
 10
796.68
 20
152.244
 10
796.697
 20
152.148
 10
796.694
 20
152.051
 10
796.674
 20
151.957
 10
796.635
 20
151.868
 10
796.236
 20
151.15
 10
796.178
 20
151.066
 10
796.103
 20
150.996
 10
796.016
 20
150.942
 10
795.92
 20
150.907
 10
795.282
 20
150.748
 10
795.195
 20
150.734
 10
795.106
 20
150.736
 10
795.019
 20
150.753
 10
794.937
 20
150.786
 10
794.035
 20
151.237
 10
792.712
 20
151.531
 10
790.59
 20
151.531
 10
788.629
 20
151.078
 10
787.174
 20
150.351
 10
785.005
 20
147.872
 10
784.935
 20
147.805
 10
784.852
 20
147.754
 10
781.748
 20
146.202
 10
780.741
 20
145.06
 10
780.741
 20
140.564
 10
781.477
 20
140.054
 10
782.174
 20
139.915
 10
782.276
 20
139.882
 10
782.37
 20
139.829
 10
784.007
 20
138.638
 10
786.318
 20
138.493
 10
787.183
 20
138.782
 10
787.262
 20
138.801
 10
787.342
 20
138.807
 10
790.054
 20
138.807
 10
790.134
 20
138.801
 10
790.212
 20
138.782
 10
791.093
 20
138.488
 10
793.332
 20
138.488
 10
794.857
 20
138.946
 10
794.958
 20
138.965
 10
795.06
 20
138.964
 10
795.159
 20
138.941
 10
796.595
 20
138.463
 10
796.695
 20
138.417
 10
797.891
 20
137.699
 10
797.964
 20
137.646
 10
798.025
 20
137.582
 10
798.074
 20
137.507
 10
798.11
 20
137.425
 10
798.13
 20
137.338
 10
798.608
 20
133.827
 10
798.612
 20
133.731
 10
798.597
 20
133.636
 10
798.565
 20
133.545
 10
797.148
 20
130.555
 10
796.522
 20
128.205
 10
796.482
 20
128.104
 10
796.423
 20
128.014
 10
794.908
 20
126.197
 10
794.801
 20
125.663
 10
795.18
 20
124.655
 10
796.305
 20
123.794
 10
800.086
 20
123.492
 10
802.804
 20
123.945
 10
803.446
 20
124.33
 10
804.014
 20
125.024
 10
804.318
 20
127.908
 10
804.339
 20
128.007
 10
804.379
 20
128.1
 10
805.779
 20
130.589
 10
806.082
 20
131.953
 10
806.113
 20
132.046
 10
806.161
 20
132.132
 10
806.225
 20
132.206
 10
806.302
 20
132.266
 10
807.18
 20
132.825
 10
807.274
 20
132.872
 10
807.376
 20
132.898
 10
807.481
 20
132.902
 10
807.585
 20
132.884
 10
808.702
 20
132.565
 10
808.802
 20
132.524
 10
808.891
 20
132.463
 10
808.965
 20
132.384
 10
809.02
 20
132.291
 10
809.419
 20
131.413
 10
809.453
 20
131.313
 10
809.464
 20
131.207
 10
809.453
 20
131.102
 10
808.495
 20
126.633
 10
808.46
 20
126.528
 10
808.403
 20
126.433
 10
806.878
 20
124.451
 10
806.758
 20
123.852
 10
806.882
 20
122.985
 10
807.655
 20
122.212
 10
815.698
 20
122.212
 10
816.795
 20
123.308
 10
816.928
 20
124.108
 10
816.951
 20
124.195
 10
816.989
 20
124.276
 10
817.04
 20
124.349
 10
817.104
 20
124.412
 10
817.179
 20
124.463
 10
817.897
 20
124.861
 10
817.978
 20
124.898
 10
818.065
 20
124.919
 10
818.155
 20
124.924
 10
823.363
 20
124.766
 10
824.755
 20
125.045
 10
825.874
 20
126.164
 10
826.015
 20
127.848
 10
825.861
 20
129.236
 10
825.864
 20
129.374
 10
826.165
 20
131.177
 10
825.877
 20
132.186
 10
825.858
 20
132.298
 10
825.865
 20
132.411
 10
825.898
 20
132.52
 10
826.137
 20
133.079
 10
826.179
 20
133.156
 10
826.233
 20
133.225
 10
826.299
 20
133.283
 10
826.373
 20
133.329
 10
827.012
 20
133.648
 10
827.103
 20
133.683
 10
827.2
 20
133.7
 10
827.298
 20
133.697
 10
827.393
 20
133.675
 10
827.872
 20
133.516
 10
827.95
 20
133.482
 10
828.02
 20
133.436
 10
828.083
 20
133.379
 10
829.792
 20
131.515
 10
831.011
 20
130.753
 10
831.078
 20
130.702
 10
831.136
 20
130.641
 10
831.183
 20
130.571
 10
831.582
 20
129.853
 10
831.619
 20
129.768
 10
831.64
 20
129.677
 10
831.96
 20
127.283
 10
831.963
 20
127.19
 10
831.95
 20
127.099
 10
831.919
 20
127.011
 10
831.874
 20
126.93
 10
830.805
 20
125.403
 10
830.539
 20
124.475
 10
830.663
 20
123.735
 10
830.881
 20
123.408
 10
831.63
 20
122.795
 10
832.911
 20
122.368
  0
LWPOLYLINE
  5
9F
330
17
100
AcDbEntity
  8
ALT_KATMAN_GRAVUR
100
AcDbPolyline
 90
357
 70
1
 10
541.101
 20
101.373
 10
541.088
 20
101.4
 10
541.062
 20
101.507
 10
540.676
 20
104.601
 10
539.535
 20
107.262
 10
538.797
 20
108.369
 10
536.598
 20
110.568
 10
535.085
 20
111.514
 10
534.816
 20
111.648
 10
526.564
 20
111.648
 10
525.353
 20
110.957
 10
524.57
 20
110.173
 10
522.728
 20
106.393
 10
522.667
 20
106.297
 10
522.586
 20
106.217
 10
522.488
 20
106.158
 10
519.986
 20
105.003
 10
518.234
 20
103.435
 10
518.132
 20
103.231
 10
518.132
 20
98.019
 10
518.586
 20
97.565
 10
519.845
 20
97.205
 10
519.949
 20
97.163
 10
520.04
 20
97.098
 10
520.115
 20
97.015
 10
521.032
 20
95.732
 10
522.415
 20
95.041
 10
524.793
 20
94.858
 10
527.273
 20
95.621
 10
527.346
 20
95.637
 10
527.42
 20
95.643
 10
529.2
 20
95.643
 10
529.297
 20
95.633
 10
529.391
 20
95.605
 10
529.477
 20
95.558
 10
529.553
 20
95.496
 10
530.443
 20
94.606
 10
530.505
 20
94.531
 10
530.551
 20
94.444
 10
530.58
 20
94.35
 10
530.589
 20
94.253
 10
530.589
 20
92.275
 10
530.573
 20
92.15
 10
527.821
 20
81.534
 10
527.821
 20
80.411
 10
527.804
 20
80.28
 10
527.225
 20
78.157
 10
527.03
 20
74.256
 10
527.017
 20
74.165
 10
526.987
 20
74.078
 10
526.942
 20
73.998
 10
526.884
 20
73.928
 10
526.832
 20
73.876
 10
526.832
 20
70.533
 10
526.884
 20
70.482
 10
526.946
 20
70.406
 10
526.992
 20
70.32
 10
527.021
 20
70.226
 10
527.03
 20
70.129
 10
527.03
 20
68.754
 10
527.081
 20
68.702
 10
527.147
 20
68.622
 10
527.194
 20
68.529
 10
527.221
 20
68.429
 10
527.227
 20
68.325
 10
527.212
 20
68.223
 10
527.175
 20
68.125
 10
527.078
 20
67.931
 10
527.39
 20
67.15
 10
527.417
 20
67.058
 10
528.189
 20
63.005
 10
528.528
 20
62.496
 10
528.574
 20
62.41
 10
528.603
 20
62.316
 10
528.612
 20
62.219
 10
528.612
 20
61.722
 10
529.358
 20
59.858
 10
531.503
 20
55.762
 10
534.842
 20
51.245
 10
534.895
 20
51.154
 10
534.929
 20
51.053
 10
534.94
 20
50.948
 10
534.94
 20
47.648
 10
536.111
 20
42.962
 10
536.126
 20
42.84
 10
536.126
 20
41.654
 10
536.119
 20
41.569
 10
536.097
 20
41.486
 10
535.118
 20
38.746
 10
534.136
 20
34.425
 10
534.1
 20
34.32
 10
534.042
 20
34.226
 10
531.915
 20
31.519
 10
531.403
 20
30.155
 10
531.536
 20
29.624
 10
532.268
 20
28.73
 10
534.241
 20
28.012
 10
538.691
 20
27.827
 10
538.733
 20
27.869
 10
538.801
 20
27.926
 10
538.878
 20
27.97
 10
538.961
 20
28.0
 10
539.048
 20
28.014
 10
541.548
 20
28.206
 10
542.962
 20
28.737
 10
543.303
 20
29.078
 10
543.827
 20
30.474
 10
543.827
 20
33.349
 10
543.842
 20
33.47
 10
544.237
 20
35.052
 10
544.26
 20
35.121
 10
545.614
 20
38.41
 10
545.806
 20
40.901
 10
545.82
 20
40.989
 10
545.85
 20
41.072
 10
545.894
 20
41.149
 10
545.951
 20
41.217
 10
546.84
 20
42.106
 10
546.914
 20
42.167
 10
546.997
 20
42.213
 10
547.088
 20
42.242
 10
547.183
 20
42.253
 10
547.278
 20
42.246
 10
547.37
 20
42.221
 10
548.951
 20
41.628
 10
549.04
 20
41.584
 10
549.118
 20
41.524
 10
549.183
 20
41.45
 10
549.677
 20
40.758
 10
549.728
 20
40.668
 10
549.76
 20
40.57
 10
549.77
 20
40.468
 10
549.77
 20
40.072
 10
549.761
 20
39.975
 10
549.732
 20
39.881
 10
549.686
 20
39.794
 10
549.624
 20
39.719
 10
549.573
 20
39.667
 10
549.573
 20
38.886
 10
549.563
 20
38.788
 10
549.534
 20
38.694
 10
549.488
 20
38.608
 10
549.426
 20
38.532
 10
549.35
 20
38.456
 10
548.975
 20
35.462
 10
548.95
 20
35.355
 10
548.902
 20
35.256
 10
548.833
 20
35.171
 10
548.782
 20
35.119
 10
548.782
 20
33.942
 10
548.762
 20
33.805
 10
548.367
 20
32.421
 10
548.333
 20
32.334
 10
547.938
 20
31.543
 10
547.867
 20
31.438
 10
546.525
 20
29.904
 10
545.99
 20
28.835
 10
545.832
 20
28.042
 10
546.133
 20
27.14
 10
547.152
 20
26.434
 10
557.313
 20
26.434
 10
558.536
 20
27.33
 10
558.855
 20
28.289
 10
558.855
 20
29.394
 10
558.865
 20
29.492
 10
558.893
 20
29.585
 10
558.939
 20
29.672
 10
559.001
 20
29.748
 10
559.891
 20
30.638
 10
559.967
 20
30.7
 10
560.053
 20
30.746
 10
560.147
 20
30.774
 10
560.245
 20
30.784
 10
560.342
 20
30.774
 10
560.436
 20
30.746
 10
560.522
 20
30.7
 10
561.637
 20
29.957
 10
564.575
 20
29.222
 10
565.03
 20
29.374
 10
565.125
 20
29.396
 10
565.222
 20
29.399
 10
567.961
 20
29.216
 10
567.999
 20
29.253
 10
568.074
 20
29.316
 10
568.161
 20
29.362
 10
568.255
 20
29.39
 10
568.352
 20
29.4
 10
569.873
 20
29.4
 10
571.311
 20
29.759
 10
571.832
 20
30.107
 10
571.921
 20
30.154
 10
572.017
 20
30.182
 10
572.117
 20
30.191
 10
572.217
 20
30.179
 10
572.313
 20
30.148
 10
572.4
 20
30.098
 10
573.092
 20
29.603
 10
573.17
 20
29.534
 10
573.232
 20
29.45
 10
573.276
 20
29.355
 10
573.634
 20
28.28
 10
574.159
 20
27.755
 10
577.509
 20
26.638
 10
579.78
 20
26.827
 10
579.888
 20
26.825
 10
579.993
 20
26.799
 10
580.09
 20
26.751
 10
580.175
 20
26.683
 10
580.226
 20
26.631
 10
581.543
 20
26.631
 10
584.763
 20
27.389
 10
586.217
 20
28.33
 10
586.728
 20
30.033
 10
586.547
 20
31.667
 10
585.967
 20
33.601
 10
585.945
 20
33.744
 10
585.945
 20
35.326
 10
585.955
 20
35.424
 10
585.983
 20
35.518
 10
586.03
 20
35.604
 10
586.092
 20
35.68
 10
586.143
 20
35.731
 10
586.143
 20
38.688
 10
586.153
 20
38.785
 10
586.181
 20
38.879
 10
586.227
 20
38.966
 10
586.29
 20
39.041
 10
587.179
 20
39.931
 10
587.254
 20
39.993
 10
587.339
 20
40.038
 10
587.431
 20
40.067
 10
587.527
 20
40.078
 10
587.623
 20
40.07
 10
587.715
 20
40.043
 10
587.801
 20
40.0
 10
592.126
 20
37.248
 10
596.218
 20
35.299
 10
601.252
 20
33.75
 10
602.166
 20
33.75
 10
602.246
 20
33.744
 10
602.324
 20
33.724
 10
603.433
 20
33.355
 10
605.725
 20
33.355
 10
605.823
 20
33.345
 10
605.916
 20
33.317
 10
606.003
 20
33.27
 10
606.079
 20
33.208
 10
606.13
 20
33.157
 10
608.682
 20
33.157
 10
608.733
 20
33.208
 10
608.802
 20
33.266
 10
608.88
 20
33.31
 10
608.965
 20
33.339
 10
609.053
 20
33.353
 10
611.965
 20
33.548
 10
615.231
 20
34.508
 10
617.529
 20
35.657
 10
618.847
 20
36.599
 10
620.217
 20
37.969
 10
620.523
 20
38.886
 10
620.228
 20
39.77
 10
619.558
 20
40.292
 10
618.599
 20
40.452
 10
616.327
 20
39.884
 10
616.205
 20
39.869
 10
613.437
 20
39.869
 10
613.357
 20
39.875
 10
613.279
 20
39.894
 10
612.169
 20
40.264
 10
611.46
 20
40.264
 10
611.372
 20
40.272
 10
611.287
 20
40.295
 10
607.53
 20
41.679
 10
607.43
 20
41.729
 10
603.475
 20
44.3
 10
603.408
 20
44.352
 10
600.738
 20
46.824
 10
600.691
 20
46.874
 10
597.132
 20
51.224
 10
597.081
 20
51.3
 10
597.045
 20
51.383
 10
596.869
 20
51.91
 10
594.338
 20
55.609
 10
594.312
 20
55.65
 10
589.975
 20
63.537
 10
586.851
 20
68.027
 10
582.854
 20
72.024
 10
580.543
 20
73.758
 10
575.682
 20
76.285
 10
570.055
 20
77.837
 10
565.19
 20
78.025
 10
565.146
 20
77.981
 10
565.078
 20
77.924
 10
564.999
 20
77.879
 10
564.915
 20
77.85
 10
564.826
 20
77.836
 10
561.9
 20
77.641
 10
559.458
 20
77.077
 10
558.94
 20
76.732
 10
558.854
 20
76.686
 10
558.76
 20
76.658
 10
558.663
 20
76.648
 10
558.172
 20
76.648
 10
554.15
 20
74.925
 10
548.876
 20
71.604
 10
547.519
 20
70.441
 10
547.418
 20
70.373
 10
545.836
 20
69.583
 10
545.798
 20
69.565
 10
544.809
 20
69.17
 10
544.718
 20
69.143
 10
544.623
 20
69.134
 10
543.635
 20
69.134
 10
543.534
 20
69.144
 10
543.438
 20
69.175
 10
542.054
 20
69.768
 10
541.97
 20
69.813
 10
541.897
 20
69.874
 10
540.809
 20
70.961
 10
540.757
 20
71.023
 10
540.716
 20
71.091
 10
539.925
 20
72.673
 10
539.887
 20
72.776
 10
539.096
 20
75.94
 10
539.081
 20
76.061
 10
539.081
 20
77.238
 10
539.03
 20
77.289
 10
538.966
 20
77.368
 10
538.919
 20
77.457
 10
538.891
 20
77.555
 10
538.883
 20
77.656
 10
539.081
 20
85.17
 10
539.089
 20
85.243
 10
539.107
 20
85.315
 10
539.485
 20
86.451
 10
539.875
 20
89.958
 10
539.898
 20
90.061
 10
540.277
 20
91.198
 10
540.666
 20
94.509
 10
540.692
 20
94.617
 10
540.74
 20
94.717
 10
540.809
 20
94.804
 10
540.871
 20
94.866
 10
541.059
 20
98.432
 10
541.072
 20
98.522
 10
541.102
 20
98.609
 10
541.146
 20
98.689
 10
541.205
 20
98.759
 10
541.256
 20
98.81
 10
541.256
 20
100.769
 10
541.205
 20
100.82
 10
541.143
 20
100.896
 10
541.096
 20
100.982
 10
541.068
 20
101.076
 10
541.058
 20
101.174
 10
541.068
 20
101.271
 10
541.096
 20
101.365
  0
LWPOLYLINE
  5
A0
330
17
100
AcDbEntity
  8
ALT_KATMAN_GRAVUR
100
AcDbPolyline
 90
484
 70
1
 10
694.355
 20
63.333
 10
694.295
 20
63.283
 10
694.208
 20
63.237
 10
694.115
 20
63.209
 10
694.017
 20
63.199
 10
692.253
 20
63.199
 10
691.099
 20
62.815
 10
691.021
 20
62.795
 10
690.941
 20
62.789
 10
690.123
 20
62.789
 10
690.064
 20
62.73
 10
689.988
 20
62.668
 10
689.902
 20
62.622
 10
689.808
 20
62.594
 10
689.71
 20
62.584
 10
687.455
 20
62.584
 10
687.333
 20
62.599
 10
685.693
 20
63.009
 10
685.581
 20
63.052
 10
685.483
 20
63.119
 10
683.74
 20
64.657
 10
683.675
 20
64.727
 10
683.624
 20
64.809
 10
683.213
 20
65.629
 10
683.174
 20
65.738
 10
683.161
 20
65.853
 10
683.161
 20
66.35
 10
682.803
 20
67.064
 10
682.764
 20
67.173
 10
682.751
 20
67.288
 10
682.751
 20
68.311
 10
682.692
 20
68.37
 10
682.632
 20
68.442
 10
682.587
 20
68.523
 10
682.558
 20
68.612
 10
682.546
 20
68.704
 10
682.343
 20
73.976
 10
681.549
 20
76.754
 10
680.56
 20
78.93
 10
678.973
 20
81.113
 10
677.898
 20
82.188
 10
676.333
 20
83.361
 10
673.612
 20
84.527
 10
661.138
 20
84.527
 10
660.284
 20
84.015
 10
658.072
 20
81.803
 10
657.983
 20
81.732
 10
657.881
 20
81.684
 10
651.965
 20
79.643
 10
650.394
 20
78.858
 10
648.833
 20
77.687
 10
647.576
 20
76.237
 10
647.247
 20
75.578
 10
647.247
 20
69.843
 10
648.317
 20
69.266
 10
648.433
 20
69.18
 10
649.164
 20
68.449
 10
650.989
 20
67.901
 10
652.316
 20
68.091
 10
652.412
 20
68.095
 10
652.508
 20
68.081
 10
653.991
 20
67.71
 10
654.867
 20
68.06
 10
654.947
 20
68.084
 10
655.03
 20
68.095
 10
655.114
 20
68.092
 10
656.627
 20
67.903
 10
657.533
 20
68.265
 10
657.626
 20
68.292
 10
657.722
 20
68.301
 10
657.819
 20
68.291
 10
657.912
 20
68.262
 10
657.997
 20
68.216
 10
658.072
 20
68.154
 10
658.995
 20
67.231
 10
659.055
 20
67.158
 10
659.101
 20
67.074
 10
659.13
 20
66.984
 10
659.141
 20
66.889
 10
659.134
 20
66.794
 10
659.109
 20
66.702
 10
659.068
 20
66.617
 10
659.01
 20
66.541
 10
656.857
 20
64.182
 10
656.795
 20
64.125
 10
656.724
 20
64.079
 10
656.646
 20
64.045
 10
656.143
 20
63.877
 10
654.996
 20
62.73
 10
654.905
 20
62.659
 10
654.8
 20
62.61
 10
654.297
 20
62.442
 10
653.938
 20
62.083
 10
653.022
 20
59.886
 10
653.336
 20
58.945
 10
654.118
 20
58.163
 10
655.227
 20
57.608
 10
655.934
 20
57.432
 10
658.267
 20
57.432
 10
660.406
 20
58.015
 10
665.486
 20
60.656
 10
665.595
 20
60.698
 10
668.876
 20
61.518
 10
668.968
 20
61.532
 10
669.061
 20
61.529
 10
669.152
 20
61.509
 10
669.237
 20
61.472
 10
669.314
 20
61.42
 10
670.442
 20
60.497
 10
670.516
 20
60.423
 10
670.573
 20
60.334
 10
670.983
 20
59.514
 10
671.022
 20
59.405
 10
671.831
 20
55.966
 10
672.814
 20
53.804
 10
673.397
 20
53.028
 10
673.448
 20
52.943
 10
673.481
 20
52.851
 10
673.496
 20
52.753
 10
673.491
 20
52.655
 10
673.467
 20
52.559
 10
672.442
 20
49.688
 10
672.399
 20
49.597
 10
672.338
 20
49.516
 10
672.262
 20
49.45
 10
671.544
 20
48.937
 10
671.454
 20
48.886
 10
671.356
 20
48.854
 10
671.253
 20
48.844
 10
670.843
 20
48.844
 10
670.759
 20
48.851
 10
670.677
 20
48.872
 10
670.6
 20
48.907
 10
668.755
 20
49.932
 10
668.691
 20
49.974
 10
666.913
 20
51.357
 10
665.84
 20
51.715
 10
664.137
 20
51.715
 10
661.8
 20
51.13
 10
660.084
 20
50.177
 10
658.262
 20
48.163
 10
657.729
 20
46.564
 10
658.052
 20
45.434
 10
658.762
 20
44.881
 10
659.206
 20
44.77
 10
659.21
 20
44.775
 10
659.291
 20
44.841
 10
659.384
 20
44.888
 10
659.485
 20
44.915
 10
659.588
 20
44.921
 10
659.691
 20
44.905
 10
659.789
 20
44.868
 10
659.876
 20
44.812
 10
660.832
 20
44.048
 10
661.808
 20
43.722
 10
664.188
 20
44.638
 10
665.337
 20
45.978
 10
665.409
 20
46.046
 10
665.493
 20
46.1
 10
666.313
 20
46.51
 10
666.399
 20
46.543
 10
666.49
 20
46.56
 10
666.583
 20
46.56
 10
666.674
 20
46.543
 10
666.76
 20
46.51
 10
667.17
 20
46.305
 10
667.239
 20
46.263
 10
667.3
 20
46.211
 10
670.274
 20
43.237
 10
670.333
 20
43.166
 10
670.378
 20
43.084
 10
670.408
 20
42.996
 10
670.42
 20
42.904
 10
670.415
 20
42.811
 10
670.393
 20
42.72
 10
670.355
 20
42.636
 10
668.748
 20
39.824
 10
668.581
 20
39.156
 10
668.763
 20
37.335
 10
669.299
 20
36.645
 10
670.309
 20
36.309
 10
671.048
 20
36.309
 10
671.151
 20
36.298
 10
671.249
 20
36.266
 10
671.339
 20
36.215
 10
672.697
 20
35.245
 10
673.304
 20
35.093
 10
673.891
 20
35.24
 10
676.275
 20
37.243
 10
676.844
 20
38.569
 10
676.889
 20
38.652
 10
676.95
 20
38.726
 10
677.462
 20
39.238
 10
677.524
 20
39.29
 10
677.592
 20
39.332
 10
678.413
 20
39.742
 10
678.521
 20
39.782
 10
678.636
 20
39.795
 10
679.251
 20
39.795
 10
679.361
 20
39.783
 10
679.465
 20
39.747
 10
679.558
 20
39.69
 10
680.481
 20
38.972
 10
680.548
 20
38.91
 10
680.602
 20
38.836
 10
680.642
 20
38.754
 10
680.666
 20
38.667
 10
681.057
 20
36.516
 10
683.205
 20
33.392
 10
685.461
 20
31.725
 10
687.063
 20
30.924
 10
687.164
 20
30.857
 10
687.246
 20
30.767
 10
687.759
 20
30.049
 10
687.81
 20
29.96
 10
687.841
 20
29.861
 10
687.852
 20
29.759
 10
687.852
 20
28.938
 10
687.839
 20
28.824
 10
687.799
 20
28.715
 10
687.389
 20
27.895
 10
687.342
 20
27.818
 10
686.111
 20
26.178
 10
686.061
 20
26.12
 10
686.002
 20
26.071
 10
685.284
 20
25.558
 10
685.197
 20
25.508
 10
685.102
 20
25.477
 10
685.003
 20
25.465
 10
684.903
 20
25.473
 10
684.806
 20
25.501
 10
684.718
 20
25.548
 10
684.64
 20
25.611
 10
682.647
 20
27.605
 10
681.948
 20
27.954
 10
681.322
 20
28.11
 10
680.342
 20
27.784
 10
679.996
 20
27.438
 10
679.685
 20
26.503
 10
680.426
 20
24.835
 10
680.46
 20
24.73
 10
680.469
 20
24.62
 10
680.455
 20
24.511
 10
680.416
 20
24.408
 10
680.211
 20
23.998
 10
680.144
 20
23.897
 10
680.055
 20
23.815
 10
679.337
 20
23.302
 10
679.259
 20
23.256
 10
679.174
 20
23.226
 10
679.086
 20
23.21
 10
678.995
 20
23.212
 10
678.907
 20
23.229
 10
678.823
 20
23.262
 10
678.518
 20
23.414
 10
677.057
 20
23.414
 10
676.359
 20
23.239
 10
674.222
 20
22.074
 10
673.639
 20
21.491
 10
673.319
 20
20.53
 10
673.639
 20
19.57
 10
673.984
 20
19.224
 10
674.488
 20
19.056
 10
674.592
 20
19.007
 10
674.683
 20
18.936
 10
675.625
 20
17.994
 10
676.597
 20
17.67
 10
677.884
 20
18.037
 10
677.962
 20
18.053
 10
678.041
 20
18.056
 10
683.084
 20
17.854
 10
685.055
 20
18.446
 10
685.199
 20
18.467
 10
686.758
 20
18.467
 10
689.03
 20
19.224
 10
689.402
 20
19.596
 10
689.962
 20
20.715
 10
690.565
 20
22.725
 10
690.605
 20
22.82
 10
691.835
 20
25.076
 10
691.898
 20
25.166
 10
694.671
 20
28.336
 10
694.841
 20
29.527
 10
694.689
 20
30.138
 10
693.535
 20
31.484
 10
693.467
 20
31.586
 10
693.057
 20
32.406
 10
693.018
 20
32.515
 10
693.004
 20
32.63
 10
693.004
 20
33.655
 10
693.014
 20
33.753
 10
693.042
 20
33.847
 10
693.089
 20
33.933
 10
693.151
 20
34.009
 10
694.074
 20
34.932
 10
694.154
 20
34.997
 10
694.247
 20
35.044
 10
694.347
 20
35.072
 10
694.451
 20
35.078
 10
694.554
 20
35.062
 10
694.651
 20
35.025
 10
694.955
 20
34.873
 10
696.888
 20
34.873
 10
696.997
 20
34.861
 10
697.101
 20
34.825
 10
697.195
 20
34.768
 10
698.118
 20
34.05
 10
698.185
 20
33.987
 10
698.24
 20
33.912
 10
698.823
 20
32.94
 10
699.678
 20
32.086
 10
701.249
 20
30.907
 10
704.631
 20
29.316
 10
707.849
 20
28.712
 10
707.953
 20
28.681
 10
708.048
 20
28.628
 10
708.766
 20
28.115
 10
708.837
 20
28.053
 10
708.896
 20
27.978
 10
708.939
 20
27.894
 10
709.35
 20
26.868
 10
709.374
 20
26.79
 10
709.385
 20
26.709
 10
709.382
 20
26.627
 10
709.177
 20
24.782
 10
709.148
 20
24.661
 10
708.533
 20
23.021
 10
708.49
 20
22.932
 10
708.43
 20
22.854
 10
708.356
 20
22.789
 10
707.638
 20
22.277
 10
707.551
 20
22.227
 10
707.456
 20
22.195
 10
707.356
 20
22.184
 10
707.256
 20
22.192
 10
707.16
 20
22.22
 10
707.071
 20
22.267
 10
706.994
 20
22.33
 10
705.015
 20
24.308
 10
704.141
 20
24.658
 10
702.882
 20
24.838
 10
701.875
 20
24.502
 10
701.537
 20
24.165
 10
701.205
 20
23.003
 10
701.538
 20
22.003
 10
702.303
 20
21.048
 10
702.356
 20
20.966
 10
702.393
 20
20.875
 10
702.411
 20
20.779
 10
702.41
 20
20.682
 10
702.39
 20
20.586
 10
702.352
 20
20.496
 10
702.297
 20
20.415
 10
701.332
 20
19.257
 10
701.004
 20
18.274
 10
701.324
 20
17.314
 10
702.061
 20
16.577
 10
702.133
 20
16.486
 10
702.182
 20
16.382
 10
702.555
 20
15.263
 10
702.9
 20
14.917
 10
703.839
 20
14.605
 10
705.099
 20
15.145
 10
705.215
 20
15.179
 10
705.335
 20
15.184
 10
708.001
 20
14.979
 10
708.099
 20
14.961
 10
708.191
 20
14.925
 10
708.275
 20
14.871
 10
709.231
 20
14.106
 10
710.192
 20
13.786
 10
711.861
 20
14.527
 10
711.96
 20
14.559
 10
712.064
 20
14.57
 10
713.008
 20
14.57
 10
714.05
 20
14.917
 10
716.036
 20
16.904
 10
716.383
 20
17.945
 10
716.383
 20
19.845
 10
715.992
 20
21.213
 10
715.973
 20
21.351
 10
715.973
 20
25.862
 10
715.988
 20
25.984
 10
716.583
 20
28.362
 10
716.4
 20
30.373
 10
715.262
 20
31.686
 10
713.547
 20
32.258
 10
713.442
 20
32.307
 10
713.351
 20
32.379
 10
712.633
 20
33.097
 10
712.562
 20
33.187
 10
712.513
 20
33.292
 10
711.913
 20
35.091
 10
711.117
 20
36.483
 10
711.077
 20
36.573
 10
711.055
 20
36.669
 10
711.053
 20
36.767
 10
711.069
 20
36.863
 10
711.104
 20
36.955
 10
711.309
 20
37.365
 10
711.351
 20
37.434
 10
711.403
 20
37.495
 10
712.121
 20
38.213
 10
712.217
 20
38.288
 10
714.215
 20
39.487
 10
715.607
 20
40.879
 10
715.687
 20
40.944
 10
715.778
 20
40.991
 10
720.474
 20
42.828
 10
724.531
 20
44.857
 10
730.848
 20
48.932
 10
733.497
 20
50.97
 10
733.559
 20
51.011
 10
737.251
 20
53.062
 10
737.356
 20
53.106
 10
738.717
 20
53.494
 10
739.267
 20
53.861
 10
739.342
 20
53.903
 10
739.423
 20
53.93
 10
742.704
 20
54.751
 10
742.826
 20
54.766
 10
746.436
 20
54.766
 10
747.477
 20
55.113
 10
747.823
 20
55.459
 10
748.143
 20
56.419
 10
747.823
 20
57.379
 10
747.462
 20
57.74
 10
744.716
 20
58.917
 10
743.174
 20
59.303
 10
742.21
 20
59.303
 10
742.113
 20
59.312
 10
742.019
 20
59.341
 10
741.933
 20
59.387
 10
741.857
 20
59.449
 10
741.798
 20
59.508
 10
740.57
 20
59.508
 10
740.472
 20
59.517
 10
740.379
 20
59.546
 10
740.292
 20
59.592
 10
740.216
 20
59.654
 10
740.158
 20
59.713
 10
738.316
 20
59.713
 10
738.257
 20
59.654
 10
738.182
 20
59.592
 10
738.095
 20
59.546
 10
738.001
 20
59.517
 10
737.904
 20
59.508
 10
735.729
 20
59.508
 10
734.576
 20
59.123
 10
734.498
 20
59.104
 10
734.418
 20
59.098
 10
733.488
 20
59.098
 10
732.552
 20
58.723
 10
732.422
 20
58.691
 10
730.61
 20
58.489
 10
724.9
 20
57.062
 10
724.798
 20
57.047
 10
724.696
 20
57.054
 10
724.597
 20
57.081
 10
724.505
 20
57.128
 10
724.429
 20
57.19
 10
723.276
 20
56.861
 10
723.138
 20
56.842
 10
717.806
 20
56.842
 10
717.709
 20
56.851
 10
717.615
 20
56.88
 10
717.528
 20
56.926
 10
717.453
 20
56.988
 10
717.394
 20
57.047
 10
716.166
 20
57.047
 10
716.028
 20
57.066
 10
714.593
 20
57.476
 10
714.502
 20
57.512
 10
706.943
 20
61.394
 10
704.126
 20
62.4
 10
700.92
 20
63.201
 10
695.242
 20
63.397
 10
695.191
 20
63.346
 10
695.12
 20
63.287
 10
695.04
 20
63.242
 10
694.952
 20
63.213
 10
694.861
 20
63.2
 10
694.769
 20
63.204
 10
694.679
 20
63.225
  0
LWPOLYLINE
  5
A1
330
17
100
AcDbEntity
  8
ALT_KATMAN_GRAVUR
100
AcDbPolyline
 90
381
 70
1
 10
795.409
 20
43.675
 10
795.707
 20
42.93
 10
795.734
 20
42.839
 10
795.743
 20
42.744
 10
795.743
 20
41.763
 10
796.354
 20
39.522
 10
796.372
 20
39.391
 10
796.372
 20
37.924
 10
796.364
 20
37.834
 10
796.34
 20
37.747
 10
796.301
 20
37.666
 10
795.706
 20
36.675
 10
795.305
 20
35.271
 10
795.278
 20
35.199
 10
795.24
 20
35.131
 10
794.905
 20
34.629
 10
794.905
 20
34.151
 10
794.895
 20
34.054
 10
794.867
 20
33.96
 10
794.821
 20
33.874
 10
794.455
 20
33.326
 10
793.427
 20
28.391
 10
793.39
 20
28.28
 10
793.328
 20
28.18
 10
791.676
 20
26.115
 10
790.897
 20
24.752
 10
790.73
 20
23.914
 10
791.059
 20
22.926
 10
791.786
 20
22.361
 10
793.97
 20
21.964
 10
794.067
 20
21.936
 10
794.156
 20
21.889
 10
794.235
 20
21.825
 10
794.298
 20
21.762
 10
797.656
 20
21.762
 10
797.719
 20
21.825
 10
797.795
 20
21.887
 10
797.881
 20
21.934
 10
797.975
 20
21.962
 10
798.073
 20
21.972
 10
799.458
 20
21.972
 10
801.156
 20
22.537
 10
801.729
 20
23.111
 10
802.282
 20
24.585
 10
802.08
 20
27.621
 10
802.084
 20
27.727
 10
802.111
 20
27.83
 10
802.158
 20
27.925
 10
802.225
 20
28.008
 10
802.288
 20
28.071
 10
802.288
 20
28.493
 10
802.301
 20
28.604
 10
802.338
 20
28.71
 10
805.233
 20
34.706
 10
805.434
 20
36.921
 10
805.451
 20
37.013
 10
805.485
 20
37.099
 10
805.904
 20
37.938
 10
805.971
 20
38.039
 10
806.06
 20
38.121
 10
806.794
 20
38.645
 10
806.881
 20
38.695
 10
806.977
 20
38.726
 10
807.076
 20
38.738
 10
807.177
 20
38.729
 10
807.273
 20
38.701
 10
807.362
 20
38.654
 10
807.865
 20
38.319
 10
808.342
 20
38.319
 10
808.443
 20
38.309
 10
808.539
 20
38.278
 10
810.006
 20
37.65
 10
810.089
 20
37.604
 10
810.163
 20
37.544
 10
810.687
 20
37.02
 10
810.744
 20
36.951
 10
810.789
 20
36.872
 10
810.818
 20
36.787
 10
811.028
 20
35.949
 10
811.042
 20
35.846
 10
811.035
 20
35.742
 10
811.007
 20
35.642
 10
810.623
 20
34.684
 10
810.623
 20
33.942
 10
810.606
 20
33.81
 10
809.991
 20
31.556
 10
809.784
 20
27.836
 10
809.771
 20
27.746
 10
809.742
 20
27.661
 10
808.904
 20
25.774
 10
808.868
 20
25.708
 10
808.823
 20
25.648
 10
807.412
 20
24.036
 10
806.661
 20
22.157
 10
806.818
 20
21.371
 10
807.41
 20
20.611
 10
807.622
 20
20.505
 10
817.622
 20
20.505
 10
818.635
 20
21.18
 10
819.099
 20
22.202
 10
819.142
 20
22.278
 10
819.198
 20
22.346
 10
819.264
 20
22.402
 10
819.998
 20
22.926
 10
820.081
 20
22.975
 10
820.172
 20
23.006
 10
820.267
 20
23.019
 10
825.22
 20
23.225
 10
827.348
 20
23.999
 10
827.717
 20
24.368
 10
828.196
 20
25.645
 10
828.155
 20
25.694
 10
828.11
 20
25.773
 10
828.081
 20
25.859
 10
828.067
 20
25.948
 10
827.858
 20
29.511
 10
827.863
 20
29.621
 10
827.893
 20
29.726
 10
828.284
 20
30.705
 10
828.477
 20
33.021
 10
827.897
 20
34.373
 10
827.867
 20
34.47
 10
827.857
 20
34.57
 10
827.857
 20
35.618
 10
827.868
 20
35.721
 10
827.899
 20
35.819
 10
827.95
 20
35.909
 10
828.474
 20
36.642
 10
828.543
 20
36.721
 10
828.628
 20
36.783
 10
828.723
 20
36.826
 10
829.352
 20
37.036
 10
829.447
 20
37.057
 10
829.545
 20
37.06
 10
829.642
 20
37.044
 10
829.734
 20
37.008
 10
829.817
 20
36.956
 10
830.76
 20
36.223
 10
830.831
 20
36.155
 10
830.887
 20
36.076
 10
831.692
 20
34.667
 10
834.369
 20
31.99
 10
834.428
 20
31.919
 10
834.473
 20
31.839
 10
834.502
 20
31.751
 10
834.515
 20
31.66
 10
834.725
 20
27.259
 10
834.718
 20
27.151
 10
834.689
 20
27.047
 10
834.637
 20
26.952
 10
832.395
 20
23.69
 10
832.224
 20
22.665
 10
832.556
 20
21.669
 10
833.275
 20
21.109
 10
834.61
 20
20.919
 10
834.725
 20
20.888
 10
835.684
 20
20.505
 10
842.015
 20
20.505
 10
844.757
 20
21.288
 10
845.734
 20
22.266
 10
846.091
 20
23.334
 10
846.091
 20
25.268
 10
845.487
 20
27.077
 10
845.468
 20
27.155
 10
845.462
 20
27.235
 10
845.462
 20
33.441
 10
844.668
 20
35.823
 10
843.652
 20
37.449
 10
843.608
 20
37.537
 10
843.582
 20
37.632
 10
843.576
 20
37.73
 10
843.588
 20
37.827
 10
843.62
 20
37.92
 10
843.669
 20
38.005
 10
844.193
 20
38.738
 10
844.25
 20
38.805
 10
844.318
 20
38.861
 10
844.395
 20
38.904
 10
844.478
 20
38.933
 10
845.317
 20
39.142
 10
845.41
 20
39.156
 10
845.504
 20
39.153
 10
845.596
 20
39.132
 10
846.853
 20
38.712
 10
846.898
 20
38.695
 10
852.535
 20
36.19
 10
856.88
 20
34.742
 10
859.15
 20
34.329
 10
859.247
 20
34.301
 10
859.336
 20
34.254
 10
859.414
 20
34.19
 10
859.477
 20
34.127
 10
860.318
 20
34.127
 10
860.413
 20
34.118
 10
860.504
 20
34.092
 10
861.478
 20
33.702
 10
864.543
 20
33.497
 10
864.632
 20
33.483
 10
864.716
 20
33.454
 10
864.794
 20
33.41
 10
864.863
 20
33.352
 10
864.919
 20
33.297
 10
870.163
 20
33.491
 10
870.234
 20
33.562
 10
870.31
 20
33.624
 10
870.396
 20
33.67
 10
870.49
 20
33.698
 10
870.588
 20
33.708
 10
871.428
 20
33.708
 10
871.491
 20
33.771
 10
871.57
 20
33.835
 10
871.659
 20
33.882
 10
871.756
 20
33.91
 10
874.017
 20
34.321
 10
875.627
 20
34.925
 10
877.208
 20
35.715
 10
877.591
 20
36.098
 10
877.92
 20
37.085
 10
877.601
 20
38.041
 10
876.864
 20
38.615
 10
873.407
 20
39.428
 10
873.315
 20
39.46
 10
868.704
 20
41.555
 10
868.614
 20
41.608
 10
863.793
 20
45.171
 10
863.737
 20
45.22
 10
860.069
 20
48.887
 10
860.035
 20
48.926
 10
857.31
 20
52.279
 10
857.288
 20
52.308
 10
852.468
 20
59.225
 10
852.431
 20
59.287
 10
851.824
 20
60.501
 10
847.681
 20
65.886
 10
844.056
 20
69.512
 10
842.003
 20
71.154
 10
839.742
 20
72.593
 10
836.035
 20
74.446
 10
830.892
 20
75.886
 10
827.8
 20
76.092
 10
827.711
 20
76.106
 10
827.626
 20
76.136
 10
827.548
 20
76.18
 10
827.479
 20
76.238
 10
827.416
 20
76.301
 10
825.106
 20
76.301
 10
825.043
 20
76.238
 10
824.974
 20
76.181
 10
824.897
 20
76.137
 10
824.813
 20
76.107
 10
824.725
 20
76.093
 10
821.977
 20
75.896
 10
821.899
 20
75.819
 10
821.823
 20
75.756
 10
821.737
 20
75.71
 10
821.643
 20
75.682
 10
821.546
 20
75.672
 10
820.798
 20
75.672
 10
819.206
 20
75.075
 10
819.12
 20
75.051
 10
819.031
 20
75.043
 10
818.51
 20
75.043
 10
816.303
 20
74.04
 10
816.202
 20
74.007
 10
816.097
 20
73.996
 10
815.803
 20
73.996
 10
813.221
 20
72.605
 10
809.267
 20
69.692
 10
809.194
 20
69.647
 10
807.518
 20
68.809
 10
807.415
 20
68.771
 10
807.306
 20
68.756
 10
807.196
 20
68.766
 10
806.148
 20
68.975
 10
806.055
 20
69.004
 10
805.968
 20
69.05
 10
805.893
 20
69.112
 10
804.95
 20
70.055
 10
804.878
 20
70.146
 10
804.829
 20
70.251
 10
803.99
 20
72.766
 10
803.971
 20
72.844
 10
803.965
 20
72.924
 10
803.965
 20
80.387
 10
803.362
 20
82.197
 10
803.342
 20
82.275
 10
803.336
 20
82.355
 10
803.336
 20
82.884
 10
802.345
 20
85.261
 10
801.561
 20
86.437
 10
800.129
 20
87.87
 10
800.067
 20
87.945
 10
800.021
 20
88.031
 10
799.992
 20
88.125
 10
799.783
 20
89.173
 10
799.773
 20
89.282
 10
799.788
 20
89.391
 10
799.826
 20
89.495
 10
800.245
 20
90.333
 10
800.287
 20
90.402
 10
800.339
 20
90.463
 10
802.12
 20
92.244
 10
802.193
 20
92.305
 10
802.277
 20
92.35
 10
805.211
 20
93.608
 10
805.307
 20
93.638
 10
805.408
 20
93.648
 10
808.552
 20
93.648
 10
808.655
 20
93.637
 10
808.755
 20
93.605
 10
810.544
 20
92.81
 10
811.195
 20
92.81
 10
812.238
 20
93.158
 10
813.001
 20
94.09
 10
813.173
 20
95.293
 10
812.635
 20
96.728
 10
811.418
 20
97.758
 10
810.739
 20
98.097
 10
799.415
 20
98.097
 10
795.334
 20
96.669
 10
791.614
 20
94.809
 10
788.721
 20
92.949
 10
786.877
 20
91.515
 10
782.846
 20
87.484
 10
778.89
 20
81.655
 10
778.83
 20
81.582
 10
775.954
 20
78.705
 10
775.833
 20
78.464
 10
775.833
 20
72.712
 10
776.538
 20
72.007
 10
777.881
 20
71.623
 10
777.971
 20
71.587
 10
778.053
 20
71.535
 10
778.123
 20
71.468
 10
779.3
 20
70.094
 10
780.165
 20
69.748
 10
782.493
 20
69.554
 10
785.741
 20
70.772
 10
785.867
 20
70.801
 10
787.963
 20
71.011
 10
788.074
 20
71.01
 10
788.182
 20
70.984
 10
788.281
 20
70.935
 10
789.434
 20
70.202
 10
789.512
 20
70.14
 10
789.577
 20
70.064
 10
789.625
 20
69.977
 10
790.254
 20
68.51
 10
790.282
 20
68.421
 10
790.294
 20
68.328
 10
790.497
 20
61.61
 10
790.567
 20
61.541
 10
790.629
 20
61.465
 10
790.675
 20
61.378
 10
790.704
 20
61.285
 10
790.713
 20
61.187
 10
790.713
 20
59.801
 10
791.107
 20
58.621
 10
791.126
 20
58.543
 10
791.132
 20
58.463
 10
791.132
 20
57.701
 10
792.353
 20
53.837
 10
793.994
 20
50.76
 10
795.443
 20
48.689
 10
795.492
 20
48.603
 10
795.522
 20
48.508
 10
795.534
 20
48.409
 10
795.525
 20
48.31
 10
795.497
 20
48.214
 10
795.45
 20
48.126
 10
795.387
 20
48.049
 10
795.324
 20
47.986
 10
795.324
 20
44.418
 10
795.387
 20
44.355
 10
795.449
 20
44.279
 10
795.496
 20
44.193
 10
795.524
 20
44.099
 10
795.534
 20
44.002
 10
795.524
 20
43.904
 10
795.496
 20
43.81
 10
795.449
 20
43.724
  0
TEXT
  5
A2
330
17
100
AcDbEntity
  8
YAZI
100
AcDbText
 10
0.0
 20
256.0
 30
0.0
 40
6.0
  1
UST KATMAN - cepler + yarim aylar (450x250) - KERF 0.3 mm, cizgi uzerinde kes
 11
0.0
 21
256.0
 31
0.0
100
AcDbText
  0
TEXT
  5
A3
330
17
100
AcDbEntity
  8
YAZI
100
AcDbText
 10
465.0
 20
256.0
 30
0.0
 40
6.0
  1
ALT KATMAN - duz taban + gravur konturlar (ic pay 0.5 mm)
 11
465.0
 21
256.0
 31
0.0
100
AcDbText
  0
ENDSEC
  0
SECTION
  2
OBJECTS
  0
DICTIONARY
  5
A
330
0
100
AcDbDictionary
281
1
  3
ACAD_COLOR
350
B
  3
ACAD_GROUP
350
C
  3
ACAD_LAYOUT
350
D
  3
ACAD_MATERIAL
350
E
  3
ACAD_MLEADERSTYLE
350
F
  3
ACAD_MLINESTYLE
350
10
  3
ACAD_PLOTSETTINGS
350
11
  3
ACAD_PLOTSTYLENAME
350
12
  3
ACAD_SCALELIST
350
14
  3
ACAD_TABLESTYLE
350
15
  3
ACAD_VISUALSTYLE
350
16
  3
EZDXF_META
350
2D
  0
DICTIONARY
  5
B
330
A
100
AcDbDictionary
281
1
  0
DICTIONARY
  5
C
330
A
100
AcDbDictionary
281
1
  0
DICTIONARY
  5
D
330
A
100
AcDbDictionary
281
1
  3
Model
350
1A
  3
Layout1
350
1E
  0
DICTIONARY
  5
E
330
A
100
AcDbDictionary
281
1
  3
ByBlock
350
1F
  3
ByLayer
350
20
  3
Global
350
21
  0
DICTIONARY
  5
F
330
A
100
AcDbDictionary
281
1
  3
Standard
350
2C
  0
DICTIONARY
  5
10
330
A
100
AcDbDictionary
281
1
  3
Standard
350
22
  0
DICTIONARY
  5
11
330
A
100
AcDbDictionary
281
1
  0
ACDBDICTIONARYWDFLT
  5
12
330
A
100
AcDbDictionary
281
1
  3
Normal
350
13
100
AcDbDictionaryWithDefault
340
13
  0
ACDBPLACEHOLDER
  5
13
330
12
  0
DICTIONARY
  5
14
330
A
100
AcDbDictionary
281
1
  0
DICTIONARY
  5
15
330
A
100
AcDbDictionary
281
1
  0
DICTIONARY
  5
16
330
A
100
AcDbDictionary
281
1
  3
2dWireframe
350
5A
  3
Basic
350
5B
  3
Brighten
350
5C
  3
ColorChange
350
5D
  3
Conceptual
350
5E
  3
Dim
350
5F
  3
EdgeColorOff
350
60
  3
Facepattern
350
61
  3
Flat
350
62
  3
FlatWithEdges
350
63
  3
Gouraud
350
64
  3
GouraudWithEdges
350
65
  3
Hidden
350
66
  3
JitterOff
350
67
  3
Linepattern
350
68
  3
Modeling
350
69
  3
OverhangOff
350
6A
  3
Realistic
350
6B
  3
Shaded
350
6C
  3
Shaded with edges
350
6D
  3
Shades of Gray
350
6E
  3
Sketchy
350
6F
  3
Thicken
350
70
  3
Wireframe
350
71
  3
X-Ray
350
72
  0
LAYOUT
  5
1A
330
D
100
AcDbPlotSettings
  1

  4
A3
  6

 40
7.5
 41
20.0
 42
7.5
 43
20.0
 44
420.0
 45
297.0
 46
0.0
 47
0.0
 48
0.0
 49
0.0
140
0.0
141
0.0
142
1.0
143
1.0
 70
1024
 72
1
 73
0
 74
5
  7

 75
16
 76
0
 77
2
 78
300
147
1.0
148
0.0
149
0.0
100
AcDbLayout
  1
Model
 70
1
 71
0
 10
0.0
 20
0.0
 11
420.0
 21
297.0
 12
0.0
 22
0.0
 32
0.0
 14
1e+20
 24
1e+20
 34
1e+20
 15
-1e+20
 25
-1e+20
 35
-1e+20
146
0.0
 13
0.0
 23
0.0
 33
0.0
 16
1.0
 26
0.0
 36
0.0
 17
0.0
 27
1.0
 37
0.0
 76
1
330
17
  0
LAYOUT
  5
1E
330
D
100
AcDbPlotSettings
  1

  4
A3
  6

 40
7.5
 41
20.0
 42
7.5
 43
20.0
 44
420.0
 45
297.0
 46
0.0
 47
0.0
 48
0.0
 49
0.0
140
0.0
141
0.0
142
1.0
143
1.0
 70
0
 72
1
 73
0
 74
5
  7

 75
16
 76
0
 77
2
 78
300
147
1.0
148
0.0
149
0.0
100
AcDbLayout
  1
Layout1
 70
1
 71
1
 10
0.0
 20
0.0
 11
420.0
 21
297.0
 12
0.0
 22
0.0
 32
0.0
 14
1e+20
 24
1e+20
 34
1e+20
 15
-1e+20
 25
-1e+20
 35
-1e+20
146
0.0
 13
0.0
 23
0.0
 33
0.0
 16
1.0
 26
0.0
 36
0.0
 17
0.0
 27
1.0
 37
0.0
 76
1
330
1B
  0
MATERIAL
  5
1F
102
{ACAD_REACTORS
330
E
102
}
330
E
100
AcDbMaterial
  1
ByBlock
  2

 70
0
 40
1.0
 71
1
 41
1.0
 91
-1023410177
 42
1.0
 72
1
  3

 73
1
 74
1
 75
1
 44
0.5
 73
0
 45
1.0
 46
1.0
 77
1
  4

 78
1
 79
1
170
1
 48
1.0
171
1
  6

172
1
173
1
174
1
140
1.0
141
1.0
175
1
  7

176
1
177
1
178
1
143
1.0
179
1
  8

270
1
271
1
272
1
145
1.0
146
1.0
273
1
  9

274
1
275
1
276
1
 42
1.0
 72
1
  3

 73
1
 74
1
 75
1
 94
63
  0
MATERIAL
  5
20
102
{ACAD_REACTORS
330
E
102
}
330
E
100
AcDbMaterial
  1
ByLayer
  2

 70
0
 40
1.0
 71
1
 41
1.0
 91
-1023410177
 42
1.0
 72
1
  3

 73
1
 74
1
 75
1
 44
0.5
 73
0
 45
1.0
 46
1.0
 77
1
  4

 78
1
 79
1
170
1
 48
1.0
171
1
  6

172
1
173
1
174
1
140
1.0
141
1.0
175
1
  7

176
1
177
1
178
1
143
1.0
179
1
  8

270
1
271
1
272
1
145
1.0
146
1.0
273
1
  9

274
1
275
1
276
1
 42
1.0
 72
1
  3

 73
1
 74
1
 75
1
 94
63
  0
MATERIAL
  5
21
102
{ACAD_REACTORS
330
E
102
}
330
E
100
AcDbMaterial
  1
Global
  2

 70
0
 40
1.0
 71
1
 41
1.0
 91
-1023410177
 42
1.0
 72
1
  3

 73
1
 74
1
 75
1
 44
0.5
 73
0
 45
1.0
 46
1.0
 77
1
  4

 78
1
 79
1
170
1
 48
1.0
171
1
  6

172
1
173
1
174
1
140
1.0
141
1.0
175
1
  7

176
1
177
1
178
1
143
1.0
179
1
  8

270
1
271
1
272
1
145
1.0
146
1.0
273
1
  9

274
1
275
1
276
1
 42
1.0
 72
1
  3

 73
1
 74
1
 75
1
 94
63
  0
MLINESTYLE
  5
22
102
{ACAD_REACTORS
330
10
102
}
330
10
100
AcDbMlineStyle
  2
Standard
 70
0
  3

 62
256
 51
90.0
 52
90.0
 71
2
 49
0.5
 62
256
  6
BYLAYER
 49
-0.5
 62
256
  6
BYLAYER
  0
MLEADERSTYLE
  5
2C
102
{ACAD_REACTORS
330
F
102
}
330
F
100
AcDbMLeaderStyle
179
2
170
2
171
1
172
0
 90
2
 40
0.0
 41
0.0
173
1
 91
-1056964608
 92
-2
290
1
 42
2.0
291
1
 43
8.0
  3
Standard
 44
4.0
300

342
29
174
1
175
1
176
0
178
1
 93
-1056964608
 45
4.0
292
0
297
0
 46
4.0
 94
-1056964608
 47
1.0
 49
1.0
140
1.0
294
1
141
0.0
177
0
142
1.0
295
0
296
0
143
3.75
271
0
272
9
273
9
  0
DICTIONARY
  5
2D
330
A
100
AcDbDictionary
280
1
281
1
  3
CREATED_BY_EZDXF
350
2E
  3
WRITTEN_BY_EZDXF
350
A6
  0
DICTIONARYVAR
  5
2E
330
2D
100
DictionaryVariables
280
0
  1
1.4.4 @ 2026-08-11T10:13:55.937278+00:00
  0
VISUALSTYLE
  5
5A
102
{ACAD_REACTORS
330
16
102
}
330
16
100
AcDbVisualStyle
  2
2dWireframe
 70
4
 90
0
 40
0.6
 62
7
290
0
291
0
  0
VISUALSTYLE
  5
5B
102
{ACAD_REACTORS
330
16
102
}
330
16
100
AcDbVisualStyle
  2
Basic
 70
7
 90
1
 40
0.6
 62
7
290
0
291
1
  0
VISUALSTYLE
  5
5C
102
{ACAD_REACTORS
330
16
102
}
330
16
100
AcDbVisualStyle
  2
Brighten
 70
12
 90
2
 40
0.6
 62
7
290
0
291
1
  0
VISUALSTYLE
  5
5D
102
{ACAD_REACTORS
330
16
102
}
330
16
100
AcDbVisualStyle
  2
ColorChange
 70
16
 90
2
 40
0.6
 62
8
290
0
291
1
  0
VISUALSTYLE
  5
5E
102
{ACAD_REACTORS
330
16
102
}
330
16
100
AcDbVisualStyle
  2
Conceptual
 70
9
 90
3
 40
0.6
 62
7
290
0
291
0
  0
VISUALSTYLE
  5
5F
102
{ACAD_REACTORS
330
16
102
}
330
16
100
AcDbVisualStyle
  2
Dim
 70
11
 90
2
 40
0.6
 62
7
290
0
291
1
  0
VISUALSTYLE
  5
60
102
{ACAD_REACTORS
330
16
102
}
330
16
100
AcDbVisualStyle
  2
EdgeColorOff
 70
22
 90
2
 40
0.6
 62
7
290
0
291
1
  0
VISUALSTYLE
  5
61
102
{ACAD_REACTORS
330
16
102
}
330
16
100
AcDbVisualStyle
  2
Facepattern
 70
15
 90
2
 40
0.6
 62
7
290
0
291
1
  0
VISUALSTYLE
  5
62
102
{ACAD_REACTORS
330
16
102
}
330
16
100
AcDbVisualStyle
  2
Flat
 70
0
 90
2
 40
0.6
 62
7
290
0
291
1
  0
VISUALSTYLE
  5
63
102
{ACAD_REACTORS
330
16
102
}
330
16
100
AcDbVisualStyle
  2
FlatWithEdges
 70
1
 90
2
 40
0.6
 62
7
290
0
291
1
  0
VISUALSTYLE
  5
64
102
{ACAD_REACTORS
330
16
102
}
330
16
100
AcDbVisualStyle
  2
Gouraud
 70
2
 90
2
 40
0.6
 62
7
290
0
291
1
  0
VISUALSTYLE
  5
65
102
{ACAD_REACTORS
330
16
102
}
330
16
100
AcDbVisualStyle
  2
GouraudWithEdges
 70
3
 90
2
 40
0.6
 62
7
290
0
291
1
  0
VISUALSTYLE
  5
66
102
{ACAD_REACTORS
330
16
102
}
330
16
100
AcDbVisualStyle
  2
Hidden
 70
6
 90
1
 40
0.6
 62
7
290
0
291
0
  0
VISUALSTYLE
  5
67
102
{ACAD_REACTORS
330
16
102
}
330
16
100
AcDbVisualStyle
  2
JitterOff
 70
20
 90
2
 40
0.6
 62
7
290
0
291
1
  0
VISUALSTYLE
  5
68
102
{ACAD_REACTORS
330
16
102
}
330
16
100
AcDbVisualStyle
  2
Linepattern
 70
14
 90
2
 40
0.6
 62
7
290
0
291
1
  0
VISUALSTYLE
  5
69
102
{ACAD_REACTORS
330
16
102
}
330
16
100
AcDbVisualStyle
  2
Modeling
 70
10
 90
2
 40
0.6
 62
7
290
0
291
0
  0
VISUALSTYLE
  5
6A
102
{ACAD_REACTORS
330
16
102
}
330
16
100
AcDbVisualStyle
  2
OverhangOff
 70
21
 90
2
 40
0.6
 62
7
290
0
291
1
  0
VISUALSTYLE
  5
6B
102
{ACAD_REACTORS
330
16
102
}
330
16
100
AcDbVisualStyle
  2
Realistic
 70
8
 90
2
 40
0.6
 62
7
290
0
291
0
  0
VISUALSTYLE
  5
6C
102
{ACAD_REACTORS
330
16
102
}
330
16
100
AcDbVisualStyle
  2
Shaded
 70
27
 90
2
 40
0.6
 62
7
290
0
291
0
  0
VISUALSTYLE
  5
6D
102
{ACAD_REACTORS
330
16
102
}
330
16
100
AcDbVisualStyle
  2
Shaded with edges
 70
26
 90
2
 40
0.6
 62
7
290
0
291
0
  0
VISUALSTYLE
  5
6E
102
{ACAD_REACTORS
330
16
102
}
330
16
100
AcDbVisualStyle
  2
Shades of Gray
 70
23
 90
2
 40
0.6
 62
7
290
0
291
0
  0
VISUALSTYLE
  5
6F
102
{ACAD_REACTORS
330
16
102
}
330
16
100
AcDbVisualStyle
  2
Sketchy
 70
24
 90
1
 40
0.6
 62
7
290
0
291
0
  0
VISUALSTYLE
  5
70
102
{ACAD_REACTORS
330
16
102
}
330
16
100
AcDbVisualStyle
  2
Thicken
 70
13
 90
2
 40
0.6
 62
7
290
0
291
1
  0
VISUALSTYLE
  5
71
102
{ACAD_REACTORS
330
16
102
}
330
16
100
AcDbVisualStyle
  2
Wireframe
 70
5
 90
0
 40
0.6
 62
7
290
0
291
0
  0
VISUALSTYLE
  5
72
102
{ACAD_REACTORS
330
16
102
}
330
16
100
AcDbVisualStyle
  2
X-Ray
 70
25
 90
2
 40
0.5
 62
7
290
0
291
0
  0
DICTIONARYVAR
  5
A6
330
2D
100
DictionaryVariables
280
0
  1
1.4.4 @ 2026-08-11T10:13:55.971165+00:00
  0
ENDSEC
  0
EOF
