  0
SECTION
  2
HEADER
  9
$ACADVER
  1
AC1024
  9
$ACADMAINTVER
 70
6
  9
$DWGCODEPAGE
  3
ANSI_1252
  9
$LASTSAVEDBY
  1
ezdxf
  9
$INSBASE
 10
0.0
 20
0.0
 30
0.0
  9
$EXTMIN
 10
1e+20
 20
1e+20
 30
1e+20
  9
$EXTMAX
 10
-1e+20
 20
-1e+20
 30
-1e+20
  9
$LIMMIN
 10
0.0
 20
0.0
  9
$LIMMAX
 10
420.0
 20
297.0
  9
$ORTHOMODE
 70
0
  9
$REGENMODE
 70
1
  9
$FILLMODE
 70
1
  9
$QTEXTMODE
 70
0
  9
$MIRRTEXT
 70
1
  9
$LTSCALE
 40
1.0
  9
$ATTMODE
 70
1
  9
$TEXTSIZE
 40
2.5
  9
$TRACEWID
 40
1.0
  9
$TEXTSTYLE
  7
OpenSans
  9
$CLAYER
  8
0
  9
$CELTYPE
  6
ByLayer
  9
$CECOLOR
 62
256
  9
$CELTSCALE
 40
1.0
  9
$DISPSILH
 70
0
  9
$DIMSCALE
 40
1.0
  9
$DIMASZ
 40
0.175
  9
$DIMEXO
 40
0.125
  9
$DIMDLI
 40
3.75
  9
$DIMRND
 40
0.0
  9
$DIMDLE
 40
0.0
  9
$DIMEXE
 40
0.375
  9
$DIMTP
 40
0.0
  9
$DIMTM
 40
0.0
  9
$DIMTXT
 40
0.25
  9
$DIMCEN
 40
2.5
  9
$DIMTSZ
 40
0.0
  9
$DIMTOL
 70
0
  9
$DIMLIM
 70
0
  9
$DIMTIH
 70
0
  9
$DIMTOH
 70
0
  9
$DIMSE1
 70
0
  9
$DIMSE2
 70
0
  9
$DIMTAD
 70
1
  9
$DIMZIN
 70
12
  9
$DIMBLK
  1
ARCHTICK
  9
$DIMASO
 70
1
  9
$DIMSHO
 70
1
  9
$DIMPOST
  1

  9
$DIMAPOST
  1

  9
$DIMALT
 70
0
  9
$DIMALTD
 70
3
  9
$DIMALTF
 40
0.03937007874
  9
$DIMLFAC
 40
100.0
  9
$DIMTOFL
 70
1
  9
$DIMTVP
 40
0.0
  9
$DIMTIX
 70
0
  9
$DIMSOXD
 70
0
  9
$DIMSAH
 70
0
  9
$DIMBLK1
  1

  9
$DIMBLK2
  1

  9
$DIMSTYLE
  2
EZDXF
  9
$DIMCLRD
 70
0
  9
$DIMCLRE
 70
0
  9
$DIMCLRT
 70
0
  9
$DIMTFAC
 40
0.5
  9
$DIMGAP
 40
0.1
  9
$DIMJUST
 70
0
  9
$DIMSD1
 70
0
  9
$DIMSD2
 70
0
  9
$DIMTOLJ
 70
0
  9
$DIMTZIN
 70
8
  9
$DIMALTZ
 70
0
  9
$DIMALTTZ
 70
0
  9
$DIMUPT
 70
1
  9
$DIMDEC
 70
2
  9
$DIMTDEC
 70
2
  9
$DIMALTU
 70
2
  9
$DIMALTTD
 70
3
  9
$DIMTXSTY
  7
OpenSansCondensed-Light
  9
$DIMAUNIT
 70
0
  9
$DIMADEC
 70
2
  9
$DIMALTRND
 40
0.0
  9
$DIMAZIN
 70
3
  9
$DIMDSEP
 70
46
  9
$DIMATFIT
 70
3
  9
$DIMFRAC
 70
0
  9
$DIMLDRBLK
  1

  9
$DIMLUNIT
 70
2
  9
$DIMLWD
 70
-2
  9
$DIMLWE
 70
-2
  9
$DIMTMOVE
 70
2
  9
$DIMFXL
 40
1.0
  9
$DIMFXLON
 70
0
  9
$DIMJOGANG
 40
0.785398163397
  9
$DIMTFILL
 70
0
  9
$DIMTFILLCLR
 70
0
  9
$DIMARCSYM
 70
0
  9
$DIMLTYPE
  6

  9
$DIMLTEX1
  6

  9
$DIMLTEX2
  6

  9
$DIMTXTDIRECTION
 70
0
  9
$LUNITS
 70
2
  9
$LUPREC
 70
4
  9
$SKETCHINC
 40
1.0
  9
$FILLETRAD
 40
10.0
  9
$AUNITS
 70
0
  9
$AUPREC
 70
2
  9
$MENU
  1
.
  9
$ELEVATION
 40
0.0
  9
$PELEVATION
 40
0.0
  9
$THICKNESS
 40
0.0
  9
$LIMCHECK
 70
0
  9
$CHAMFERA
 40
0.0
  9
$CHAMFERB
 40
0.0
  9
$CHAMFERC
 40
0.0
  9
$CHAMFERD
 40
0.0
  9
$SKPOLY
 70
0
  9
$TDCREATE
 40
2461244.670196759
  9
$TDUCREATE
 40
2458532.153996898
  9
$TDUPDATE
 40
2461244.670196759
  9
$TDUUPDATE
 40
2458532.1544311
  9
$TDINDWG
 40
0.0
  9
$TDUSRTIMER
 40
0.0
  9
$USRTIMER
 70
1
  9
$ANGBASE
 50
0.0
  9
$ANGDIR
 70
0
  9
$PDMODE
 70
0
  9
$PDSIZE
 40
0.0
  9
$PLINEWID
 40
0.0
  9
$SPLFRAME
 70
0
  9
$SPLINETYPE
 70
6
  9
$SPLINESEGS
 70
8
  9
$HANDSEED
  5
A4
  9
$SURFTAB1
 70
6
  9
$SURFTAB2
 70
6
  9
$SURFTYPE
 70
6
  9
$SURFU
 70
6
  9
$SURFV
 70
6
  9
$UCSBASE
  2

  9
$UCSNAME
  2

  9
$UCSORG
 10
0.0
 20
0.0
 30
0.0
  9
$UCSXDIR
 10
1.0
 20
0.0
 30
0.0
  9
$UCSYDIR
 10
0.0
 20
1.0
 30
0.0
  9
$UCSORTHOREF
  2

  9
$UCSORTHOVIEW
 70
0
  9
$UCSORGTOP
 10
0.0
 20
0.0
 30
0.0
  9
$UCSORGBOTTOM
 10
0.0
 20
0.0
 30
0.0
  9
$UCSORGLEFT
 10
0.0
 20
0.0
 30
0.0
  9
$UCSORGRIGHT
 10
0.0
 20
0.0
 30
0.0
  9
$UCSORGFRONT
 10
0.0
 20
0.0
 30
0.0
  9
$UCSORGBACK
 10
0.0
 20
0.0
 30
0.0
  9
$PUCSBASE
  2

  9
$PUCSNAME
  2

  9
$PUCSORG
 10
0.0
 20
0.0
 30
0.0
  9
$PUCSXDIR
 10
1.0
 20
0.0
 30
0.0
  9
$PUCSYDIR
 10
0.0
 20
1.0
 30
0.0
  9
$PUCSORTHOREF
  2

  9
$PUCSORTHOVIEW
 70
0
  9
$PUCSORGTOP
 10
0.0
 20
0.0
 30
0.0
  9
$PUCSORGBOTTOM
 10
0.0
 20
0.0
 30
0.0
  9
$PUCSORGLEFT
 10
0.0
 20
0.0
 30
0.0
  9
$PUCSORGRIGHT
 10
0.0
 20
0.0
 30
0.0
  9
$PUCSORGFRONT
 10
0.0
 20
0.0
 30
0.0
  9
$PUCSORGBACK
 10
0.0
 20
0.0
 30
0.0
  9
$USERI1
 70
0
  9
$USERI2
 70
0
  9
$USERI3
 70
0
  9
$USERI4
 70
0
  9
$USERI5
 70
0
  9
$USERR1
 40
0.0
  9
$USERR2
 40
0.0
  9
$USERR3
 40
0.0
  9
$USERR4
 40
0.0
  9
$USERR5
 40
0.0
  9
$WORLDVIEW
 70
1
  9
$SHADEDGE
 70
3
  9
$SHADEDIF
 70
70
  9
$TILEMODE
 70
1
  9
$MAXACTVP
 70
64
  9
$PINSBASE
 10
0.0
 20
0.0
 30
0.0
  9
$PLIMCHECK
 70
0
  9
$PEXTMIN
 10
1e+20
 20
1e+20
 30
1e+20
  9
$PEXTMAX
 10
-1e+20
 20
-1e+20
 30
-1e+20
  9
$PLIMMIN
 10
0.0
 20
0.0
  9
$PLIMMAX
 10
420.0
 20
297.0
  9
$UNITMODE
 70
0
  9
$VISRETAIN
 70
1
  9
$PLINEGEN
 70
0
  9
$PSLTSCALE
 70
1
  9
$TREEDEPTH
 70
3020
  9
$CMLSTYLE
  2
Standard
  9
$CMLJUST
 70
0
  9
$CMLSCALE
 40
20.0
  9
$PROXYGRAPHICS
 70
1
  9
$MEASUREMENT
 70
1
  9
$CELWEIGHT
370
-1
  9
$ENDCAPS
280
0
  9
$JOINSTYLE
280
0
  9
$LWDISPLAY
290
0
  9
$INSUNITS
 70
4
  9
$HYPERLINKBASE
  1

  9
$STYLESHEET
  1

  9
$XEDIT
290
1
  9
$CEPSNTYPE
380
0
  9
$PSTYLEMODE
290
1
  9
$FINGERPRINTGUID
  2
{D93FD29E-CC39-4FEA-B54C-2DABDBA55248}
  9
$VERSIONGUID
  2
{C69C1327-1AE0-4539-935B-DEC4DCA6BFF0}
  9
$EXTNAMES
290
1
  9
$PSVPSCALE
 40
0.0
  9
$OLESTARTUP
290
0
  9
$SORTENTS
280
127
  9
$INDEXCTL
280
0
  9
$HIDETEXT
280
1
  9
$XCLIPFRAME
280
1
  9
$HALOGAP
280
0
  9
$OBSCOLOR
 70
257
  9
$OBSLTYPE
280
0
  9
$INTERSECTIONDISPLAY
280
0
  9
$INTERSECTIONCOLOR
 70
257
  9
$DIMASSOC
280
2
  9
$PROJECTNAME
  1

  9
$CAMERADISPLAY
290
0
  9
$LENSLENGTH
 40
50.0
  9
$CAMERAHEIGHT
 40
0.0
  9
$STEPSPERSEC
 40
24.0
  9
$STEPSIZE
 40
100.0
  9
$3DDWFPREC
 40
2.0
  9
$PSOLWIDTH
 40
0.005
  9
$PSOLHEIGHT
 40
0.08
  9
$LOFTANG1
 40
1.570796326795
  9
$LOFTANG2
 40
1.570796326795
  9
$LOFTMAG1
 40
0.0
  9
$LOFTMAG2
 40
0.0
  9
$LOFTPARAM
 70
7
  9
$LOFTNORMALS
280
1
  9
$LATITUDE
 40
37.795
  9
$LONGITUDE
 40
-122.394
  9
$NORTHDIRECTION
 40
0.0
  9
$TIMEZONE
 70
-8000
  9
$LIGHTGLYPHDISPLAY
280
1
  9
$TILEMODELIGHTSYNCH
280
1
  9
$CMATERIAL
347
20
  9
$SOLIDHIST
280
0
  9
$SHOWHIST
280
1
  9
$DWFFRAME
280
2
  9
$DGNFRAME
280
2
  9
$REALWORLDSCALE
290
1
  9
$INTERFERECOLOR
 62
256
  9
$CSHADOW
280
0
  9
$SHADOWPLANELOCATION
 40
0.0
  0
ENDSEC
  0
SECTION
  2
CLASSES
  0
CLASS
  1
ACDBDICTIONARYWDFLT
  2
AcDbDictionaryWithDefault
  3
ObjectDBX Classes
 90
0
 91
0
280
0
281
0
  0
CLASS
  1
SUN
  2
AcDbSun
  3
SCENEOE
 90
1153
 91
0
280
0
281
0
  0
CLASS
  1
VISUALSTYLE
  2
AcDbVisualStyle
  3
ObjectDBX Classes
 90
4095
 91
0
280
0
281
0
  0
CLASS
  1
MATERIAL
  2
AcDbMaterial
  3
ObjectDBX Classes
 90
1153
 91
0
280
0
281
0
  0
CLASS
  1
SCALE
  2
AcDbScale
  3
ObjectDBX Classes
 90
1153
 91
0
280
0
281
0
  0
CLASS
  1
TABLESTYLE
  2
AcDbTableStyle
  3
ObjectDBX Classes
 90
4095
 91
0
280
0
281
0
  0
CLASS
  1
MLEADERSTYLE
  2
AcDbMLeaderStyle
  3
ACDB_MLEADERSTYLE_CLASS
 90
4095
 91
0
280
0
281
0
  0
CLASS
  1
DICTIONARYVAR
  2
AcDbDictionaryVar
  3
ObjectDBX Classes
 90
0
 91
0
280
0
281
0
  0
CLASS
  1
CELLSTYLEMAP
  2
AcDbCellStyleMap
  3
ObjectDBX Classes
 90
1152
 91
0
280
0
281
0
  0
CLASS
  1
MENTALRAYRENDERSETTINGS
  2
AcDbMentalRayRenderSettings
  3
SCENEOE
 90
1024
 91
0
280
0
281
0
  0
CLASS
  1
ACDBDETAILVIEWSTYLE
  2
AcDbDetailViewStyle
  3
ObjectDBX Classes
 90
1025
 91
0
280
0
281
0
  0
CLASS
  1
ACDBSECTIONVIEWSTYLE
  2
AcDbSectionViewStyle
  3
ObjectDBX Classes
 90
1025
 91
0
280
0
281
0
  0
CLASS
  1
RASTERVARIABLES
  2
AcDbRasterVariables
  3
ISM
 90
0
 91
0
280
0
281
0
  0
CLASS
  1
LAYOUT
  2
AcDbLayout
  3
ObjectDBX Classes
 90
0
 91
0
280
0
281
0
  0
CLASS
  1
ACDBPLACEHOLDER
  2
AcDbPlaceHolder
  3
ObjectDBX Classes
 90
0
 91
0
280
0
281
0
  0
ENDSEC
  0
SECTION
  2
TABLES
  0
TABLE
  2
VPORT
  5
8
330
0
100
AcDbSymbolTable
 70
1
  0
VPORT
  5
23
330
8
100
AcDbSymbolTableRecord
100
AcDbViewportTableRecord
  2
*Active
 70
0
 10
0.0
 20
0.0
 11
1.0
 21
1.0
 12
0.0
 22
0.0
 13
0.0
 23
0.0
 14
0.5
 24
0.5
 15
0.5
 25
0.5
 16
0.0
 26
0.0
 36
1.0
 17
0.0
 27
0.0
 37
0.0
 40
1000.0
 41
1.34
 42
50.0
 43
0.0
 44
0.0
 50
0.0
 51
0.0
 71
0
 72
1000
 73
1
 74
3
 75
0
 76
0
 77
0
 78
0
281
0
 65
0
146
0.0
  0
ENDTAB
  0
TABLE
  2
LTYPE
  5
2
330
0
100
AcDbSymbolTable
 70
21
  0
LTYPE
  5
24
330
2
100
AcDbSymbolTableRecord
100
AcDbLinetypeTableRecord
  2
ByBlock
 70
0
  3

 72
65
 73
0
 40
0.0
  0
LTYPE
  5
25
330
2
100
AcDbSymbolTableRecord
100
AcDbLinetypeTableRecord
  2
ByLayer
 70
0
  3

 72
65
 73
0
 40
0.0
  0
LTYPE
  5
26
330
2
100
AcDbSymbolTableRecord
100
AcDbLinetypeTableRecord
  2
Continuous
 70
0
  3

 72
65
 73
0
 40
0.0
  0
LTYPE
  5
2F
330
2
100
AcDbSymbolTableRecord
100
AcDbLinetypeTableRecord
  2
CENTER
 70
0
  3
Center ____ _ ____ _ ____ _ ____ _ ____ _ ____
 72
65
 73
4
 40
5.08
 49
3.175
 74
0
 49
-0.635
 74
0
 49
0.635
 74
0
 49
-0.635
 74
0
  0
LTYPE
  5
30
330
2
100
AcDbSymbolTableRecord
100
AcDbLinetypeTableRecord
  2
CENTERX2
 70
0
  3
Center (2x) ________  __  ________  __  ________
 72
65
 73
4
 40
8.89
 49
6.35
 74
0
 49
-0.635
 74
0
 49
1.27
 74
0
 49
-0.635
 74
0
  0
LTYPE
  5
31
330
2
100
AcDbSymbolTableRecord
100
AcDbLinetypeTableRecord
  2
CENTER2
 70
0
  3
Center (.5x) ____ _ ____ _ ____ _ ____ _ ____
 72
65
 73
4
 40
2.54
 49
1.587
 74
0
 49
-0.318
 74
0
 49
0.318
 74
0
 49
-0.318
 74
0
  0
LTYPE
  5
32
330
2
100
AcDbSymbolTableRecord
100
AcDbLinetypeTableRecord
  2
DASHED
 70
0
  3
Dashed __ __ __ __ __ __ __ __ __ __ __ __ __ _
 72
65
 73
2
 40
1.524
 49
1.27
 74
0
 49
-0.254
 74
0
  0
LTYPE
  5
33
330
2
100
AcDbSymbolTableRecord
100
AcDbLinetypeTableRecord
  2
DASHEDX2
 70
0
  3
Dashed (2x) ____  ____  ____  ____  ____  ____
 72
65
 73
2
 40
3.048
 49
2.54
 74
0
 49
-0.508
 74
0
  0
LTYPE
  5
34
330
2
100
AcDbSymbolTableRecord
100
AcDbLinetypeTableRecord
  2
DASHED2
 70
0
  3
Dashed (.5x) _ _ _ _ _ _ _ _ _ _ _ _ _ _
 72
65
 73
2
 40
0.762
 49
0.635
 74
0
 49
-0.127
 74
0
  0
LTYPE
  5
35
330
2
100
AcDbSymbolTableRecord
100
AcDbLinetypeTableRecord
  2
PHANTOM
 70
0
  3
Phantom ______  __  __  ______  __  __  ______
 72
65
 73
6
 40
6.35
 49
3.175
 74
0
 49
-0.635
 74
0
 49
0.635
 74
0
 49
-0.635
 74
0
 49
0.635
 74
0
 49
-0.635
 74
0
  0
LTYPE
  5
36
330
2
100
AcDbSymbolTableRecord
100
AcDbLinetypeTableRecord
  2
PHANTOMX2
 70
0
  3
Phantom (2x)____________    ____    ____    ____________
 72
65
 73
6
 40
10.795
 49
6.35
 74
0
 49
-0.635
 74
0
 49
1.27
 74
0
 49
-0.635
 74
0
 49
1.27
 74
0
 49
-0.635
 74
0
  0
LTYPE
  5
37
330
2
100
AcDbSymbolTableRecord
100
AcDbLinetypeTableRecord
  2
PHANTOM2
 70
0
  3
Phantom (.5x) ___ _ _ ___ _ _ ___ _ _ ___ _ _ ___
 72
65
 73
6
 40
3.175
 49
1.587
 74
0
 49
-0.318
 74
0
 49
0.318
 74
0
 49
-0.318
 74
0
 49
0.318
 74
0
 49
-0.318
 74
0
  0
LTYPE
  5
38
330
2
100
AcDbSymbolTableRecord
100
AcDbLinetypeTableRecord
  2
DASHDOT
 70
0
  3
Dash dot __ . __ . __ . __ . __ . __ . __ . __
 72
65
 73
4
 40
3.556
 49
2.54
 74
0
 49
-0.508
 74
0
 49
0.0
 74
0
 49
-0.508
 74
0
  0
LTYPE
  5
39
330
2
100
AcDbSymbolTableRecord
100
AcDbLinetypeTableRecord
  2
DASHDOTX2
 70
0
  3
Dash dot (2x) ____  .  ____  .  ____  .  ____
 72
65
 73
4
 40
6.096
 49
5.08
 74
0
 49
-0.508
 74
0
 49
0.0
 74
0
 49
-0.508
 74
0
  0
LTYPE
  5
3A
330
2
100
AcDbSymbolTableRecord
100
AcDbLinetypeTableRecord
  2
DASHDOT2
 70
0
  3
Dash dot (.5x) _ . _ . _ . _ . _ . _ . _ . _
 72
65
 73
4
 40
1.778
 49
1.27
 74
0
 49
-0.254
 74
0
 49
0.0
 74
0
 49
-0.254
 74
0
  0
LTYPE
  5
3B
330
2
100
AcDbSymbolTableRecord
100
AcDbLinetypeTableRecord
  2
DOT
 70
0
  3
Dot .  .  .  .  .  .  .  .  .  .  .  .  .  .  .  .
 72
65
 73
2
 40
0.508
 49
0.0
 74
0
 49
-0.508
 74
0
  0
LTYPE
  5
3C
330
2
100
AcDbSymbolTableRecord
100
AcDbLinetypeTableRecord
  2
DOTX2
 70
0
  3
Dot (2x) .    .    .    .    .    .    .    . 
 72
65
 73
2
 40
1.016
 49
0.0
 74
0
 49
-1.016
 74
0
  0
LTYPE
  5
3D
330
2
100
AcDbSymbolTableRecord
100
AcDbLinetypeTableRecord
  2
DOT2
 70
0
  3
Dot (.5) . . . . . . . . . . . . . . . . . . . 
 72
65
 73
2
 40
0.254
 49
0.0
 74
0
 49
-0.254
 74
0
  0
LTYPE
  5
3E
330
2
100
AcDbSymbolTableRecord
100
AcDbLinetypeTableRecord
  2
DIVIDE
 70
0
  3
Divide __ . . __ . . __ . . __ . . __ . . __
 72
65
 73
6
 40
4.064
 49
2.54
 74
0
 49
-0.508
 74
0
 49
0.0
 74
0
 49
-0.508
 74
0
 49
0.0
 74
0
 49
-0.508
 74
0
  0
LTYPE
  5
3F
330
2
100
AcDbSymbolTableRecord
100
AcDbLinetypeTableRecord
  2
DIVIDEX2
 70
0
  3
Divide (2x) ____  . .  ____  . .  ____  . .  ____
 72
65
 73
6
 40
6.604
 49
5.08
 74
0
 49
-0.508
 74
0
 49
0.0
 74
0
 49
-0.508
 74
0
 49
0.0
 74
0
 49
-0.508
 74
0
  0
LTYPE
  5
40
330
2
100
AcDbSymbolTableRecord
100
AcDbLinetypeTableRecord
  2
DIVIDE2
 70
0
  3
Divide(.5x) _ . _ . _ . _ . _ . _ . _ . _
 72
65
 73
6
 40
2.032
 49
1.27
 74
0
 49
-0.254
 74
0
 49
0.0
 74
0
 49
-0.254
 74
0
 49
0.0
 74
0
 49
-0.254
 74
0
  0
ENDTAB
  0
TABLE
  2
LAYER
  5
1
330
0
100
AcDbSymbolTable
 70
5
  0
LAYER
  5
27
330
1
100
AcDbSymbolTableRecord
100
AcDbLayerTableRecord
  2
0
 70
0
 62
7
  6
Continuous
370
-3
390
13
347
21
  0
LAYER
  5
28
330
1
100
AcDbSymbolTableRecord
100
AcDbLayerTableRecord
  2
Defpoints
 70
0
 62
7
  6
Continuous
290
0
370
-3
390
13
347
21
  0
LAYER
  5
8A
330
1
100
AcDbSymbolTableRecord
100
AcDbLayerTableRecord
  2
UST_KATMAN_KESIM
 70
0
 62
1
  6
Continuous
370
-3
390
13
347
21
  0
LAYER
  5
8B
330
1
100
AcDbSymbolTableRecord
100
AcDbLayerTableRecord
  2
ALT_KATMAN_KESIM
 70
0
 62
5
  6
Continuous
370
-3
390
13
347
21
  0
LAYER
  5
8C
330
1
100
AcDbSymbolTableRecord
100
AcDbLayerTableRecord
  2
YAZI
 70
0
 62
8
  6
Continuous
370
-3
390
13
347
21
  0
ENDTAB
  0
TABLE
  2
STYLE
  5
5
330
0
100
AcDbSymbolTable
 70
26
  0
STYLE
  5
29
330
5
100
AcDbSymbolTableRecord
100
AcDbTextStyleTableRecord
  2
Standard
 70
0
 40
0.0
 41
1.0
 50
0.0
 71
0
 42
2.5
  3
txt
  4

  0
STYLE
  5
41
330
5
100
AcDbSymbolTableRecord
100
AcDbTextStyleTableRecord
  2
OpenSans-Light
 70
0
 40
0.0
 41
1.0
 50
0.0
 71
0
 42
2.5
  3
OpenSans-Light.ttf
  4

  0
STYLE
  5
42
330
5
100
AcDbSymbolTableRecord
100
AcDbTextStyleTableRecord
  2
OpenSans-Light-Italic
 70
0
 40
0.0
 41
1.0
 50
0.0
 71
0
 42
2.5
  3
OpenSans-LightItalic.ttf
  4

  0
STYLE
  5
43
330
5
100
AcDbSymbolTableRecord
100
AcDbTextStyleTableRecord
  2
OpenSans
 70
0
 40
0.0
 41
1.0
 50
0.0
 71
0
 42
2.5
  3
OpenSans-Regular.ttf
  4

  0
STYLE
  5
44
330
5
100
AcDbSymbolTableRecord
100
AcDbTextStyleTableRecord
  2
OpenSans-Italic
 70
0
 40
0.0
 41
1.0
 50
0.0
 71
0
 42
2.5
  3
OpenSans-Italic.ttf
  4

  0
STYLE
  5
45
330
5
100
AcDbSymbolTableRecord
100
AcDbTextStyleTableRecord
  2
OpenSans-SemiBold
 70
0
 40
0.0
 41
1.0
 50
0.0
 71
0
 42
2.5
  3
OpenSans-SemiBold.ttf
  4

  0
STYLE
  5
46
330
5
100
AcDbSymbolTableRecord
100
AcDbTextStyleTableRecord
  2
OpenSans-SemiBoldItalic
 70
0
 40
0.0
 41
1.0
 50
0.0
 71
0
 42
2.5
  3
OpenSans-SemiBoldItalic.ttf
  4

  0
STYLE
  5
47
330
5
100
AcDbSymbolTableRecord
100
AcDbTextStyleTableRecord
  2
OpenSans-Bold
 70
0
 40
0.0
 41
1.0
 50
0.0
 71
0
 42
2.5
  3
OpenSans-Bold.ttf
  4

  0
STYLE
  5
48
330
5
100
AcDbSymbolTableRecord
100
AcDbTextStyleTableRecord
  2
OpenSans-BoldItalic
 70
0
 40
0.0
 41
1.0
 50
0.0
 71
0
 42
2.5
  3
OpenSans-BoldItalic.ttf
  4

  0
STYLE
  5
49
330
5
100
AcDbSymbolTableRecord
100
AcDbTextStyleTableRecord
  2
OpenSans-ExtraBold
 70
0
 40
0.0
 41
1.0
 50
0.0
 71
0
 42
2.5
  3
OpenSans-ExtraBold.ttf
  4

  0
STYLE
  5
4A
330
5
100
AcDbSymbolTableRecord
100
AcDbTextStyleTableRecord
  2
OpenSans-ExtraBoldItalic
 70
0
 40
0.0
 41
1.0
 50
0.0
 71
0
 42
2.5
  3
OpenSans-ExtraBoldItalic.ttf
  4

  0
STYLE
  5
4B
330
5
100
AcDbSymbolTableRecord
100
AcDbTextStyleTableRecord
  2
OpenSansCondensed-Bold
 70
0
 40
0.0
 41
1.0
 50
0.0
 71
0
 42
2.5
  3
OpenSansCondensed-Bold.ttf
  4

  0
STYLE
  5
4C
330
5
100
AcDbSymbolTableRecord
100
AcDbTextStyleTableRecord
  2
OpenSansCondensed-Light
 70
0
 40
0.0
 41
1.0
 50
0.0
 71
0
 42
2.5
  3
OpenSansCondensed-Light.ttf
  4

  0
STYLE
  5
4D
330
5
100
AcDbSymbolTableRecord
100
AcDbTextStyleTableRecord
  2
OpenSansCondensed-Italic
 70
0
 40
0.0
 41
1.0
 50
0.0
 71
0
 42
2.5
  3
OpenSansCondensed-LightItalic.ttf
  4

  0
STYLE
  5
4E
330
5
100
AcDbSymbolTableRecord
100
AcDbTextStyleTableRecord
  2
LiberationSans
 70
0
 40
0.0
 41
1.0
 50
0.0
 71
0
 42
2.5
  3
LiberationSans-Regular.ttf
  4

  0
STYLE
  5
4F
330
5
100
AcDbSymbolTableRecord
100
AcDbTextStyleTableRecord
  2
LiberationSans-Bold
 70
0
 40
0.0
 41
1.0
 50
0.0
 71
0
 42
2.5
  3
LiberationSans-Bold.ttf
  4

  0
STYLE
  5
50
330
5
100
AcDbSymbolTableRecord
100
AcDbTextStyleTableRecord
  2
LiberationSans-BoldItalic
 70
0
 40
0.0
 41
1.0
 50
0.0
 71
0
 42
2.5
  3
LiberationSans-BoldItalic.ttf
  4

  0
STYLE
  5
51
330
5
100
AcDbSymbolTableRecord
100
AcDbTextStyleTableRecord
  2
LiberationSans-Italic
 70
0
 40
0.0
 41
1.0
 50
0.0
 71
0
 42
2.5
  3
LiberationSans-Italic.ttf
  4

  0
STYLE
  5
52
330
5
100
AcDbSymbolTableRecord
100
AcDbTextStyleTableRecord
  2
LiberationSerif
 70
0
 40
0.0
 41
1.0
 50
0.0
 71
0
 42
2.5
  3
LiberationSerif-Regular.ttf
  4

  0
STYLE
  5
53
330
5
100
AcDbSymbolTableRecord
100
AcDbTextStyleTableRecord
  2
LiberationSerif-Bold
 70
0
 40
0.0
 41
1.0
 50
0.0
 71
0
 42
2.5
  3
LiberationSerif-Bold.ttf
  4

  0
STYLE
  5
54
330
5
100
AcDbSymbolTableRecord
100
AcDbTextStyleTableRecord
  2
LiberationSerif-BoldItalic
 70
0
 40
0.0
 41
1.0
 50
0.0
 71
0
 42
2.5
  3
LiberationSerif-BoldItalic.ttf
  4

  0
STYLE
  5
55
330
5
100
AcDbSymbolTableRecord
100
AcDbTextStyleTableRecord
  2
LiberationSerif-Italic
 70
0
 40
0.0
 41
1.0
 50
0.0
 71
0
 42
2.5
  3
LiberationSerif-Italic.ttf
  4

  0
STYLE
  5
56
330
5
100
AcDbSymbolTableRecord
100
AcDbTextStyleTableRecord
  2
LiberationMono
 70
0
 40
0.0
 41
1.0
 50
0.0
 71
0
 42
2.5
  3
LiberationMono-Regular.ttf
  4

  0
STYLE
  5
57
330
5
100
AcDbSymbolTableRecord
100
AcDbTextStyleTableRecord
  2
LiberationMono-Bold
 70
0
 40
0.0
 41
1.0
 50
0.0
 71
0
 42
2.5
  3
LiberationMono-Bold.ttf
  4

  0
STYLE
  5
58
330
5
100
AcDbSymbolTableRecord
100
AcDbTextStyleTableRecord
  2
LiberationMono-BoldItalic
 70
0
 40
0.0
 41
1.0
 50
0.0
 71
0
 42
2.5
  3
LiberationMono-BoldItalic.ttf
  4

  0
STYLE
  5
59
330
5
100
AcDbSymbolTableRecord
100
AcDbTextStyleTableRecord
  2
LiberationMono-Italic
 70
0
 40
0.0
 41
1.0
 50
0.0
 71
0
 42
2.5
  3
LiberationMono-Italic.ttf
  4

  0
ENDTAB
  0
TABLE
  2
VIEW
  5
7
330
0
100
AcDbSymbolTable
 70
0
  0
ENDTAB
  0
TABLE
  2
UCS
  5
6
330
0
100
AcDbSymbolTable
 70
0
  0
ENDTAB
  0
TABLE
  2
APPID
  5
3
330
0
100
AcDbSymbolTable
 70
3
  0
APPID
  5
2A
330
3
100
AcDbSymbolTableRecord
100
AcDbRegAppTableRecord
  2
ACAD
 70
0
  0
APPID
  5
A1
330
3
100
AcDbSymbolTableRecord
100
AcDbRegAppTableRecord
  2
HATCHBACKGROUNDCOLOR
 70
0
  0
APPID
  5
A2
330
3
100
AcDbSymbolTableRecord
100
AcDbRegAppTableRecord
  2
EZDXF
 70
0
  0
ENDTAB
  0
TABLE
  2
DIMSTYLE
  5
4
330
0
100
AcDbSymbolTable
 70
12
100
AcDbDimStyleTable
  0
DIMSTYLE
105
2B
330
4
100
AcDbSymbolTableRecord
100
AcDbDimStyleTableRecord
  2
Standard
 70
0
 40
1.0
 41
2.5
 42
0.625
 43
3.75
 44
1.25
 45
0.0
 46
0.0
 47
0.0
 48
0.0
 49
2.5
140
2.5
141
2.5
142
0.0
143
0.03937007874
144
1.0
145
0.0
146
1.0
147
0.625
148
0.0
 69
0
 70
0
 71
0
 72
0
 73
0
 74
0
 75
0
 76
0
 77
1
 78
8
 79
3
170
0
171
3
172
1
173
0
174
0
175
0
176
0
177
0
178
0
179
2
271
2
272
2
273
2
274
3
275
0
276
0
277
2
278
44
279
0
280
0
281
0
282
0
283
0
284
8
285
0
286
0
288
0
289
3
290
0
371
-2
372
-2
  0
DIMSTYLE
105
73
330
4
100
AcDbSymbolTableRecord
100
AcDbDimStyleTableRecord
  2
EZDXF
 70
0
 40
1.0
 41
0.175
 42
0.125
 43
3.75
 44
0.375
 45
0.0
 46
0.0
 47
0.0
 48
0.0
 49
2.5
140
0.25
141
2.5
142
0.0
143
0.03937007874
144
100.0
145
0.0
146
0.5
147
0.1
148
0.0
 69
0
 70
0
 71
0
 72
0
 73
0
 74
0
 75
0
 76
0
 77
1
 78
12
 79
3
170
0
171
3
172
1
173
0
174
0
175
0
176
0
177
0
178
0
179
2
271
2
272
2
273
2
274
3
275
0
276
0
277
2
278
46
279
2
280
0
281
0
282
0
283
0
284
8
285
0
286
0
288
1
289
3
290
0
340
4C
342
74
371
-2
372
-2
  0
DIMSTYLE
105
7C
330
4
100
AcDbSymbolTableRecord
100
AcDbDimStyleTableRecord
  2
EZ_M_100_H25_CM
 70
0
 40
1.0
 41
0.25
 42
0.125
 43
3.75
 44
0.375
 45
0.0
 46
0.0
 47
0.0
 48
0.0
 49
2.5
140
0.25
141
2.5
142
0.125
143
0.03937007874
144
100.0
145
0.0
146
0.5
147
0.1
148
0.0
 69
0
 70
0
 71
0
 72
0
 73
0
 74
0
 75
0
 76
0
 77
1
 78
12
 79
3
170
0
171
3
172
1
173
0
174
0
175
0
176
0
177
0
178
0
179
2
271
2
272
2
273
2
274
3
275
0
276
0
277
2
278
46
279
2
280
0
281
0
282
0
283
0
284
8
285
0
286
0
288
1
289
3
290
0
340
4C
371
-2
372
-2
  0
DIMSTYLE
105
7D
330
4
100
AcDbSymbolTableRecord
100
AcDbDimStyleTableRecord
  2
EZ_M_50_H25_CM
 70
0
 40
1.0
 41
0.125
 42
0.0625
 43
3.75
 44
0.1875
 45
0.0
 46
0.0
 47
0.0
 48
0.0
 49
2.5
140
0.125
141
2.5
142
0.0625
143
0.03937007874
144
100.0
145
0.0
146
0.5
147
0.05
148
0.0
 69
0
 70
0
 71
0
 72
0
 73
0
 74
0
 75
0
 76
0
 77
1
 78
12
 79
3
170
0
171
3
172
1
173
0
174
0
175
0
176
0
177
0
178
0
179
2
271
2
272
2
273
2
274
3
275
0
276
0
277
2
278
46
279
2
280
0
281
0
282
0
283
0
284
8
285
0
286
0
288
1
289
3
290
0
340
4C
371
-2
372
-2
  0
DIMSTYLE
105
7E
330
4
100
AcDbSymbolTableRecord
100
AcDbDimStyleTableRecord
  2
EZ_M_25_H25_CM
 70
0
 40
1.0
 41
0.0625
 42
0.03125
 43
3.75
 44
0.09375
 45
0.0
 46
0.0
 47
0.0
 48
0.0
 49
2.5
140
0.0625
141
2.5
142
0.03125
143
0.03937007874
144
100.0
145
0.0
146
0.5
147
0.025
148
0.0
 69
0
 70
0
 71
0
 72
0
 73
0
 74
0
 75
0
 76
0
 77
1
 78
12
 79
3
170
0
171
3
172
1
173
0
174
0
175
0
176
0
177
0
178
0
179
2
271
2
272
2
273
2
274
3
275
0
276
0
277
2
278
46
279
2
280
0
281
0
282
0
283
0
284
8
285
0
286
0
288
1
289
3
290
0
340
4C
371
-2
372
-2
  0
DIMSTYLE
105
7F
330
4
100
AcDbSymbolTableRecord
100
AcDbDimStyleTableRecord
  2
EZ_M_20_H25_CM
 70
0
 40
1.0
 41
0.05
 42
0.025
 43
3.75
 44
0.07500000000000001
 45
0.0
 46
0.0
 47
0.0
 48
0.0
 49
2.5
140
0.05
141
2.5
142
0.025
143
0.03937007874
144
100.0
145
0.0
146
0.5
147
0.020000000000000004
148
0.0
 69
0
 70
0
 71
0
 72
0
 73
0
 74
0
 75
0
 76
0
 77
1
 78
12
 79
3
170
0
171
3
172
1
173
0
174
0
175
0
176
0
177
0
178
0
179
2
271
2
272
2
273
2
274
3
275
0
276
0
277
2
278
46
279
2
280
0
281
0
282
0
283
0
284
8
285
0
286
0
288
1
289
3
290
0
340
4C
371
-2
372
-2
  0
DIMSTYLE
105
80
330
4
100
AcDbSymbolTableRecord
100
AcDbDimStyleTableRecord
  2
EZ_M_10_H25_CM
 70
0
 40
1.0
 41
0.025
 42
0.0125
 43
3.75
 44
0.037500000000000006
 45
0.0
 46
0.0
 47
0.0
 48
0.0
 49
2.5
140
0.025
141
2.5
142
0.0125
143
0.03937007874
144
100.0
145
0.0
146
0.5
147
0.010000000000000002
148
0.0
 69
0
 70
0
 71
0
 72
0
 73
0
 74
0
 75
0
 76
0
 77
1
 78
12
 79
3
170
0
171
3
172
1
173
0
174
0
175
0
176
0
177
0
178
0
179
2
271
2
272
2
273
2
274
3
275
0
276
0
277
2
278
46
279
2
280
0
281
0
282
0
283
0
284
8
285
0
286
0
288
1
289
3
290
0
340
4C
371
-2
372
-2
  0
DIMSTYLE
105
81
330
4
100
AcDbSymbolTableRecord
100
AcDbDimStyleTableRecord
  2
EZ_M_5_H25_CM
 70
0
 40
1.0
 41
0.0125
 42
0.00625
 43
3.75
 44
0.018750000000000003
 45
0.0
 46
0.0
 47
0.0
 48
0.0
 49
2.5
140
0.0125
141
2.5
142
0.00625
143
0.03937007874
144
100.0
145
0.0
146
0.5
147
0.005000000000000001
148
0.0
 69
0
 70
0
 71
0
 72
0
 73
0
 74
0
 75
0
 76
0
 77
1
 78
12
 79
3
170
0
171
3
172
1
173
0
174
0
175
0
176
0
177
0
178
0
179
2
271
2
272
2
273
2
274
3
275
0
276
0
277
2
278
46
279
2
280
0
281
0
282
0
283
0
284
8
285
0
286
0
288
1
289
3
290
0
340
4C
371
-2
372
-2
  0
DIMSTYLE
105
82
330
4
100
AcDbSymbolTableRecord
100
AcDbDimStyleTableRecord
  2
EZ_M_1_H25_CM
 70
0
 40
1.0
 41
0.0025
 42
0.00125
 43
3.75
 44
0.00375
 45
0.0
 46
0.0
 47
0.0
 48
0.0
 49
2.5
140
0.0025
141
2.5
142
0.00125
143
0.03937007874
144
100.0
145
0.0
146
0.5
147
0.001
148
0.0
 69
0
 70
0
 71
0
 72
0
 73
0
 74
0
 75
0
 76
0
 77
1
 78
12
 79
3
170
0
171
3
172
1
173
0
174
0
175
0
176
0
177
0
178
0
179
2
271
2
272
2
273
2
274
3
275
0
276
0
277
2
278
46
279
2
280
0
281
0
282
0
283
0
284
8
285
0
286
0
288
1
289
3
290
0
340
4C
371
-2
372
-2
  0
DIMSTYLE
105
83
330
4
100
AcDbSymbolTableRecord
100
AcDbDimStyleTableRecord
  2
EZ_RADIUS
 70
0
 40
1.0
 41
0.25
 42
0.125
 43
3.75
 44
0.375
 45
0.0
 46
0.0
 47
0.0
 48
0.0
 49
2.5
140
0.25
141
0.0
142
0.0
143
0.03937007874
144
100.0
145
0.0
146
0.5
147
0.1
148
0.0
 69
0
 70
0
 71
0
 72
0
 73
0
 74
0
 75
0
 76
0
 77
1
 78
12
 79
3
170
0
171
3
172
0
173
0
174
0
175
0
176
0
177
0
178
0
179
2
271
2
272
2
273
2
274
3
275
0
276
0
277
2
278
46
279
1
280
0
281
0
282
0
283
0
284
8
285
0
286
0
288
1
289
3
290
0
340
4C
342
84
371
-2
372
-2
  0
DIMSTYLE
105
88
330
4
100
AcDbSymbolTableRecord
100
AcDbDimStyleTableRecord
  2
EZ_RADIUS_INSIDE
 70
0
 40
1.0
 41
0.25
 42
0.125
 43
3.75
 44
0.375
 45
0.0
 46
0.0
 47
0.0
 48
0.0
 49
2.5
140
0.25
141
0.0
142
0.0
143
0.03937007874
144
100.0
145
0.0
146
0.5
147
0.1
148
0.0
 69
0
 70
0
 71
0
 72
0
 73
0
 74
0
 75
0
 76
0
 77
0
 78
12
 79
3
170
0
171
3
172
0
173
0
174
1
175
0
176
0
177
0
178
0
179
2
271
2
272
2
273
2
274
3
275
0
276
0
277
2
278
46
279
0
280
0
281
0
282
0
283
0
284
8
285
0
286
0
288
1
289
0
290
0
340
4C
342
84
371
-2
372
-2
  0
DIMSTYLE
105
89
330
4
100
AcDbSymbolTableRecord
100
AcDbDimStyleTableRecord
  2
EZ_CURVED
 70
0
 40
1.0
 41
0.25
 42
0.125
 43
3.75
 44
0.375
 45
0.0
 46
0.0
 47
0.0
 48
0.0
 49
2.5
140
0.25
141
2.5
142
0.0
143
0.03937007874
144
100.0
145
0.0
146
0.5
147
0.1
148
0.0
 69
0
 70
0
 71
0
 72
0
 73
0
 74
0
 75
0
 76
0
 77
1
 78
12
 79
2
 90
2
170
0
171
3
172
1
173
0
174
0
175
0
176
0
177
0
178
0
179
2
271
2
272
2
273
2
274
3
275
0
276
0
277
2
278
46
279
2
280
0
281
0
282
0
283
0
284
8
285
0
286
0
288
1
289
3
290
0
340
4C
371
-2
372
-2
  0
ENDTAB
  0
TABLE
  2
BLOCK_RECORD
  5
9
330
0
100
AcDbSymbolTable
 70
5
  0
BLOCK_RECORD
  5
17
330
9
100
AcDbSymbolTableRecord
100
AcDbBlockTableRecord
  2
*Model_Space
340
1A
 70
0
280
1
281
0
  0
BLOCK_RECORD
  5
1B
330
9
100
AcDbSymbolTableRecord
100
AcDbBlockTableRecord
  2
*Paper_Space
340
1E
 70
0
280
1
281
0
  0
BLOCK_RECORD
  5
74
330
9
100
AcDbSymbolTableRecord
100
AcDbBlockTableRecord
  2
_ARCHTICK
340
0
 70
0
280
1
281
0
  0
BLOCK_RECORD
  5
78
330
9
100
AcDbSymbolTableRecord
100
AcDbBlockTableRecord
  2
_CLOSEDFILLED
340
0
 70
0
280
1
281
0
  0
BLOCK_RECORD
  5
84
330
9
100
AcDbSymbolTableRecord
100
AcDbBlockTableRecord
  2
_CLOSEDBLANK
340
0
 70
0
280
1
281
0
  0
ENDTAB
  0
ENDSEC
  0
SECTION
  2
BLOCKS
  0
BLOCK
  5
18
330
17
100
AcDbEntity
  8
0
100
AcDbBlockBegin
  2
*Model_Space
 70
0
 10
0.0
 20
0.0
 30
0.0
  3
*Model_Space
  1

  0
ENDBLK
  5
19
330
17
100
AcDbEntity
  8
0
100
AcDbBlockEnd
  0
BLOCK
  5
1C
330
1B
100
AcDbEntity
  8
0
100
AcDbBlockBegin
  2
*Paper_Space
 70
0
 10
0.0
 20
0.0
 30
0.0
  3
*Paper_Space
  1

  0
ENDBLK
  5
1D
330
1B
100
AcDbEntity
  8
0
100
AcDbBlockEnd
  0
BLOCK
  5
75
330
74
100
AcDbEntity
  8
0
100
AcDbBlockBegin
  2
_ARCHTICK
 70
0
 10
0.0
 20
0.0
 30
0.0
  3
_ARCHTICK
  1

  0
LWPOLYLINE
  5
77
330
74
100
AcDbEntity
  8
0
  6
BYBLOCK
 62
0
100
AcDbPolyline
 90
2
 70
0
 43
0.15
 10
-0.5
 20
-0.5
 10
0.5
 20
0.5
  0
ENDBLK
  5
76
330
74
100
AcDbEntity
  8
0
100
AcDbBlockEnd
  0
BLOCK
  5
79
330
78
100
AcDbEntity
  8
0
100
AcDbBlockBegin
  2
_CLOSEDFILLED
 70
0
 10
0.0
 20
0.0
 30
0.0
  3
_CLOSEDFILLED
  1

  0
SOLID
  5
7B
330
78
100
AcDbEntity
  8
0
  6
BYBLOCK
 62
0
100
AcDbTrace
 10
-1.0
 20
0.16439898372402537
 30
0.0
 11
0.0
 21
0.0
 31
0.0
 12
-1.0
 22
-0.16439898372402537
 32
0.0
 13
-1.0
 23
-0.16439898372402537
 33
0.0
  0
ENDBLK
  5
7A
330
78
100
AcDbEntity
  8
0
100
AcDbBlockEnd
  0
BLOCK
  5
85
330
84
100
AcDbEntity
  8
0
100
AcDbBlockBegin
  2
_CLOSEDBLANK
 70
0
 10
0.0
 20
0.0
 30
0.0
  3
_CLOSEDBLANK
  1

  0
LWPOLYLINE
  5
87
330
84
100
AcDbEntity
  8
0
  6
BYBLOCK
 62
0
100
AcDbPolyline
 90
3
 70
1
 10
-1.0
 20
0.16439898372402537
 10
0.0
 20
0.0
 10
-1.0
 20
-0.16439898372402537
  0
ENDBLK
  5
86
330
84
100
AcDbEntity
  8
0
100
AcDbBlockEnd
  0
ENDSEC
  0
SECTION
  2
ENTITIES
  0
LWPOLYLINE
  5
8D
330
17
100
AcDbEntity
  8
UST_KATMAN_KESIM
100
AcDbPolyline
 90
68
 70
1
 10
312.0
 20
180.0
 10
8.0
 20
180.0
 10
7.216
 20
179.961
 10
6.439
 20
179.846
 10
5.678
 20
179.656
 10
4.939
 20
179.391
 10
4.229
 20
179.055
 10
3.555
 20
178.652
 10
2.925
 20
178.184
 10
2.343
 20
177.657
 10
1.816
 20
177.075
 10
1.348
 20
176.445
 10
0.945
 20
175.771
 10
0.609
 20
175.061
 10
0.344
 20
174.322
 10
0.154
 20
173.561
 10
0.039
 20
172.784
 10
0.0
 20
172.0
 10
0.0
 20
8.0
 10
0.039
 20
7.216
 10
0.154
 20
6.439
 10
0.344
 20
5.678
 10
0.609
 20
4.939
 10
0.945
 20
4.229
 10
1.348
 20
3.555
 10
1.816
 20
2.925
 10
2.343
 20
2.343
 10
2.925
 20
1.816
 10
3.555
 20
1.348
 10
4.229
 20
0.945
 10
4.939
 20
0.609
 10
5.678
 20
0.344
 10
6.439
 20
0.154
 10
7.216
 20
0.039
 10
8.0
 20
0.0
 10
312.0
 20
0.0
 10
312.784
 20
0.039
 10
313.561
 20
0.154
 10
314.322
 20
0.344
 10
315.061
 20
0.609
 10
315.771
 20
0.945
 10
316.445
 20
1.348
 10
317.075
 20
1.816
 10
317.657
 20
2.343
 10
318.184
 20
2.925
 10
318.652
 20
3.555
 10
319.055
 20
4.229
 10
319.391
 20
4.939
 10
319.656
 20
5.678
 10
319.846
 20
6.439
 10
319.961
 20
7.216
 10
320.0
 20
8.0
 10
320.0
 20
172.0
 10
319.961
 20
172.784
 10
319.846
 20
173.561
 10
319.656
 20
174.322
 10
319.391
 20
175.061
 10
319.055
 20
175.771
 10
318.652
 20
176.445
 10
318.184
 20
177.075
 10
317.657
 20
177.657
 10
317.075
 20
178.184
 10
316.445
 20
178.652
 10
315.771
 20
179.055
 10
315.061
 20
179.391
 10
314.322
 20
179.656
 10
313.561
 20
179.846
 10
312.784
 20
179.961
  0
LWPOLYLINE
  5
8E
330
17
100
AcDbEntity
  8
UST_KATMAN_KESIM
100
AcDbPolyline
 90
72
 70
1
 10
32.486
 20
134.223
 10
32.416
 20
133.169
 10
33.05
 20
132.682
 10
35.011
 20
133.608
 10
38.846
 20
134.384
 10
42.015
 20
133.249
 10
43.08
 20
132.503
 10
43.692
 20
132.503
 10
44.179
 20
133.137
 10
44.096
 20
134.885
 10
43.457
 20
136.577
 10
42.167
 20
138.385
 10
42.077
 20
139.758
 10
44.042
 20
142.359
 10
47.022
 20
144.616
 10
49.476
 20
145.756
 10
50.545
 20
145.947
 10
51.742
 20
145.324
 10
52.509
 20
143.892
 10
54.065
 20
143.749
 10
56.615
 20
144.775
 10
58.97
 20
146.643
 10
60.073
 20
146.88
 10
60.727
 20
146.678
 10
61.394
 20
146.061
 10
61.675
 20
145.198
 10
61.584
 20
143.615
 10
62.017
 20
143.182
 10
62.589
 20
143.162
 10
63.862
 20
143.851
 10
65.079
 20
145.061
 10
65.977
 20
146.552
 10
66.57
 20
148.231
 10
67.184
 20
148.931
 10
71.588
 20
150.129
 10
76.326
 20
150.324
 10
78.027
 20
150.682
 10
79.208
 20
151.67
 10
79.641
 20
153.093
 10
79.543
 20
153.898
 10
78.57
 20
154.898
 10
75.934
 20
155.943
 10
75.417
 20
156.717
 10
74.813
 20
158.864
 10
73.713
 20
160.635
 10
72.207
 20
162.043
 10
69.963
 20
163.214
 10
67.622
 20
163.797
 10
64.757
 20
163.976
 10
61.53
 20
163.575
 10
57.102
 20
162.497
 10
56.259
 20
162.75
 10
53.597
 20
164.707
 10
51.561
 20
165.591
 10
49.062
 20
166.0
 10
46.948
 20
165.643
 10
46.349
 20
165.218
 10
46.247
 20
164.597
 10
47.749
 20
163.153
 10
48.397
 20
162.209
 10
48.895
 20
160.233
 10
48.707
 20
158.78
 10
44.434
 20
154.92
 10
41.802
 20
151.464
 10
40.444
 20
149.014
 10
39.286
 20
146.102
 10
38.636
 20
143.489
 10
38.131
 20
140.009
 10
37.518
 20
139.309
 10
35.597
 20
138.364
 10
33.949
 20
136.947
 10
33.047
 20
135.644
  0
LWPOLYLINE
  5
8F
330
17
100
AcDbEntity
  8
UST_KATMAN_KESIM
100
AcDbPolyline
 90
57
 70
1
 10
139.758
 20
154.88
 10
138.53
 20
152.919
 10
138.702
 20
151.846
 10
139.248
 20
151.305
 10
140.857
 20
150.609
 10
141.443
 20
149.89
 10
141.712
 20
149.002
 10
141.404
 20
146.791
 10
142.162
 20
144.077
 10
141.906
 20
143.163
 10
140.648
 20
141.361
 10
140.587
 20
139.87
 10
141.277
 20
138.484
 10
141.519
 20
137.338
 10
143.7
 20
136.101
 10
144.748
 20
133.636
 10
145.781
 20
131.997
 10
146.557
 20
131.828
 10
147.897
 20
132.617
 10
149.125
 20
132.68
 10
150.224
 20
132.125
 10
151.144
 20
130.662
 10
151.78
 20
130.397
 10
152.417
 20
130.661
 10
153.315
 20
132.015
 10
154.428
 20
132.564
 10
155.667
 20
132.483
 10
156.928
 20
131.663
 10
157.51
 20
131.628
 10
157.991
 20
131.957
 10
158.881
 20
133.404
 10
159.98
 20
135.685
 10
160.722
 20
136.192
 10
162.082
 20
136.408
 10
162.576
 20
136.721
 10
163.775
 20
140.076
 10
163.535
 20
141.108
 10
162.34
 20
142.692
 10
162.039
 20
143.58
 10
162.102
 20
144.515
 10
162.93
 20
146.773
 10
162.627
 20
149.316
 10
163.411
 20
150.654
 10
165.211
 20
151.727
 10
165.463
 20
152.907
 10
164.213
 20
155.067
 10
164.067
 20
158.472
 10
163.226
 20
161.324
 10
161.7
 20
163.702
 10
159.626
 20
165.629
 10
156.253
 20
167.36
 10
152.809
 20
168.011
 10
149.013
 20
167.61
 10
145.482
 20
166.17
 10
142.65
 20
163.901
 10
141.069
 20
161.659
 10
140.08
 20
158.87
  0
LWPOLYLINE
  5
90
330
17
100
AcDbEntity
  8
UST_KATMAN_KESIM
100
AcDbPolyline
 90
65
 70
1
 10
230.89
 20
152.766
 10
230.83
 20
151.817
 10
231.345
 20
149.171
 10
230.893
 20
146.379
 10
231.4
 20
143.304
 10
230.964
 20
140.379
 10
230.996
 20
139.469
 10
231.31
 20
138.835
 10
231.893
 20
138.468
 10
232.611
 20
138.418
 10
235.232
 20
139.57
 10
236.378
 20
139.418
 10
237.077
 20
138.804
 10
237.345
 20
138.156
 10
236.88
 20
135.942
 10
238.195
 20
134.69
 10
240.838
 20
133.557
 10
242.8
 20
133.169
 10
244.644
 20
133.13
 10
247.05
 20
133.608
 10
248.008
 20
133.525
 10
248.925
 20
132.76
 10
249.376
 20
131.328
 10
249.957
 20
131.034
 10
251.416
 20
130.986
 10
252.914
 20
131.253
 10
254.474
 20
131.804
 10
256.016
 20
132.688
 10
257.282
 20
133.819
 10
258.743
 20
135.601
 10
261.475
 20
137.018
 10
266.147
 20
140.221
 10
266.616
 20
140.813
 10
267.084
 20
142.407
 10
268.597
 20
143.68
 10
269.148
 20
144.726
 10
268.95
 20
146.057
 10
267.028
 20
147.722
 10
265.819
 20
151.352
 10
263.904
 20
154.379
 10
261.916
 20
156.21
 10
259.303
 20
157.783
 10
258.083
 20
159.415
 10
256.306
 20
161.144
 10
254.869
 20
161.498
 10
253.412
 20
162.428
 10
252.189
 20
162.39
 10
250.533
 20
163.014
 10
249.087
 20
162.775
 10
247.145
 20
163.014
 10
245.786
 20
162.67
 10
242.978
 20
162.434
 10
238.609
 20
161.075
 10
236.477
 20
159.888
 10
236.036
 20
159.228
 10
236.273
 20
158.582
 10
237.97
 20
157.427
 10
238.549
 20
156.272
 10
238.341
 20
153.151
 10
237.856
 20
152.135
 10
237.085
 20
151.66
 10
236.181
 20
151.62
 10
233.76
 20
153.143
 10
232.268
 20
153.612
 10
231.406
 20
153.439
  0
LWPOLYLINE
  5
91
330
17
100
AcDbEntity
  8
UST_KATMAN_KESIM
100
AcDbPolyline
 90
75
 70
1
 10
17.166
 20
95.826
 10
16.427
 20
93.84
 10
18.057
 20
92.097
 10
18.526
 20
88.84
 10
17.915
 20
86.158
 10
17.189
 20
84.833
 10
17.347
 20
83.338
 10
17.1
 20
82.27
 10
17.674
 20
80.708
 10
17.759
 20
79.638
 10
18.839
 20
78.161
 10
19.066
 20
77.088
 10
18.764
 20
75.866
 10
17.912
 20
74.764
 10
17.848
 20
73.27
 10
17.264
 20
71.789
 10
17.551
 20
70.545
 10
17.36
 20
68.987
 10
17.941
 20
67.698
 10
18.081
 20
66.386
 10
18.894
 20
65.417
 10
19.524
 20
63.966
 10
20.656
 20
63.227
 10
21.66
 20
62.135
 10
22.753
 20
61.87
 10
24.185
 20
61.111
 10
26.665
 20
60.987
 10
29.03
 20
61.642
 10
30.473
 20
62.448
 10
31.517
 20
63.492
 10
32.282
 20
64.812
 10
32.683
 20
66.488
 10
32.631
 20
67.882
 10
32.239
 20
69.187
 10
30.034
 20
72.107
 10
30.034
 20
73.777
 10
30.54
 20
74.655
 10
33.578
 20
77.484
 10
34.711
 20
79.779
 10
35.0
 20
80.855
 10
34.929
 20
84.189
 10
33.809
 20
87.055
 10
32.513
 20
88.86
 10
32.304
 20
89.822
 10
32.468
 20
90.793
 10
33.483
 20
92.059
 10
36.647
 20
93.261
 10
38.401
 20
93.256
 10
39.95
 20
92.664
 10
40.681
 20
92.9
 10
41.605
 20
94.384
 10
41.608
 20
96.359
 10
40.839
 20
97.096
 10
38.813
 20
96.795
 10
37.17
 20
97.454
 10
36.423
 20
98.573
 10
35.997
 20
100.872
 10
35.366
 20
102.373
 10
34.423
 20
103.64
 10
32.376
 20
105.412
 10
31.758
 20
107.625
 10
31.161
 20
107.97
 10
29.129
 20
107.944
 10
27.392
 20
108.91
 10
25.066
 20
107.555
 10
22.354
 20
107.833
 10
21.94
 20
107.454
 10
21.533
 20
106.09
 10
20.888
 20
105.243
 10
18.387
 20
104.215
 10
18.15
 20
101.474
 10
17.525
 20
100.364
 10
16.624
 20
99.651
 10
16.36
 20
99.156
 10
17.217
 20
96.63
  0
LWPOLYLINE
  5
92
330
17
100
AcDbEntity
  8
UST_KATMAN_KESIM
100
AcDbPolyline
 90
84
 70
1
 10
108.829
 20
80.345
 10
108.779
 20
79.589
 10
109.087
 20
78.961
 10
110.64
 20
78.038
 10
114.109
 20
77.545
 10
118.357
 20
78.096
 10
119.191
 20
77.685
 10
120.079
 20
76.625
 10
121.022
 20
76.342
 10
123.175
 20
76.517
 10
125.432
 20
77.422
 10
127.546
 20
78.959
 10
129.004
 20
80.515
 10
129.788
 20
80.922
 10
133.874
 20
80.456
 10
138.705
 20
80.305
 10
139.622
 20
79.601
 10
139.891
 20
78.251
 10
138.643
 20
74.713
 10
136.923
 20
72.052
 10
136.843
 20
70.61
 10
137.462
 20
69.843
 10
138.49
 20
69.479
 10
140.121
 20
69.539
 10
142.335
 20
70.134
 10
144.679
 20
71.207
 10
147.13
 20
72.832
 10
148.993
 20
74.54
 10
151.296
 20
77.539
 10
151.853
 20
77.966
 10
152.999
 20
78.117
 10
154.656
 20
77.013
 10
155.816
 20
76.959
 10
158.023
 20
77.856
 10
160.12
 20
79.603
 10
161.744
 20
82.081
 10
162.299
 20
83.988
 10
162.127
 20
86.343
 10
161.038
 20
88.55
 10
161.039
 20
89.252
 10
161.451
 20
90.086
 10
162.452
 20
90.664
 10
166.465
 20
90.58
 10
169.342
 20
91.216
 10
171.047
 20
92.284
 10
172.054
 20
94.154
 10
173.85
 20
94.814
 10
174.554
 20
95.472
 10
175.122
 20
97.247
 10
175.231
 20
99.024
 10
174.733
 20
102.443
 10
174.191
 20
104.285
 10
172.784
 20
106.792
 10
170.804
 20
108.71
 10
168.283
 20
110.006
 10
165.434
 20
110.525
 10
161.857
 20
110.064
 10
159.771
 20
109.194
 10
158.363
 20
108.254
 10
156.11
 20
105.719
 10
155.269
 20
104.033
 10
154.44
 20
101.505
 10
153.296
 20
100.74
 10
151.939
 20
100.984
 10
149.703
 20
102.796
 10
147.417
 20
104.091
 10
142.881
 20
105.518
 10
140.373
 20
105.814
 10
137.345
 20
105.755
 10
134.817
 20
105.35
 10
132.293
 20
104.603
 10
130.049
 20
103.631
 10
127.931
 20
102.344
 10
124.568
 20
99.433
 10
122.01
 20
96.122
 10
120.008
 20
92.529
 10
117.879
 20
91.449
 10
117.014
 20
90.593
 10
116.742
 20
89.419
 10
117.396
 20
87.341
 10
116.952
 20
86.277
 10
113.403
 20
84.57
 10
111.34
 20
82.596
 10
109.574
 20
81.33
  0
LWPOLYLINE
  5
93
330
17
100
AcDbEntity
  8
UST_KATMAN_KESIM
100
AcDbPolyline
 90
86
 70
1
 10
233.101
 20
74.549
 10
234.024
 20
72.47
 10
234.83
 20
71.693
 10
236.051
 20
71.112
 10
237.885
 20
71.18
 10
239.493
 20
72.326
 10
240.497
 20
72.68
 10
241.561
 20
72.633
 10
242.53
 20
72.192
 10
243.569
 20
70.776
 10
243.736
 20
67.916
 10
244.321
 20
66.147
 10
245.667
 20
64.449
 10
247.277
 20
63.431
 10
249.102
 20
62.99
 10
250.615
 20
63.118
 10
251.79
 20
63.626
 10
253.509
 20
64.947
 10
254.886
 20
65.164
 10
255.894
 20
64.869
 10
258.222
 20
63.212
 10
260.365
 20
62.988
 10
262.668
 20
63.809
 10
264.907
 20
66.093
 10
265.852
 20
66.638
 10
267.297
 20
66.733
 10
269.037
 20
65.926
 10
270.216
 20
65.717
 10
271.509
 20
65.95
 10
272.605
 20
66.563
 10
273.509
 20
67.488
 10
274.134
 20
68.617
 10
274.803
 20
72.435
 10
275.764
 20
73.525
 10
277.524
 20
74.197
 10
278.284
 20
74.848
 10
278.88
 20
76.057
 10
278.975
 20
77.64
 10
278.662
 20
78.824
 10
277.874
 20
80.041
 10
276.587
 20
81.014
 10
274.267
 20
81.96
 10
273.35
 20
83.416
 10
273.4
 20
86.386
 10
273.946
 20
87.332
 10
275.304
 20
88.376
 10
275.697
 20
89.139
 10
275.698
 20
90.216
 10
275.153
 20
91.331
 10
274.321
 20
92.091
 10
273.249
 20
92.549
 10
271.996
 20
92.639
 10
270.214
 20
92.392
 10
268.547
 20
93.088
 10
267.745
 20
94.302
 10
267.22
 20
96.837
 10
266.083
 20
99.431
 10
264.585
 20
101.379
 10
262.779
 20
102.918
 10
261.172
 20
103.857
 10
259.178
 20
104.607
 10
257.257
 20
104.964
 10
255.379
 20
105.007
 10
253.104
 20
104.664
 10
251.245
 20
104.043
 10
249.539
 20
103.157
 10
247.65
 20
101.696
 10
245.504
 20
98.949
 10
244.529
 20
96.659
 10
243.863
 20
93.879
 10
242.908
 20
92.79
 10
241.536
 20
92.325
 10
239.671
 20
92.634
 10
238.413
 20
92.548
 10
237.282
 20
92.085
 10
236.162
 20
91.074
 10
235.635
 20
89.976
 10
235.588
 20
88.753
 10
235.988
 20
87.864
 10
237.138
 20
86.961
 10
237.772
 20
86.104
 10
238.242
 20
82.535
 10
237.342
 20
80.982
 10
235.149
 20
79.766
 10
233.902
 20
78.451
 10
233.157
 20
76.737
  0
LWPOLYLINE
  5
94
330
17
100
AcDbEntity
  8
UST_KATMAN_KESIM
100
AcDbPolyline
 90
102
 70
1
 10
49.457
 20
42.31
 10
50.292
 20
39.397
 10
51.808
 20
37.371
 10
52.815
 20
34.798
 10
54.912
 20
32.7
 10
55.344
 20
31.426
 10
54.912
 20
29.813
 10
52.345
 20
27.535
 10
51.374
 20
26.13
 10
50.979
 20
23.835
 10
51.104
 20
22.245
 10
51.697
 20
20.914
 10
53.721
 20
19.716
 10
54.965
 20
17.506
 10
56.157
 20
16.373
 10
56.761
 20
16.308
 10
57.837
 20
16.851
 10
58.89
 20
16.961
 10
59.9
 20
16.642
 10
61.332
 20
15.572
 10
62.121
 20
15.676
 10
62.52
 20
16.483
 10
61.591
 20
18.585
 10
61.692
 20
20.247
 10
62.733
 20
21.59
 10
64.818
 20
22.382
 10
65.822
 20
22.378
 10
68.272
 20
21.555
 10
70.961
 20
21.199
 10
74.881
 20
21.379
 10
78.725
 20
22.424
 10
80.4
 20
22.145
 10
81.737
 20
21.385
 10
82.484
 20
20.267
 10
82.576
 20
18.568
 10
81.656
 20
16.468
 10
81.898
 20
15.807
 10
82.542
 20
15.522
 10
83.003
 20
15.641
 10
84.267
 20
16.645
 10
85.277
 20
16.964
 10
86.33
 20
16.854
 10
87.416
 20
16.303
 10
88.02
 20
16.368
 10
89.235
 20
17.521
 10
90.468
 20
19.707
 10
91.272
 20
20.324
 10
92.449
 20
20.734
 10
92.959
 20
21.467
 10
93.357
 20
23.023
 10
93.04
 20
26.065
 10
91.834
 20
27.768
 10
89.334
 20
29.881
 10
88.901
 20
31.494
 10
89.334
 20
32.767
 10
91.222
 20
34.73
 10
92.147
 20
37.272
 10
93.819
 20
39.703
 10
94.483
 20
42.086
 10
94.498
 20
44.394
 10
93.946
 20
46.495
 10
93.065
 20
48.067
 10
91.734
 20
49.43
 10
90.037
 20
50.46
 10
88.744
 20
50.912
 10
87.466
 20
50.99
 10
85.917
 20
49.299
 10
84.298
 20
48.649
 10
83.463
 20
47.386
 10
82.801
 20
45.113
 10
81.62
 20
43.932
 10
79.964
 20
43.714
 10
78.265
 20
44.588
 10
77.289
 20
44.516
 10
76.237
 20
42.538
 10
74.846
 20
41.323
 10
73.81
 20
39.85
 10
72.604
 20
39.259
 10
71.592
 20
39.261
 10
70.389
 20
39.857
 10
69.302
 20
41.4
 10
67.803
 20
42.783
 10
67.288
 20
44.184
 10
66.853
 20
44.567
 10
66.022
 20
44.595
 10
64.994
 20
43.903
 10
64.0
 20
43.581
 10
62.959
 20
43.678
 10
62.041
 20
44.176
 10
61.393
 20
44.996
 10
60.774
 20
47.238
 10
60.175
 20
48.34
 10
59.729
 20
48.749
 10
58.342
 20
49.265
 10
57.182
 20
50.757
 10
56.663
 20
51.013
 10
55.445
 20
50.899
 10
54.101
 20
50.407
 10
52.731
 20
49.616
 10
51.414
 20
48.423
 10
50.378
 20
46.917
 10
49.739
 20
45.347
  0
LWPOLYLINE
  5
95
330
17
100
AcDbEntity
  8
UST_KATMAN_KESIM
100
AcDbPolyline
 90
57
 70
1
 10
147.41
 20
38.718
 10
147.048
 20
37.935
 10
146.998
 20
37.148
 10
147.837
 20
35.336
 10
149.4
 20
33.834
 10
154.22
 20
30.285
 10
155.035
 20
29.367
 10
155.51
 20
28.186
 10
155.276
 20
26.229
 10
152.992
 20
21.049
 10
152.19
 20
18.344
 10
152.243
 20
16.643
 10
153.06
 20
15.43
 10
154.369
 20
14.982
 10
156.393
 20
15.415
 10
158.477
 20
16.698
 10
163.377
 20
20.497
 10
164.798
 20
21.209
 10
165.806
 20
21.424
 10
167.083
 20
21.258
 10
168.478
 20
20.61
 10
173.889
 20
16.597
 10
175.971
 20
15.404
 10
177.986
 20
15.089
 10
178.818
 20
15.383
 10
179.37
 20
15.867
 10
179.861
 20
17.228
 10
179.694
 20
19.143
 10
176.768
 20
26.334
 10
176.618
 20
28.169
 10
177.122
 20
29.353
 10
177.943
 20
30.304
 10
182.924
 20
34.127
 10
184.412
 20
35.703
 10
184.892
 20
36.657
 10
185.013
 20
37.8
 10
184.736
 20
38.632
 10
184.169
 20
39.244
 10
183.19
 20
39.672
 10
181.487
 20
39.782
 10
174.155
 20
38.841
 10
172.712
 20
39.069
 10
172.006
 20
39.42
 10
171.174
 20
40.26
 10
170.61
 20
41.442
 10
169.157
 20
47.229
 10
168.432
 20
49.233
 10
167.347
 20
50.613
 10
165.967
 20
51.018
 10
164.746
 20
50.522
 10
163.715
 20
49.147
 10
161.288
 20
41.172
 10
160.682
 20
40.036
 10
159.864
 20
39.308
 10
157.77
 20
38.827
 10
149.964
 20
39.862
 10
148.556
 20
39.581
  0
LWPOLYLINE
  5
96
330
17
100
AcDbEntity
  8
UST_KATMAN_KESIM
100
AcDbPolyline
 90
35
 70
1
 10
49.668
 20
133.497
 10
49.492
 20
134.561
 10
49.112
 20
135.57
 10
48.543
 20
136.486
 10
47.806
 20
137.273
 10
46.929
 20
137.901
 10
45.947
 20
138.346
 10
44.897
 20
138.59
 10
43.82
 20
138.626
 10
43.106
 20
138.532
 10
42.241
 20
138.281
 10
43.457
 20
136.577
 10
44.096
 20
134.885
 10
44.179
 20
133.137
 10
43.692
 20
132.503
 10
43.08
 20
132.503
 10
42.015
 20
133.249
 10
38.846
 20
134.384
 10
38.691
 20
133.497
 10
38.691
 20
132.778
 10
38.867
 20
131.714
 10
39.246
 20
130.705
 10
39.816
 20
129.789
 10
40.553
 20
129.002
 10
41.429
 20
128.374
 10
42.411
 20
127.929
 10
43.461
 20
127.684
 10
44.539
 20
127.649
 10
45.603
 20
127.825
 10
46.612
 20
128.205
 10
47.527
 20
128.774
 10
48.314
 20
129.511
 10
48.942
 20
130.387
 10
49.387
 20
131.369
 10
49.632
 20
132.419
  0
LWPOLYLINE
  5
97
330
17
100
AcDbEntity
  8
UST_KATMAN_KESIM
100
AcDbPolyline
 90
31
 70
1
 10
157.269
 20
130.757
 10
157.133
 20
131.65
 10
156.928
 20
131.663
 10
155.667
 20
132.483
 10
154.428
 20
132.564
 10
153.315
 20
132.015
 10
152.417
 20
130.661
 10
151.78
 20
130.397
 10
151.144
 20
130.662
 10
150.224
 20
132.125
 10
149.125
 20
132.68
 10
147.897
 20
132.617
 10
146.557
 20
131.828
 10
146.475
 20
131.846
 10
146.328
 20
131.115
 10
146.292
 20
130.038
 10
146.468
 20
128.974
 10
146.848
 20
127.965
 10
147.417
 20
127.049
 10
148.154
 20
126.262
 10
149.03
 20
125.634
 10
150.013
 20
125.189
 10
151.063
 20
124.944
 10
152.14
 20
124.909
 10
153.204
 20
125.085
 10
154.213
 20
125.464
 10
155.129
 20
126.034
 10
155.916
 20
126.771
 10
156.544
 20
127.647
 10
156.989
 20
128.629
 10
157.233
 20
129.679
  0
LWPOLYLINE
  5
98
330
17
100
AcDbEntity
  8
UST_KATMAN_KESIM
100
AcDbPolyline
 90
26
 70
1
 10
255.822
 20
163.341
 10
255.647
 20
164.405
 10
255.267
 20
165.414
 10
254.697
 20
166.329
 10
253.96
 20
167.116
 10
253.084
 20
167.744
 10
252.102
 20
168.189
 10
251.052
 20
168.434
 10
249.974
 20
168.469
 10
248.91
 20
168.294
 10
247.901
 20
167.914
 10
246.986
 20
167.344
 10
246.199
 20
166.607
 10
245.571
 20
165.731
 10
245.126
 20
164.749
 10
244.881
 20
163.699
 10
244.846
 20
162.621
 10
245.786
 20
162.67
 10
247.145
 20
163.014
 10
249.087
 20
162.775
 10
250.533
 20
163.014
 10
252.189
 20
162.39
 10
253.412
 20
162.428
 10
254.869
 20
161.498
 10
255.576
 20
161.324
 10
255.787
 20
162.263
  0
LWPOLYLINE
  5
99
330
17
100
AcDbEntity
  8
UST_KATMAN_KESIM
100
AcDbPolyline
 90
37
 70
1
 10
46.169
 20
93.259
 10
45.994
 20
94.323
 10
45.614
 20
95.332
 10
45.044
 20
96.248
 10
44.307
 20
97.035
 10
43.431
 20
97.663
 10
42.449
 20
98.108
 10
41.399
 20
98.352
 10
40.321
 20
98.388
 10
38.913
 20
98.108
 10
38.248
 20
97.832
 10
37.446
 20
97.344
 10
38.813
 20
96.795
 10
40.839
 20
97.096
 10
41.608
 20
96.359
 10
41.605
 20
94.384
 10
40.681
 20
92.9
 10
39.95
 20
92.664
 10
38.401
 20
93.256
 10
36.647
 20
93.261
 10
35.187
 20
92.706
 10
35.193
 20
92.54
 10
35.368
 20
91.476
 10
35.748
 20
90.467
 10
36.318
 20
89.551
 10
37.055
 20
88.764
 10
37.931
 20
88.136
 10
38.913
 20
87.691
 10
39.963
 20
87.447
 10
41.041
 20
87.411
 10
42.105
 20
87.587
 10
43.114
 20
87.967
 10
44.029
 20
88.536
 10
44.816
 20
89.273
 10
45.444
 20
90.15
 10
45.889
 20
91.132
 10
46.134
 20
92.182
  0
LWPOLYLINE
  5
9A
330
17
100
AcDbEntity
  8
UST_KATMAN_KESIM
100
AcDbPolyline
 90
34
 70
1
 10
146.224
 20
70.064
 10
146.048
 20
71.128
 10
145.764
 20
71.926
 10
144.679
 20
71.207
 10
142.335
 20
70.134
 10
140.121
 20
69.539
 10
138.49
 20
69.479
 10
137.462
 20
69.843
 10
136.843
 20
70.61
 10
136.923
 20
72.052
 10
138.674
 20
74.802
 10
137.986
 20
74.467
 10
137.387
 20
74.068
 10
136.847
 20
73.593
 10
136.163
 20
72.76
 10
135.654
 20
71.809
 10
135.423
 20
71.128
 10
135.283
 20
70.422
 10
135.247
 20
69.345
 10
135.423
 20
68.281
 10
135.803
 20
67.272
 10
136.372
 20
66.356
 10
137.109
 20
65.569
 10
137.986
 20
64.941
 10
138.968
 20
64.496
 10
140.018
 20
64.251
 10
141.095
 20
64.216
 10
142.159
 20
64.392
 10
143.168
 20
64.771
 10
144.084
 20
65.341
 10
144.871
 20
66.078
 10
145.499
 20
66.954
 10
145.944
 20
67.936
 10
146.189
 20
68.986
  0
LWPOLYLINE
  5
9B
330
17
100
AcDbEntity
  8
UST_KATMAN_KESIM
100
AcDbPolyline
 90
30
 70
1
 10
283.363
 20
80.401
 10
283.083
 20
81.809
 10
282.807
 20
82.473
 10
282.238
 20
83.389
 10
281.501
 20
84.176
 10
280.93
 20
84.614
 10
280.307
 20
84.974
 10
279.298
 20
85.353
 10
278.592
 20
85.494
 10
277.515
 20
85.529
 10
276.107
 20
85.249
 10
275.442
 20
84.974
 10
274.526
 20
84.404
 10
273.985
 20
83.93
 10
273.434
 20
83.282
 10
274.267
 20
81.96
 10
276.587
 20
81.014
 10
277.874
 20
80.041
 10
278.662
 20
78.824
 10
278.975
 20
77.64
 10
278.88
 20
76.057
 10
278.284
 20
74.848
 10
277.927
 20
74.543
 10
279.298
 20
74.728
 10
280.307
 20
75.108
 10
281.223
 20
75.677
 10
282.01
 20
76.414
 10
282.638
 20
77.291
 10
283.083
 20
78.273
 10
283.327
 20
79.323
  0
LWPOLYLINE
  5
9C
330
17
100
AcDbEntity
  8
UST_KATMAN_KESIM
100
AcDbPolyline
 90
30
 70
1
 10
72.341
 20
44.927
 10
72.165
 20
45.991
 10
71.786
 20
47.0
 10
71.216
 20
47.915
 10
70.479
 20
48.702
 10
69.603
 20
49.33
 10
68.957
 20
49.649
 10
67.926
 20
49.962
 10
66.853
 20
50.067
 10
65.78
 20
49.962
 10
64.748
 20
49.649
 10
64.103
 20
49.33
 10
63.226
 20
48.702
 10
62.489
 20
47.915
 10
61.92
 20
47.0
 10
61.54
 20
45.991
 10
61.377
 20
45.053
 10
62.041
 20
44.176
 10
62.959
 20
43.678
 10
64.0
 20
43.581
 10
64.994
 20
43.903
 10
66.022
 20
44.595
 10
66.853
 20
44.567
 10
67.288
 20
44.184
 10
67.803
 20
42.783
 10
69.302
 20
41.4
 10
70.163
 20
40.177
 10
70.988
 20
40.941
 10
71.786
 20
42.135
 10
72.247
 20
43.494
  0
LWPOLYLINE
  5
9D
330
17
100
AcDbEntity
  8
UST_KATMAN_KESIM
100
AcDbPolyline
 90
23
 70
1
 10
165.421
 20
18.186
 10
165.14
 20
19.594
 10
164.865
 20
20.259
 10
164.411
 20
21.014
 10
163.377
 20
20.497
 10
158.477
 20
16.698
 10
156.393
 20
15.415
 10
155.132
 20
15.145
 10
155.569
 20
14.478
 10
156.306
 20
13.691
 10
157.182
 20
13.063
 10
157.828
 20
12.745
 10
158.859
 20
12.432
 10
159.573
 20
12.338
 10
160.292
 20
12.338
 10
161.356
 20
12.514
 10
162.037
 20
12.745
 10
162.988
 20
13.253
 10
163.559
 20
13.691
 10
164.296
 20
14.478
 10
164.865
 20
15.394
 10
165.245
 20
16.403
 10
165.421
 20
17.467
  0
LWPOLYLINE
  5
9E
330
17
100
AcDbEntity
  8
ALT_KATMAN_KESIM
100
AcDbPolyline
 90
68
 70
1
 10
647.0
 20
180.0
 10
343.0
 20
180.0
 10
342.216
 20
179.961
 10
341.439
 20
179.846
 10
340.678
 20
179.656
 10
339.939
 20
179.391
 10
339.229
 20
179.055
 10
338.555
 20
178.652
 10
337.925
 20
178.184
 10
337.343
 20
177.657
 10
336.816
 20
177.075
 10
336.348
 20
176.445
 10
335.945
 20
175.771
 10
335.609
 20
175.061
 10
335.344
 20
174.322
 10
335.154
 20
173.561
 10
335.039
 20
172.784
 10
335.0
 20
172.0
 10
335.0
 20
8.0
 10
335.039
 20
7.216
 10
335.154
 20
6.439
 10
335.344
 20
5.678
 10
335.609
 20
4.939
 10
335.945
 20
4.229
 10
336.348
 20
3.555
 10
336.816
 20
2.925
 10
337.343
 20
2.343
 10
337.925
 20
1.816
 10
338.555
 20
1.348
 10
339.229
 20
0.945
 10
339.939
 20
0.609
 10
340.678
 20
0.344
 10
341.439
 20
0.154
 10
342.216
 20
0.039
 10
343.0
 20
0.0
 10
647.0
 20
0.0
 10
647.784
 20
0.039
 10
648.561
 20
0.154
 10
649.322
 20
0.344
 10
650.061
 20
0.609
 10
650.771
 20
0.945
 10
651.445
 20
1.348
 10
652.075
 20
1.816
 10
652.657
 20
2.343
 10
653.184
 20
2.925
 10
653.652
 20
3.555
 10
654.055
 20
4.229
 10
654.391
 20
4.939
 10
654.656
 20
5.678
 10
654.846
 20
6.439
 10
654.961
 20
7.216
 10
655.0
 20
8.0
 10
655.0
 20
172.0
 10
654.961
 20
172.784
 10
654.846
 20
173.561
 10
654.656
 20
174.322
 10
654.391
 20
175.061
 10
654.055
 20
175.771
 10
653.652
 20
176.445
 10
653.184
 20
177.075
 10
652.657
 20
177.657
 10
652.075
 20
178.184
 10
651.445
 20
178.652
 10
650.771
 20
179.055
 10
650.061
 20
179.391
 10
649.322
 20
179.656
 10
648.561
 20
179.846
 10
647.784
 20
179.961
  0
TEXT
  5
9F
330
17
100
AcDbEntity
  8
YAZI
100
AcDbText
 10
0.0
 20
186.0
 30
0.0
 40
6.0
  1
UST KATMAN - deniz canlilari + cepler (320x180)
 11
0.0
 21
186.0
 31
0.0
100
AcDbText
  0
TEXT
  5
A0
330
17
100
AcDbEntity
  8
YAZI
100
AcDbText
 10
335.0
 20
186.0
 30
0.0
 40
6.0
  1
ALT KATMAN - duz taban (320x180)
 11
335.0
 21
186.0
 31
0.0
100
AcDbText
  0
ENDSEC
  0
SECTION
  2
OBJECTS
  0
DICTIONARY
  5
A
330
0
100
AcDbDictionary
281
1
  3
ACAD_COLOR
350
B
  3
ACAD_GROUP
350
C
  3
ACAD_LAYOUT
350
D
  3
ACAD_MATERIAL
350
E
  3
ACAD_MLEADERSTYLE
350
F
  3
ACAD_MLINESTYLE
350
10
  3
ACAD_PLOTSETTINGS
350
11
  3
ACAD_PLOTSTYLENAME
350
12
  3
ACAD_SCALELIST
350
14
  3
ACAD_TABLESTYLE
350
15
  3
ACAD_VISUALSTYLE
350
16
  3
EZDXF_META
350
2D
  0
DICTIONARY
  5
B
330
A
100
AcDbDictionary
281
1
  0
DICTIONARY
  5
C
330
A
100
AcDbDictionary
281
1
  0
DICTIONARY
  5
D
330
A
100
AcDbDictionary
281
1
  3
Model
350
1A
  3
Layout1
350
1E
  0
DICTIONARY
  5
E
330
A
100
AcDbDictionary
281
1
  3
ByBlock
350
1F
  3
ByLayer
350
20
  3
Global
350
21
  0
DICTIONARY
  5
F
330
A
100
AcDbDictionary
281
1
  3
Standard
350
2C
  0
DICTIONARY
  5
10
330
A
100
AcDbDictionary
281
1
  3
Standard
350
22
  0
DICTIONARY
  5
11
330
A
100
AcDbDictionary
281
1
  0
ACDBDICTIONARYWDFLT
  5
12
330
A
100
AcDbDictionary
281
1
  3
Normal
350
13
100
AcDbDictionaryWithDefault
340
13
  0
ACDBPLACEHOLDER
  5
13
330
12
  0
DICTIONARY
  5
14
330
A
100
AcDbDictionary
281
1
  0
DICTIONARY
  5
15
330
A
100
AcDbDictionary
281
1
  0
DICTIONARY
  5
16
330
A
100
AcDbDictionary
281
1
  3
2dWireframe
350
5A
  3
Basic
350
5B
  3
Brighten
350
5C
  3
ColorChange
350
5D
  3
Conceptual
350
5E
  3
Dim
350
5F
  3
EdgeColorOff
350
60
  3
Facepattern
350
61
  3
Flat
350
62
  3
FlatWithEdges
350
63
  3
Gouraud
350
64
  3
GouraudWithEdges
350
65
  3
Hidden
350
66
  3
JitterOff
350
67
  3
Linepattern
350
68
  3
Modeling
350
69
  3
OverhangOff
350
6A
  3
Realistic
350
6B
  3
Shaded
350
6C
  3
Shaded with edges
350
6D
  3
Shades of Gray
350
6E
  3
Sketchy
350
6F
  3
Thicken
350
70
  3
Wireframe
350
71
  3
X-Ray
350
72
  0
LAYOUT
  5
1A
330
D
100
AcDbPlotSettings
  1

  4
A3
  6

 40
7.5
 41
20.0
 42
7.5
 43
20.0
 44
420.0
 45
297.0
 46
0.0
 47
0.0
 48
0.0
 49
0.0
140
0.0
141
0.0
142
1.0
143
1.0
 70
1024
 72
1
 73
0
 74
5
  7

 75
16
 76
0
 77
2
 78
300
147
1.0
148
0.0
149
0.0
100
AcDbLayout
  1
Model
 70
1
 71
0
 10
0.0
 20
0.0
 11
420.0
 21
297.0
 12
0.0
 22
0.0
 32
0.0
 14
1e+20
 24
1e+20
 34
1e+20
 15
-1e+20
 25
-1e+20
 35
-1e+20
146
0.0
 13
0.0
 23
0.0
 33
0.0
 16
1.0
 26
0.0
 36
0.0
 17
0.0
 27
1.0
 37
0.0
 76
1
330
17
  0
LAYOUT
  5
1E
330
D
100
AcDbPlotSettings
  1

  4
A3
  6

 40
7.5
 41
20.0
 42
7.5
 43
20.0
 44
420.0
 45
297.0
 46
0.0
 47
0.0
 48
0.0
 49
0.0
140
0.0
141
0.0
142
1.0
143
1.0
 70
0
 72
1
 73
0
 74
5
  7

 75
16
 76
0
 77
2
 78
300
147
1.0
148
0.0
149
0.0
100
AcDbLayout
  1
Layout1
 70
1
 71
1
 10
0.0
 20
0.0
 11
420.0
 21
297.0
 12
0.0
 22
0.0
 32
0.0
 14
1e+20
 24
1e+20
 34
1e+20
 15
-1e+20
 25
-1e+20
 35
-1e+20
146
0.0
 13
0.0
 23
0.0
 33
0.0
 16
1.0
 26
0.0
 36
0.0
 17
0.0
 27
1.0
 37
0.0
 76
1
330
1B
  0
MATERIAL
  5
1F
102
{ACAD_REACTORS
330
E
102
}
330
E
100
AcDbMaterial
  1
ByBlock
  2

 70
0
 40
1.0
 71
1
 41
1.0
 91
-1023410177
 42
1.0
 72
1
  3

 73
1
 74
1
 75
1
 44
0.5
 73
0
 45
1.0
 46
1.0
 77
1
  4

 78
1
 79
1
170
1
 48
1.0
171
1
  6

172
1
173
1
174
1
140
1.0
141
1.0
175
1
  7

176
1
177
1
178
1
143
1.0
179
1
  8

270
1
271
1
272
1
145
1.0
146
1.0
273
1
  9

274
1
275
1
276
1
 42
1.0
 72
1
  3

 73
1
 74
1
 75
1
 94
63
  0
MATERIAL
  5
20
102
{ACAD_REACTORS
330
E
102
}
330
E
100
AcDbMaterial
  1
ByLayer
  2

 70
0
 40
1.0
 71
1
 41
1.0
 91
-1023410177
 42
1.0
 72
1
  3

 73
1
 74
1
 75
1
 44
0.5
 73
0
 45
1.0
 46
1.0
 77
1
  4

 78
1
 79
1
170
1
 48
1.0
171
1
  6

172
1
173
1
174
1
140
1.0
141
1.0
175
1
  7

176
1
177
1
178
1
143
1.0
179
1
  8

270
1
271
1
272
1
145
1.0
146
1.0
273
1
  9

274
1
275
1
276
1
 42
1.0
 72
1
  3

 73
1
 74
1
 75
1
 94
63
  0
MATERIAL
  5
21
102
{ACAD_REACTORS
330
E
102
}
330
E
100
AcDbMaterial
  1
Global
  2

 70
0
 40
1.0
 71
1
 41
1.0
 91
-1023410177
 42
1.0
 72
1
  3

 73
1
 74
1
 75
1
 44
0.5
 73
0
 45
1.0
 46
1.0
 77
1
  4

 78
1
 79
1
170
1
 48
1.0
171
1
  6

172
1
173
1
174
1
140
1.0
141
1.0
175
1
  7

176
1
177
1
178
1
143
1.0
179
1
  8

270
1
271
1
272
1
145
1.0
146
1.0
273
1
  9

274
1
275
1
276
1
 42
1.0
 72
1
  3

 73
1
 74
1
 75
1
 94
63
  0
MLINESTYLE
  5
22
102
{ACAD_REACTORS
330
10
102
}
330
10
100
AcDbMlineStyle
  2
Standard
 70
0
  3

 62
256
 51
90.0
 52
90.0
 71
2
 49
0.5
 62
256
  6
BYLAYER
 49
-0.5
 62
256
  6
BYLAYER
  0
MLEADERSTYLE
  5
2C
102
{ACAD_REACTORS
330
F
102
}
330
F
100
AcDbMLeaderStyle
179
2
170
2
171
1
172
0
 90
2
 40
0.0
 41
0.0
173
1
 91
-1056964608
 92
-2
290
1
 42
2.0
291
1
 43
8.0
  3
Standard
 44
4.0
300

342
29
174
1
175
1
176
0
178
1
 93
-1056964608
 45
4.0
292
0
297
0
 46
4.0
 94
-1056964608
 47
1.0
 49
1.0
140
1.0
294
1
141
0.0
177
0
142
1.0
295
0
296
0
143
3.75
271
0
272
9
273
9
  0
DICTIONARY
  5
2D
330
A
100
AcDbDictionary
280
1
281
1
  3
CREATED_BY_EZDXF
350
2E
  3
WRITTEN_BY_EZDXF
350
A3
  0
DICTIONARYVAR
  5
2E
330
2D
100
DictionaryVariables
280
0
  1
1.4.4 @ 2026-07-22T16:05:05.869508+00:00
  0
VISUALSTYLE
  5
5A
102
{ACAD_REACTORS
330
16
102
}
330
16
100
AcDbVisualStyle
  2
2dWireframe
 70
4
 90
0
 40
0.6
 62
7
290
0
291
0
  0
VISUALSTYLE
  5
5B
102
{ACAD_REACTORS
330
16
102
}
330
16
100
AcDbVisualStyle
  2
Basic
 70
7
 90
1
 40
0.6
 62
7
290
0
291
1
  0
VISUALSTYLE
  5
5C
102
{ACAD_REACTORS
330
16
102
}
330
16
100
AcDbVisualStyle
  2
Brighten
 70
12
 90
2
 40
0.6
 62
7
290
0
291
1
  0
VISUALSTYLE
  5
5D
102
{ACAD_REACTORS
330
16
102
}
330
16
100
AcDbVisualStyle
  2
ColorChange
 70
16
 90
2
 40
0.6
 62
8
290
0
291
1
  0
VISUALSTYLE
  5
5E
102
{ACAD_REACTORS
330
16
102
}
330
16
100
AcDbVisualStyle
  2
Conceptual
 70
9
 90
3
 40
0.6
 62
7
290
0
291
0
  0
VISUALSTYLE
  5
5F
102
{ACAD_REACTORS
330
16
102
}
330
16
100
AcDbVisualStyle
  2
Dim
 70
11
 90
2
 40
0.6
 62
7
290
0
291
1
  0
VISUALSTYLE
  5
60
102
{ACAD_REACTORS
330
16
102
}
330
16
100
AcDbVisualStyle
  2
EdgeColorOff
 70
22
 90
2
 40
0.6
 62
7
290
0
291
1
  0
VISUALSTYLE
  5
61
102
{ACAD_REACTORS
330
16
102
}
330
16
100
AcDbVisualStyle
  2
Facepattern
 70
15
 90
2
 40
0.6
 62
7
290
0
291
1
  0
VISUALSTYLE
  5
62
102
{ACAD_REACTORS
330
16
102
}
330
16
100
AcDbVisualStyle
  2
Flat
 70
0
 90
2
 40
0.6
 62
7
290
0
291
1
  0
VISUALSTYLE
  5
63
102
{ACAD_REACTORS
330
16
102
}
330
16
100
AcDbVisualStyle
  2
FlatWithEdges
 70
1
 90
2
 40
0.6
 62
7
290
0
291
1
  0
VISUALSTYLE
  5
64
102
{ACAD_REACTORS
330
16
102
}
330
16
100
AcDbVisualStyle
  2
Gouraud
 70
2
 90
2
 40
0.6
 62
7
290
0
291
1
  0
VISUALSTYLE
  5
65
102
{ACAD_REACTORS
330
16
102
}
330
16
100
AcDbVisualStyle
  2
GouraudWithEdges
 70
3
 90
2
 40
0.6
 62
7
290
0
291
1
  0
VISUALSTYLE
  5
66
102
{ACAD_REACTORS
330
16
102
}
330
16
100
AcDbVisualStyle
  2
Hidden
 70
6
 90
1
 40
0.6
 62
7
290
0
291
0
  0
VISUALSTYLE
  5
67
102
{ACAD_REACTORS
330
16
102
}
330
16
100
AcDbVisualStyle
  2
JitterOff
 70
20
 90
2
 40
0.6
 62
7
290
0
291
1
  0
VISUALSTYLE
  5
68
102
{ACAD_REACTORS
330
16
102
}
330
16
100
AcDbVisualStyle
  2
Linepattern
 70
14
 90
2
 40
0.6
 62
7
290
0
291
1
  0
VISUALSTYLE
  5
69
102
{ACAD_REACTORS
330
16
102
}
330
16
100
AcDbVisualStyle
  2
Modeling
 70
10
 90
2
 40
0.6
 62
7
290
0
291
0
  0
VISUALSTYLE
  5
6A
102
{ACAD_REACTORS
330
16
102
}
330
16
100
AcDbVisualStyle
  2
OverhangOff
 70
21
 90
2
 40
0.6
 62
7
290
0
291
1
  0
VISUALSTYLE
  5
6B
102
{ACAD_REACTORS
330
16
102
}
330
16
100
AcDbVisualStyle
  2
Realistic
 70
8
 90
2
 40
0.6
 62
7
290
0
291
0
  0
VISUALSTYLE
  5
6C
102
{ACAD_REACTORS
330
16
102
}
330
16
100
AcDbVisualStyle
  2
Shaded
 70
27
 90
2
 40
0.6
 62
7
290
0
291
0
  0
VISUALSTYLE
  5
6D
102
{ACAD_REACTORS
330
16
102
}
330
16
100
AcDbVisualStyle
  2
Shaded with edges
 70
26
 90
2
 40
0.6
 62
7
290
0
291
0
  0
VISUALSTYLE
  5
6E
102
{ACAD_REACTORS
330
16
102
}
330
16
100
AcDbVisualStyle
  2
Shades of Gray
 70
23
 90
2
 40
0.6
 62
7
290
0
291
0
  0
VISUALSTYLE
  5
6F
102
{ACAD_REACTORS
330
16
102
}
330
16
100
AcDbVisualStyle
  2
Sketchy
 70
24
 90
1
 40
0.6
 62
7
290
0
291
0
  0
VISUALSTYLE
  5
70
102
{ACAD_REACTORS
330
16
102
}
330
16
100
AcDbVisualStyle
  2
Thicken
 70
13
 90
2
 40
0.6
 62
7
290
0
291
1
  0
VISUALSTYLE
  5
71
102
{ACAD_REACTORS
330
16
102
}
330
16
100
AcDbVisualStyle
  2
Wireframe
 70
5
 90
0
 40
0.6
 62
7
290
0
291
0
  0
VISUALSTYLE
  5
72
102
{ACAD_REACTORS
330
16
102
}
330
16
100
AcDbVisualStyle
  2
X-Ray
 70
25
 90
2
 40
0.5
 62
7
290
0
291
0
  0
DICTIONARYVAR
  5
A3
330
2D
100
DictionaryVariables
280
0
  1
1.4.4 @ 2026-07-22T16:05:05.884855+00:00
  0
ENDSEC
  0
EOF
