  0
SECTION
  2
HEADER
  9
$ACADVER
  1
AC1024
  9
$ACADMAINTVER
 70
6
  9
$DWGCODEPAGE
  3
ANSI_1252
  9
$LASTSAVEDBY
  1
ezdxf
  9
$INSBASE
 10
0.0
 20
0.0
 30
0.0
  9
$EXTMIN
 10
1e+20
 20
1e+20
 30
1e+20
  9
$EXTMAX
 10
-1e+20
 20
-1e+20
 30
-1e+20
  9
$LIMMIN
 10
0.0
 20
0.0
  9
$LIMMAX
 10
420.0
 20
297.0
  9
$ORTHOMODE
 70
0
  9
$REGENMODE
 70
1
  9
$FILLMODE
 70
1
  9
$QTEXTMODE
 70
0
  9
$MIRRTEXT
 70
1
  9
$LTSCALE
 40
1.0
  9
$ATTMODE
 70
1
  9
$TEXTSIZE
 40
2.5
  9
$TRACEWID
 40
1.0
  9
$TEXTSTYLE
  7
OpenSans
  9
$CLAYER
  8
0
  9
$CELTYPE
  6
ByLayer
  9
$CECOLOR
 62
256
  9
$CELTSCALE
 40
1.0
  9
$DISPSILH
 70
0
  9
$DIMSCALE
 40
1.0
  9
$DIMASZ
 40
0.175
  9
$DIMEXO
 40
0.125
  9
$DIMDLI
 40
3.75
  9
$DIMRND
 40
0.0
  9
$DIMDLE
 40
0.0
  9
$DIMEXE
 40
0.375
  9
$DIMTP
 40
0.0
  9
$DIMTM
 40
0.0
  9
$DIMTXT
 40
0.25
  9
$DIMCEN
 40
2.5
  9
$DIMTSZ
 40
0.0
  9
$DIMTOL
 70
0
  9
$DIMLIM
 70
0
  9
$DIMTIH
 70
0
  9
$DIMTOH
 70
0
  9
$DIMSE1
 70
0
  9
$DIMSE2
 70
0
  9
$DIMTAD
 70
1
  9
$DIMZIN
 70
12
  9
$DIMBLK
  1
ARCHTICK
  9
$DIMASO
 70
1
  9
$DIMSHO
 70
1
  9
$DIMPOST
  1

  9
$DIMAPOST
  1

  9
$DIMALT
 70
0
  9
$DIMALTD
 70
3
  9
$DIMALTF
 40
0.03937007874
  9
$DIMLFAC
 40
100.0
  9
$DIMTOFL
 70
1
  9
$DIMTVP
 40
0.0
  9
$DIMTIX
 70
0
  9
$DIMSOXD
 70
0
  9
$DIMSAH
 70
0
  9
$DIMBLK1
  1

  9
$DIMBLK2
  1

  9
$DIMSTYLE
  2
EZDXF
  9
$DIMCLRD
 70
0
  9
$DIMCLRE
 70
0
  9
$DIMCLRT
 70
0
  9
$DIMTFAC
 40
0.5
  9
$DIMGAP
 40
0.1
  9
$DIMJUST
 70
0
  9
$DIMSD1
 70
0
  9
$DIMSD2
 70
0
  9
$DIMTOLJ
 70
0
  9
$DIMTZIN
 70
8
  9
$DIMALTZ
 70
0
  9
$DIMALTTZ
 70
0
  9
$DIMUPT
 70
1
  9
$DIMDEC
 70
2
  9
$DIMTDEC
 70
2
  9
$DIMALTU
 70
2
  9
$DIMALTTD
 70
3
  9
$DIMTXSTY
  7
OpenSansCondensed-Light
  9
$DIMAUNIT
 70
0
  9
$DIMADEC
 70
2
  9
$DIMALTRND
 40
0.0
  9
$DIMAZIN
 70
3
  9
$DIMDSEP
 70
46
  9
$DIMATFIT
 70
3
  9
$DIMFRAC
 70
0
  9
$DIMLDRBLK
  1

  9
$DIMLUNIT
 70
2
  9
$DIMLWD
 70
-2
  9
$DIMLWE
 70
-2
  9
$DIMTMOVE
 70
2
  9
$DIMFXL
 40
1.0
  9
$DIMFXLON
 70
0
  9
$DIMJOGANG
 40
0.785398163397
  9
$DIMTFILL
 70
0
  9
$DIMTFILLCLR
 70
0
  9
$DIMARCSYM
 70
0
  9
$DIMLTYPE
  6

  9
$DIMLTEX1
  6

  9
$DIMLTEX2
  6

  9
$DIMTXTDIRECTION
 70
0
  9
$LUNITS
 70
2
  9
$LUPREC
 70
4
  9
$SKETCHINC
 40
1.0
  9
$FILLETRAD
 40
10.0
  9
$AUNITS
 70
0
  9
$AUPREC
 70
2
  9
$MENU
  1
.
  9
$ELEVATION
 40
0.0
  9
$PELEVATION
 40
0.0
  9
$THICKNESS
 40
0.0
  9
$LIMCHECK
 70
0
  9
$CHAMFERA
 40
0.0
  9
$CHAMFERB
 40
0.0
  9
$CHAMFERC
 40
0.0
  9
$CHAMFERD
 40
0.0
  9
$SKPOLY
 70
0
  9
$TDCREATE
 40
2461256.574560185
  9
$TDUCREATE
 40
2458532.153996898
  9
$TDUPDATE
 40
2461256.574560185
  9
$TDUUPDATE
 40
2458532.1544311
  9
$TDINDWG
 40
0.0
  9
$TDUSRTIMER
 40
0.0
  9
$USRTIMER
 70
1
  9
$ANGBASE
 50
0.0
  9
$ANGDIR
 70
0
  9
$PDMODE
 70
0
  9
$PDSIZE
 40
0.0
  9
$PLINEWID
 40
0.0
  9
$SPLFRAME
 70
0
  9
$SPLINETYPE
 70
6
  9
$SPLINESEGS
 70
8
  9
$HANDSEED
  5
AC
  9
$SURFTAB1
 70
6
  9
$SURFTAB2
 70
6
  9
$SURFTYPE
 70
6
  9
$SURFU
 70
6
  9
$SURFV
 70
6
  9
$UCSBASE
  2

  9
$UCSNAME
  2

  9
$UCSORG
 10
0.0
 20
0.0
 30
0.0
  9
$UCSXDIR
 10
1.0
 20
0.0
 30
0.0
  9
$UCSYDIR
 10
0.0
 20
1.0
 30
0.0
  9
$UCSORTHOREF
  2

  9
$UCSORTHOVIEW
 70
0
  9
$UCSORGTOP
 10
0.0
 20
0.0
 30
0.0
  9
$UCSORGBOTTOM
 10
0.0
 20
0.0
 30
0.0
  9
$UCSORGLEFT
 10
0.0
 20
0.0
 30
0.0
  9
$UCSORGRIGHT
 10
0.0
 20
0.0
 30
0.0
  9
$UCSORGFRONT
 10
0.0
 20
0.0
 30
0.0
  9
$UCSORGBACK
 10
0.0
 20
0.0
 30
0.0
  9
$PUCSBASE
  2

  9
$PUCSNAME
  2

  9
$PUCSORG
 10
0.0
 20
0.0
 30
0.0
  9
$PUCSXDIR
 10
1.0
 20
0.0
 30
0.0
  9
$PUCSYDIR
 10
0.0
 20
1.0
 30
0.0
  9
$PUCSORTHOREF
  2

  9
$PUCSORTHOVIEW
 70
0
  9
$PUCSORGTOP
 10
0.0
 20
0.0
 30
0.0
  9
$PUCSORGBOTTOM
 10
0.0
 20
0.0
 30
0.0
  9
$PUCSORGLEFT
 10
0.0
 20
0.0
 30
0.0
  9
$PUCSORGRIGHT
 10
0.0
 20
0.0
 30
0.0
  9
$PUCSORGFRONT
 10
0.0
 20
0.0
 30
0.0
  9
$PUCSORGBACK
 10
0.0
 20
0.0
 30
0.0
  9
$USERI1
 70
0
  9
$USERI2
 70
0
  9
$USERI3
 70
0
  9
$USERI4
 70
0
  9
$USERI5
 70
0
  9
$USERR1
 40
0.0
  9
$USERR2
 40
0.0
  9
$USERR3
 40
0.0
  9
$USERR4
 40
0.0
  9
$USERR5
 40
0.0
  9
$WORLDVIEW
 70
1
  9
$SHADEDGE
 70
3
  9
$SHADEDIF
 70
70
  9
$TILEMODE
 70
1
  9
$MAXACTVP
 70
64
  9
$PINSBASE
 10
0.0
 20
0.0
 30
0.0
  9
$PLIMCHECK
 70
0
  9
$PEXTMIN
 10
1e+20
 20
1e+20
 30
1e+20
  9
$PEXTMAX
 10
-1e+20
 20
-1e+20
 30
-1e+20
  9
$PLIMMIN
 10
0.0
 20
0.0
  9
$PLIMMAX
 10
420.0
 20
297.0
  9
$UNITMODE
 70
0
  9
$VISRETAIN
 70
1
  9
$PLINEGEN
 70
0
  9
$PSLTSCALE
 70
1
  9
$TREEDEPTH
 70
3020
  9
$CMLSTYLE
  2
Standard
  9
$CMLJUST
 70
0
  9
$CMLSCALE
 40
20.0
  9
$PROXYGRAPHICS
 70
1
  9
$MEASUREMENT
 70
1
  9
$CELWEIGHT
370
-1
  9
$ENDCAPS
280
0
  9
$JOINSTYLE
280
0
  9
$LWDISPLAY
290
0
  9
$INSUNITS
 70
6
  9
$HYPERLINKBASE
  1

  9
$STYLESHEET
  1

  9
$XEDIT
290
1
  9
$CEPSNTYPE
380
0
  9
$PSTYLEMODE
290
1
  9
$FINGERPRINTGUID
  2
{EF062CA1-71B5-4FB2-A9A4-F6111BF103A0}
  9
$VERSIONGUID
  2
{A55AD6D1-68F8-4B54-852F-0C56ED77F338}
  9
$EXTNAMES
290
1
  9
$PSVPSCALE
 40
0.0
  9
$OLESTARTUP
290
0
  9
$SORTENTS
280
127
  9
$INDEXCTL
280
0
  9
$HIDETEXT
280
1
  9
$XCLIPFRAME
280
1
  9
$HALOGAP
280
0
  9
$OBSCOLOR
 70
257
  9
$OBSLTYPE
280
0
  9
$INTERSECTIONDISPLAY
280
0
  9
$INTERSECTIONCOLOR
 70
257
  9
$DIMASSOC
280
2
  9
$PROJECTNAME
  1

  9
$CAMERADISPLAY
290
0
  9
$LENSLENGTH
 40
50.0
  9
$CAMERAHEIGHT
 40
0.0
  9
$STEPSPERSEC
 40
24.0
  9
$STEPSIZE
 40
100.0
  9
$3DDWFPREC
 40
2.0
  9
$PSOLWIDTH
 40
0.005
  9
$PSOLHEIGHT
 40
0.08
  9
$LOFTANG1
 40
1.570796326795
  9
$LOFTANG2
 40
1.570796326795
  9
$LOFTMAG1
 40
0.0
  9
$LOFTMAG2
 40
0.0
  9
$LOFTPARAM
 70
7
  9
$LOFTNORMALS
280
1
  9
$LATITUDE
 40
37.795
  9
$LONGITUDE
 40
-122.394
  9
$NORTHDIRECTION
 40
0.0
  9
$TIMEZONE
 70
-8000
  9
$LIGHTGLYPHDISPLAY
280
1
  9
$TILEMODELIGHTSYNCH
280
1
  9
$CMATERIAL
347
20
  9
$SOLIDHIST
280
0
  9
$SHOWHIST
280
1
  9
$DWFFRAME
280
2
  9
$DGNFRAME
280
2
  9
$REALWORLDSCALE
290
1
  9
$INTERFERECOLOR
 62
256
  9
$CSHADOW
280
0
  9
$SHADOWPLANELOCATION
 40
0.0
  0
ENDSEC
  0
SECTION
  2
CLASSES
  0
CLASS
  1
ACDBDICTIONARYWDFLT
  2
AcDbDictionaryWithDefault
  3
ObjectDBX Classes
 90
0
 91
0
280
0
281
0
  0
CLASS
  1
SUN
  2
AcDbSun
  3
SCENEOE
 90
1153
 91
0
280
0
281
0
  0
CLASS
  1
VISUALSTYLE
  2
AcDbVisualStyle
  3
ObjectDBX Classes
 90
4095
 91
0
280
0
281
0
  0
CLASS
  1
MATERIAL
  2
AcDbMaterial
  3
ObjectDBX Classes
 90
1153
 91
0
280
0
281
0
  0
CLASS
  1
SCALE
  2
AcDbScale
  3
ObjectDBX Classes
 90
1153
 91
0
280
0
281
0
  0
CLASS
  1
TABLESTYLE
  2
AcDbTableStyle
  3
ObjectDBX Classes
 90
4095
 91
0
280
0
281
0
  0
CLASS
  1
MLEADERSTYLE
  2
AcDbMLeaderStyle
  3
ACDB_MLEADERSTYLE_CLASS
 90
4095
 91
0
280
0
281
0
  0
CLASS
  1
DICTIONARYVAR
  2
AcDbDictionaryVar
  3
ObjectDBX Classes
 90
0
 91
0
280
0
281
0
  0
CLASS
  1
CELLSTYLEMAP
  2
AcDbCellStyleMap
  3
ObjectDBX Classes
 90
1152
 91
0
280
0
281
0
  0
CLASS
  1
MENTALRAYRENDERSETTINGS
  2
AcDbMentalRayRenderSettings
  3
SCENEOE
 90
1024
 91
0
280
0
281
0
  0
CLASS
  1
ACDBDETAILVIEWSTYLE
  2
AcDbDetailViewStyle
  3
ObjectDBX Classes
 90
1025
 91
0
280
0
281
0
  0
CLASS
  1
ACDBSECTIONVIEWSTYLE
  2
AcDbSectionViewStyle
  3
ObjectDBX Classes
 90
1025
 91
0
280
0
281
0
  0
CLASS
  1
RASTERVARIABLES
  2
AcDbRasterVariables
  3
ISM
 90
0
 91
0
280
0
281
0
  0
CLASS
  1
ACDBPLACEHOLDER
  2
AcDbPlaceHolder
  3
ObjectDBX Classes
 90
0
 91
0
280
0
281
0
  0
CLASS
  1
LAYOUT
  2
AcDbLayout
  3
ObjectDBX Classes
 90
0
 91
0
280
0
281
0
  0
ENDSEC
  0
SECTION
  2
TABLES
  0
TABLE
  2
VPORT
  5
8
330
0
100
AcDbSymbolTable
 70
1
  0
VPORT
  5
23
330
8
100
AcDbSymbolTableRecord
100
AcDbViewportTableRecord
  2
*Active
 70
0
 10
0.0
 20
0.0
 11
1.0
 21
1.0
 12
0.0
 22
0.0
 13
0.0
 23
0.0
 14
0.5
 24
0.5
 15
0.5
 25
0.5
 16
0.0
 26
0.0
 36
1.0
 17
0.0
 27
0.0
 37
0.0
 40
1000.0
 41
1.34
 42
50.0
 43
0.0
 44
0.0
 50
0.0
 51
0.0
 71
0
 72
1000
 73
1
 74
3
 75
0
 76
0
 77
0
 78
0
281
0
 65
0
146
0.0
  0
ENDTAB
  0
TABLE
  2
LTYPE
  5
2
330
0
100
AcDbSymbolTable
 70
21
  0
LTYPE
  5
24
330
2
100
AcDbSymbolTableRecord
100
AcDbLinetypeTableRecord
  2
ByBlock
 70
0
  3

 72
65
 73
0
 40
0.0
  0
LTYPE
  5
25
330
2
100
AcDbSymbolTableRecord
100
AcDbLinetypeTableRecord
  2
ByLayer
 70
0
  3

 72
65
 73
0
 40
0.0
  0
LTYPE
  5
26
330
2
100
AcDbSymbolTableRecord
100
AcDbLinetypeTableRecord
  2
Continuous
 70
0
  3

 72
65
 73
0
 40
0.0
  0
LTYPE
  5
2F
330
2
100
AcDbSymbolTableRecord
100
AcDbLinetypeTableRecord
  2
CENTER
 70
0
  3
Center ____ _ ____ _ ____ _ ____ _ ____ _ ____
 72
65
 73
4
 40
5.08
 49
3.175
 74
0
 49
-0.635
 74
0
 49
0.635
 74
0
 49
-0.635
 74
0
  0
LTYPE
  5
30
330
2
100
AcDbSymbolTableRecord
100
AcDbLinetypeTableRecord
  2
CENTERX2
 70
0
  3
Center (2x) ________  __  ________  __  ________
 72
65
 73
4
 40
8.89
 49
6.35
 74
0
 49
-0.635
 74
0
 49
1.27
 74
0
 49
-0.635
 74
0
  0
LTYPE
  5
31
330
2
100
AcDbSymbolTableRecord
100
AcDbLinetypeTableRecord
  2
CENTER2
 70
0
  3
Center (.5x) ____ _ ____ _ ____ _ ____ _ ____
 72
65
 73
4
 40
2.54
 49
1.587
 74
0
 49
-0.318
 74
0
 49
0.318
 74
0
 49
-0.318
 74
0
  0
LTYPE
  5
32
330
2
100
AcDbSymbolTableRecord
100
AcDbLinetypeTableRecord
  2
DASHED
 70
0
  3
Dashed __ __ __ __ __ __ __ __ __ __ __ __ __ _
 72
65
 73
2
 40
1.524
 49
1.27
 74
0
 49
-0.254
 74
0
  0
LTYPE
  5
33
330
2
100
AcDbSymbolTableRecord
100
AcDbLinetypeTableRecord
  2
DASHEDX2
 70
0
  3
Dashed (2x) ____  ____  ____  ____  ____  ____
 72
65
 73
2
 40
3.048
 49
2.54
 74
0
 49
-0.508
 74
0
  0
LTYPE
  5
34
330
2
100
AcDbSymbolTableRecord
100
AcDbLinetypeTableRecord
  2
DASHED2
 70
0
  3
Dashed (.5x) _ _ _ _ _ _ _ _ _ _ _ _ _ _
 72
65
 73
2
 40
0.762
 49
0.635
 74
0
 49
-0.127
 74
0
  0
LTYPE
  5
35
330
2
100
AcDbSymbolTableRecord
100
AcDbLinetypeTableRecord
  2
PHANTOM
 70
0
  3
Phantom ______  __  __  ______  __  __  ______
 72
65
 73
6
 40
6.35
 49
3.175
 74
0
 49
-0.635
 74
0
 49
0.635
 74
0
 49
-0.635
 74
0
 49
0.635
 74
0
 49
-0.635
 74
0
  0
LTYPE
  5
36
330
2
100
AcDbSymbolTableRecord
100
AcDbLinetypeTableRecord
  2
PHANTOMX2
 70
0
  3
Phantom (2x)____________    ____    ____    ____________
 72
65
 73
6
 40
10.795
 49
6.35
 74
0
 49
-0.635
 74
0
 49
1.27
 74
0
 49
-0.635
 74
0
 49
1.27
 74
0
 49
-0.635
 74
0
  0
LTYPE
  5
37
330
2
100
AcDbSymbolTableRecord
100
AcDbLinetypeTableRecord
  2
PHANTOM2
 70
0
  3
Phantom (.5x) ___ _ _ ___ _ _ ___ _ _ ___ _ _ ___
 72
65
 73
6
 40
3.175
 49
1.587
 74
0
 49
-0.318
 74
0
 49
0.318
 74
0
 49
-0.318
 74
0
 49
0.318
 74
0
 49
-0.318
 74
0
  0
LTYPE
  5
38
330
2
100
AcDbSymbolTableRecord
100
AcDbLinetypeTableRecord
  2
DASHDOT
 70
0
  3
Dash dot __ . __ . __ . __ . __ . __ . __ . __
 72
65
 73
4
 40
3.556
 49
2.54
 74
0
 49
-0.508
 74
0
 49
0.0
 74
0
 49
-0.508
 74
0
  0
LTYPE
  5
39
330
2
100
AcDbSymbolTableRecord
100
AcDbLinetypeTableRecord
  2
DASHDOTX2
 70
0
  3
Dash dot (2x) ____  .  ____  .  ____  .  ____
 72
65
 73
4
 40
6.096
 49
5.08
 74
0
 49
-0.508
 74
0
 49
0.0
 74
0
 49
-0.508
 74
0
  0
LTYPE
  5
3A
330
2
100
AcDbSymbolTableRecord
100
AcDbLinetypeTableRecord
  2
DASHDOT2
 70
0
  3
Dash dot (.5x) _ . _ . _ . _ . _ . _ . _ . _
 72
65
 73
4
 40
1.778
 49
1.27
 74
0
 49
-0.254
 74
0
 49
0.0
 74
0
 49
-0.254
 74
0
  0
LTYPE
  5
3B
330
2
100
AcDbSymbolTableRecord
100
AcDbLinetypeTableRecord
  2
DOT
 70
0
  3
Dot .  .  .  .  .  .  .  .  .  .  .  .  .  .  .  .
 72
65
 73
2
 40
0.508
 49
0.0
 74
0
 49
-0.508
 74
0
  0
LTYPE
  5
3C
330
2
100
AcDbSymbolTableRecord
100
AcDbLinetypeTableRecord
  2
DOTX2
 70
0
  3
Dot (2x) .    .    .    .    .    .    .    . 
 72
65
 73
2
 40
1.016
 49
0.0
 74
0
 49
-1.016
 74
0
  0
LTYPE
  5
3D
330
2
100
AcDbSymbolTableRecord
100
AcDbLinetypeTableRecord
  2
DOT2
 70
0
  3
Dot (.5) . . . . . . . . . . . . . . . . . . . 
 72
65
 73
2
 40
0.254
 49
0.0
 74
0
 49
-0.254
 74
0
  0
LTYPE
  5
3E
330
2
100
AcDbSymbolTableRecord
100
AcDbLinetypeTableRecord
  2
DIVIDE
 70
0
  3
Divide __ . . __ . . __ . . __ . . __ . . __
 72
65
 73
6
 40
4.064
 49
2.54
 74
0
 49
-0.508
 74
0
 49
0.0
 74
0
 49
-0.508
 74
0
 49
0.0
 74
0
 49
-0.508
 74
0
  0
LTYPE
  5
3F
330
2
100
AcDbSymbolTableRecord
100
AcDbLinetypeTableRecord
  2
DIVIDEX2
 70
0
  3
Divide (2x) ____  . .  ____  . .  ____  . .  ____
 72
65
 73
6
 40
6.604
 49
5.08
 74
0
 49
-0.508
 74
0
 49
0.0
 74
0
 49
-0.508
 74
0
 49
0.0
 74
0
 49
-0.508
 74
0
  0
LTYPE
  5
40
330
2
100
AcDbSymbolTableRecord
100
AcDbLinetypeTableRecord
  2
DIVIDE2
 70
0
  3
Divide(.5x) _ . _ . _ . _ . _ . _ . _ . _
 72
65
 73
6
 40
2.032
 49
1.27
 74
0
 49
-0.254
 74
0
 49
0.0
 74
0
 49
-0.254
 74
0
 49
0.0
 74
0
 49
-0.254
 74
0
  0
ENDTAB
  0
TABLE
  2
LAYER
  5
1
330
0
100
AcDbSymbolTable
 70
5
  0
LAYER
  5
27
330
1
100
AcDbSymbolTableRecord
100
AcDbLayerTableRecord
  2
0
 70
0
 62
7
  6
Continuous
370
-3
390
13
347
21
  0
LAYER
  5
28
330
1
100
AcDbSymbolTableRecord
100
AcDbLayerTableRecord
  2
Defpoints
 70
0
 62
7
  6
Continuous
290
0
370
-3
390
13
347
21
  0
LAYER
  5
8A
330
1
100
AcDbSymbolTableRecord
100
AcDbLayerTableRecord
  2
UST_KATMAN_KESIM
 70
0
 62
1
  6
Continuous
370
-3
390
13
347
21
  0
LAYER
  5
8B
330
1
100
AcDbSymbolTableRecord
100
AcDbLayerTableRecord
  2
ALT_KATMAN_KESIM
 70
0
 62
5
  6
Continuous
370
-3
390
13
347
21
  0
LAYER
  5
8C
330
1
100
AcDbSymbolTableRecord
100
AcDbLayerTableRecord
  2
YAZI
 70
0
 62
3
  6
Continuous
370
-3
390
13
347
21
  0
ENDTAB
  0
TABLE
  2
STYLE
  5
5
330
0
100
AcDbSymbolTable
 70
26
  0
STYLE
  5
29
330
5
100
AcDbSymbolTableRecord
100
AcDbTextStyleTableRecord
  2
Standard
 70
0
 40
0.0
 41
1.0
 50
0.0
 71
0
 42
2.5
  3
txt
  4

  0
STYLE
  5
41
330
5
100
AcDbSymbolTableRecord
100
AcDbTextStyleTableRecord
  2
OpenSans-Light
 70
0
 40
0.0
 41
1.0
 50
0.0
 71
0
 42
2.5
  3
OpenSans-Light.ttf
  4

  0
STYLE
  5
42
330
5
100
AcDbSymbolTableRecord
100
AcDbTextStyleTableRecord
  2
OpenSans-Light-Italic
 70
0
 40
0.0
 41
1.0
 50
0.0
 71
0
 42
2.5
  3
OpenSans-LightItalic.ttf
  4

  0
STYLE
  5
43
330
5
100
AcDbSymbolTableRecord
100
AcDbTextStyleTableRecord
  2
OpenSans
 70
0
 40
0.0
 41
1.0
 50
0.0
 71
0
 42
2.5
  3
OpenSans-Regular.ttf
  4

  0
STYLE
  5
44
330
5
100
AcDbSymbolTableRecord
100
AcDbTextStyleTableRecord
  2
OpenSans-Italic
 70
0
 40
0.0
 41
1.0
 50
0.0
 71
0
 42
2.5
  3
OpenSans-Italic.ttf
  4

  0
STYLE
  5
45
330
5
100
AcDbSymbolTableRecord
100
AcDbTextStyleTableRecord
  2
OpenSans-SemiBold
 70
0
 40
0.0
 41
1.0
 50
0.0
 71
0
 42
2.5
  3
OpenSans-SemiBold.ttf
  4

  0
STYLE
  5
46
330
5
100
AcDbSymbolTableRecord
100
AcDbTextStyleTableRecord
  2
OpenSans-SemiBoldItalic
 70
0
 40
0.0
 41
1.0
 50
0.0
 71
0
 42
2.5
  3
OpenSans-SemiBoldItalic.ttf
  4

  0
STYLE
  5
47
330
5
100
AcDbSymbolTableRecord
100
AcDbTextStyleTableRecord
  2
OpenSans-Bold
 70
0
 40
0.0
 41
1.0
 50
0.0
 71
0
 42
2.5
  3
OpenSans-Bold.ttf
  4

  0
STYLE
  5
48
330
5
100
AcDbSymbolTableRecord
100
AcDbTextStyleTableRecord
  2
OpenSans-BoldItalic
 70
0
 40
0.0
 41
1.0
 50
0.0
 71
0
 42
2.5
  3
OpenSans-BoldItalic.ttf
  4

  0
STYLE
  5
49
330
5
100
AcDbSymbolTableRecord
100
AcDbTextStyleTableRecord
  2
OpenSans-ExtraBold
 70
0
 40
0.0
 41
1.0
 50
0.0
 71
0
 42
2.5
  3
OpenSans-ExtraBold.ttf
  4

  0
STYLE
  5
4A
330
5
100
AcDbSymbolTableRecord
100
AcDbTextStyleTableRecord
  2
OpenSans-ExtraBoldItalic
 70
0
 40
0.0
 41
1.0
 50
0.0
 71
0
 42
2.5
  3
OpenSans-ExtraBoldItalic.ttf
  4

  0
STYLE
  5
4B
330
5
100
AcDbSymbolTableRecord
100
AcDbTextStyleTableRecord
  2
OpenSansCondensed-Bold
 70
0
 40
0.0
 41
1.0
 50
0.0
 71
0
 42
2.5
  3
OpenSansCondensed-Bold.ttf
  4

  0
STYLE
  5
4C
330
5
100
AcDbSymbolTableRecord
100
AcDbTextStyleTableRecord
  2
OpenSansCondensed-Light
 70
0
 40
0.0
 41
1.0
 50
0.0
 71
0
 42
2.5
  3
OpenSansCondensed-Light.ttf
  4

  0
STYLE
  5
4D
330
5
100
AcDbSymbolTableRecord
100
AcDbTextStyleTableRecord
  2
OpenSansCondensed-Italic
 70
0
 40
0.0
 41
1.0
 50
0.0
 71
0
 42
2.5
  3
OpenSansCondensed-LightItalic.ttf
  4

  0
STYLE
  5
4E
330
5
100
AcDbSymbolTableRecord
100
AcDbTextStyleTableRecord
  2
LiberationSans
 70
0
 40
0.0
 41
1.0
 50
0.0
 71
0
 42
2.5
  3
LiberationSans-Regular.ttf
  4

  0
STYLE
  5
4F
330
5
100
AcDbSymbolTableRecord
100
AcDbTextStyleTableRecord
  2
LiberationSans-Bold
 70
0
 40
0.0
 41
1.0
 50
0.0
 71
0
 42
2.5
  3
LiberationSans-Bold.ttf
  4

  0
STYLE
  5
50
330
5
100
AcDbSymbolTableRecord
100
AcDbTextStyleTableRecord
  2
LiberationSans-BoldItalic
 70
0
 40
0.0
 41
1.0
 50
0.0
 71
0
 42
2.5
  3
LiberationSans-BoldItalic.ttf
  4

  0
STYLE
  5
51
330
5
100
AcDbSymbolTableRecord
100
AcDbTextStyleTableRecord
  2
LiberationSans-Italic
 70
0
 40
0.0
 41
1.0
 50
0.0
 71
0
 42
2.5
  3
LiberationSans-Italic.ttf
  4

  0
STYLE
  5
52
330
5
100
AcDbSymbolTableRecord
100
AcDbTextStyleTableRecord
  2
LiberationSerif
 70
0
 40
0.0
 41
1.0
 50
0.0
 71
0
 42
2.5
  3
LiberationSerif-Regular.ttf
  4

  0
STYLE
  5
53
330
5
100
AcDbSymbolTableRecord
100
AcDbTextStyleTableRecord
  2
LiberationSerif-Bold
 70
0
 40
0.0
 41
1.0
 50
0.0
 71
0
 42
2.5
  3
LiberationSerif-Bold.ttf
  4

  0
STYLE
  5
54
330
5
100
AcDbSymbolTableRecord
100
AcDbTextStyleTableRecord
  2
LiberationSerif-BoldItalic
 70
0
 40
0.0
 41
1.0
 50
0.0
 71
0
 42
2.5
  3
LiberationSerif-BoldItalic.ttf
  4

  0
STYLE
  5
55
330
5
100
AcDbSymbolTableRecord
100
AcDbTextStyleTableRecord
  2
LiberationSerif-Italic
 70
0
 40
0.0
 41
1.0
 50
0.0
 71
0
 42
2.5
  3
LiberationSerif-Italic.ttf
  4

  0
STYLE
  5
56
330
5
100
AcDbSymbolTableRecord
100
AcDbTextStyleTableRecord
  2
LiberationMono
 70
0
 40
0.0
 41
1.0
 50
0.0
 71
0
 42
2.5
  3
LiberationMono-Regular.ttf
  4

  0
STYLE
  5
57
330
5
100
AcDbSymbolTableRecord
100
AcDbTextStyleTableRecord
  2
LiberationMono-Bold
 70
0
 40
0.0
 41
1.0
 50
0.0
 71
0
 42
2.5
  3
LiberationMono-Bold.ttf
  4

  0
STYLE
  5
58
330
5
100
AcDbSymbolTableRecord
100
AcDbTextStyleTableRecord
  2
LiberationMono-BoldItalic
 70
0
 40
0.0
 41
1.0
 50
0.0
 71
0
 42
2.5
  3
LiberationMono-BoldItalic.ttf
  4

  0
STYLE
  5
59
330
5
100
AcDbSymbolTableRecord
100
AcDbTextStyleTableRecord
  2
LiberationMono-Italic
 70
0
 40
0.0
 41
1.0
 50
0.0
 71
0
 42
2.5
  3
LiberationMono-Italic.ttf
  4

  0
ENDTAB
  0
TABLE
  2
VIEW
  5
7
330
0
100
AcDbSymbolTable
 70
0
  0
ENDTAB
  0
TABLE
  2
UCS
  5
6
330
0
100
AcDbSymbolTable
 70
0
  0
ENDTAB
  0
TABLE
  2
APPID
  5
3
330
0
100
AcDbSymbolTable
 70
3
  0
APPID
  5
2A
330
3
100
AcDbSymbolTableRecord
100
AcDbRegAppTableRecord
  2
ACAD
 70
0
  0
APPID
  5
A9
330
3
100
AcDbSymbolTableRecord
100
AcDbRegAppTableRecord
  2
HATCHBACKGROUNDCOLOR
 70
0
  0
APPID
  5
AA
330
3
100
AcDbSymbolTableRecord
100
AcDbRegAppTableRecord
  2
EZDXF
 70
0
  0
ENDTAB
  0
TABLE
  2
DIMSTYLE
  5
4
330
0
100
AcDbSymbolTable
 70
12
100
AcDbDimStyleTable
  0
DIMSTYLE
105
2B
330
4
100
AcDbSymbolTableRecord
100
AcDbDimStyleTableRecord
  2
Standard
 70
0
 40
1.0
 41
2.5
 42
0.625
 43
3.75
 44
1.25
 45
0.0
 46
0.0
 47
0.0
 48
0.0
 49
2.5
140
2.5
141
2.5
142
0.0
143
0.03937007874
144
1.0
145
0.0
146
1.0
147
0.625
148
0.0
 69
0
 70
0
 71
0
 72
0
 73
0
 74
0
 75
0
 76
0
 77
1
 78
8
 79
3
170
0
171
3
172
1
173
0
174
0
175
0
176
0
177
0
178
0
179
2
271
2
272
2
273
2
274
3
275
0
276
0
277
2
278
44
279
0
280
0
281
0
282
0
283
0
284
8
285
0
286
0
288
0
289
3
290
0
371
-2
372
-2
  0
DIMSTYLE
105
73
330
4
100
AcDbSymbolTableRecord
100
AcDbDimStyleTableRecord
  2
EZDXF
 70
0
 40
1.0
 41
0.175
 42
0.125
 43
3.75
 44
0.375
 45
0.0
 46
0.0
 47
0.0
 48
0.0
 49
2.5
140
0.25
141
2.5
142
0.0
143
0.03937007874
144
100.0
145
0.0
146
0.5
147
0.1
148
0.0
 69
0
 70
0
 71
0
 72
0
 73
0
 74
0
 75
0
 76
0
 77
1
 78
12
 79
3
170
0
171
3
172
1
173
0
174
0
175
0
176
0
177
0
178
0
179
2
271
2
272
2
273
2
274
3
275
0
276
0
277
2
278
46
279
2
280
0
281
0
282
0
283
0
284
8
285
0
286
0
288
1
289
3
290
0
340
4C
342
74
371
-2
372
-2
  0
DIMSTYLE
105
7C
330
4
100
AcDbSymbolTableRecord
100
AcDbDimStyleTableRecord
  2
EZ_M_100_H25_CM
 70
0
 40
1.0
 41
0.25
 42
0.125
 43
3.75
 44
0.375
 45
0.0
 46
0.0
 47
0.0
 48
0.0
 49
2.5
140
0.25
141
2.5
142
0.125
143
0.03937007874
144
100.0
145
0.0
146
0.5
147
0.1
148
0.0
 69
0
 70
0
 71
0
 72
0
 73
0
 74
0
 75
0
 76
0
 77
1
 78
12
 79
3
170
0
171
3
172
1
173
0
174
0
175
0
176
0
177
0
178
0
179
2
271
2
272
2
273
2
274
3
275
0
276
0
277
2
278
46
279
2
280
0
281
0
282
0
283
0
284
8
285
0
286
0
288
1
289
3
290
0
340
4C
371
-2
372
-2
  0
DIMSTYLE
105
7D
330
4
100
AcDbSymbolTableRecord
100
AcDbDimStyleTableRecord
  2
EZ_M_50_H25_CM
 70
0
 40
1.0
 41
0.125
 42
0.0625
 43
3.75
 44
0.1875
 45
0.0
 46
0.0
 47
0.0
 48
0.0
 49
2.5
140
0.125
141
2.5
142
0.0625
143
0.03937007874
144
100.0
145
0.0
146
0.5
147
0.05
148
0.0
 69
0
 70
0
 71
0
 72
0
 73
0
 74
0
 75
0
 76
0
 77
1
 78
12
 79
3
170
0
171
3
172
1
173
0
174
0
175
0
176
0
177
0
178
0
179
2
271
2
272
2
273
2
274
3
275
0
276
0
277
2
278
46
279
2
280
0
281
0
282
0
283
0
284
8
285
0
286
0
288
1
289
3
290
0
340
4C
371
-2
372
-2
  0
DIMSTYLE
105
7E
330
4
100
AcDbSymbolTableRecord
100
AcDbDimStyleTableRecord
  2
EZ_M_25_H25_CM
 70
0
 40
1.0
 41
0.0625
 42
0.03125
 43
3.75
 44
0.09375
 45
0.0
 46
0.0
 47
0.0
 48
0.0
 49
2.5
140
0.0625
141
2.5
142
0.03125
143
0.03937007874
144
100.0
145
0.0
146
0.5
147
0.025
148
0.0
 69
0
 70
0
 71
0
 72
0
 73
0
 74
0
 75
0
 76
0
 77
1
 78
12
 79
3
170
0
171
3
172
1
173
0
174
0
175
0
176
0
177
0
178
0
179
2
271
2
272
2
273
2
274
3
275
0
276
0
277
2
278
46
279
2
280
0
281
0
282
0
283
0
284
8
285
0
286
0
288
1
289
3
290
0
340
4C
371
-2
372
-2
  0
DIMSTYLE
105
7F
330
4
100
AcDbSymbolTableRecord
100
AcDbDimStyleTableRecord
  2
EZ_M_20_H25_CM
 70
0
 40
1.0
 41
0.05
 42
0.025
 43
3.75
 44
0.07500000000000001
 45
0.0
 46
0.0
 47
0.0
 48
0.0
 49
2.5
140
0.05
141
2.5
142
0.025
143
0.03937007874
144
100.0
145
0.0
146
0.5
147
0.020000000000000004
148
0.0
 69
0
 70
0
 71
0
 72
0
 73
0
 74
0
 75
0
 76
0
 77
1
 78
12
 79
3
170
0
171
3
172
1
173
0
174
0
175
0
176
0
177
0
178
0
179
2
271
2
272
2
273
2
274
3
275
0
276
0
277
2
278
46
279
2
280
0
281
0
282
0
283
0
284
8
285
0
286
0
288
1
289
3
290
0
340
4C
371
-2
372
-2
  0
DIMSTYLE
105
80
330
4
100
AcDbSymbolTableRecord
100
AcDbDimStyleTableRecord
  2
EZ_M_10_H25_CM
 70
0
 40
1.0
 41
0.025
 42
0.0125
 43
3.75
 44
0.037500000000000006
 45
0.0
 46
0.0
 47
0.0
 48
0.0
 49
2.5
140
0.025
141
2.5
142
0.0125
143
0.03937007874
144
100.0
145
0.0
146
0.5
147
0.010000000000000002
148
0.0
 69
0
 70
0
 71
0
 72
0
 73
0
 74
0
 75
0
 76
0
 77
1
 78
12
 79
3
170
0
171
3
172
1
173
0
174
0
175
0
176
0
177
0
178
0
179
2
271
2
272
2
273
2
274
3
275
0
276
0
277
2
278
46
279
2
280
0
281
0
282
0
283
0
284
8
285
0
286
0
288
1
289
3
290
0
340
4C
371
-2
372
-2
  0
DIMSTYLE
105
81
330
4
100
AcDbSymbolTableRecord
100
AcDbDimStyleTableRecord
  2
EZ_M_5_H25_CM
 70
0
 40
1.0
 41
0.0125
 42
0.00625
 43
3.75
 44
0.018750000000000003
 45
0.0
 46
0.0
 47
0.0
 48
0.0
 49
2.5
140
0.0125
141
2.5
142
0.00625
143
0.03937007874
144
100.0
145
0.0
146
0.5
147
0.005000000000000001
148
0.0
 69
0
 70
0
 71
0
 72
0
 73
0
 74
0
 75
0
 76
0
 77
1
 78
12
 79
3
170
0
171
3
172
1
173
0
174
0
175
0
176
0
177
0
178
0
179
2
271
2
272
2
273
2
274
3
275
0
276
0
277
2
278
46
279
2
280
0
281
0
282
0
283
0
284
8
285
0
286
0
288
1
289
3
290
0
340
4C
371
-2
372
-2
  0
DIMSTYLE
105
82
330
4
100
AcDbSymbolTableRecord
100
AcDbDimStyleTableRecord
  2
EZ_M_1_H25_CM
 70
0
 40
1.0
 41
0.0025
 42
0.00125
 43
3.75
 44
0.00375
 45
0.0
 46
0.0
 47
0.0
 48
0.0
 49
2.5
140
0.0025
141
2.5
142
0.00125
143
0.03937007874
144
100.0
145
0.0
146
0.5
147
0.001
148
0.0
 69
0
 70
0
 71
0
 72
0
 73
0
 74
0
 75
0
 76
0
 77
1
 78
12
 79
3
170
0
171
3
172
1
173
0
174
0
175
0
176
0
177
0
178
0
179
2
271
2
272
2
273
2
274
3
275
0
276
0
277
2
278
46
279
2
280
0
281
0
282
0
283
0
284
8
285
0
286
0
288
1
289
3
290
0
340
4C
371
-2
372
-2
  0
DIMSTYLE
105
83
330
4
100
AcDbSymbolTableRecord
100
AcDbDimStyleTableRecord
  2
EZ_RADIUS
 70
0
 40
1.0
 41
0.25
 42
0.125
 43
3.75
 44
0.375
 45
0.0
 46
0.0
 47
0.0
 48
0.0
 49
2.5
140
0.25
141
0.0
142
0.0
143
0.03937007874
144
100.0
145
0.0
146
0.5
147
0.1
148
0.0
 69
0
 70
0
 71
0
 72
0
 73
0
 74
0
 75
0
 76
0
 77
1
 78
12
 79
3
170
0
171
3
172
0
173
0
174
0
175
0
176
0
177
0
178
0
179
2
271
2
272
2
273
2
274
3
275
0
276
0
277
2
278
46
279
1
280
0
281
0
282
0
283
0
284
8
285
0
286
0
288
1
289
3
290
0
340
4C
342
84
371
-2
372
-2
  0
DIMSTYLE
105
88
330
4
100
AcDbSymbolTableRecord
100
AcDbDimStyleTableRecord
  2
EZ_RADIUS_INSIDE
 70
0
 40
1.0
 41
0.25
 42
0.125
 43
3.75
 44
0.375
 45
0.0
 46
0.0
 47
0.0
 48
0.0
 49
2.5
140
0.25
141
0.0
142
0.0
143
0.03937007874
144
100.0
145
0.0
146
0.5
147
0.1
148
0.0
 69
0
 70
0
 71
0
 72
0
 73
0
 74
0
 75
0
 76
0
 77
0
 78
12
 79
3
170
0
171
3
172
0
173
0
174
1
175
0
176
0
177
0
178
0
179
2
271
2
272
2
273
2
274
3
275
0
276
0
277
2
278
46
279
0
280
0
281
0
282
0
283
0
284
8
285
0
286
0
288
1
289
0
290
0
340
4C
342
84
371
-2
372
-2
  0
DIMSTYLE
105
89
330
4
100
AcDbSymbolTableRecord
100
AcDbDimStyleTableRecord
  2
EZ_CURVED
 70
0
 40
1.0
 41
0.25
 42
0.125
 43
3.75
 44
0.375
 45
0.0
 46
0.0
 47
0.0
 48
0.0
 49
2.5
140
0.25
141
2.5
142
0.0
143
0.03937007874
144
100.0
145
0.0
146
0.5
147
0.1
148
0.0
 69
0
 70
0
 71
0
 72
0
 73
0
 74
0
 75
0
 76
0
 77
1
 78
12
 79
2
 90
2
170
0
171
3
172
1
173
0
174
0
175
0
176
0
177
0
178
0
179
2
271
2
272
2
273
2
274
3
275
0
276
0
277
2
278
46
279
2
280
0
281
0
282
0
283
0
284
8
285
0
286
0
288
1
289
3
290
0
340
4C
371
-2
372
-2
  0
ENDTAB
  0
TABLE
  2
BLOCK_RECORD
  5
9
330
0
100
AcDbSymbolTable
 70
5
  0
BLOCK_RECORD
  5
17
330
9
100
AcDbSymbolTableRecord
100
AcDbBlockTableRecord
  2
*Model_Space
340
1A
 70
0
280
1
281
0
  0
BLOCK_RECORD
  5
1B
330
9
100
AcDbSymbolTableRecord
100
AcDbBlockTableRecord
  2
*Paper_Space
340
1E
 70
0
280
1
281
0
  0
BLOCK_RECORD
  5
74
330
9
100
AcDbSymbolTableRecord
100
AcDbBlockTableRecord
  2
_ARCHTICK
340
0
 70
0
280
1
281
0
  0
BLOCK_RECORD
  5
78
330
9
100
AcDbSymbolTableRecord
100
AcDbBlockTableRecord
  2
_CLOSEDFILLED
340
0
 70
0
280
1
281
0
  0
BLOCK_RECORD
  5
84
330
9
100
AcDbSymbolTableRecord
100
AcDbBlockTableRecord
  2
_CLOSEDBLANK
340
0
 70
0
280
1
281
0
  0
ENDTAB
  0
ENDSEC
  0
SECTION
  2
BLOCKS
  0
BLOCK
  5
18
330
17
100
AcDbEntity
  8
0
100
AcDbBlockBegin
  2
*Model_Space
 70
0
 10
0.0
 20
0.0
 30
0.0
  3
*Model_Space
  1

  0
ENDBLK
  5
19
330
17
100
AcDbEntity
  8
0
100
AcDbBlockEnd
  0
BLOCK
  5
1C
330
1B
100
AcDbEntity
  8
0
100
AcDbBlockBegin
  2
*Paper_Space
 70
0
 10
0.0
 20
0.0
 30
0.0
  3
*Paper_Space
  1

  0
ENDBLK
  5
1D
330
1B
100
AcDbEntity
  8
0
100
AcDbBlockEnd
  0
BLOCK
  5
75
330
74
100
AcDbEntity
  8
0
100
AcDbBlockBegin
  2
_ARCHTICK
 70
0
 10
0.0
 20
0.0
 30
0.0
  3
_ARCHTICK
  1

  0
LWPOLYLINE
  5
77
330
74
100
AcDbEntity
  8
0
  6
BYBLOCK
 62
0
100
AcDbPolyline
 90
2
 70
0
 43
0.15
 10
-0.5
 20
-0.5
 10
0.5
 20
0.5
  0
ENDBLK
  5
76
330
74
100
AcDbEntity
  8
0
100
AcDbBlockEnd
  0
BLOCK
  5
79
330
78
100
AcDbEntity
  8
0
100
AcDbBlockBegin
  2
_CLOSEDFILLED
 70
0
 10
0.0
 20
0.0
 30
0.0
  3
_CLOSEDFILLED
  1

  0
SOLID
  5
7B
330
78
100
AcDbEntity
  8
0
  6
BYBLOCK
 62
0
100
AcDbTrace
 10
-1.0
 20
0.16439898372402537
 30
0.0
 11
0.0
 21
0.0
 31
0.0
 12
-1.0
 22
-0.16439898372402537
 32
0.0
 13
-1.0
 23
-0.16439898372402537
 33
0.0
  0
ENDBLK
  5
7A
330
78
100
AcDbEntity
  8
0
100
AcDbBlockEnd
  0
BLOCK
  5
85
330
84
100
AcDbEntity
  8
0
100
AcDbBlockBegin
  2
_CLOSEDBLANK
 70
0
 10
0.0
 20
0.0
 30
0.0
  3
_CLOSEDBLANK
  1

  0
LWPOLYLINE
  5
87
330
84
100
AcDbEntity
  8
0
  6
BYBLOCK
 62
0
100
AcDbPolyline
 90
3
 70
1
 10
-1.0
 20
0.16439898372402537
 10
0.0
 20
0.0
 10
-1.0
 20
-0.16439898372402537
  0
ENDBLK
  5
86
330
84
100
AcDbEntity
  8
0
100
AcDbBlockEnd
  0
ENDSEC
  0
SECTION
  2
ENTITIES
  0
LWPOLYLINE
  5
8D
330
17
100
AcDbEntity
  8
UST_KATMAN_KESIM
100
AcDbPolyline
 90
69
 70
1
 10
312.0
 20
180.0
 10
8.0
 20
180.0
 10
7.215862877363515
 20
179.96147781337757
 10
6.4392774238709745
 20
179.84628224322586
 10
5.677722581964303
 20
179.65552268585768
 10
4.938532541079282
 20
179.3910362600903
 10
4.228826105392018
 20
179.05537011478685
 10
3.5554381358431844
 20
178.65175689842036
 10
2.924853726690837
 20
178.1840836269019
 10
2.3431457505076203
 20
177.65685424949237
 10
1.815916373098104
 20
177.07514627330917
 10
1.3482431015796372
 20
176.4445618641568
 10
0.9446298852131605
 20
175.77117389460798
 10
0.6089637399097061
 20
175.06146745892073
 10
0.3444773141423294
 20
174.3222774180357
 10
0.15371775677415656
 20
173.56072257612902
 10
0.03852218662242546
 20
172.78413712263648
 10
0.0
 20
172.0
 10
0.0
 20
8.0
 10
0.03852218662242546
 20
7.21586287736352
 10
0.15371775677415656
 20
6.439277423870976
 10
0.3444773141423294
 20
5.677722581964304
 10
0.6089637399097061
 20
4.938532541079269
 10
0.9446298852131605
 20
4.228826105392017
 10
1.3482431015796372
 20
3.5554381358431897
 10
1.815916373098104
 20
2.924853726690827
 10
2.3431457505076203
 20
2.343145750507631
 10
2.924853726690837
 20
1.815916373098105
 10
3.5554381358431844
 20
1.3482431015796408
 10
4.228826105392018
 20
0.9446298852131463
 10
4.938532541079282
 20
0.6089637399097114
 10
5.677722581964303
 20
0.3444773141423241
 10
6.4392774238709745
 20
0.15371775677414234
 10
7.215862877363515
 20
0.0385221866224299
 10
8.0
 20
0.0
 10
312.0
 20
0.0
 10
312.7841371226365
 20
0.0385221866224299
 10
313.560722576129
 20
0.15371775677414234
 10
314.3222774180357
 20
0.3444773141423241
 10
315.06146745892073
 20
0.6089637399097114
 10
315.77117389460795
 20
0.9446298852131463
 10
316.4445618641568
 20
1.3482431015796408
 10
317.07514627330914
 20
1.815916373098105
 10
317.65685424949237
 20
2.343145750507631
 10
318.1840836269019
 20
2.924853726690827
 10
318.6517568984204
 20
3.5554381358431897
 10
319.05537011478685
 20
4.228826105392017
 10
319.3910362600903
 20
4.938532541079269
 10
319.65552268585765
 20
5.677722581964304
 10
319.84628224322586
 20
6.439277423870976
 10
319.9614778133776
 20
7.21586287736352
 10
320.0
 20
8.0
 10
320.0
 20
172.0
 10
319.9614778133776
 20
172.78413712263648
 10
319.84628224322586
 20
173.56072257612902
 10
319.65552268585765
 20
174.3222774180357
 10
319.3910362600903
 20
175.06146745892073
 10
319.05537011478685
 20
175.77117389460798
 10
318.6517568984204
 20
176.4445618641568
 10
318.1840836269019
 20
177.07514627330917
 10
317.65685424949237
 20
177.65685424949237
 10
317.07514627330914
 20
178.1840836269019
 10
316.4445618641568
 20
178.65175689842036
 10
315.77117389460795
 20
179.05537011478685
 10
315.06146745892073
 20
179.3910362600903
 10
314.3222774180357
 20
179.65552268585768
 10
313.560722576129
 20
179.84628224322586
 10
312.7841371226365
 20
179.96147781337757
 10
312.0
 20
180.0
  0
LWPOLYLINE
  5
8E
330
17
100
AcDbEntity
  8
UST_KATMAN_KESIM
100
AcDbPolyline
 90
41
 70
1
 10
33.95594713656388
 20
119.82378854625551
 10
35.61233480176212
 20
120.59911894273128
 10
36.61674008810573
 20
122.48458149779736
 10
36.370044052863435
 20
124.21145374449338
 10
34.88986784140969
 20
126.14977973568281
 10
39.48898678414096
 20
130.39647577092512
 10
44.38766519823788
 20
132.08810572687224
 10
45.65638766519824
 20
130.6784140969163
 10
47.629955947136565
 20
130.29074889867843
 10
51.68281938325991
 20
132.68722466960352
 10
53.48017621145374
 20
130.85462555066078
 10
55.84140969162996
 20
130.784140969163
 10
57.30396475770925
 20
131.9295154185022
 10
58.34361233480176
 20
134.44933920704847
 10
68.91629955947137
 20
136.28193832599118
 10
70.23788546255507
 20
138.27312775330398
 10
69.92070484581498
 20
140.74008810572687
 10
68.77533039647577
 20
141.88546255506608
 10
66.62555066079295
 20
142.59030837004406
 10
66.00881057268722
 20
145.00440528634363
 10
64.77533039647577
 20
146.97797356828193
 10
60.88105726872247
 20
149.63876651982378
 10
54.96035242290749
 20
150.37885462555067
 10
48.29955947136564
 20
148.93392070484583
 10
44.21145374449339
 20
151.64757709251103
 10
42.34361233480176
 20
152.1762114537445
 10
40.370044052863435
 20
151.78854625550662
 10
38.83700440528634
 20
149.51541850220264
 10
39.68281938325991
 20
144.89867841409693
 10
35.73568281938326
 20
141.55066079295153
 10
33.30396475770925
 20
138.37885462555067
 10
30.59030837004405
 20
132.5286343612335
 10
29.885462555066077
 20
129.1806167400881
 10
30.096916299559467
 20
127.38325991189427
 10
26.87224669603524
 20
125.60352422907489
 10
25.76211453744493
 20
123.7533039647577
 10
26.114537444933916
 20
121.60352422907488
 10
27.541850220264315
 20
120.31718061674009
 10
29.23348017621145
 20
120.0704845814978
 10
31.207048458149778
 20
120.74008810572687
 10
33.95594713656388
 20
119.82378854625551
  0
LWPOLYLINE
  5
8F
330
17
100
AcDbEntity
  8
UST_KATMAN_KESIM
100
AcDbPolyline
 90
40
 70
1
 10
123.90105540897098
 20
117.6754617414248
 10
126.05804749340369
 20
118.76385224274406
 10
127.10686015831135
 20
120.96042216358839
 10
127.79947229551452
 20
119.55540897097626
 10
129.3232189973615
 20
118.58575197889182
 10
130.98548812664907
 20
118.58575197889182
 10
132.50923482849603
 20
119.55540897097626
 10
133.73614775725594
 20
122.16754617414249
 10
133.26121372031662
 20
126.67941952506597
 10
133.9736147757256
 20
129.21240105540898
 10
133.34036939313984
 20
130.9538258575198
 10
136.56596306068602
 20
131.64643799472296
 10
139.0197889182058
 20
132.87335092348286
 10
140.46437994722956
 20
135.30738786279684
 10
139.3957783641161
 20
138.15699208443272
 10
138.84168865435356
 20
144.09366754617415
 10
136.62532981530342
 20
148.40765171503958
 10
132.05408970976254
 20
152.30606860158312
 10
128.72955145118735
 20
153.69129287598946
 10
124.93007915567283
 20
154.32453825857522
 10
121.72427440633246
 20
154.12664907651714
 10
118.00395778364117
 20
153.09762532981532
 10
114.63984168865436
 20
151.27704485488127
 10
112.04749340369393
 20
148.9617414248021
 10
109.55408970976254
 20
144.88522427440634
 10
108.76253298153034
 20
141.7981530343008
 10
108.6042216358839
 20
138.0778364116095
 10
107.53562005277045
 20
135.7031662269129
 10
108.01055408970976
 20
133.84300791556728
 10
108.9802110817942
 20
132.87335092348286
 10
111.79023746701847
 20
131.52770448548813
 10
114.65963060686016
 20
130.99340369393138
 10
114.10554089709763
 20
128.9353562005277
 10
114.85751978891821
 20
123.71108179419525
 10
115.56992084432719
 20
122.2071240105541
 10
118.122691292876
 20
121.11873350923483
 10
120.41820580474933
 20
122.38522427440634
 10
121.15039577836411
 20
119.00131926121372
 10
122.51583113456465
 20
117.91292875989446
 10
123.90105540897098
 20
117.6754617414248
  0
LWPOLYLINE
  5
90
330
17
100
AcDbEntity
  8
UST_KATMAN_KESIM
100
AcDbPolyline
 90
52
 70
1
 10
202.1111111111111
 20
118.06593406593407
 10
206.22100122100122
 20
119.6019536019536
 10
208.83638583638583
 20
121.42857142857143
 10
211.18192918192918
 20
123.98168498168499
 10
212.98778998778997
 20
127.53113553113553
 10
214.06715506715506
 20
125.66300366300366
 10
215.68620268620268
 20
124.95726495726495
 10
217.55433455433456
 20
125.33089133089133
 10
219.19413919413918
 20
126.72161172161172
 10
220.77167277167277
 20
129.21245421245422
 10
221.26984126984127
 20
131.2051282051282
 10
220.93772893772893
 20
133.52991452991455
 10
219.29792429792428
 20
135.7924297924298
 10
223.11721611721612
 20
135.4188034188034
 10
226.3968253968254
 20
136.04151404151403
 10
228.03663003663002
 20
137.14163614163613
 10
228.7216117216117
 20
138.73992673992674
 10
231.02564102564102
 20
139.8815628815629
 10
231.93894993894992
 20
142.62148962148962
 10
231.3992673992674
 20
146.98046398046398
 10
230.15384615384613
 20
149.84493284493286
 10
228.09890109890108
 20
152.1074481074481
 10
225.8986568986569
 20
153.35286935286936
 10
223.44932844932845
 20
153.93406593406593
 10
218.55067155067155
 20
153.1868131868132
 10
214.95970695970695
 20
150.50915750915752
 10
212.86324786324786
 20
145.67277167277166
 10
208.17216117216117
 20
148.62026862026863
 10
204.020757020757
 20
149.86568986568986
 10
199.1221001221001
 20
149.990231990232
 10
194.14041514041514
 20
148.66178266178267
 10
189.11721611721612
 20
145.34065934065933
 10
186.6056166056166
 20
142.45543345543345
 10
184.4884004884005
 20
138.67765567765568
 10
182.49572649572647
 20
137.51526251526252
 10
181.78998778998778
 20
135.8962148962149
 10
182.49572649572647
 20
133.57142857142856
 10
179.1123321123321
 20
132.26373626373626
 10
176.06105006105005
 20
129.04639804639805
 10
176.06105006105005
 20
126.72161172161172
 10
177.78388278388277
 20
124.998778998779
 10
181.60317460317458
 20
124.74969474969475
 10
185.25641025641025
 20
125.87057387057388
 10
186.25274725274724
 20
124.62515262515262
 10
187.7057387057387
 20
124.04395604395604
 10
190.6117216117216
 20
124.95726495726495
 10
193.43467643467642
 20
127.57264957264957
 10
201.1978021978022
 20
127.11599511599512
 10
198.85225885225884
 20
122.32112332112332
 10
198.64468864468864
 20
120.78510378510379
 10
199.74481074481074
 20
118.77167277167277
 10
202.1111111111111
 20
118.06593406593407
  0
LWPOLYLINE
  5
91
330
17
100
AcDbEntity
  8
UST_KATMAN_KESIM
100
AcDbPolyline
 90
39
 70
1
 10
281.81716833890744
 20
119.28651059085841
 10
284.6711259754738
 20
120.60646599777034
 10
287.31103678929765
 20
123.53177257525084
 10
294.51727982162765
 20
127.99108138238573
 10
295.64102564102564
 20
130.54180602006687
 10
297.9241917502787
 20
132.61092530657749
 10
297.9241917502787
 20
135.00111482720177
 10
295.8907469342252
 20
137.10590858416947
 10
294.8205128205128
 20
140.53065774804907
 10
293.03678929765886
 20
143.45596432552955
 10
290.94983277591973
 20
145.5072463768116
 10
288.0602006688963
 20
147.2196209587514
 10
285.0635451505017
 20
150.57302118171683
 10
281.67447045707917
 20
152.03567447045708
 10
276.03790412486063
 20
152.71348940914157
 10
271.07915273132664
 20
152.1783723522854
 10
266.58416945373466
 20
150.8227424749164
 10
265.0680044593088
 20
149.77034559643255
 10
264.3901895206243
 20
148.20066889632108
 10
264.5328874024526
 20
146.80936454849498
 10
265.74581939799333
 20
144.77591973244148
 10
265.6387959866221
 20
140.066889632107
 10
263.4804905239688
 20
142.082497212932
 10
261.69676700111484
 20
142.86733556298773
 10
259.6276477146042
 20
142.4035674470457
 10
258.3612040133779
 20
140.7803790412486
 10
258.07580824972126
 20
134.32329988851728
 10
258.50390189520624
 20
128.54403567447045
 10
259.6989966555184
 20
127.09921962095875
 10
261.8037904124861
 20
126.63545150501672
 10
263.3021181716834
 20
127.24191750278706
 10
265.4782608695652
 20
129.45373467112597
 10
264.5328874024526
 20
124.76254180602007
 10
266.0490523968785
 20
122.46153846153847
 10
271.3288740245262
 20
120.89186176142698
 10
274.4325529542921
 20
121.14158305462654
 10
278.24972129319957
 20
122.3901895206243
 10
279.42697881828315
 20
119.96432552954292
 10
281.81716833890744
 20
119.28651059085841
  0
LWPOLYLINE
  5
92
330
17
100
AcDbEntity
  8
UST_KATMAN_KESIM
100
AcDbPolyline
 90
33
 70
1
 10
35.065847234416154
 20
32.86040386303776
 10
37.22563652326602
 20
34.31782265144864
 10
38.279192273924494
 20
38.496927129060566
 10
43.529411764705884
 20
41.569798068481134
 10
46.180860403863036
 20
44.151009657594386
 10
47.30465320456541
 20
46.749780509218624
 10
47.374890254609305
 20
49.910447761194035
 10
46.21597892888499
 20
53.000877963125546
 10
44.28446005267779
 20
55.38893766461808
 10
48.23529411764706
 20
56.81123792800702
 10
49.72783143107989
 20
59.00614574187884
 10
49.62247585601405
 20
60.44600526777876
 10
48.49868305531167
 20
62.026338893766464
 10
48.04214223002634
 20
64.62510974539069
 10
46.95346795434592
 20
66.5566286215979
 10
44.231782265144865
 20
68.47058823529412
 10
43.0377524143986
 20
70.15627743634768
 10
40.61457418788411
 20
71.13959613696225
 10
35.100965759438104
 20
69.76997366110623
 10
31.95785776997366
 20
66.73222124670764
 10
30.272168568920105
 20
62.51799824407375
 10
30.482879719051798
 20
57.74187884108868
 10
33.01141352063213
 20
53.492537313432834
 10
31.64179104477612
 20
52.50921861281826
 10
30.763827919227392
 20
50.64793678665495
 10
30.798946444249342
 20
47.5926251097454
 10
31.64179104477612
 20
45.87181738366988
 10
32.76558384547849
 20
45.028972783143104
 10
31.325724319578576
 20
42.043898156277436
 10
30.93942054433714
 20
37.197541703248476
 10
31.99297629499561
 20
34.14223002633889
 10
33.4503950834065
 20
33.035996488147504
 10
35.065847234416154
 20
32.86040386303776
  0
LWPOLYLINE
  5
93
330
17
100
AcDbEntity
  8
UST_KATMAN_KESIM
100
AcDbPolyline
 90
86
 70
1
 10
125.49828571428571
 20
32.33828571428569
 10
129.07314285714284
 20
32.811428571428564
 10
132.70057142857144
 20
34.12571428571428
 10
136.90628571428573
 20
33.38971428571426
 10
138.45714285714286
 20
34.51999999999998
 10
139.0617142857143
 20
36.17599999999999
 10
141.03314285714285
 20
37.35885714285712
 10
142.66285714285715
 20
41.61714285714285
 10
142.03199999999998
 20
43.98285714285714
 10
145.10742857142856
 20
45.69142857142856
 10
148.97142857142856
 20
49.45028571428571
 10
150.02285714285713
 20
51.34285714285713
 10
150.33828571428572
 20
53.288
 10
153.01942857142856
 20
57.12571428571428
 10
153.75542857142858
 20
62.855999999999995
 10
151.86285714285714
 20
68.008
 10
148.89257142857144
 20
70.82057142857143
 10
146.10628571428572
 20
71.66171428571428
 10
144.68685714285715
 20
71.08342857142857
 10
143.55657142857143
 20
69.53257142857143
 10
143.84571428571428
 20
64.40685714285713
 10
143.2937142857143
 20
65.74742857142857
 10
141.16457142857143
 20
67.40342857142856
 10
139.272
 20
67.40342857142856
 10
137.72114285714287
 20
66.27314285714286
 10
137.0377142857143
 20
64.27542857142856
 10
137.66857142857143
 20
59.43885714285713
 10
139.29828571428573
 20
56.4422857142857
 10
141.87428571428572
 20
54.07657142857143
 10
141.61142857142858
 20
51.868571428571414
 10
138.6937142857143
 20
49.31885714285713
 10
136.22285714285715
 20
51.42171428571427
 10
133.62057142857142
 20
52.657142857142844
 10
135.09257142857143
 20
54.86514285714284
 10
135.14514285714284
 20
57.80914285714286
 10
133.43657142857143
 20
60.41142857142856
 10
131.176
 20
61.410285714285706
 10
129.02057142857143
 20
61.19999999999999
 10
126.52342857142857
 20
59.12342857142856
 10
125.78742857142856
 20
57.02057142857143
 10
126.28685714285714
 20
54.05028571428571
 10
122.0022857142857
 20
54.07657142857143
 10
122.52799999999999
 20
55.811428571428564
 10
122.37028571428571
 20
57.80914285714286
 10
121.47657142857142
 20
59.59657142857142
 10
120.08342857142857
 20
60.831999999999994
 10
117.13942857142857
 20
61.410285714285706
 10
115.40457142857143
 20
60.77942857142857
 10
113.64342857142857
 20
58.965714285714284
 10
113.01257142857142
 20
57.02057142857143
 10
113.328
 20
54.54971428571429
 10
114.69485714285715
 20
52.657142857142844
 10
112.25028571428571
 20
51.47428571428571
 10
109.67428571428572
 20
49.31885714285713
 10
106.59885714285714
 20
51.973714285714266
 10
106.38857142857142
 20
54.07657142857143
 10
108.91199999999999
 20
56.4422857142857
 10
110.54171428571428
 20
59.43885714285713
 10
111.22514285714286
 20
62.75085714285714
 10
110.752
 20
65.95771428571427
 10
109.14857142857143
 20
67.35085714285714
 10
107.09828571428571
 20
67.40342857142856
 10
104.96914285714286
 20
65.74742857142857
 10
104.36457142857142
 20
64.35428571428571
 10
104.864
 20
68.9542857142857
 10
104.28571428571428
 20
70.37371428571429
 10
102.20914285714285
 20
71.60914285714286
 10
100.63199999999999
 20
71.45142857142856
 10
98.84457142857143
 20
70.39999999999999
 10
96.50514285714286
 20
68.11314285714285
 10
94.87542857142857
 20
65.11657142857142
 10
94.24457142857142
 20
62.225142857142856
 10
94.56
 20
58.44
 10
95.71657142857143
 20
55.60114285714285
 10
97.71428571428571
 20
53.288
 10
99.13371428571428
 20
49.555428571428564
 10
103.26057142857142
 20
45.69142857142856
 10
106.38857142857142
 20
43.98285714285714
 10
105.70514285714286
 20
41.61714285714285
 10
107.38742857142857
 20
37.35885714285712
 10
109.25371428571428
 20
36.17599999999999
 10
109.85828571428571
 20
34.57257142857142
 10
111.40914285714285
 20
33.4422857142857
 10
115.61485714285715
 20
34.12571428571428
 10
119.61028571428571
 20
32.70628571428571
 10
125.49828571428571
 20
32.33828571428569
  0
LWPOLYLINE
  5
94
330
17
100
AcDbEntity
  8
UST_KATMAN_KESIM
100
AcDbPolyline
 90
54
 70
1
 10
212.15743440233237
 20
34.06997084548104
 10
213.83673469387756
 20
34.69970845481049
 10
214.86880466472303
 20
36.0466472303207
 10
214.81632653061226
 20
40.297376093294446
 10
218.9795918367347
 20
39.24781341107871
 10
220.44897959183675
 20
39.73760932944606
 10
221.48104956268222
 20
40.839650145772595
 10
222.28571428571428
 20
44.932944606414
 10
221.69096209912536
 20
46.26239067055394
 10
220.39650145772595
 20
47.31195335276968
 10
221.7259475218659
 20
49.551020408163254
 10
221.865889212828
 20
52.03498542274052
 10
220.69387755102042
 20
53.941690962099116
 10
218.24489795918367
 20
54.536443148688036
 10
216.33819241982508
 20
53.36443148688046
 10
215.37609329446065
 20
51.317784256559776
 10
214.29154518950438
 20
51.14285714285714
 10
216.33819241982508
 20
55.18367346938774
 10
217.0728862973761
 20
58.01749271137025
 10
216.932944606414
 20
61.30612244897958
 10
215.70845481049562
 20
64.52478134110787
 10
213.38192419825074
 20
67.3061224489796
 10
210.30320699708454
 20
69.1603498542274
 10
206.80466472303206
 20
69.93002915451895
 10
203.5860058309038
 20
69.65014577259475
 10
200.78717201166182
 20
68.600583090379
 10
198.40816326530611
 20
66.92128279883381
 10
196.53644314868805
 20
64.66472303206997
 10
195.38192419825074
 20
62.14577259475219
 10
195.13702623906707
 20
57.03790087463557
 10
197.83090379008746
 20
51.265306122448976
 10
196.44897959183675
 20
51.317784256559776
 10
193.96501457725947
 20
53.59183673469387
 10
191.23615160349854
 20
53.067055393586
 10
190.06413994169097
 20
51.160349854227405
 10
190.69387755102042
 20
48.25655976676384
 10
189.88921282798833
 20
47.13702623906704
 10
189.71428571428572
 20
45.42274052478135
 10
190.30903790087464
 20
44.0932944606414
 10
191.93586005830903
 20
42.676384839650154
 10
195.48688046647231
 20
41.29446064139941
 10
194.64723032069972
 20
39.0204081632653
 10
194.64723032069972
 20
37.061224489795904
 10
195.17201166180757
 20
35.59183673469386
 10
196.2740524781341
 20
34.55976676384839
 10
197.98833819241983
 20
34.17492711370261
 10
199.45772594752188
 20
34.66472303206996
 10
200.52478134110788
 20
35.80174927113703
 10
201.1545189504373
 20
37.79591836734693
 10
205.40524781341108
 20
40.61224489795919
 10
208.81632653061226
 20
37.481049562682216
 10
209.06122448979593
 20
36.01166180758017
 10
210.05830903790087
 20
34.69970845481049
 10
212.15743440233237
 20
34.06997084548104
  0
LWPOLYLINE
  5
95
330
17
100
AcDbEntity
  8
UST_KATMAN_KESIM
100
AcDbPolyline
 90
40
 70
1
 10
267.6617063492063
 20
34.08928571428572
 10
270.0228174603174
 20
34.9325396825397
 10
276.02678571428567
 20
39.45238095238096
 10
277.94940476190476
 20
40.19444444444446
 10
279.66964285714283
 20
39.62103174603175
 10
285.6061507936508
 20
35.269841269841265
 10
287.7648809523809
 20
34.291666666666686
 10
290.36210317460313
 20
34.52777777777777
 10
291.93055555555554
 20
36.53472222222223
 10
291.7956349206349
 20
39.469246031746025
 10
289.06349206349205
 20
46.04662698412699
 10
288.96230158730157
 20
47.463293650793645
 10
290.09226190476187
 20
48.99801587301587
 10
295.9781746031746
 20
53.804563492063494
 10
296.8551587301587
 20
55.65972222222223
 10
296.65277777777777
 20
57.51488095238095
 10
295.6240079365079
 20
58.7797619047619
 10
293.9375
 20
59.420634920634924
 10
285.97718253968253
 20
58.5436507936508
 10
284.0882936507936
 20
58.98214285714286
 10
283.1607142857143
 20
60.58432539682539
 10
281.33928571428567
 20
67.43154761904762
 10
280.1081349206349
 20
69.23611111111111
 10
278.82638888888886
 20
69.91071428571429
 10
276.80257936507934
 20
69.7420634920635
 10
275.16666666666663
 20
68.20734126984127
 10
272.73809523809524
 20
60.44940476190476
 10
271.81051587301585
 20
58.914682539682545
 10
269.9553571428571
 20
58.5436507936508
 10
261.99503968253964
 20
59.454365079365076
 10
260.1736111111111
 20
58.611111111111114
 10
259.14484126984127
 20
56.97519841269842
 10
259.14484126984127
 20
55.38988095238095
 10
260.156746031746
 20
53.53472222222223
 10
267.0376984126984
 20
47.66567460317461
 10
266.90277777777777
 20
45.911706349206355
 10
264.27182539682536
 20
39.77281746031747
 10
263.9007936507936
 20
37.04067460317461
 10
265.19940476190476
 20
34.696428571428584
 10
267.6617063492063
 20
34.08928571428572
  0
LWPOLYLINE
  5
96
330
17
100
AcDbEntity
  8
UST_KATMAN_KESIM
100
AcDbPolyline
 90
32
 70
1
 10
29.95747552837506
 20
127.30630079774332
 10
29.110302396992893
 20
128.11674733635948
 10
28.19470233364944
 20
128.6861040431875
 10
27.185619285508796
 20
129.06589600934757
 10
26.121831748210717
 20
129.24152804257002
 10
25.044220480234646
 20
129.20625070231367
 10
23.994197478277542
 20
128.9614196769808
 10
23.01211453744493
 20
128.5164436855721
 10
22.13571255439455
 20
127.88842290589209
 10
21.398671165843137
 20
127.10149182430567
 10
20.829314459015144
 20
126.18589176096222
 10
20.449522492855053
 20
125.17680871282157
 10
20.27389045963261
 20
124.1130211755235
 10
20.30916779988897
 20
123.03540990754743
 10
20.553998825221846
 20
121.98538690559032
 10
20.998974816630515
 20
121.0033039647577
 10
21.62699559631055
 20
120.12690198170733
 10
22.413926677896967
 20
119.38986059315592
 10
23.32952674124042
 20
118.82050388632791
 10
24.33860978938106
 20
118.44071192016783
 10
25.40239732667914
 20
118.26507988694539
 10
26.48000859465521
 20
118.30035722720174
 10
27.530031596612318
 20
118.54518825253462
 10
28.512114537444926
 20
118.9901642439433
 10
29.388516520495305
 20
119.61818502362333
 10
30.089204809146242
 20
120.36081972481495
 10
29.23348017621145
 20
120.0704845814978
 10
27.541850220264315
 20
120.31718061674009
 10
26.114537444933916
 20
121.60352422907488
 10
25.76211453744493
 20
123.7533039647577
 10
26.87224669603524
 20
125.60352422907489
 10
29.95747552837506
 20
127.30630079774332
  0
LWPOLYLINE
  5
97
330
17
100
AcDbEntity
  8
UST_KATMAN_KESIM
100
AcDbPolyline
 90
22
 70
1
 10
110.79136307686831
 20
146.9080680333253
 10
109.48042703874063
 20
147.25109977185676
 10
108.40281577076456
 20
147.28637711211312
 10
107.33902823346648
 20
147.11074507889066
 10
106.32994518532584
 20
146.7309531127306
 10
105.41434512198238
 20
146.1615964059026
 10
104.62741404039596
 20
145.42455501735117
 10
103.99939326071593
 20
144.5481530343008
 10
103.55441726930727
 20
143.56607009346817
 10
103.30958624397438
 20
142.5160470915111
 10
103.27430890371802
 20
141.438435823535
 10
103.44994093694046
 20
140.37464828623695
 10
103.82973290310056
 20
139.36556523809628
 10
104.39908960992855
 20
138.44996517475283
 10
105.13613099847996
 20
137.66303409316643
 10
106.01253298153034
 20
137.0350133134864
 10
106.99461592236295
 20
136.5900373220777
 10
107.83975965138217
 20
136.37903200160562
 10
108.6042216358839
 20
138.0778364116095
 10
108.76253298153034
 20
141.7981530343008
 10
109.55408970976254
 20
144.88522427440634
 10
110.79136307686831
 20
146.9080680333253
  0
LWPOLYLINE
  5
98
330
17
100
AcDbEntity
  8
UST_KATMAN_KESIM
100
AcDbPolyline
 90
24
 70
1
 10
226.39958230934883
 20
153.90663514550752
 10
226.22395027612637
 20
154.9704226828056
 10
225.84415830996628
 20
155.97950573094624
 10
225.2748016031383
 20
156.8951057942897
 10
224.53776021458688
 20
157.68203687587612
 10
223.6613582315365
 20
158.31005765555614
 10
222.67927529070388
 20
158.75503364696482
 10
221.62925228874678
 20
158.9998646722977
 10
220.55164102077072
 20
159.03514201255405
 10
219.48785348347263
 20
158.85950997933162
 10
218.478770435332
 20
158.47971801317152
 10
217.56317037198855
 20
157.91036130634353
 10
216.77623929040212
 20
157.17331991779213
 10
216.14821851072207
 20
156.29691793474174
 10
215.70324251931342
 20
155.31483499390913
 10
215.45841149398055
 20
154.26481199195203
 10
215.42313415372416
 20
153.18720072397593
 10
215.59876618694662
 20
152.12341318667788
 10
215.92621685036374
 20
151.2298498553698
 10
218.55067155067155
 20
153.1868131868132
 10
223.44932844932845
 20
153.93406593406593
 10
225.8986568986569
 20
153.35286935286936
 10
226.38858578282873
 20
153.07555111654568
 10
226.39958230934883
 20
153.90663514550752
  0
LWPOLYLINE
  5
99
330
17
100
AcDbEntity
  8
UST_KATMAN_KESIM
100
AcDbPolyline
 90
24
 70
1
 10
287.1626945348915
 20
152.39539168122286
 10
286.987062501669
 20
153.45917921852094
 10
286.607270535509
 20
154.46826226666158
 10
286.037913828681
 20
155.38386233000503
 10
285.3008724401295
 20
156.17079341159146
 10
284.42447045707917
 20
156.7988141912715
 10
283.4423875162466
 20
157.24379018268016
 10
282.39236451428945
 20
157.48862120801303
 10
281.67447045707917
 20
157.53567447045708
 10
280.60147368599047
 20
157.42999351267486
 10
279.56971157907117
 20
157.11701189926916
 10
278.92447045707917
 20
156.7988141912715
 10
278.0480684740288
 20
156.17079341159146
 10
277.31102708547735
 20
155.38386233000506
 10
276.74167037864936
 20
154.46826226666158
 10
276.3618784124893
 20
153.45917921852094
 10
276.2154731604722
 20
152.69213617068198
 10
281.67447045707917
 20
152.03567447045708
 10
285.0635451505017
 20
150.57302118171683
 10
286.3458312597274
 20
149.13808196424998
 10
286.7558078858912
 20
149.93091559244908
 10
286.987062501669
 20
150.61216972239322
 10
287.12741719463514
 20
151.3177804132468
 10
287.1626945348915
 20
152.39539168122286
  0
LWPOLYLINE
  5
9A
330
17
100
AcDbEntity
  8
UST_KATMAN_KESIM
100
AcDbPolyline
 90
23
 70
1
 10
30.560701755846043
 20
63.2393312113886
 10
29.409882947963094
 20
63.13619788330645
 10
28.378120841043806
 20
62.823216269900755
 10
27.427243437443988
 20
62.314961708752676
 10
26.593792422525787
 20
61.63096613761469
 10
25.9097968513878
 20
60.797515122696495
 10
25.40154229023972
 20
59.84663771909668
 10
25.08856067683403
 20
58.81487561217739
 10
24.982879719051798
 20
57.74187884108868
 10
25.088560676834028
 20
56.66888206999998
 10
25.401542290239718
 20
55.63711996308069
 10
25.9097968513878
 20
54.68624255948086
 10
26.593792422525784
 20
53.85279154456266
 10
27.42724343744398
 20
53.16879597342468
 10
28.378120841043803
 20
52.6605414122766
 10
29.40988294796309
 20
52.34755979887092
 10
30.482879719051798
 20
52.24187884108868
 10
31.566730680789966
 20
52.35009064116761
 10
31.64179104477612
 20
52.50921861281826
 10
33.01141352063213
 20
53.492537313432834
 10
30.482879719051798
 20
57.74187884108868
 10
30.272168568920105
 20
62.51799824407375
 10
30.560701755846043
 20
63.2393312113886
  0
LWPOLYLINE
  5
9B
330
17
100
AcDbEntity
  8
UST_KATMAN_KESIM
100
AcDbPolyline
 90
23
 70
1
 10
96.22146124769583
 20
67.5915347365467
 10
95.01023604155378
 20
67.89703797532084
 10
93.93262477357771
 20
67.9323153155772
 10
92.86883723627963
 20
67.75668328235476
 10
91.859754188139
 20
67.37689131619467
 10
90.94415412479553
 20
66.80753460936667
 10
90.15722304320911
 20
66.07049322081527
 10
89.52920226352909
 20
65.19409123776488
 10
89.08422627212042
 20
64.21200829693227
 10
88.83939524678753
 20
63.16198529497517
 10
88.80411790653118
 20
62.0843740269991
 10
88.97974993975362
 20
61.02058648970102
 10
89.35954190591372
 20
60.01150344156038
 10
89.9288986127417
 20
59.09590337821692
 10
90.66594000129311
 20
58.3089722966305
 10
91.5423419843435
 20
57.68095151695047
 10
92.5244249251761
 20
57.235975525541804
 10
93.9326247735777
 20
56.95586715995256
 10
95.14144867655025
 20
57.01280779392209
 10
94.56
 20
58.44
 10
94.24457142857142
 20
62.225142857142856
 10
94.87542857142857
 20
65.11657142857142
 10
96.22146124769583
 20
67.5915347365467
  0
LWPOLYLINE
  5
9C
330
17
100
AcDbEntity
  8
UST_KATMAN_KESIM
100
AcDbPolyline
 90
31
 70
1
 10
195.45845898390874
 20
52.233346625316116
 10
195.14547737050304
 20
53.265108732235404
 10
194.63722280935497
 20
54.21598613583522
 10
193.95322723821698
 20
55.04943715075342
 10
193.11977622329877
 20
55.733432721891404
 10
192.16889881969897
 20
56.24168728303948
 10
191.13713671277966
 20
56.55466889644518
 10
190.06413994169097
 20
56.660349854227405
 10
188.99114317060227
 20
56.55466889644518
 10
187.95938106368297
 20
56.24168728303948
 10
187.00850366008316
 20
55.733432721891404
 10
186.17505264516495
 20
55.04943715075342
 10
185.49105707402697
 20
54.21598613583522
 10
184.9828025128789
 20
53.265108732235404
 10
184.6698208994732
 20
52.233346625316116
 10
184.56413994169097
 20
51.160349854227405
 10
184.6698208994732
 20
50.08735308313871
 10
184.9828025128789
 20
49.055590976219406
 10
185.30100022087655
 20
48.410349854227405
 10
185.9290210005566
 20
47.53394787117702
 10
186.43773795864058
 20
47.025230913093026
 10
187.31413994169097
 20
46.39721013341298
 10
187.95938106368297
 20
46.07901242541533
 10
188.99114317060227
 20
45.76603081200963
 10
189.73961562810914
 20
45.67097368025068
 10
189.88921282798833
 20
47.13702623906704
 10
190.69387755102042
 20
48.25655976676384
 10
190.06413994169097
 20
51.160349854227405
 10
191.23615160349854
 20
53.067055393586
 10
193.96501457725947
 20
53.59183673469387
 10
195.45845898390874
 20
52.233346625316116
  0
LWPOLYLINE
  5
9D
330
17
100
AcDbEntity
  8
UST_KATMAN_KESIM
100
AcDbPolyline
 90
29
 70
1
 10
302.343382807971
 20
56.01943943298801
 10
302.0632744423818
 20
57.42763928138962
 10
301.6182984509731
 20
58.40972222222223
 10
300.74424602668466
 20
59.54880951874824
 10
299.6051587301587
 20
60.42286194303664
 10
298.27866347822254
 20
60.972314266812106
 10
296.8551587301587
 20
61.15972222222223
 10
295.78216195907
 20
61.05404126444
 10
294.42257093395415
 20
60.59252230065201
 10
293.5069708706107
 20
60.02316559382402
 10
292.72044055674735
 20
59.286552100615566
 10
293.9375
 20
59.420634920634924
 10
295.6240079365079
 20
58.7797619047619
 10
296.65277777777777
 20
57.51488095238095
 10
296.8551587301587
 20
55.65972222222223
 10
295.9781746031746
 20
53.804563492063494
 10
293.20894544400994
 20
51.54315859131299
 10
294.42257093395415
 20
50.72692214379245
 10
295.08724167099126
 20
50.45160650999915
 10
296.1372646729484
 20
50.20677548466628
 10
297.21487594092446
 20
50.171498144409895
 10
297.9281555012474
 20
50.265403180004455
 10
299.2877465263632
 20
50.72692214379245
 10
300.48156071320903
 20
51.52460328108785
 10
301.2186021017605
 20
52.311534362674266
 10
301.6182984509731
 20
52.90972222222223
 10
302.0632744423818
 20
53.89180516305484
 10
302.24947777237645
 20
54.58672545113352
 10
302.343382807971
 20
56.01943943298801
  0
LWPOLYLINE
  5
9E
330
17
100
AcDbEntity
  8
ALT_KATMAN_KESIM
100
AcDbPolyline
 90
69
 70
1
 10
652.0
 20
180.0
 10
348.0
 20
180.0
 10
347.2158628773635
 20
179.96147781337757
 10
346.439277423871
 20
179.84628224322586
 10
345.6777225819643
 20
179.65552268585768
 10
344.93853254107927
 20
179.3910362600903
 10
344.22882610539205
 20
179.05537011478685
 10
343.5554381358432
 20
178.65175689842036
 10
342.92485372669086
 20
178.1840836269019
 10
342.34314575050763
 20
177.65685424949237
 10
341.8159163730981
 20
177.07514627330917
 10
341.3482431015796
 20
176.4445618641568
 10
340.94462988521315
 20
175.77117389460798
 10
340.6089637399097
 20
175.06146745892073
 10
340.34447731414235
 20
174.3222774180357
 10
340.15371775677414
 20
173.56072257612902
 10
340.0385221866224
 20
172.78413712263648
 10
340.0
 20
172.0
 10
340.0
 20
8.0
 10
340.0385221866224
 20
7.21586287736352
 10
340.15371775677414
 20
6.439277423870976
 10
340.34447731414235
 20
5.677722581964304
 10
340.6089637399097
 20
4.938532541079269
 10
340.94462988521315
 20
4.228826105392017
 10
341.3482431015796
 20
3.5554381358431897
 10
341.8159163730981
 20
2.924853726690827
 10
342.34314575050763
 20
2.343145750507631
 10
342.92485372669086
 20
1.815916373098105
 10
343.5554381358432
 20
1.3482431015796408
 10
344.22882610539205
 20
0.9446298852131463
 10
344.93853254107927
 20
0.6089637399097114
 10
345.6777225819643
 20
0.3444773141423241
 10
346.439277423871
 20
0.15371775677414234
 10
347.2158628773635
 20
0.0385221866224299
 10
348.0
 20
0.0
 10
652.0
 20
0.0
 10
652.7841371226365
 20
0.0385221866224299
 10
653.560722576129
 20
0.15371775677414234
 10
654.3222774180357
 20
0.3444773141423241
 10
655.0614674589208
 20
0.6089637399097114
 10
655.771173894608
 20
0.9446298852131463
 10
656.4445618641569
 20
1.3482431015796408
 10
657.0751462733092
 20
1.815916373098105
 10
657.6568542494924
 20
2.343145750507631
 10
658.1840836269018
 20
2.924853726690827
 10
658.6517568984204
 20
3.5554381358431897
 10
659.0553701147869
 20
4.228826105392017
 10
659.3910362600902
 20
4.938532541079269
 10
659.6555226858577
 20
5.677722581964304
 10
659.8462822432259
 20
6.439277423870976
 10
659.9614778133775
 20
7.21586287736352
 10
660.0
 20
8.0
 10
660.0
 20
172.0
 10
659.9614778133775
 20
172.78413712263648
 10
659.8462822432259
 20
173.56072257612902
 10
659.6555226858577
 20
174.3222774180357
 10
659.3910362600902
 20
175.06146745892073
 10
659.0553701147869
 20
175.77117389460798
 10
658.6517568984204
 20
176.4445618641568
 10
658.1840836269018
 20
177.07514627330917
 10
657.6568542494924
 20
177.65685424949237
 10
657.0751462733092
 20
178.1840836269019
 10
656.4445618641569
 20
178.65175689842036
 10
655.771173894608
 20
179.05537011478685
 10
655.0614674589208
 20
179.3910362600903
 10
654.3222774180357
 20
179.65552268585768
 10
653.560722576129
 20
179.84628224322586
 10
652.7841371226365
 20
179.96147781337757
 10
652.0
 20
180.0
  0
TEXT
  5
9F
330
17
100
AcDbEntity
  8
YAZI
100
AcDbText
 10
48.0
 20
115.82378854625551
 30
0.0
 40
3.0
  1
Yunus
 11
48.0
 21
115.82378854625551
 31
0.0
100
AcDbText
  0
TEXT
  5
A0
330
17
100
AcDbEntity
  8
YAZI
100
AcDbText
 10
124.0
 20
113.6754617414248
 30
0.0
 40
3.0
  1
Denizanası
 11
124.0
 21
113.6754617414248
 31
0.0
100
AcDbText
  0
TEXT
  5
A1
330
17
100
AcDbEntity
  8
YAZI
100
AcDbText
 10
204.0
 20
114.06593406593407
 30
0.0
 40
3.0
  1
Kaplumbağa
 11
204.0
 21
114.06593406593407
 31
0.0
100
AcDbText
  0
TEXT
  5
A2
330
17
100
AcDbEntity
  8
YAZI
100
AcDbText
 10
278.0
 20
115.28651059085841
 30
0.0
 40
3.0
  1
Balık
 11
278.0
 21
115.28651059085841
 31
0.0
100
AcDbText
  0
TEXT
  5
A3
330
17
100
AcDbEntity
  8
YAZI
100
AcDbText
 10
40.0
 20
28.86040386303776
 30
0.0
 40
3.0
  1
Denizatı
 11
40.0
 21
28.86040386303776
 31
0.0
100
AcDbText
  0
TEXT
  5
A4
330
17
100
AcDbEntity
  8
YAZI
100
AcDbText
 10
124.0
 20
28.33828571428569
 30
0.0
 40
3.0
  1
Yengeç
 11
124.0
 21
28.33828571428569
 31
0.0
100
AcDbText
  0
TEXT
  5
A5
330
17
100
AcDbEntity
  8
YAZI
100
AcDbText
 10
206.0
 20
30.069970845481038
 30
0.0
 40
3.0
  1
Ahtapot
 11
206.0
 21
30.069970845481038
 31
0.0
100
AcDbText
  0
TEXT
  5
A6
330
17
100
AcDbEntity
  8
YAZI
100
AcDbText
 10
278.0
 20
30.089285714285722
 30
0.0
 40
3.0
  1
Denizyıldızı
 11
278.0
 21
30.089285714285722
 31
0.0
100
AcDbText
  0
TEXT
  5
A7
330
17
100
AcDbEntity
  8
YAZI
100
AcDbText
 10
6.0
 20
186.0
 30
0.0
 40
5.0
  1
UST KATMAN (cepli)
 11
6.0
 21
186.0
 31
0.0
100
AcDbText
  0
TEXT
  5
A8
330
17
100
AcDbEntity
  8
YAZI
100
AcDbText
 10
346.0
 20
186.0
 30
0.0
 40
5.0
  1
ALT KATMAN (duz)
 11
346.0
 21
186.0
 31
0.0
100
AcDbText
  0
ENDSEC
  0
SECTION
  2
OBJECTS
  0
DICTIONARY
  5
A
330
0
100
AcDbDictionary
281
1
  3
ACAD_COLOR
350
B
  3
ACAD_GROUP
350
C
  3
ACAD_LAYOUT
350
D
  3
ACAD_MATERIAL
350
E
  3
ACAD_MLEADERSTYLE
350
F
  3
ACAD_MLINESTYLE
350
10
  3
ACAD_PLOTSETTINGS
350
11
  3
ACAD_PLOTSTYLENAME
350
12
  3
ACAD_SCALELIST
350
14
  3
ACAD_TABLESTYLE
350
15
  3
ACAD_VISUALSTYLE
350
16
  3
EZDXF_META
350
2D
  0
DICTIONARY
  5
B
330
A
100
AcDbDictionary
281
1
  0
DICTIONARY
  5
C
330
A
100
AcDbDictionary
281
1
  0
DICTIONARY
  5
D
330
A
100
AcDbDictionary
281
1
  3
Model
350
1A
  3
Layout1
350
1E
  0
DICTIONARY
  5
E
330
A
100
AcDbDictionary
281
1
  3
ByBlock
350
1F
  3
ByLayer
350
20
  3
Global
350
21
  0
DICTIONARY
  5
F
330
A
100
AcDbDictionary
281
1
  3
Standard
350
2C
  0
DICTIONARY
  5
10
330
A
100
AcDbDictionary
281
1
  3
Standard
350
22
  0
DICTIONARY
  5
11
330
A
100
AcDbDictionary
281
1
  0
ACDBDICTIONARYWDFLT
  5
12
330
A
100
AcDbDictionary
281
1
  3
Normal
350
13
100
AcDbDictionaryWithDefault
340
13
  0
ACDBPLACEHOLDER
  5
13
330
12
  0
DICTIONARY
  5
14
330
A
100
AcDbDictionary
281
1
  0
DICTIONARY
  5
15
330
A
100
AcDbDictionary
281
1
  0
DICTIONARY
  5
16
330
A
100
AcDbDictionary
281
1
  3
2dWireframe
350
5A
  3
Basic
350
5B
  3
Brighten
350
5C
  3
ColorChange
350
5D
  3
Conceptual
350
5E
  3
Dim
350
5F
  3
EdgeColorOff
350
60
  3
Facepattern
350
61
  3
Flat
350
62
  3
FlatWithEdges
350
63
  3
Gouraud
350
64
  3
GouraudWithEdges
350
65
  3
Hidden
350
66
  3
JitterOff
350
67
  3
Linepattern
350
68
  3
Modeling
350
69
  3
OverhangOff
350
6A
  3
Realistic
350
6B
  3
Shaded
350
6C
  3
Shaded with edges
350
6D
  3
Shades of Gray
350
6E
  3
Sketchy
350
6F
  3
Thicken
350
70
  3
Wireframe
350
71
  3
X-Ray
350
72
  0
LAYOUT
  5
1A
330
D
100
AcDbPlotSettings
  1

  4
A3
  6

 40
7.5
 41
20.0
 42
7.5
 43
20.0
 44
420.0
 45
297.0
 46
0.0
 47
0.0
 48
0.0
 49
0.0
140
0.0
141
0.0
142
1.0
143
1.0
 70
1024
 72
1
 73
0
 74
5
  7

 75
16
 76
0
 77
2
 78
300
147
1.0
148
0.0
149
0.0
100
AcDbLayout
  1
Model
 70
1
 71
0
 10
0.0
 20
0.0
 11
420.0
 21
297.0
 12
0.0
 22
0.0
 32
0.0
 14
1e+20
 24
1e+20
 34
1e+20
 15
-1e+20
 25
-1e+20
 35
-1e+20
146
0.0
 13
0.0
 23
0.0
 33
0.0
 16
1.0
 26
0.0
 36
0.0
 17
0.0
 27
1.0
 37
0.0
 76
1
330
17
  0
LAYOUT
  5
1E
330
D
100
AcDbPlotSettings
  1

  4
A3
  6

 40
7.5
 41
20.0
 42
7.5
 43
20.0
 44
420.0
 45
297.0
 46
0.0
 47
0.0
 48
0.0
 49
0.0
140
0.0
141
0.0
142
1.0
143
1.0
 70
0
 72
1
 73
0
 74
5
  7

 75
16
 76
0
 77
2
 78
300
147
1.0
148
0.0
149
0.0
100
AcDbLayout
  1
Layout1
 70
1
 71
1
 10
0.0
 20
0.0
 11
420.0
 21
297.0
 12
0.0
 22
0.0
 32
0.0
 14
1e+20
 24
1e+20
 34
1e+20
 15
-1e+20
 25
-1e+20
 35
-1e+20
146
0.0
 13
0.0
 23
0.0
 33
0.0
 16
1.0
 26
0.0
 36
0.0
 17
0.0
 27
1.0
 37
0.0
 76
1
330
1B
  0
MATERIAL
  5
1F
102
{ACAD_REACTORS
330
E
102
}
330
E
100
AcDbMaterial
  1
ByBlock
  2

 70
0
 40
1.0
 71
1
 41
1.0
 91
-1023410177
 42
1.0
 72
1
  3

 73
1
 74
1
 75
1
 44
0.5
 73
0
 45
1.0
 46
1.0
 77
1
  4

 78
1
 79
1
170
1
 48
1.0
171
1
  6

172
1
173
1
174
1
140
1.0
141
1.0
175
1
  7

176
1
177
1
178
1
143
1.0
179
1
  8

270
1
271
1
272
1
145
1.0
146
1.0
273
1
  9

274
1
275
1
276
1
 42
1.0
 72
1
  3

 73
1
 74
1
 75
1
 94
63
  0
MATERIAL
  5
20
102
{ACAD_REACTORS
330
E
102
}
330
E
100
AcDbMaterial
  1
ByLayer
  2

 70
0
 40
1.0
 71
1
 41
1.0
 91
-1023410177
 42
1.0
 72
1
  3

 73
1
 74
1
 75
1
 44
0.5
 73
0
 45
1.0
 46
1.0
 77
1
  4

 78
1
 79
1
170
1
 48
1.0
171
1
  6

172
1
173
1
174
1
140
1.0
141
1.0
175
1
  7

176
1
177
1
178
1
143
1.0
179
1
  8

270
1
271
1
272
1
145
1.0
146
1.0
273
1
  9

274
1
275
1
276
1
 42
1.0
 72
1
  3

 73
1
 74
1
 75
1
 94
63
  0
MATERIAL
  5
21
102
{ACAD_REACTORS
330
E
102
}
330
E
100
AcDbMaterial
  1
Global
  2

 70
0
 40
1.0
 71
1
 41
1.0
 91
-1023410177
 42
1.0
 72
1
  3

 73
1
 74
1
 75
1
 44
0.5
 73
0
 45
1.0
 46
1.0
 77
1
  4

 78
1
 79
1
170
1
 48
1.0
171
1
  6

172
1
173
1
174
1
140
1.0
141
1.0
175
1
  7

176
1
177
1
178
1
143
1.0
179
1
  8

270
1
271
1
272
1
145
1.0
146
1.0
273
1
  9

274
1
275
1
276
1
 42
1.0
 72
1
  3

 73
1
 74
1
 75
1
 94
63
  0
MLINESTYLE
  5
22
102
{ACAD_REACTORS
330
10
102
}
330
10
100
AcDbMlineStyle
  2
Standard
 70
0
  3

 62
256
 51
90.0
 52
90.0
 71
2
 49
0.5
 62
256
  6
BYLAYER
 49
-0.5
 62
256
  6
BYLAYER
  0
MLEADERSTYLE
  5
2C
102
{ACAD_REACTORS
330
F
102
}
330
F
100
AcDbMLeaderStyle
179
2
170
2
171
1
172
0
 90
2
 40
0.0
 41
0.0
173
1
 91
-1056964608
 92
-2
290
1
 42
2.0
291
1
 43
8.0
  3
Standard
 44
4.0
300

342
29
174
1
175
1
176
0
178
1
 93
-1056964608
 45
4.0
292
0
297
0
 46
4.0
 94
-1056964608
 47
1.0
 49
1.0
140
1.0
294
1
141
0.0
177
0
142
1.0
295
0
296
0
143
3.75
271
0
272
9
273
9
  0
DICTIONARY
  5
2D
330
A
100
AcDbDictionary
280
1
281
1
  3
CREATED_BY_EZDXF
350
2E
  3
WRITTEN_BY_EZDXF
350
AB
  0
DICTIONARYVAR
  5
2E
330
2D
100
DictionaryVariables
280
0
  1
1.4.4 @ 2026-08-03T13:47:22.562434+00:00
  0
VISUALSTYLE
  5
5A
102
{ACAD_REACTORS
330
16
102
}
330
16
100
AcDbVisualStyle
  2
2dWireframe
 70
4
 90
0
 40
0.6
 62
7
290
0
291
0
  0
VISUALSTYLE
  5
5B
102
{ACAD_REACTORS
330
16
102
}
330
16
100
AcDbVisualStyle
  2
Basic
 70
7
 90
1
 40
0.6
 62
7
290
0
291
1
  0
VISUALSTYLE
  5
5C
102
{ACAD_REACTORS
330
16
102
}
330
16
100
AcDbVisualStyle
  2
Brighten
 70
12
 90
2
 40
0.6
 62
7
290
0
291
1
  0
VISUALSTYLE
  5
5D
102
{ACAD_REACTORS
330
16
102
}
330
16
100
AcDbVisualStyle
  2
ColorChange
 70
16
 90
2
 40
0.6
 62
8
290
0
291
1
  0
VISUALSTYLE
  5
5E
102
{ACAD_REACTORS
330
16
102
}
330
16
100
AcDbVisualStyle
  2
Conceptual
 70
9
 90
3
 40
0.6
 62
7
290
0
291
0
  0
VISUALSTYLE
  5
5F
102
{ACAD_REACTORS
330
16
102
}
330
16
100
AcDbVisualStyle
  2
Dim
 70
11
 90
2
 40
0.6
 62
7
290
0
291
1
  0
VISUALSTYLE
  5
60
102
{ACAD_REACTORS
330
16
102
}
330
16
100
AcDbVisualStyle
  2
EdgeColorOff
 70
22
 90
2
 40
0.6
 62
7
290
0
291
1
  0
VISUALSTYLE
  5
61
102
{ACAD_REACTORS
330
16
102
}
330
16
100
AcDbVisualStyle
  2
Facepattern
 70
15
 90
2
 40
0.6
 62
7
290
0
291
1
  0
VISUALSTYLE
  5
62
102
{ACAD_REACTORS
330
16
102
}
330
16
100
AcDbVisualStyle
  2
Flat
 70
0
 90
2
 40
0.6
 62
7
290
0
291
1
  0
VISUALSTYLE
  5
63
102
{ACAD_REACTORS
330
16
102
}
330
16
100
AcDbVisualStyle
  2
FlatWithEdges
 70
1
 90
2
 40
0.6
 62
7
290
0
291
1
  0
VISUALSTYLE
  5
64
102
{ACAD_REACTORS
330
16
102
}
330
16
100
AcDbVisualStyle
  2
Gouraud
 70
2
 90
2
 40
0.6
 62
7
290
0
291
1
  0
VISUALSTYLE
  5
65
102
{ACAD_REACTORS
330
16
102
}
330
16
100
AcDbVisualStyle
  2
GouraudWithEdges
 70
3
 90
2
 40
0.6
 62
7
290
0
291
1
  0
VISUALSTYLE
  5
66
102
{ACAD_REACTORS
330
16
102
}
330
16
100
AcDbVisualStyle
  2
Hidden
 70
6
 90
1
 40
0.6
 62
7
290
0
291
0
  0
VISUALSTYLE
  5
67
102
{ACAD_REACTORS
330
16
102
}
330
16
100
AcDbVisualStyle
  2
JitterOff
 70
20
 90
2
 40
0.6
 62
7
290
0
291
1
  0
VISUALSTYLE
  5
68
102
{ACAD_REACTORS
330
16
102
}
330
16
100
AcDbVisualStyle
  2
Linepattern
 70
14
 90
2
 40
0.6
 62
7
290
0
291
1
  0
VISUALSTYLE
  5
69
102
{ACAD_REACTORS
330
16
102
}
330
16
100
AcDbVisualStyle
  2
Modeling
 70
10
 90
2
 40
0.6
 62
7
290
0
291
0
  0
VISUALSTYLE
  5
6A
102
{ACAD_REACTORS
330
16
102
}
330
16
100
AcDbVisualStyle
  2
OverhangOff
 70
21
 90
2
 40
0.6
 62
7
290
0
291
1
  0
VISUALSTYLE
  5
6B
102
{ACAD_REACTORS
330
16
102
}
330
16
100
AcDbVisualStyle
  2
Realistic
 70
8
 90
2
 40
0.6
 62
7
290
0
291
0
  0
VISUALSTYLE
  5
6C
102
{ACAD_REACTORS
330
16
102
}
330
16
100
AcDbVisualStyle
  2
Shaded
 70
27
 90
2
 40
0.6
 62
7
290
0
291
0
  0
VISUALSTYLE
  5
6D
102
{ACAD_REACTORS
330
16
102
}
330
16
100
AcDbVisualStyle
  2
Shaded with edges
 70
26
 90
2
 40
0.6
 62
7
290
0
291
0
  0
VISUALSTYLE
  5
6E
102
{ACAD_REACTORS
330
16
102
}
330
16
100
AcDbVisualStyle
  2
Shades of Gray
 70
23
 90
2
 40
0.6
 62
7
290
0
291
0
  0
VISUALSTYLE
  5
6F
102
{ACAD_REACTORS
330
16
102
}
330
16
100
AcDbVisualStyle
  2
Sketchy
 70
24
 90
1
 40
0.6
 62
7
290
0
291
0
  0
VISUALSTYLE
  5
70
102
{ACAD_REACTORS
330
16
102
}
330
16
100
AcDbVisualStyle
  2
Thicken
 70
13
 90
2
 40
0.6
 62
7
290
0
291
1
  0
VISUALSTYLE
  5
71
102
{ACAD_REACTORS
330
16
102
}
330
16
100
AcDbVisualStyle
  2
Wireframe
 70
5
 90
0
 40
0.6
 62
7
290
0
291
0
  0
VISUALSTYLE
  5
72
102
{ACAD_REACTORS
330
16
102
}
330
16
100
AcDbVisualStyle
  2
X-Ray
 70
25
 90
2
 40
0.5
 62
7
290
0
291
0
  0
DICTIONARYVAR
  5
AB
330
2D
100
DictionaryVariables
280
0
  1
1.4.4 @ 2026-08-03T13:47:22.571228+00:00
  0
ENDSEC
  0
EOF
